<svg width="256" height="256" version="1.1" xmlns="http://www.w3.org/2000/svg" desc="Created with imagetracer.js version 1.2.6" ><path fill="rgb(252,252,252)" stroke="rgb(252,252,252)" stroke-width="1" opacity="0.9333333333333333" d="M 125.8 64 Q 126.2 65 128.3 64.5 L 129.8 64 L 131.3 64.5 L 132 64.3 L 131.5 65.3 L 133.5 67.8 L 134 69.3 Q 133 69.8 134 70.3 L 134 79.3 L 134.8 79.5 Q 135.3 78.5 135.8 79.5 L 137.5 79 L 137.5 80 L 140.3 80 Q 140.8 81 141.3 80 Q 142.4 79.6 142 80.8 L 142.5 80.8 L 142.8 80 L 144 80.8 L 143.8 81.5 L 146.8 82.5 L 147.3 82 L 147.8 82.5 L 148.5 82.3 L 148.5 83 L 150 83 L 150 84 L 152 84 L 152 84.8 L 154 84.8 L 153.5 85.3 L 154.8 86.5 L 157.8 88.5 L 158.3 88 L 159.3 89 L 160 88.8 L 159.5 90 Q 160.7 89.7 161.3 91 L 162 90.8 L 161.5 91.3 L 165.3 95 L 166 94.8 L 166.8 97 L 167 96 L 168 96.3 L 167 97.3 L 167.3 97.5 L 168 97.5 Q 167.4 98.8 168.8 98.5 L 169.8 98 L 169.8 98.5 L 168.5 99.3 L 170 100.3 L 170.8 102.5 L 171.5 102.3 L 171 103.3 L 174 108.3 L 174.5 110.5 Q 175.8 109.9 175.5 111.3 L 176 112.3 L 175.5 113.3 L 176.5 115.3 L 176.5 116.8 L 177.3 117.5 L 178 117.3 L 177 118.3 L 177.5 118.8 L 177.3 119.5 Q 178.4 119.1 178 120.3 Q 177.1 120.7 177.5 122 L 186.8 122 L 188.3 122.5 L 189 122.3 Q 188.6 123.4 189.8 123 L 192 125.8 L 192 129.8 L 191 132 L 189.5 132.8 L 189.3 134 L 188.8 133 L 187.3 134 Q 186.8 133 186.3 134 L 177.8 134 Q 177.4 133.9 177.5 135.3 L 177.8 136 Q 176.4 135.6 177 137.3 L 177.5 137.8 L 176.5 138.8 Q 177.5 139.3 176.5 139.8 L 175 144.3 Q 176.2 145 174.5 145.8 L 173.5 147.8 L 174 149 L 173 149.3 L 174 149.8 L 172.5 150 L 172 151.3 L 172 152.8 L 169.5 155.3 L 169.5 156.5 Q 168.2 155.9 168.5 157.3 L 167 158.8 Q 168.1 159.4 166.8 160 L 165.5 160.8 L 165.3 162 L 164.8 161.5 L 163 163.3 L 163.3 164 L 162.8 163.5 L 161 165.3 L 161.3 166 Q 160.6 164.9 160 166.3 L 159.8 167 L 159 166.8 L 159.5 167.8 L 158.8 167.5 L 158.3 168 L 157.5 168.3 L 157.8 169 L 156.8 168.5 L 153.8 171 L 150.3 172.5 L 149.3 173.5 L 148.5 173.3 Q 148.9 174.7 146.8 174 L 145.5 174.8 L 145.8 175.5 L 145.3 175 L 144.3 176 L 144 175.8 L 144.3 175 Q 143.1 174.6 143.5 175.8 L 142.8 175.5 L 139.8 176.5 L 137.5 176.5 L 137.3 177.5 L 135.8 177 Q 135.3 177.9 134 177.5 L 134 185.8 L 133.5 187.3 L 134 187.8 L 133.5 188.3 L 133.8 189 L 133 188.8 L 131.3 191 L 129.3 192 L 127.8 191.5 L 127.3 192 L 125.8 191.5 Q 124.1 192.1 124.5 190.8 L 123 190 L 123 189 L 122 188.8 L 122 178.3 L 121.3 178 L 119.8 177 L 118.3 177.5 L 117.5 177.3 L 117.3 178 L 116.8 177 L 116 177.3 Q 116.7 175.2 114.3 176 Q 113.8 175 113.3 176 L 111.8 175 L 110.3 175 L 109.3 174 L 108.3 174 L 106.8 173 L 105 173 Q 105.6 171.7 104.3 172 L 103.8 171.5 L 103.3 172 L 102.8 171.5 L 102 171.8 L 102.5 171.3 L 101.3 170 L 100 170 Q 100.6 168.7 99.3 169 L 98.8 168.5 L 98 168.8 Q 99.1 168.1 97.8 167.5 L 96.8 168 L 96.8 167 Q 95.6 167.4 96 166.3 L 95.3 165.5 L 94.5 165.8 Q 95.6 165.1 94.3 164.5 L 92.5 164 Q 92.8 162.6 91.3 162 Q 89.9 162.4 90.5 160.8 L 88.8 159.5 L 88 159.8 L 88.5 158.8 L 84 152.3 L 84 151.3 L 82.5 149.8 Q 83.5 149.3 82.5 148.8 Q 82.9 147.6 81.8 148 L 82 147.3 L 81.5 146.8 L 81.5 146 L 80.5 145.8 L 80.5 143.3 L 79 139.8 L 79.3 139 L 78 138.3 L 78.5 137.8 L 78.5 134 L 69.3 134 L 68.8 133.5 L 67.8 134 Q 67.3 133.1 66 133.5 L 66 132.3 L 64 130.3 L 64 126.3 L 65.8 123.5 L 66.5 123.3 L 66 122.3 L 66.8 122.5 L 67.3 122 L 67.8 122.5 L 68.8 122 Q 69.3 123 69.8 122 L 78.3 122 Q 78.8 121.9 78.5 119.3 Q 79.4 118.9 79 117.3 L 78 116.3 L 78.3 116 L 79.3 116.5 L 79 115.8 L 81 111.3 Q 80 110.8 81 110.3 L 81 109 Q 82.5 109.6 82 107.8 L 82.5 107.3 L 82.3 106.5 Q 83.6 106.9 83 105.3 L 85 102.8 L 84.8 102 L 85.5 102 L 85.5 100.5 Q 86.8 101.1 86.5 99.8 Q 87.5 99.3 86.5 98.8 L 87.3 98 Q 88.4 98.4 88 97.3 L 89.5 96.5 L 89.5 95.8 L 92 93.3 L 92 92.5 L 94.3 91.5 L 98.5 87.8 Q 98.1 86.6 99.3 87 L 100.8 86.5 L 103.3 84.5 L 107.5 82.8 L 107.3 82 L 108.8 82.5 L 110.8 81 L 111.5 81.3 L 111.8 80.5 L 112.3 81 L 112.8 80.5 L 113.5 80.8 L 113.8 80 L 114.3 80.5 L 115.8 80 L 117.3 80 L 118.8 79 L 119.3 79.5 L 119.8 79 L 120.5 79.3 L 121.3 78 L 121 78.8 L 121.8 79.5 L 122 68.8 L 122.5 67.8 Q 121.4 67.1 122.8 66.5 L 124 65.8 L 124.3 64.5 Q 125 65.7 125.8 64 Z M 124 91 L 123 92 L 121 91 L 122 92 L 121 92 L 120 92 L 119 92 L 118 92 L 115 93 Q 114 94 114 93 L 114 94 L 113 94 L 112 94 L 112 95 L 111 95 L 110 95 L 110 96 L 109 96 L 106 98 L 104 99 L 104 100 Q 102 100 102 101 Q 102 102 101 102 L 98 105 Q 98 107 97 106 L 98 107 L 97 107 L 96 108 Q 97 109 95 109 L 96 110 L 95 110 L 93 113 L 94 115 L 92 116 Q 92 118 92 119 Q 90 120 92 120 L 91 121 L 92 122 L 91 122 L 91 126 L 90 127 Q 91 128 90 128 L 91 130 Q 90 131 91 133 L 92 135 Q 91 135 92 136 L 91 136 L 91 136 Q 93 137 92 138 L 92 139 Q 91 140 93 140 L 93 141 L 93 142 L 94 143 Q 93 144 94 144 Q 94 145 95 145 L 95 146 L 97 149 L 100 153 Q 100 154 101 154 Q 102 155 102 156 L 103 156 Q 105 159 109 161 Q 109 162 110 161 L 110 162 L 113 163 L 114 163 L 115 163 L 115 163 L 116 164 Q 118 164 118 165 L 123 165 L 123 165 L 123 166 Q 124 165 124 166 Q 125 165 127 165 L 129 166 L 129 165 L 130 166 L 130 165 Q 132 165 132 166 L 138 165 L 138 164 Q 140 165 140 163 L 141 164 L 146 162 L 147 160 L 148 160 L 152 158 L 152 157 L 153 156 L 157 152 Q 158 152 158 151 L 159 150 Q 158 150 159 149 L 158 148 L 159 148 L 159 149 L 161 147 L 160 146 L 161 146 Q 161 144 162 145 L 163 143 Q 164 142 163 142 L 164 142 L 164 140 L 165 138 Q 165 137 164 136 L 165 136 L 165 135 L 165 134 L 166 132 L 165 131 Q 166 131 165 130 L 166 130 L 166 129 L 166 129 L 166 126 L 165 126 L 166 124 Q 165 124 166 123 Q 166 122 165 122 L 165 121 L 164 120 L 165 120 L 164 118 L 164 116 L 163 115 L 163 114 L 160 108 L 158 108 L 159 107 L 158 106 L 159 106 Q 158 105 157 105 L 157 104 L 156 102 L 154 101 Q 153 101 153 100 L 152 99 L 151 100 Q 150 99 151 98 L 150 98 L 149 98 L 148 98 L 148 96 L 146 96 Q 145 94 145 96 L 145 95 Q 143 95 144 94 L 143 94 L 142 94 L 142 93 L 141 94 L 140 93 L 139 93 L 139 92 L 136 92 Q 136 91 135 92 Q 134 92 135 91 L 133 91 Q 133 92 132 91 Q 131 91 132 92 L 131 92 Q 131 90 129 91 Q 129 90 128 91 L 127 91 L 126 91 L 124 91 Z " /><path fill="rgb(252,252,252)" stroke="rgb(252,252,252)" stroke-width="1" opacity="0.9333333333333333" d="M 127.3 107.5 L 128.8 108 Q 129.3 107 129.8 108 L 133.3 108.5 L 133.8 108 Q 134.5 109.8 135.3 108.5 L 136 108.8 L 135.8 109.5 L 137.8 110 L 138.8 111 L 139.5 110.8 L 140.8 112.5 L 144 114.8 L 143.5 115.3 L 145.3 117 L 146 116.8 L 145.5 117.8 L 147 119.8 Q 146.7 122 148 122.8 L 148 125.8 L 149 128.3 L 148 130.3 L 148 132.8 L 147 134.8 L 147.5 136 Q 146.2 135.4 146.5 136.8 L 145 139.3 L 145.3 140 Q 143.6 139.4 144 140.8 L 143.5 142 Q 142.1 141.8 141.5 143.3 L 141.8 144 L 140.3 144 L 135.3 147.5 Q 134.8 146.5 134.3 147.5 L 133.3 148 Q 132.8 147 132.3 148 Q 129.5 147.5 128.3 148.5 L 127.8 148 L 123.3 148 L 122.8 147.5 L 122.3 148 Q 121.5 146.3 120.8 147.5 Q 119.6 147.9 120 146.8 L 119 146.8 Q 119.4 145.6 118.3 146 L 117.3 145.5 L 116 146 L 116 144 L 114.8 144 L 110.8 139.5 L 110 139.3 Q 111 138.8 110 138.3 L 109.8 137 L 109 137.3 L 109.5 136 Q 108 136.6 108.5 134.8 L 108 133.8 Q 109 133.3 108 132.8 L 108 128.8 L 107.5 128.3 L 108 127.8 L 108 123.8 L 108.5 123.3 Q 107.5 122.8 108.5 122.3 L 108 121.3 L 109 121.3 L 109.5 120.3 Q 108.2 119.5 110 118.8 L 110.5 117.3 L 110.3 116.5 L 111 116.8 Q 110.6 115.6 111.8 116 L 114.3 113 L 115 113 Q 114.4 111.7 115.8 112 Q 116.2 110.8 117.5 111 Q 116.9 109.5 118.8 110 L 120.5 109.3 L 120 108.3 L 120.8 108.5 L 123.8 108.5 L 124.3 108 Q 126.6 108.6 127.3 107.5 Z " /><path fill="rgb(252,252,252)" stroke="rgb(252,252,252)" stroke-width="1" opacity="0.9333333333333333" d="M 86.3 157 Q 87.5 157.5 86.8 158 Q 85.5 157.5 86.3 157 Z " /><path fill="rgb(0,0,0)" stroke="rgb(0,0,0)" stroke-width="1" opacity="0" d="M 0 0 L 256 0 L 256 256 L 0 256 L 0 0 Z M 126 64 Q 125 66 124 65 L 124 66 L 123 67 Q 121 67 123 68 L 122 69 L 122 79 L 122 80 L 121 79 L 121 79 L 120 79 L 119 80 L 119 79 L 117 80 L 116 80 L 114 81 L 114 80 L 114 81 L 113 81 L 112 81 L 112 81 L 112 81 L 111 81 L 110 82 Q 107 82 105 84 L 104 84 L 99 87 Q 98 87 99 88 L 94 92 L 92 93 L 92 93 L 90 96 L 90 97 L 88 97 Q 88 98 87 98 L 88 99 L 87 100 Q 87 101 86 101 L 86 102 L 85 102 L 85 103 L 83 105 Q 84 107 82 107 L 83 107 L 82 108 Q 83 110 81 109 L 81 110 Q 80 111 81 111 Q 80 112 80 114 L 79 115 L 80 116 L 79 117 L 79 117 Q 79 119 79 119 Q 79 122 78 122 L 70 122 Q 69 123 69 122 L 68 123 L 67 122 L 67 123 L 66 122 L 67 123 L 66 124 L 64 126 L 64 130 L 66 132 L 66 134 L 68 134 Q 69 133 69 134 L 79 134 L 79 138 Q 80 138 79 139 L 79 139 L 79 140 L 81 143 L 81 146 L 82 146 L 82 147 L 82 147 L 82 148 Q 83 148 83 149 Q 84 149 83 150 L 84 151 L 84 152 L 88 158 L 89 159 L 91 161 Q 90 162 91 162 Q 93 163 93 164 L 94 165 L 96 166 L 96 167 Q 98 167 99 169 Q 101 169 100 170 L 101 170 L 103 172 Q 104 171 104 172 Q 106 172 105 173 L 107 173 L 108 174 L 109 174 L 110 175 L 112 175 L 113 176 Q 114 175 114 176 Q 117 175 116 177 L 117 177 L 117 178 L 118 177 L 118 178 L 120 177 Q 121 178 121 177 L 121 178 L 122 178 L 122 189 L 123 189 L 123 190 L 125 191 Q 124 192 126 192 L 127 192 L 128 192 L 129 192 L 131 191 L 133 189 Q 135 188 134 187 L 134 186 L 134 178 Q 135 178 136 177 L 137 178 L 138 177 L 140 177 L 142 176 L 143 176 L 144 175 L 145 176 L 147 174 Q 149 175 149 173 L 149 174 L 150 173 L 154 171 L 157 169 L 158 168 L 159 167 L 160 167 L 160 166 L 165 162 L 165 162 L 166 161 L 167 160 Q 168 159 167 159 L 169 157 Q 168 156 170 157 L 170 155 L 172 153 L 172 151 L 173 150 L 174 150 L 173 149 L 174 149 L 174 148 L 175 146 Q 176 145 175 144 L 177 140 Q 178 139 177 139 L 178 138 L 177 137 Q 176 136 178 136 L 178 135 Q 177 134 178 134 L 186 134 Q 187 133 187 134 L 189 133 L 189 134 L 190 133 L 191 132 L 192 130 L 192 126 L 190 123 Q 189 123 189 122 L 188 123 L 187 122 L 178 122 Q 177 121 178 120 Q 178 119 177 120 L 178 119 L 177 118 L 178 118 L 177 117 L 177 115 L 176 113 L 176 112 L 176 111 Q 176 110 175 111 L 174 108 L 171 103 L 172 102 L 171 103 L 170 100 L 169 100 L 169 99 Q 167 99 168 98 L 167 98 L 166 96 L 166 95 L 165 95 L 160 90 Q 159 90 160 89 L 158 88 L 158 89 L 155 87 L 153 85 L 152 85 L 152 84 L 150 84 L 150 83 L 149 83 L 149 82 L 148 83 L 147 82 L 147 83 L 144 82 L 144 81 L 143 80 L 143 81 L 142 81 Q 142 80 141 80 Q 141 81 140 80 L 138 80 L 138 79 L 136 80 Q 135 79 135 80 L 134 79 L 134 70 Q 133 70 134 69 L 132 65 L 130 65 L 131 64 L 130 64 L 128 65 Q 126 65 126 64 Z M 167 96 L 167 97 Q 168 98 168 96 L 167 96 Z " /><path fill="rgb(0,0,0)" stroke="rgb(0,0,0)" stroke-width="1" opacity="0" d="M 124.3 90.5 L 125.8 91 L 126.8 90.5 L 128.3 91 Q 128.8 90 129.3 91 Q 130.9 91.4 131.3 90.5 L 132.8 91.5 Q 133.2 90.6 134.5 91 Q 133.9 92.3 135.3 92 Q 135.8 91 136.3 92 L 138.8 92 L 139 93 L 139.8 93 L 140.5 92.8 L 140.3 93.5 L 141.8 93 L 144 94 Q 143.4 95.3 144.8 95 L 146.3 95.5 L 148 96 L 148 97.5 L 148.8 97.5 Q 149.5 96.2 150.3 98 L 153 100.3 Q 152.6 101.4 153.8 101 L 155.5 102.3 L 157 104.3 L 156.8 105 Q 158.3 104.8 158.5 105.8 L 158 106.3 L 158.5 106.8 L 158.3 107.5 L 159.3 107 L 159.3 108 Q 160.4 107.6 160 108.8 L 161.5 110.3 L 163 113.8 L 162.5 114.8 L 164 116.3 L 164 117.8 L 165 120.3 L 164.5 120.8 L 165 121.3 L 164.8 122 Q 166.1 121.6 165.5 123.3 Q 164.5 123.8 165.5 124.3 L 165 126 L 166 126 L 166 128.8 L 165.5 129.3 L 165.8 130 L 165 130.3 Q 166 130.8 165 131.3 L 165.5 132.3 L 165 133.8 L 164.5 134.8 L 165 136 L 164 136.3 Q 164.9 136.6 164.5 138.3 L 163.5 140.3 L 163.5 141.5 L 162.5 141.8 Q 163.5 142.3 162.5 142.8 L 162 145 Q 160.5 144.4 161 146.3 L 159.3 149 L 159 148 L 158 148.3 L 158.5 149.3 Q 157.5 149.8 158.5 150.3 L 157.5 151.3 Q 157.9 152.4 156.8 152 L 153.3 156 L 151.5 156.8 L 151.8 157.5 L 148.3 160 L 147.3 160 L 145.8 161.5 L 140.8 163.5 L 140 163.3 Q 140.4 164.7 138.3 164 L 137.8 164.5 L 132.3 165.5 Q 131.9 164.6 130.3 165 L 129.8 165.5 L 129.3 165 L 128.8 165.5 L 127.3 165 Q 125.2 164.7 124.3 165.5 Q 123.8 164.5 123.3 165.5 L 122.5 165.3 L 122.8 164.5 L 118.3 164.5 Q 117.9 163.6 116.3 164 L 115.3 163 L 114.5 163.3 L 114.3 162.5 L 113.3 163 L 110 161.5 L 109.8 160.5 Q 109.3 161.5 108.8 160.5 Q 105 159 102.8 156 L 102 156 Q 102.3 154.6 100.8 154 Q 99.6 154.4 100 153.3 L 96.5 149.3 L 94.5 145.8 L 94.8 145 Q 93.6 145.4 94 144.3 Q 93 143.8 94 143.3 L 93 142.3 L 92.5 140.8 L 92.8 140 Q 91.4 140.4 92 138.8 L 91.5 137.8 Q 92.7 137 91 136.3 L 92 134.8 Q 90 134.3 90.5 131.3 L 91 130.3 L 90 128.3 Q 91 127.8 90 127.3 L 90.5 126.3 L 90.5 122 L 91.5 121.8 L 91 120.5 L 92 120.3 Q 90.3 119.5 91.5 118.8 Q 92.4 117.6 92 115.5 L 93 115.3 Q 92 114.8 93 114.3 L 93 113.3 L 94.5 110 L 95.5 109.8 L 95.3 109 Q 96.6 109.4 96 107.8 Q 97.3 107.3 97 106 Q 98.3 106.6 98 105.3 L 100.8 102 Q 101.9 102.4 101.5 101.3 Q 102.1 99.7 103.5 100 L 104.3 98.5 L 105.8 98 L 108.8 95.5 L 109.8 96 L 109.8 95 L 112.8 93.5 L 113.5 93.8 L 113.8 93 Q 114.5 94.2 115.3 92.5 L 118.3 92 L 118.8 91.5 L 119.8 92 L 121.3 91 L 122.3 91 L 123.3 91.5 L 124.3 90.5 Z M 127 108 Q 127 109 124 108 L 124 109 L 121 109 L 120 108 L 121 109 L 119 110 Q 117 110 118 111 Q 116 111 116 112 Q 114 112 115 113 L 114 113 L 113 115 L 111 116 Q 111 117 110 118 L 110 119 Q 108 119 110 120 L 109 122 Q 108 123 109 123 L 108 124 L 108 128 L 108 128 L 108 129 L 108 133 Q 109 133 108 134 L 109 135 Q 108 137 110 136 L 110 138 Q 111 139 110 139 L 111 140 L 115 144 L 116 144 L 116 146 L 117 146 L 118 146 Q 119 146 119 147 L 120 147 Q 120 148 121 148 Q 121 146 122 148 L 123 148 L 123 148 L 128 148 L 128 149 Q 130 148 132 148 Q 133 147 133 148 L 134 148 Q 135 147 135 148 L 140 144 L 142 144 L 142 143 Q 142 142 144 142 L 144 141 Q 144 139 145 140 L 145 139 L 147 137 Q 146 135 148 136 L 147 135 L 148 133 L 148 130 L 149 128 L 148 126 L 148 123 L 146 117 L 144 115 L 144 115 L 141 113 L 140 111 L 139 111 L 138 110 L 136 110 L 136 109 L 135 109 Q 134 110 134 108 L 133 109 L 130 108 Q 129 107 129 108 L 127 108 Z " /></svg>