<?xml version="1.0" encoding="UTF-8"?>
<svg version="1.1" xmlns="http://www.w3.org/2000/svg" width="500" height="500">
<path d="M0 0 C0.69242463 -0.00297112 1.38484927 -0.00594224 2.09825647 -0.0090034 C4.40579793 -0.01763743 6.7132872 -0.01919409 9.02084351 -0.02069092 C10.68024302 -0.02532257 12.33964147 -0.0303477 13.9990387 -0.03573608 C18.49674202 -0.04882215 22.99443045 -0.05529675 27.49214983 -0.05974674 C30.30202337 -0.0626815 33.11189287 -0.06678691 35.92176437 -0.07125092 C44.71354167 -0.08491121 53.50530968 -0.09458701 62.29709685 -0.09845281 C72.44688619 -0.10294055 82.59654133 -0.12052771 92.74628985 -0.1494534 C100.5943942 -0.17104449 108.44246071 -0.18115558 116.29059446 -0.18249393 C120.97773427 -0.18354311 125.66474767 -0.18947592 130.35185623 -0.20731354 C134.75629877 -0.22375142 139.16051924 -0.2259707 143.56498146 -0.21717453 C145.18231996 -0.21640205 146.7996702 -0.22077454 148.41697884 -0.23063278 C150.62257231 -0.24329037 152.82737164 -0.23751018 155.03295898 -0.22705078 C156.26774302 -0.22851734 157.50252705 -0.2299839 158.77472878 -0.2314949 C162.11828166 0.16776139 163.54855018 0.75396447 165.88949585 3.14044189 C165.88949585 3.80044189 165.88949585 4.46044189 165.88949585 5.14044189 C166.54949585 5.14044189 167.20949585 5.14044189 167.88949585 5.14044189 C167.88949585 5.80044189 167.88949585 6.46044189 167.88949585 7.14044189 C168.4515271 7.37762939 169.01355835 7.61481689 169.59262085 7.85919189 C172.40843627 9.42991886 174.36905001 11.35515654 176.63949585 13.64044189 C177.4387146 14.43450439 178.23793335 15.22856689 179.06137085 16.04669189 C180.88949585 18.14044189 180.88949585 18.14044189 180.88949585 20.14044189 C181.4515271 20.37762939 182.01355835 20.61481689 182.59262085 20.85919189 C185.40843627 22.42991886 187.36905001 24.35515654 189.63949585 26.64044189 C190.83832397 27.83153564 190.83832397 27.83153564 192.06137085 29.04669189 C193.88949585 31.14044189 193.88949585 31.14044189 193.88949585 33.14044189 C194.54949585 33.14044189 195.20949585 33.14044189 195.88949585 33.14044189 C195.88949585 33.80044189 195.88949585 34.46044189 195.88949585 35.14044189 C196.4721521 35.39825439 197.05480835 35.65606689 197.65512085 35.92169189 C200.06978615 37.23878206 201.70689762 38.69132574 203.63949585 40.64044189 C204.2530896 41.24887939 204.86668335 41.85731689 205.49887085 42.48419189 C206.88949585 44.14044189 206.88949585 44.14044189 206.88949585 46.14044189 C207.54949585 46.14044189 208.20949585 46.14044189 208.88949585 46.14044189 C208.88949585 46.80044189 208.88949585 47.46044189 208.88949585 48.14044189 C209.47007751 48.39636108 210.05065918 48.65228027 210.64883423 48.91595459 C213.11133193 50.26167192 214.75512206 51.75215004 216.74008179 53.73223877 C217.48054749 54.46640015 218.22101318 55.20056152 218.98391724 55.95697021 C219.77260193 56.74970337 220.56128662 57.54243652 221.37387085 58.35919189 C222.18946472 59.17287231 223.00505859 59.98655273 223.84536743 60.82489014 C225.56582563 62.54398836 227.28376475 64.26561083 228.99935913 65.98956299 C231.63630517 68.63723824 234.28376965 71.2740572 236.9324646 73.90997314 C238.60107527 75.5799049 240.2690657 77.25045667 241.93637085 78.92169189 C242.73315247 79.71442505 243.52993408 80.5071582 244.3508606 81.32391357 C245.44264618 82.42515564 245.44264618 82.42515564 246.55648804 83.54864502 C247.20172424 84.19547241 247.84696045 84.8422998 248.51174927 85.50872803 C249.88949585 87.14044189 249.88949585 87.14044189 249.88949585 89.14044189 C250.54949585 89.14044189 251.20949585 89.14044189 251.88949585 89.14044189 C254.49881163 94.07527162 254.17420084 98.95236476 254.15692139 104.38644409 C254.1614525 105.4283444 254.16598361 106.4702447 254.17065203 107.54371774 C254.18332774 111.04035948 254.18167358 114.5368461 254.18002319 118.0335083 C254.18600657 120.53853557 254.19281167 123.043561 254.20037842 125.54858398 C254.21622951 131.65102338 254.22248782 137.75340583 254.22360317 143.85586388 C254.22455415 148.81894754 254.22866694 153.78201848 254.23500443 158.74509811 C254.25261808 172.82624881 254.26184347 186.90736904 254.26034348 200.98853083 C254.26026356 201.74748472 254.26018365 202.50643862 254.26010132 203.28839111 C254.26001956 204.04827557 254.2599378 204.80816003 254.25985356 205.59107129 C254.25904132 217.89564126 254.27816296 230.20008861 254.30637805 242.50462313 C254.33514171 255.14855201 254.34891633 267.79242119 254.3471905 280.43638361 C254.34652765 287.53100217 254.35197343 294.62549231 254.3735466 301.72008133 C254.39371826 308.39646795 254.39304914 315.07253909 254.37851334 321.74895477 C254.3764247 324.1954297 254.38112933 326.64192159 254.39323425 329.08836746 C254.40872469 332.43674042 254.39935241 335.78418416 254.38397217 339.13253784 C254.39425929 340.09316875 254.40454642 341.05379966 254.41514528 342.0435406 C254.32899573 350.5723996 252.30954948 359.47664105 246.26449585 365.82794189 C245.37890991 366.79280518 245.37890991 366.79280518 244.47543335 367.77716064 C242.88949585 369.14044189 242.88949585 369.14044189 240.88949585 369.14044189 C240.88949585 369.80044189 240.88949585 370.46044189 240.88949585 371.14044189 C234.55674856 374.85060614 229.91660752 375.71829022 222.6421814 375.64837646 C221.13356427 375.65773641 221.13356427 375.65773641 219.59447002 375.66728544 C216.23814351 375.68318811 212.88254598 375.6706214 209.5262146 375.65802002 C207.11439593 375.66344232 204.70258058 375.67056559 202.29077148 375.67926025 C196.42832774 375.69559231 190.566072 375.69322111 184.70363355 375.68160969 C179.93747608 375.67256188 175.171376 375.67135718 170.4052124 375.67570496 C169.38619466 375.67662435 169.38619466 375.67662435 168.3465907 375.67756233 C166.9663468 375.67884128 165.58610293 375.68013813 164.20585907 375.68145269 C151.27506033 375.6928483 138.34437518 375.67976084 125.41359508 375.65825123 C114.32770566 375.64038113 103.24198381 375.64348553 92.15609741 375.66192627 C79.27035293 375.68335106 66.3847079 375.69174976 53.4989481 375.67947721 C52.12389185 375.67820307 50.74883558 375.67694559 49.3737793 375.67570496 C48.69729377 375.67508785 48.02080824 375.67447075 47.32382315 375.67383495 C42.56552815 375.67038686 37.80729643 375.67619868 33.04901123 375.68562317 C26.64017271 375.69803826 20.23157583 375.68915016 13.82276535 375.66604614 C11.47179057 375.66076063 9.12078914 375.66227008 6.76982498 375.6710968 C3.5584618 375.68204155 0.34810925 375.66830039 -2.8631897 375.64837646 C-4.25581008 375.6617608 -4.25581008 375.6617608 -5.67656422 375.67541552 C-11.85625819 375.60114478 -15.7696003 374.2695152 -21.11050415 371.14044189 C-21.11050415 370.48044189 -21.11050415 369.82044189 -21.11050415 369.14044189 C-21.94581665 368.83106689 -21.94581665 368.83106689 -22.79800415 368.51544189 C-29.12829898 364.75148281 -31.11912423 359.24257783 -33.27448857 352.51593697 C-34.66956247 346.883189 -34.65784644 341.39978035 -34.61170959 335.62297058 C-34.61724399 334.31374195 -34.62277839 333.00451332 -34.62848049 331.6556111 C-34.64312138 328.05530406 -34.6331226 324.45543946 -34.61874378 320.85514724 C-34.60757258 316.95938487 -34.61959674 313.06368147 -34.62858582 309.16792297 C-34.64247829 301.54973079 -34.63499192 293.93170501 -34.61991023 286.31352084 C-34.60300184 277.43271481 -34.60626645 268.55194967 -34.61000431 259.67113251 C-34.6158755 243.82094366 -34.60174004 227.97083439 -34.57705688 212.1206665 C-34.55313425 196.7570294 -34.54605517 181.39349858 -34.55654907 166.02984619 C-34.56796993 149.27918656 -34.56987422 132.52857602 -34.55545098 115.77791697 C-34.55392521 113.99030181 -34.55240486 112.20268665 -34.55088997 110.41507149 C-34.55013215 109.53564389 -34.54937434 108.65621629 -34.54859356 107.75013937 C-34.54386008 101.56654703 -34.54569549 95.38297668 -34.54995537 89.19938469 C-34.55489259 81.65970389 -34.5488506 74.12012338 -34.52906107 66.58046549 C-34.51922012 62.73704051 -34.51404922 58.89376793 -34.52195358 55.05033493 C-34.53036044 50.87705652 -34.51537144 46.70418105 -34.4981842 42.53092957 C-34.50719927 40.72361442 -34.50719927 40.72361442 -34.51639646 38.87978786 C-34.43254219 27.66084455 -32.53011292 17.35705196 -24.98550415 8.70294189 C-23.11050415 7.14044189 -23.11050415 7.14044189 -21.11050415 7.14044189 C-21.11050415 6.48044189 -21.11050415 5.82044189 -21.11050415 5.14044189 C-19.90781734 4.48415341 -18.69797861 3.84096684 -17.48550415 3.20294189 C-16.81261353 2.84329346 -16.1397229 2.48364502 -15.44644165 2.11309814 C-10.46966558 0.04082851 -5.32627879 0.01282347 0 0 Z " fill="#FCB441" transform="translate(140.11050415039063,61.85955810546875)"/>
<path d="M0 0 C0.69242463 -0.00297112 1.38484927 -0.00594224 2.09825647 -0.0090034 C4.40579793 -0.01763743 6.7132872 -0.01919409 9.02084351 -0.02069092 C10.68024302 -0.02532257 12.33964147 -0.0303477 13.9990387 -0.03573608 C18.49674202 -0.04882215 22.99443045 -0.05529675 27.49214983 -0.05974674 C30.30202337 -0.0626815 33.11189287 -0.06678691 35.92176437 -0.07125092 C44.71354167 -0.08491121 53.50530968 -0.09458701 62.29709685 -0.09845281 C72.44688619 -0.10294055 82.59654133 -0.12052771 92.74628985 -0.1494534 C100.5943942 -0.17104449 108.44246071 -0.18115558 116.29059446 -0.18249393 C120.97773427 -0.18354311 125.66474767 -0.18947592 130.35185623 -0.20731354 C134.75629877 -0.22375142 139.16051924 -0.2259707 143.56498146 -0.21717453 C145.18231996 -0.21640205 146.7996702 -0.22077454 148.41697884 -0.23063278 C150.62257231 -0.24329037 152.82737164 -0.23751018 155.03295898 -0.22705078 C156.26774302 -0.22851734 157.50252705 -0.2299839 158.77472878 -0.2314949 C162.11828166 0.16776139 163.54855018 0.75396447 165.88949585 3.14044189 C165.88949585 3.80044189 165.88949585 4.46044189 165.88949585 5.14044189 C166.54949585 5.14044189 167.20949585 5.14044189 167.88949585 5.14044189 C167.88949585 5.80044189 167.88949585 6.46044189 167.88949585 7.14044189 C168.4515271 7.37762939 169.01355835 7.61481689 169.59262085 7.85919189 C172.40843627 9.42991886 174.36905001 11.35515654 176.63949585 13.64044189 C177.4387146 14.43450439 178.23793335 15.22856689 179.06137085 16.04669189 C180.88949585 18.14044189 180.88949585 18.14044189 180.88949585 20.14044189 C181.4515271 20.37762939 182.01355835 20.61481689 182.59262085 20.85919189 C185.40843627 22.42991886 187.36905001 24.35515654 189.63949585 26.64044189 C190.83832397 27.83153564 190.83832397 27.83153564 192.06137085 29.04669189 C193.88949585 31.14044189 193.88949585 31.14044189 193.88949585 33.14044189 C194.54949585 33.14044189 195.20949585 33.14044189 195.88949585 33.14044189 C195.88949585 33.80044189 195.88949585 34.46044189 195.88949585 35.14044189 C196.4721521 35.39825439 197.05480835 35.65606689 197.65512085 35.92169189 C200.06978615 37.23878206 201.70689762 38.69132574 203.63949585 40.64044189 C204.2530896 41.24887939 204.86668335 41.85731689 205.49887085 42.48419189 C206.88949585 44.14044189 206.88949585 44.14044189 206.88949585 46.14044189 C207.54949585 46.14044189 208.20949585 46.14044189 208.88949585 46.14044189 C208.88949585 46.80044189 208.88949585 47.46044189 208.88949585 48.14044189 C209.47007751 48.39636108 210.05065918 48.65228027 210.64883423 48.91595459 C213.11133193 50.26167192 214.75512206 51.75215004 216.74008179 53.73223877 C217.48054749 54.46640015 218.22101318 55.20056152 218.98391724 55.95697021 C219.77260193 56.74970337 220.56128662 57.54243652 221.37387085 58.35919189 C222.18946472 59.17287231 223.00505859 59.98655273 223.84536743 60.82489014 C225.56582563 62.54398836 227.28376475 64.26561083 228.99935913 65.98956299 C231.63630517 68.63723824 234.28376965 71.2740572 236.9324646 73.90997314 C238.60107527 75.5799049 240.2690657 77.25045667 241.93637085 78.92169189 C242.73315247 79.71442505 243.52993408 80.5071582 244.3508606 81.32391357 C245.44264618 82.42515564 245.44264618 82.42515564 246.55648804 83.54864502 C247.20172424 84.19547241 247.84696045 84.8422998 248.51174927 85.50872803 C249.88949585 87.14044189 249.88949585 87.14044189 249.88949585 89.14044189 C250.54949585 89.14044189 251.20949585 89.14044189 251.88949585 89.14044189 C254.49881163 94.07527162 254.17420084 98.95236476 254.15692139 104.38644409 C254.1614525 105.4283444 254.16598361 106.4702447 254.17065203 107.54371774 C254.18332774 111.04035948 254.18167358 114.5368461 254.18002319 118.0335083 C254.18600657 120.53853557 254.19281167 123.043561 254.20037842 125.54858398 C254.21622951 131.65102338 254.22248782 137.75340583 254.22360317 143.85586388 C254.22455415 148.81894754 254.22866694 153.78201848 254.23500443 158.74509811 C254.25261808 172.82624881 254.26184347 186.90736904 254.26034348 200.98853083 C254.26026356 201.74748472 254.26018365 202.50643862 254.26010132 203.28839111 C254.26001956 204.04827557 254.2599378 204.80816003 254.25985356 205.59107129 C254.25904132 217.89564126 254.27816296 230.20008861 254.30637805 242.50462313 C254.33514171 255.14855201 254.34891633 267.79242119 254.3471905 280.43638361 C254.34652765 287.53100217 254.35197343 294.62549231 254.3735466 301.72008133 C254.39371826 308.39646795 254.39304914 315.07253909 254.37851334 321.74895477 C254.3764247 324.1954297 254.38112933 326.64192159 254.39323425 329.08836746 C254.40872469 332.43674042 254.39935241 335.78418416 254.38397217 339.13253784 C254.39425929 340.09316875 254.40454642 341.05379966 254.41514528 342.0435406 C254.32899573 350.5723996 252.30954948 359.47664105 246.26449585 365.82794189 C245.37890991 366.79280518 245.37890991 366.79280518 244.47543335 367.77716064 C242.88949585 369.14044189 242.88949585 369.14044189 240.88949585 369.14044189 C240.88949585 369.80044189 240.88949585 370.46044189 240.88949585 371.14044189 C234.55674856 374.85060614 229.91660752 375.71829022 222.6421814 375.64837646 C221.13356427 375.65773641 221.13356427 375.65773641 219.59447002 375.66728544 C216.23814351 375.68318811 212.88254598 375.6706214 209.5262146 375.65802002 C207.11439593 375.66344232 204.70258058 375.67056559 202.29077148 375.67926025 C196.42832774 375.69559231 190.566072 375.69322111 184.70363355 375.68160969 C179.93747608 375.67256188 175.171376 375.67135718 170.4052124 375.67570496 C169.38619466 375.67662435 169.38619466 375.67662435 168.3465907 375.67756233 C166.9663468 375.67884128 165.58610293 375.68013813 164.20585907 375.68145269 C151.27506033 375.6928483 138.34437518 375.67976084 125.41359508 375.65825123 C114.32770566 375.64038113 103.24198381 375.64348553 92.15609741 375.66192627 C79.27035293 375.68335106 66.3847079 375.69174976 53.4989481 375.67947721 C52.12389185 375.67820307 50.74883558 375.67694559 49.3737793 375.67570496 C48.69729377 375.67508785 48.02080824 375.67447075 47.32382315 375.67383495 C42.56552815 375.67038686 37.80729643 375.67619868 33.04901123 375.68562317 C26.64017271 375.69803826 20.23157583 375.68915016 13.82276535 375.66604614 C11.47179057 375.66076063 9.12078914 375.66227008 6.76982498 375.6710968 C3.5584618 375.68204155 0.34810925 375.66830039 -2.8631897 375.64837646 C-4.25581008 375.6617608 -4.25581008 375.6617608 -5.67656422 375.67541552 C-11.85625819 375.60114478 -15.7696003 374.2695152 -21.11050415 371.14044189 C-21.11050415 370.48044189 -21.11050415 369.82044189 -21.11050415 369.14044189 C-21.94581665 368.83106689 -21.94581665 368.83106689 -22.79800415 368.51544189 C-29.12829898 364.75148281 -31.11912423 359.24257783 -33.27448857 352.51593697 C-34.66956247 346.883189 -34.65784644 341.39978035 -34.61170959 335.62297058 C-34.61724399 334.31374195 -34.62277839 333.00451332 -34.62848049 331.6556111 C-34.64312138 328.05530406 -34.6331226 324.45543946 -34.61874378 320.85514724 C-34.60757258 316.95938487 -34.61959674 313.06368147 -34.62858582 309.16792297 C-34.64247829 301.54973079 -34.63499192 293.93170501 -34.61991023 286.31352084 C-34.60300184 277.43271481 -34.60626645 268.55194967 -34.61000431 259.67113251 C-34.6158755 243.82094366 -34.60174004 227.97083439 -34.57705688 212.1206665 C-34.55313425 196.7570294 -34.54605517 181.39349858 -34.55654907 166.02984619 C-34.56796993 149.27918656 -34.56987422 132.52857602 -34.55545098 115.77791697 C-34.55392521 113.99030181 -34.55240486 112.20268665 -34.55088997 110.41507149 C-34.55013215 109.53564389 -34.54937434 108.65621629 -34.54859356 107.75013937 C-34.54386008 101.56654703 -34.54569549 95.38297668 -34.54995537 89.19938469 C-34.55489259 81.65970389 -34.5488506 74.12012338 -34.52906107 66.58046549 C-34.51922012 62.73704051 -34.51404922 58.89376793 -34.52195358 55.05033493 C-34.53036044 50.87705652 -34.51537144 46.70418105 -34.4981842 42.53092957 C-34.50719927 40.72361442 -34.50719927 40.72361442 -34.51639646 38.87978786 C-34.43254219 27.66084455 -32.53011292 17.35705196 -24.98550415 8.70294189 C-23.11050415 7.14044189 -23.11050415 7.14044189 -21.11050415 7.14044189 C-21.11050415 6.48044189 -21.11050415 5.82044189 -21.11050415 5.14044189 C-19.90781734 4.48415341 -18.69797861 3.84096684 -17.48550415 3.20294189 C-16.81261353 2.84329346 -16.1397229 2.48364502 -15.44644165 2.11309814 C-10.46966558 0.04082851 -5.32627879 0.01282347 0 0 Z M-15.11050415 105.14044189 C-15.19300415 144.92606689 -15.27550415 184.71169189 -15.36050415 225.70294189 C-15.39692017 238.27331543 -15.43333618 250.84368896 -15.47085571 263.79498291 C-15.48423203 275.04613276 -15.48423203 275.04613276 -15.49227905 286.29728699 C-15.49601123 291.31538441 -15.51102323 296.33331319 -15.5328064 301.35136414 C-15.56021442 307.74979835 -15.56847405 314.14798686 -15.56279325 320.54647434 C-15.56398139 322.89620553 -15.57193009 325.24594519 -15.58736467 327.595626 C-15.6072365 330.76786386 -15.60247393 333.93914496 -15.59152222 337.11140442 C-15.60317287 338.03235869 -15.61482353 338.95331297 -15.62682724 339.90217495 C-15.57194083 345.81011226 -14.74287509 349.3993564 -11.11050415 354.14044189 C-6.20781098 357.6640182 -1.51209865 357.56811958 4.29560852 357.52812195 C5.23501315 357.53350749 6.17441778 357.53889302 7.14228922 357.54444176 C10.28594173 357.55873423 13.42917393 357.55161433 16.57284546 357.54449463 C18.82835733 357.5501975 21.08386631 357.55716144 23.33937073 357.56529236 C29.46329863 357.58324771 35.58708344 357.5820509 41.71102977 357.57634997 C46.82300175 357.57326165 51.93494611 357.5793466 57.04691416 357.58538872 C69.79555678 357.60024351 82.54409809 357.59661386 95.29273451 357.58452541 C106.35838173 357.57459312 117.42386174 357.58753421 128.48948317 357.61145961 C139.85878374 357.63585592 151.2279844 357.64505755 162.59731871 357.63880688 C168.97750321 357.63543406 175.35754956 357.63787415 181.73771477 357.65505791 C187.7369774 357.67051034 193.73592044 357.66659006 199.73517036 357.64775276 C201.93660038 357.64406225 204.13805398 357.64718875 206.33946228 357.65763855 C209.34547753 357.67081804 212.35043004 357.65932731 215.35639954 357.64164734 C216.22683504 357.65125235 217.09727054 357.66085735 217.99408287 357.67075342 C223.76414095 357.60096323 227.24534707 356.6609772 231.88949585 353.14044189 C235.53153594 348.13712204 235.30649334 343.17726666 235.2502594 337.23165894 C235.25282745 336.24070221 235.25539551 335.24974548 235.25804138 334.22875977 C235.26300376 330.90049008 235.24644199 327.57267405 235.23007202 324.2444458 C235.22915298 321.82073671 235.22955355 319.39702682 235.23116779 316.9733181 C235.23184531 310.48036868 235.21445268 303.98758499 235.19333649 297.49467468 C235.17625682 291.40287755 235.17544741 285.31112082 235.17330933 279.21929932 C235.15756481 261.40132488 235.11568138 243.5833813 235.07699585 225.76544189 C235.01512085 185.95919189 234.95324585 146.15294189 234.88949585 105.14044189 C152.38949585 105.14044189 69.88949585 105.14044189 -15.11050415 105.14044189 Z " fill="#332A6A" transform="translate(140.11050415039063,61.85955810546875)"/>
<path d="M0 0 C1.28170074 -0.00137466 2.56340149 -0.00274933 3.88394165 -0.00416565 C5.31234764 -0.00062626 6.7407534 0.00300855 8.16915894 0.00672913 C9.66697182 0.00701107 11.16478485 0.00685312 12.66259766 0.00628662 C16.73674149 0.00599893 20.81085606 0.01189113 24.88499308 0.01886058 C29.13977823 0.02509878 33.39456401 0.02569829 37.64935303 0.02688599 C45.70996707 0.02999792 53.7705676 0.03820946 61.83117568 0.04823548 C71.00637817 0.05940088 80.18158129 0.06490814 89.35678887 0.06993091 C108.23419464 0.08039218 127.11158781 0.09798897 145.98898315 0.12025452 C146.00444435 1.28417221 146.00444435 1.28417221 146.0202179 2.47160339 C146.11835812 9.79844659 146.22089539 17.12520902 146.32832241 24.45192146 C146.38339254 28.21829045 146.43678621 31.9846674 146.48629761 35.75111389 C146.53417696 39.38864942 146.58652663 43.0260961 146.6419239 46.66352463 C146.66224116 48.04850413 146.68097106 49.4335079 146.69805717 50.81853104 C146.72233798 52.7643781 146.75288135 54.71014393 146.78366089 56.65589905 C146.79920517 57.76176361 146.81474945 58.86762817 146.83076477 60.00700378 C146.95502609 63.62026581 146.95502609 63.62026581 147.98898315 69.12025452 C93.86898315 69.12025452 39.74898315 69.12025452 -16.01101685 69.12025452 C-16.01101685 11.12025452 -16.01101685 11.12025452 -13.01101685 5.12025452 C-8.47018784 1.02243322 -6.04923563 -0.0049829 0 0 Z " fill="#25A5E6" transform="translate(141.01101684570313,80.87974548339844)"/>
<path d="M0 0 C0.70055203 -0.00438225 1.40110405 -0.00876451 2.12288493 -0.01327956 C4.48196562 -0.02668702 6.84100895 -0.03285074 9.20011902 -0.03897095 C10.88686289 -0.04687033 12.57360507 -0.05513918 14.26034546 -0.06375122 C19.80950807 -0.08998848 25.35867831 -0.10527973 30.90788269 -0.11953735 C32.81649468 -0.12489618 34.72510661 -0.13027368 36.63371849 -0.13566971 C44.57133867 -0.1573002 52.5089568 -0.17603801 60.44659901 -0.1872921 C71.83136402 -0.2035385 83.21578811 -0.23673105 94.60042459 -0.29369295 C102.60047694 -0.33235919 110.60043798 -0.3519208 118.60058135 -0.35721266 C123.38125335 -0.36087045 128.16156189 -0.37293696 132.94213295 -0.4053154 C137.43937438 -0.43533809 141.93603132 -0.44172876 146.43335152 -0.42993164 C148.08414638 -0.42971042 149.73496791 -0.43805534 151.38566971 -0.45558548 C153.63973699 -0.47822068 155.8916746 -0.47001136 158.14575195 -0.45410156 C159.4069325 -0.45741171 160.66811304 -0.46072186 161.96751118 -0.46413231 C166.16733707 0.32341457 167.62978711 1.85891357 170.26335144 5.15390015 C171.45430719 8.7267674 171.59580602 10.35970309 170.13835144 13.84140015 C167.23142653 17.42660753 164.64295788 18.99317916 160.02274323 19.53142357 C158.78758217 19.53255465 157.55242111 19.53368572 156.27983093 19.53485107 C155.58896629 19.53953105 154.89810164 19.54421102 154.18630171 19.54903281 C151.87780368 19.56097215 149.56990046 19.55153013 147.26139832 19.54208374 C145.60376642 19.54614993 143.94613724 19.55149207 142.28851318 19.55801392 C137.79061548 19.57168776 133.29292427 19.56638859 128.79502296 19.55687666 C124.08747934 19.54928043 119.37995338 19.55632557 114.67240906 19.56103516 C106.76698127 19.56649281 98.86163756 19.55930083 90.95622253 19.54501343 C81.81699812 19.52868689 72.67797449 19.5339754 63.53875494 19.55049264 C55.6914897 19.56410722 47.8442849 19.56602731 39.99701166 19.55817664 C35.31040309 19.55349997 30.62388888 19.55287511 25.93728638 19.5627861 C21.53118429 19.57145307 17.12534103 19.56543882 12.71926689 19.54810333 C11.10235969 19.54413704 9.48543071 19.54527498 7.86853218 19.55189133 C5.66101819 19.56009154 3.45433315 19.54980459 1.24687195 19.53485107 C-0.60586964 19.53315446 -0.60586964 19.53315446 -2.49604034 19.53142357 C-6.02637545 19.12014763 -7.90164851 18.25412112 -10.73664856 16.15390015 C-13.06067807 12.94452606 -13.21235547 10.03883994 -12.73664856 6.15390015 C-8.92434861 0.43545022 -6.67662285 0.02952594 0 0 Z " fill="#2E2262" transform="translate(170.7366485595703,260.8460998535156)"/>
<path d="M0 0 C0.68845023 -0.00297112 1.37690046 -0.00594224 2.08621281 -0.0090034 C4.39840441 -0.0176909 6.71054423 -0.01919869 9.02275085 -0.02069092 C10.67846284 -0.02531906 12.33417375 -0.03034371 13.98988342 -0.03573608 C18.49203077 -0.04886249 22.99416319 -0.05530551 27.49632668 -0.05974674 C30.3087123 -0.06267708 33.12109384 -0.06678181 35.9334774 -0.07125092 C44.73167633 -0.08492648 53.52986593 -0.09459285 62.32807475 -0.09845281 C72.48636434 -0.10293386 82.64451938 -0.12048372 92.80276805 -0.1494534 C100.65339093 -0.17106541 108.50397595 -0.18115683 116.35462826 -0.18249393 C121.04411214 -0.1835423 125.73346956 -0.18945696 130.42292213 -0.20731354 C134.83471796 -0.2237859 139.24629215 -0.2259538 143.65810776 -0.21717453 C145.27621618 -0.21640371 146.89433648 -0.22075285 148.51241493 -0.23063278 C150.72403515 -0.24334351 152.93486937 -0.23748088 155.14648438 -0.22705078 C156.38332128 -0.22851734 157.62015818 -0.2299839 158.89447498 -0.2314949 C163.23083229 0.24720343 166.87108843 1.44506719 169.70121765 4.89044189 C170.55860181 8.31997854 170.17480181 10.73906103 169.26371765 14.14044189 C166.5365701 16.96042646 164.8814295 18.04585999 160.97625732 18.64380646 C159.71897324 18.64531456 158.46168915 18.64682266 157.16630554 18.64837646 C156.46319024 18.65461643 155.76007494 18.66085639 155.03565311 18.66728544 C152.6855497 18.68320839 150.33648454 18.67061486 147.9863739 18.65802002 C146.2991831 18.66344148 144.61199704 18.67056428 142.92481995 18.67926025 C138.34629583 18.69749375 133.7681323 18.69042601 129.1896019 18.67774391 C124.3979724 18.66761638 119.60637376 18.67700891 114.81474304 18.68328857 C106.7680558 18.6905657 98.72151541 18.68097558 90.67485046 18.66192627 C81.37198016 18.6401574 72.06946051 18.64720872 62.7665987 18.66923189 C54.77919418 18.68738404 46.79189522 18.68994512 38.80447674 18.67947721 C34.03400614 18.67324127 29.26370036 18.67240944 24.49324036 18.68562317 C20.00827241 18.69717836 15.52375654 18.68916212 11.03883743 18.66604614 C9.39290747 18.66075726 7.74693945 18.66227592 6.10102463 18.6710968 C3.85387952 18.68202946 1.60818259 18.66831847 -0.63887024 18.64837646 C-2.52479637 18.64611431 -2.52479637 18.64611431 -4.44882202 18.64380646 C-8.32560419 18.05020697 -9.97378812 16.8694854 -12.73628235 14.14044189 C-14.16290454 11.28719752 -14.04662103 9.3058964 -13.73628235 6.14044189 C-9.93311182 0.23897039 -6.71240918 0.0161585 0 0 Z " fill="#2E2262" transform="translate(171.7362823486328,208.85955810546875)"/>
<path d="M0 0 C1.14129364 -0.00860046 2.28258728 -0.01720093 3.45846558 -0.02606201 C5.34580414 -0.03245193 5.34580414 -0.03245193 7.27127075 -0.03897095 C8.6049623 -0.04687141 9.93865171 -0.05514032 11.27233887 -0.06375122 C15.65754147 -0.08997406 20.04275366 -0.10527735 24.42800903 -0.11953735 C25.93669771 -0.12489659 27.44538632 -0.1302741 28.95407486 -0.13566971 C35.22835144 -0.15729726 41.50262543 -0.17603521 47.77692986 -0.1872921 C56.77447591 -0.20354026 65.77159072 -0.23673989 74.76897418 -0.29369295 C81.09259169 -0.33235958 87.41609368 -0.35192076 93.73982632 -0.35721266 C97.51837554 -0.3608702 101.29646486 -0.37293324 105.07488632 -0.4053154 C108.62909791 -0.43533977 112.18256999 -0.44172879 115.73688126 -0.42993164 C117.6636979 -0.42960491 119.59046851 -0.45410741 121.51712036 -0.47930908 C122.66405365 -0.4709906 123.81098694 -0.46267212 124.99267578 -0.45410156 C125.98930174 -0.45741171 126.9859277 -0.46072186 128.01275444 -0.46413231 C131.6251957 0.39108645 132.64713167 2.09752093 134.62332153 5.15390015 C135.62332153 8.09140015 135.62332153 8.09140015 135.62332153 11.15390015 C132.63095512 16.81802228 132.63095512 16.81802228 128.62332153 18.15390015 C126.82060406 18.25274496 125.01445353 18.29318951 123.20904541 18.30107117 C121.52245316 18.31180412 121.52245316 18.31180412 119.80178833 18.32275391 C118.56743042 18.32544281 117.33307251 18.32813171 116.06130981 18.3309021 C114.11223221 18.3407589 114.11223221 18.3407589 112.1237793 18.35081482 C107.8137434 18.37183553 103.50370721 18.38221373 99.19363403 18.3921814 C97.70942033 18.39622937 96.22520682 18.4003463 94.7409935 18.40453148 C87.7693949 18.42357694 80.79780686 18.43781063 73.82618725 18.44614345 C65.77895127 18.45592093 57.73198998 18.48225622 49.68485081 18.52264434 C43.46395449 18.5527955 37.24313697 18.56761127 31.02216899 18.57092446 C27.30683187 18.57327566 23.59178843 18.58224506 19.87652969 18.60738564 C15.73221757 18.6349775 11.5885204 18.63083835 7.44412231 18.62387085 C5.59865814 18.64308594 5.59865814 18.64308594 3.71591187 18.66268921 C2.58587738 18.65574539 1.4558429 18.64880157 0.29156494 18.64164734 C-0.68809172 18.64403569 -1.66774837 18.64642405 -2.6770916 18.64888477 C-6.15119404 18.01188831 -7.8405956 16.55938061 -10.37667847 14.15390015 C-11.80330065 11.30065577 -11.68701714 9.31935466 -11.37667847 6.15390015 C-7.96014603 1.02910149 -5.99588515 0.03354937 0 0 Z " fill="#2F2263" transform="translate(169.37667846679688,313.8460998535156)"/>
<path d="M0 0 C6.60083757 5.43068645 12.58995598 11.4441867 18.62109375 17.48828125 C19.73195558 18.59846851 20.84296575 19.70850738 21.95411682 20.81840515 C24.26783159 23.13065384 26.57974816 25.44468129 28.89038086 27.76000977 C31.85850238 30.73386817 34.83114509 33.7031606 37.80511379 36.67117023 C40.09305585 38.95551127 42.37862643 41.24221302 44.66346931 43.52965355 C45.75961897 44.62647168 46.85651579 45.72254362 47.95416069 46.81786537 C49.47894567 48.34012708 51.00051629 49.86552856 52.52124023 51.3918457 C53.38837143 52.25977249 54.25550262 53.12769928 55.14891052 54.02192688 C57 56 57 56 57 57 C49.97098062 57.12683815 42.9422566 57.21436744 35.91235352 57.2746582 C33.52129081 57.29979315 31.13030486 57.33390633 28.73950195 57.37719727 C25.30140236 57.43789061 21.86431904 57.46622072 18.42578125 57.48828125 C17.35789871 57.51408768 16.29001617 57.5398941 15.18977356 57.56648254 C7.7711305 57.56928238 7.7711305 57.56928238 3.91088867 54.71948242 C1.09135878 50.70686668 -0.25309593 48.08822704 -0.22705078 43.13964844 C-0.22689972 42.17895447 -0.22674866 41.2182605 -0.22659302 40.22845459 C-0.21627045 39.19915833 -0.20594788 38.16986206 -0.1953125 37.109375 C-0.1924826 36.04962463 -0.18965271 34.98987427 -0.18673706 33.89801025 C-0.17554734 30.51522503 -0.1504447 27.13270513 -0.125 23.75 C-0.11496865 21.45573299 -0.10584307 19.16146183 -0.09765625 16.8671875 C-0.07561196 11.24470123 -0.04214627 5.62236957 0 0 Z " fill="#FBB443" transform="translate(305,92)"/>
<path d="M0 0 C82.5 0 165 0 250 0 C250 79.86 250 159.72 250 242 C249.67 242 249.34 242 249 242 C248.67 163.13 248.34 84.26 248 3 C166.82 2.67 85.64 2.34 2 2 C2.12375 41.88875 2.2475 81.7775 2.375 122.875 C2.40899902 135.49089355 2.44299805 148.10678711 2.47802734 161.10498047 C2.51791568 172.36952703 2.51791568 172.36952703 2.56045532 183.63406372 C2.57939786 188.66897335 2.59271047 193.70386482 2.60269165 198.73880005 C2.61558186 205.14971616 2.63790526 211.56053255 2.66723371 217.97139382 C2.67639174 220.33133819 2.68215867 222.69129856 2.68425441 225.05125976 C2.68754645 228.22503428 2.70293319 231.39851897 2.7215271 234.57223511 C2.71959162 235.5077527 2.71765614 236.4432703 2.715662 237.40713692 C2.72686136 238.67798197 2.72686136 238.67798197 2.73828697 239.97450066 C2.74056529 240.70887977 2.74284362 241.44325889 2.74519098 242.19989192 C2.85181005 244.25249196 2.85181005 244.25249196 5 246 C4.67 246.99 4.34 247.98 4 249 C0.01106271 243.18206823 -0.56913835 238.93664219 -0.48101807 231.97096252 C-0.48444214 230.97914978 -0.48786621 229.98733704 -0.49139404 228.96546936 C-0.49800134 225.64017762 -0.47594426 222.3156963 -0.45410156 218.99047852 C-0.45287596 216.56664779 -0.45341063 214.14281564 -0.45556259 211.71898556 C-0.45646534 205.23018626 -0.43328818 198.74168223 -0.40512085 192.25295258 C-0.38233496 186.16337659 -0.38126805 180.0738723 -0.37841797 173.98425293 C-0.35743168 156.17696287 -0.30158703 138.3697277 -0.25 120.5625 C-0.1675 80.776875 -0.085 40.99125 0 0 Z " fill="#C49A6B" transform="translate(125,167)"/>
<path d="M0 0 C0.99 0.33 1.98 0.66 3 1 C3 1.66 3 2.32 3 3 C4.84704749 3.00634791 4.84704749 3.00634791 6.73140907 3.01282406 C35.96007815 3.11349478 65.18872489 3.21920318 94.41735289 3.33111694 C98.01472601 3.34488655 101.61209928 3.35861364 105.20947266 3.37231445 C105.92564634 3.37504276 106.64182002 3.37777106 107.37969594 3.38058204 C118.97658217 3.42465963 130.57347805 3.46529241 142.17038114 3.50465261 C154.06945545 3.54511505 165.96851187 3.58927829 177.86755979 3.63687855 C184.55123254 3.66350931 191.23490434 3.68830729 197.91859818 3.70907402 C204.20742281 3.72866775 210.49621335 3.75281982 216.78500748 3.78049088 C219.09488811 3.78984679 221.40477621 3.79752731 223.71466827 3.80341911 C226.86553117 3.81170504 230.01631186 3.82598881 233.16714478 3.84178162 C234.08349532 3.84275972 234.99984586 3.84373783 235.9439646 3.84474558 C240.40815454 3.87356642 244.60584726 4.09718198 249 5 C249 5.33 249 5.66 249 6 C166.5 6 84 6 -1 6 C-1.33 4.35 -1.66 2.7 -2 1 C-1.34 0.67 -0.68 0.34 0 0 Z " fill="#2F2453" transform="translate(125,161)"/>
<path d="M0 0 C4.17443363 3.50074982 8.3145494 6.97950843 12 11 C12 11.66 12 12.32 12 13 C12.66 13 13.32 13 14 13 C14 13.66 14 14.32 14 15 C14.87398438 15.38671875 14.87398438 15.38671875 15.765625 15.78125 C18.1802903 17.09834017 19.81740177 18.55088384 21.75 20.5 C22.67039062 21.41265625 22.67039062 21.41265625 23.609375 22.34375 C25 24 25 24 25 26 C25.66 26 26.32 26 27 26 C26.67 26.66 26.34 27.32 26 28 C25.34 28 24.68 28 24 28 C24 27.34 24 26.68 24 26 C22.35 25.34 20.7 24.68 19 24 C18.67 25.32 18.34 26.64 18 28 C19.98 28.66 21.96 29.32 24 30 C24.33 32.31 24.66 34.62 25 37 C23.35 36.34 21.7 35.68 20 35 C18.80161791 37.32854463 18.80161791 37.32854463 18 40 C18.66 40.99 19.32 41.98 20 43 C19.67 43.99 19.34 44.98 19 46 C16.50856733 43.59571161 14.03415771 41.17459986 11.5625 38.75 C10.85544922 38.06808594 10.14839844 37.38617188 9.41992188 36.68359375 C8.74638672 36.01972656 8.07285156 35.35585937 7.37890625 34.671875 C6.7557251 34.0644043 6.13254395 33.45693359 5.49047852 32.83105469 C3.87660534 30.8484095 3.5532853 29.45077642 3 27 C2.34 26.67 1.68 26.34 1 26 C-1.0329575 21.08701937 -1.0329575 21.08701937 -1 18 C0.32551742 15.8706204 1.77776232 14.33982494 3.6171875 12.640625 C5.42964804 10.84785669 5.42964804 10.84785669 5 7 C3.37446717 5.29319053 1.70884005 3.62339805 0 2 C0 1.34 0 0.68 0 0 Z " fill="#3B316E" transform="translate(322,82)"/>
<path d="M0 0 C2.475 0.99 2.475 0.99 5 2 C5 2.99 5 3.98 5 5 C5.66 5 6.32 5 7 5 C7 5.66 7 6.32 7 7 C84.22 7 161.44 7 241 7 C237.01867089 9.65421941 233.56321583 9.28048429 228.94119263 9.26069641 C228.00294014 9.26452196 227.06468765 9.26834751 226.09800327 9.27228898 C222.94044199 9.28264345 219.78306172 9.27862217 216.62548828 9.2746582 C214.36717561 9.27900335 212.10886441 9.28418583 209.85055542 9.29014587 C203.70594868 9.30356899 197.56140332 9.30411082 191.41678476 9.30158257 C186.29235361 9.30051502 181.16793498 9.30539075 176.0435065 9.310188 C163.26448459 9.32193048 150.48550722 9.32105158 137.70648573 9.31463119 C126.60699331 9.3094628 115.50758867 9.32071424 104.40811361 9.33972941 C93.01406858 9.3590997 81.6200772 9.3670736 70.22601116 9.36360615 C63.82798188 9.36179032 57.43003298 9.36445932 51.03201675 9.37832069 C45.01561498 9.39086675 38.99938923 9.38898543 32.98299026 9.37590981 C30.77265871 9.37353737 28.56231488 9.37630245 26.35199738 9.38453293 C23.33871699 9.39494568 20.32603321 9.38694356 17.31277466 9.3742218 C16.43446712 9.38159609 15.55615957 9.38897037 14.65123665 9.39656812 C9.96376814 9.35482708 6.76691182 9.10781871 3 6 C1.1875 2.8125 1.1875 2.8125 0 0 Z " fill="#EEBB74" transform="translate(127,410)"/>
<path d="M0 0 C0.99 0.66 1.98 1.32 3 2 C2 3 2 3 -0.5625 3.0625 C-1.7690625 3.0315625 -1.7690625 3.0315625 -3 3 C-3 3.66 -3 4.32 -3 5 C-78.9 5 -154.8 5 -233 5 C-233.33 4.34 -233.66 3.68 -234 3 C-232.81832874 2.99668985 -231.63665749 2.99337971 -230.41917801 2.98996925 C-202.38019186 2.91098273 -174.34125178 2.82177468 -146.30233915 2.71994839 C-142.85260137 2.70742924 -139.40286328 2.69499651 -135.953125 2.68261719 C-135.26633284 2.68015119 -134.57954069 2.6776852 -133.87193665 2.67514448 C-122.74576015 2.63540102 -111.61957347 2.60266071 -100.49336734 2.57250018 C-89.08019056 2.54140617 -77.66706352 2.50265717 -66.25393367 2.45720994 C-59.84195189 2.43192098 -53.43000084 2.41014677 -47.01798248 2.39665604 C-40.98685487 2.38385747 -34.9558325 2.36182688 -28.92476273 2.33261681 C-26.70757558 2.32352377 -24.49037149 2.3178468 -22.27316666 2.31578636 C-19.2528931 2.31247603 -16.23292017 2.29703182 -13.21270752 2.2784729 C-11.88780741 2.281375 -11.88780741 2.281375 -10.53614163 2.28433573 C-9.72699646 2.27687024 -8.91785128 2.26940475 -8.08418655 2.26171303 C-7.38702003 2.25943471 -6.6898535 2.25715638 -5.97156072 2.25480902 C-3.6564795 1.95560262 -2.02163531 1.13975101 0 0 Z " fill="#301E39" transform="translate(369,416)"/>
<path d="M0 0 C6.32543367 18.97630101 1 39.99722242 1 60 C79.705 60.495 79.705 60.495 160 61 C160.33 59.68 160.66 58.36 161 57 C161.33 58.98 161.66 60.96 162 63 C107.88 63 53.76 63 -2 63 C-2 5 -2 5 0 0 Z " fill="#2D84C3" transform="translate(127,87)"/>
<path d="M0 0 C1.65 0 3.3 0 5 0 C4.175 0.86625 3.35 1.7325 2.5 2.625 C0.56919902 4.96954405 0.00324417 5.98410359 -0.625 9.0625 C0.22990203 13.08053954 1.83140239 14.43061958 5 17 C8.35364575 17.74228028 8.35364575 17.74228028 12.09741211 17.62145996 C12.80052741 17.62784878 13.50364271 17.6342376 14.22806454 17.64082003 C16.57840769 17.65605142 18.92705996 17.63562351 21.27734375 17.61523438 C22.96453408 17.61873617 24.65172111 17.6243954 26.33889771 17.63204956 C30.91752301 17.64629899 35.49554786 17.62923461 40.07411575 17.60576439 C44.86573311 17.58565938 49.65732545 17.59153476 54.44897461 17.59387207 C62.49570622 17.59381849 70.54220305 17.57405932 78.58886719 17.54199219 C87.8916991 17.50509923 97.19422343 17.49631661 106.49711895 17.5032897 C115.44645529 17.50959515 124.39568616 17.49883962 133.34500122 17.47932434 C137.15350853 17.47114999 140.96196194 17.46844086 144.77047729 17.47001648 C149.25540139 17.47089549 153.74003323 17.45667488 158.22488022 17.43078995 C159.87080341 17.42362837 161.51675769 17.42154449 163.16269302 17.42490768 C165.4096416 17.42862315 167.65573761 17.41387369 169.90258789 17.39440918 C171.15987198 17.39068047 172.41715607 17.38695175 173.71253967 17.38311005 C177.23310179 16.97283507 179.14601774 16.0475574 182 14 C181.34 15.98 180.68 17.96 180 20 C175.91263428 20.97940782 172.10012052 21.12195253 167.90258789 21.11593628 C166.84791494 21.11638433 166.84791494 21.11638433 165.77193546 21.11684144 C163.4221434 21.11648635 161.07243471 21.10882366 158.72265625 21.10107422 C157.03547199 21.09911461 155.34828725 21.09753208 153.66110229 21.09629822 C148.12820602 21.09014568 142.59536765 21.07291893 137.0625 21.0546875 C135.15666715 21.04889512 133.25083422 21.04312866 131.34500122 21.03738785 C123.42010088 21.01272516 115.49521959 20.98519086 107.57035828 20.95004082 C96.21448852 20.89975779 84.85886044 20.86640352 73.50288105 20.85675228 C65.51540544 20.84861274 57.52813121 20.82148248 49.54075909 20.78014576 C44.77026562 20.75594578 40.00008281 20.74008277 35.22952271 20.74441147 C30.74442776 20.74804456 26.26004969 20.72818716 21.77511978 20.69023323 C20.12921124 20.68038835 18.48322646 20.67905783 16.83730698 20.68686104 C14.58984055 20.69622101 12.34466442 20.67492654 10.09741211 20.64596558 C8.21148598 20.63986928 8.21148598 20.63986928 6.28746033 20.63364983 C2.10854558 19.82817437 0.61442828 18.29002699 -2 15 C-2.55859375 12.24609375 -2.55859375 12.24609375 -2.4375 9.4375 C-2.41558594 8.50808594 -2.39367187 7.57867187 -2.37109375 6.62109375 C-2.00049786 4.00351644 -1.32755934 2.26591453 0 0 Z " fill="#E1AD6F" transform="translate(159,209)"/>
<path d="M0 0 C3 4 3 4 2.9375 7.5 C1.92589185 11.27667042 1.06614713 12.65529925 -2 15 C-5.44511348 16.14837116 -8.10761668 16.13169975 -11.74301147 16.14044189 C-12.43216727 16.14341302 -13.12132306 16.14638414 -13.83136237 16.1494453 C-16.14588793 16.15813275 -18.46036176 16.15964057 -20.77490234 16.16113281 C-22.43223684 16.16576091 -24.08957028 16.17078556 -25.74690247 16.17617798 C-30.25311477 16.18930376 -34.75931217 16.19574715 -39.2655406 16.20018864 C-42.07992854 16.20311874 -44.89431239 16.20722341 -47.70869827 16.21169281 C-56.51170056 16.22536748 -65.31469353 16.2350346 -74.1177057 16.2388947 C-84.2844953 16.24337717 -94.45115056 16.26093395 -104.6178993 16.2898953 C-112.47360205 16.3114978 -120.32926696 16.3215982 -128.18499911 16.32293582 C-132.87836342 16.32398477 -137.57160146 16.32991176 -142.26493454 16.34775543 C-146.67918957 16.36421165 -151.09322305 16.36640359 -155.50749779 16.35761642 C-157.1276388 16.35684476 -158.74779161 16.36120573 -160.36790276 16.37107468 C-162.57987376 16.38375882 -164.7910559 16.3779373 -167.00302124 16.36749268 C-168.24077993 16.36895924 -169.47853863 16.3704258 -170.75380516 16.3719368 C-174.2916119 15.9665882 -176.18606221 15.14859602 -179 13 C-179.8125 10.8125 -179.8125 10.8125 -180 9 C-179.34 9 -178.68 9 -178 9 C-178 9.66 -178 10.32 -178 11 C-174.35379438 13.29599935 -171.2776562 13.24674143 -167.02716064 13.24050903 C-165.97460292 13.24307231 -165.97460292 13.24307231 -164.90078139 13.24568737 C-162.54996125 13.24898111 -160.19942666 13.23798062 -157.84863281 13.22705078 C-156.16333523 13.22648664 -154.47803716 13.22680328 -152.79273987 13.22793579 C-148.21663342 13.2285102 -143.64063157 13.21674163 -139.06454945 13.20278788 C-134.28260133 13.1902952 -129.50065088 13.18911117 -124.71868896 13.18673706 C-115.66293618 13.18051799 -106.60723162 13.16410139 -97.55150008 13.14403808 C-87.24205763 13.12169237 -76.93261289 13.11068899 -66.62315226 13.10064721 C-45.41540791 13.07973554 -24.20770699 13.04455126 -3 13 C-3 12.01 -3 11.02 -3 10 C-1.68 10 -0.36 10 1 10 C0.67 6.7 0.34 3.4 0 0 Z " fill="#5D4452" transform="translate(339,264)"/>
<path d="M0 0 C58.41 0 116.82 0 177 0 C178.99344558 5.98033675 180.01006929 10.76957262 179 17 C176.625 19.125 176.625 19.125 174 20 C173.34 20.33 172.68 20.66 172 21 C169.74486397 21.0946326 167.48682591 21.12189725 165.22970581 21.12025452 C164.52562595 21.12110894 163.8215461 21.12196337 163.09613049 21.12284368 C160.72535708 21.12449721 158.35465366 21.11897919 155.98388672 21.11352539 C154.289032 21.11324347 152.59417716 21.11340136 150.89932251 21.1139679 C146.28800713 21.11425566 141.67671759 21.10836228 137.06540823 21.10139394 C132.25007857 21.09515695 127.43474836 21.09455633 122.61941528 21.09336853 C113.49632298 21.09025624 104.37324261 21.08204421 95.25015557 21.07201904 C84.86578602 21.06085475 74.4814159 21.05534666 64.09704185 21.05032361 C42.73135456 21.03986152 21.36567803 21.02226404 0 21 C-0.33 20.34 -0.66 19.68 -1 19 C0.31501889 19.00414807 0.31501889 19.00414807 1.65660381 19.00837994 C22.98032584 19.07461007 44.30403016 19.12426613 65.62783337 19.15543652 C75.93983337 19.17091063 86.25176475 19.19201057 96.5637207 19.22631836 C105.55078833 19.25620402 114.53780626 19.27557104 123.52492219 19.28226548 C128.284293 19.28617915 133.04352163 19.29538815 137.80284691 19.31719017 C142.28188919 19.33754213 146.76073063 19.34383641 151.23981476 19.33932304 C152.88414666 19.34014882 154.52848524 19.34612219 156.17277718 19.35761642 C158.41773381 19.37254065 160.66193197 19.36895429 162.90690613 19.36076355 C164.16330997 19.36352893 165.4197138 19.36629431 166.71419048 19.36914349 C170.27738718 18.968837 172.14329506 18.12088852 175 16 C176.92863839 13.45770394 177.00902291 12.21654982 176.875 9 C175.83791151 5.44426802 174.91654448 4.25754846 172 2 C168.72732639 1.39298207 168.72732639 1.39298207 164.98919678 1.48101807 C164.28340807 1.47351681 163.57761937 1.46601556 162.85044312 1.458287 C160.48560882 1.43798793 158.1217313 1.44611629 155.75683594 1.45410156 C154.06167654 1.4453677 152.36652538 1.43488258 150.67138672 1.42277527 C146.06839923 1.39487155 141.46568015 1.39151154 136.86262035 1.39249516 C132.05257821 1.3893698 127.24265764 1.36375949 122.43267822 1.34051514 C113.32382627 1.29992261 104.21504597 1.27960679 95.10611749 1.26654124 C84.73614558 1.25068221 74.36629578 1.21227122 63.99639463 1.17194796 C42.66430335 1.0895045 21.33221775 1.03544018 0 1 C0 0.67 0 0.34 0 0 Z " fill="#E8B779" transform="translate(164,260)"/>
<path d="M0 0 C0.69056693 -0.00226556 1.38113385 -0.00453111 2.09262705 -0.00686532 C4.41182523 -0.01320693 6.730965 -0.01237586 9.0501709 -0.0115509 C10.71075008 -0.01454225 12.37132856 -0.01794472 14.03190613 -0.02172852 C18.54625246 -0.03057405 23.06057985 -0.03290683 27.57493401 -0.0335443 C31.34007611 -0.03449288 35.10521378 -0.03817048 38.87035418 -0.0417164 C47.75011958 -0.04986264 56.62987484 -0.05230043 65.50964355 -0.05158997 C74.67949603 -0.05098874 83.84928976 -0.06154912 93.01912737 -0.07733363 C100.88498986 -0.09039264 108.75083311 -0.09577457 116.61670637 -0.09513456 C121.31780022 -0.09487914 126.01884185 -0.09775461 130.71992493 -0.10831261 C135.13906406 -0.11796636 139.55810076 -0.11809158 143.97724342 -0.11079597 C145.60144512 -0.10974681 147.22565311 -0.11213256 148.84984398 -0.11815643 C151.06237144 -0.1258326 153.27454122 -0.12126098 155.48706055 -0.11352539 C156.72666283 -0.11407016 157.96626511 -0.11461493 159.24343109 -0.1151762 C162.24353027 0.13371277 162.24353027 0.13371277 165.24353027 2.13371277 C108.15353027 2.13371277 51.06353027 2.13371277 -7.75646973 2.13371277 C-7.75646973 2.79371277 -7.75646973 3.45371277 -7.75646973 4.13371277 C-8.74646973 4.13371277 -9.73646973 4.13371277 -10.75646973 4.13371277 C-10.75646973 5.45371277 -10.75646973 6.77371277 -10.75646973 8.13371277 C-11.41646973 8.13371277 -12.07646973 8.13371277 -12.75646973 8.13371277 C-12.09646973 9.78371277 -11.43646973 11.43371277 -10.75646973 13.13371277 C-11.74646973 13.62871277 -11.74646973 13.62871277 -12.75646973 14.13371277 C-14.18309191 11.2804684 -14.0668084 9.29916728 -13.75646973 6.13371277 C-9.9475915 0.22338449 -6.72190902 0.00908749 0 0 Z " fill="#432E3A" transform="translate(171.7564697265625,208.8662872314453)"/>
<path d="M0 0 C17.12429947 -0.04672322 34.24857904 -0.08199042 51.37292767 -0.10362434 C59.32407957 -0.11393639 67.27519187 -0.12799536 75.22631836 -0.15087891 C82.15661499 -0.17081497 89.08688293 -0.18371696 96.01720744 -0.18817699 C99.68667039 -0.190784 103.35605126 -0.19691014 107.0254879 -0.21146011 C111.1220908 -0.22757209 115.21855106 -0.22797955 119.31518555 -0.22705078 C121.13966721 -0.23783661 121.13966721 -0.23783661 123.00100708 -0.24884033 C124.11854874 -0.246091 125.23609039 -0.24334167 126.38749695 -0.24050903 C127.35630137 -0.24235262 128.3251058 -0.24419621 129.32326794 -0.24609566 C132.26227827 0.02411356 134.3818449 0.6425568 137 2 C138.91027192 6.00247451 139.46811974 9.59967447 139 14 C137.5 16.875 137.5 16.875 136 19 C135.34 18.67 134.68 18.34 134 18 C134.515625 17.29875 135.03125 16.5975 135.5625 15.875 C137.34465847 12.31068305 137.12464715 10.77560114 136 7 C134.86124575 4.77187486 134.86124575 4.77187486 133 3 C130.46965814 2.39321962 130.46965814 2.39321962 127.55207825 2.48101807 C126.42045761 2.46710526 125.28883698 2.45319244 124.1229248 2.43885803 C122.2596051 2.44640358 122.2596051 2.44640358 120.35864258 2.45410156 C119.05122604 2.44376389 117.74380951 2.43342621 116.39677429 2.42277527 C112.81020559 2.39486724 109.22398133 2.39151161 105.6373198 2.39249516 C101.88961932 2.38937013 98.14207492 2.36376056 94.39445496 2.34051514 C87.29719711 2.29991995 80.20003123 2.27960623 73.10267514 2.26654124 C65.02287019 2.25068304 56.94322199 2.21227249 48.86350787 2.17194796 C32.24238362 2.08950093 15.62129234 2.03543893 -1 2 C-0.67 1.34 -0.34 0.68 0 0 Z " fill="#CF9D57" transform="translate(167,312)"/>
<path d="M0 0 C0.33 0 0.66 0 1 0 C1.0684081 30.76126919 1.12151367 61.52252102 1.15319599 92.28384809 C1.1569482 95.91384156 1.16083116 99.54383488 1.16479492 103.17382812 C1.16558185 103.89650766 1.16636878 104.61918719 1.16717956 105.3637661 C1.18024066 117.07196668 1.20389836 128.78012316 1.23145839 140.48829755 C1.25949304 152.49808591 1.27617214 164.50785113 1.28226548 176.51767087 C1.28601583 183.26504443 1.29505114 190.01232594 1.31719017 196.75966644 C1.33749944 203.10595503 1.34384505 209.45210196 1.33932304 215.79841995 C1.34015074 218.13173059 1.34614928 220.46504579 1.35761642 222.7983284 C1.37247333 225.97630361 1.3689783 229.15373919 1.36076355 232.33172607 C1.37387134 233.72666326 1.37387134 233.72666326 1.38724393 235.14978099 C1.3436545 241.35961534 1.3436545 241.35961534 -0.39754772 244.60426712 C-2 246 -2 246 -4 246 C-4.33 244.35 -4.66 242.7 -5 241 C-4.34 240.67 -3.68 240.34 -3 240 C-2.01 240.33 -1.02 240.66 0 241 C0 161.47 0 81.94 0 0 Z " fill="#ECB057" transform="translate(373,170)"/>
<path d="M0 0 C1.89730865 0.01055923 1.89730865 0.01055923 3.83294678 0.02133179 C5.24246302 0.03431514 6.65197838 0.04739518 8.06149292 0.06056213 C9.53959872 0.07070188 11.01770764 0.08039588 12.49581909 0.0896759 C16.51627637 0.11618743 20.53666146 0.14896066 24.55706263 0.1828258 C28.75576922 0.21713866 32.95451454 0.2457377 37.15325928 0.27493286 C45.10765273 0.33111555 53.06199768 0.3924655 61.01633823 0.4556542 C70.07059738 0.5273303 79.12489541 0.59327291 88.17920136 0.65872467 C106.80782183 0.79351615 125.436381 0.9355379 144.06491089 1.08229065 C144.06491089 1.41229065 144.06491089 1.74229065 144.06491089 2.08229065 C69.81491089 2.57729065 69.81491089 2.57729065 -5.93508911 3.08229065 C-6.26508911 3.74229065 -6.59508911 4.40229065 -6.93508911 5.08229065 C-8.58508911 5.08229065 -10.23508911 5.08229065 -11.93508911 5.08229065 C-7.75564205 0.76352868 -6.01242875 -0.0451685 0 0 Z " fill="#339EDB" transform="translate(140.93508911132813,80.91770935058594)"/>
<path d="M0 0 C1.04346975 3.13040924 1.10887447 5.25945851 1.08178711 8.54125977 C1.07199074 10.24301109 1.07199074 10.24301109 1.06199646 11.97914124 C1.05056107 13.20418869 1.03912567 14.42923615 1.02734375 15.69140625 C1.01470163 18.27018097 1.00234037 20.84895708 0.99023438 23.42773438 C0.96645059 27.50549571 0.9377416 31.58319751 0.90405273 35.66088867 C0.87220191 39.58769503 0.85611651 43.51450399 0.83984375 47.44140625 C0.82638412 48.66847794 0.8129245 49.89554962 0.79905701 51.1598053 C0.79567825 52.29115402 0.7922995 53.42250275 0.78881836 54.58813477 C0.77763222 56.08679832 0.77763222 56.08679832 0.76622009 57.61573792 C0.76366574 60.18681921 0.76366574 60.18681921 3 62 C1.35 62 -0.3 62 -2 62 C-2.04640556 54.65450492 -2.08191089 47.30904161 -2.10362434 39.96342945 C-2.11404739 36.55230838 -2.12817938 33.14128783 -2.15087891 29.73022461 C-2.17683004 25.80583919 -2.18648505 21.88149404 -2.1953125 17.95703125 C-2.20563507 16.73603226 -2.21595764 15.51503326 -2.22659302 14.2570343 C-2.22674408 13.1162291 -2.22689514 11.97542389 -2.22705078 10.80004883 C-2.231492 9.79855301 -2.23593323 8.79705719 -2.24050903 7.76521301 C-1.98550248 4.83331709 -1.22694662 2.66034677 0 0 Z " fill="#3C90D2" transform="translate(127,87)"/>
<path d="M0 0 C0.61875 0.86625 0.61875 0.86625 1.25 1.75 C4.53505758 6.2683048 4.53505758 6.2683048 9.41717529 8.48101807 C10.31430237 8.47213562 11.21142944 8.46325317 12.13574219 8.45410156 C13.15649841 8.45379944 14.17725464 8.45349731 15.22894287 8.45318604 C16.32386047 8.43254089 17.41877808 8.41189575 18.546875 8.390625 C19.6732135 8.38496521 20.799552 8.37930542 21.96002197 8.37347412 C25.55711382 8.35108545 29.15320926 8.30088213 32.75 8.25 C35.1887877 8.22993833 37.62759101 8.21168698 40.06640625 8.1953125 C46.04461074 8.15121244 52.02223419 8.08427463 58 8 C58 8.66 58 9.32 58 10 C55.58271889 11.20864056 54.05420761 11.12687023 51.35424805 11.12939453 C50.38952072 11.13254669 49.4247934 11.13569885 48.43083191 11.13894653 C47.38502457 11.1369223 46.33921722 11.13489807 45.26171875 11.1328125 C44.18880081 11.13376923 43.11588287 11.13472595 42.01045227 11.13571167 C39.73654115 11.13639321 37.4626281 11.13454075 35.1887207 11.13037109 C31.71235759 11.12503813 28.23612461 11.1303089 24.75976562 11.13671875 C22.55208305 11.13605766 20.34440055 11.13477585 18.13671875 11.1328125 C16.57711678 11.13584885 16.57711678 11.13584885 14.98600769 11.13894653 C14.01182388 11.13579437 13.03764008 11.13264221 12.03393555 11.12939453 C11.18059128 11.12859894 10.32724701 11.12780334 9.44804382 11.12698364 C6.88287111 10.99392435 4.50304142 10.56341632 2 10 C1.33333333 6.66666667 0.66666667 3.33333333 0 0 Z " fill="#5A4147" transform="translate(305,140)"/>
<path d="M0 0 C1.98 1.65 3.96 3.3 6 5 C5.01 5.495 5.01 5.495 4 6 C3.34 5.67 2.68 5.34 2 5 C2.06705763 11.31751966 2.15688678 17.63442326 2.26245117 23.95141602 C2.29567746 26.09977898 2.32371653 28.24822875 2.34643555 30.39672852 C2.38002331 33.48751776 2.43234221 36.57751312 2.48828125 39.66796875 C2.49467117 40.62648239 2.5010611 41.58499603 2.50764465 42.57255554 C2.61653025 47.52642089 2.79780124 50.95531356 6 55 C3 54 3 54 1.33081055 51.63037109 C-0.49544259 46.64846242 -0.37293949 42.1768394 -0.29296875 36.9140625 C-0.28872391 35.85714203 -0.28447906 34.80022156 -0.28010559 33.71127319 C-0.26336702 30.3489186 -0.22572289 26.98717221 -0.1875 23.625 C-0.17244697 21.33985243 -0.15875964 19.05469543 -0.14648438 16.76953125 C-0.1134793 11.1794814 -0.06332772 5.58978416 0 0 Z " fill="#E9B878" transform="translate(305,92)"/>
<path d="M0 0 C5.25174926 4.38442526 10.13222473 9.00842093 14.9375 13.875 C15.62134766 14.56335938 16.30519531 15.25171875 17.00976562 15.9609375 C18.67551464 17.63833511 20.3388622 19.31803791 22 21 C18.13304322 21 15.4911548 19.58090029 12 18 C12 17.01 12 16.02 12 15 C11.34 14.67 10.68 14.34 10 14 C9.34 13.34 8.68 12.68 8 12 C8.33 11.34 8.66 10.68 9 10 C8.071875 9.8453125 8.071875 9.8453125 7.125 9.6875 C5 9 5 9 3 6 C0.43717258 5.27034634 0.43717258 5.27034634 -2 5 C-1.34 3.35 -0.68 1.7 0 0 Z " fill="#F3B858" transform="translate(336,123)"/>
<path d="M0 0 C0 2.97 0 5.94 0 9 C-0.66 9 -1.32 9 -2 9 C-2.66 8.01 -3.32 7.02 -4 6 C-4.33 7.32 -4.66 8.64 -5 10 C-5.66 10 -6.32 10 -7 10 C-7 6.7 -7 3.4 -7 0 C-4.3333581 -1.33332095 -2.83319697 -0.67102033 0 0 Z " fill="#F7B44E" transform="translate(348,213)"/>
<path d="M0 0 C3 4 3 4 3 7.5 C1.77811301 11.77660446 0.78649586 12.73910683 -3 15 C-5.95215895 15.1272233 -8.41899822 15.07580985 -11.3125 14.75 C-12.05306641 14.68425781 -12.79363281 14.61851562 -13.55664062 14.55078125 C-15.37296459 14.38672618 -17.18684686 14.19601656 -19 14 C-19 13.67 -19 13.34 -19 13 C-13.72 13 -8.44 13 -3 13 C-3 12.01 -3 11.02 -3 10 C-1.68 10 -0.36 10 1 10 C0.505 5.05 0.505 5.05 0 0 Z " fill="#3E2750" transform="translate(339,264)"/>
<path d="M0 0 C0.33 0 0.66 0 1 0 C1.10957031 0.63808594 1.21914062 1.27617187 1.33203125 1.93359375 C1.49058594 2.75988281 1.64914063 3.58617187 1.8125 4.4375 C1.96332031 5.26121094 2.11414063 6.08492188 2.26953125 6.93359375 C2.51058594 7.61550781 2.75164062 8.29742187 3 9 C3.99 9.33 4.98 9.66 6 10 C2.79166895 11.60416552 -0.43928835 11.6608846 -4 12 C-5 11 -5 11 -5.0625 7.9375 C-5.041875 6.968125 -5.02125 5.99875 -5 5 C-3.02 5.99 -3.02 5.99 -1 7 C-0.67 4.69 -0.34 2.38 0 0 Z " fill="#F2B255" transform="translate(157,268)"/>
<path d="M0 0 C4.88049925 3.9419417 9.0580583 8.11950075 13 13 C9 11.66666667 5 10.33333333 1 9 C1.33 8.34 1.66 7.68 2 7 C2.66 7 3.32 7 4 7 C4 6.34 4 5.68 4 5 C2.68 5 1.36 5 0 5 C0 3.35 0 1.7 0 0 Z " fill="#F3B859" transform="translate(311,98)"/>
<path d="M0 0 C0.66 0.66 1.32 1.32 2 2 C1.72885386 6.15757415 0.9816616 9.0183384 -2 12 C-2.99 12 -3.98 12 -5 12 C-5 10.35 -5 8.7 -5 7 C-3.35 6.34 -1.7 5.68 0 5 C0 3.35 0 1.7 0 0 Z " fill="#3F2750" transform="translate(303,319)"/>
<path d="M0 0 C0.66 0.33 1.32 0.66 2 1 C0.92807816 2.3218362 -0.15802695 3.63217927 -1.25 4.9375 C-1.85328125 5.66839844 -2.4565625 6.39929688 -3.078125 7.15234375 C-5.10741134 9.10326334 -6.254407 9.61731779 -9 10 C-7.71480435 7.13302508 -6.42870746 5.02392288 -4 3 C-3.34 3 -2.68 3 -2 3 C-2 2.34 -2 1.68 -2 1 C-1.34 0.67 -0.68 0.34 0 0 Z " fill="#6F6991" transform="translate(121,66)"/>
<path d="M0 0 C1.32 0 2.64 0 4 0 C5.58631421 4.16407479 6.47448657 7.53982624 6 12 C4.5 14.875 4.5 14.875 3 17 C2.34 16.67 1.68 16.34 1 16 C1.515625 15.29875 2.03125 14.5975 2.5625 13.875 C4.35327927 10.29344145 4.10873962 8.80139297 3 5 C1.53888984 2.20102057 1.53888984 2.20102057 0 0 Z " fill="#E0AF63" transform="translate(300,314)"/>
<path d="M0 0 C2.37339853 1.85744232 2.9940468 2.97847688 3.8125 5.9375 C4.00613718 9.10024068 3.70401547 10.39385869 2 13 C1.67 13 1.34 13 1 13 C0.34 10.36 -0.32 7.72 -1 5 C-0.34 5 0.32 5 1 5 C0.67 3.35 0.34 1.7 0 0 Z " fill="#412E4A" transform="translate(338,211)"/>
<path d="M0 0 C-0.94875 0.495 -1.8975 0.99 -2.875 1.5 C-5.76364124 3.38034194 -6.57127452 4.91690316 -7.375 8.25 C-7.58125 9.4875 -7.7875 10.725 -8 12 C-8.33 12 -8.66 12 -9 12 C-9 8.37 -9 4.74 -9 1 C-3.375 -1.25 -3.375 -1.25 0 0 Z " fill="#E3B463" transform="translate(166,314)"/>
<path d="M0 0 C1.65 0 3.3 0 5 0 C4.175 0.804375 3.35 1.60875 2.5 2.4375 C-0.47253985 5.92918765 -0.43263066 8.79502351 -0.17578125 13.2421875 C-0.11777344 13.82226562 -0.05976563 14.40234375 0 15 C-0.66 15 -1.32 15 -2 15 C-2.05429959 13.25034642 -2.09292823 11.50020213 -2.125 9.75 C-2.15980469 8.28820312 -2.15980469 8.28820312 -2.1953125 6.796875 C-1.99862781 3.9803502 -1.44568916 2.39050964 0 0 Z " fill="#EFB765" transform="translate(159,209)"/>
<path d="M0 0 C0.99 0 1.98 0 3 0 C3.33 1.98 3.66 3.96 4 6 C4.99 6.33 5.98 6.66 7 7 C6.67 7.99 6.34 8.98 6 10 C3.36 7.36 0.72 4.72 -2 2 C-1.34 1.34 -0.68 0.68 0 0 Z " fill="#3D274F" transform="translate(319,102)"/>
<path d="M0 0 C1.98 1.65 3.96 3.3 6 5 C5.34 5.66 4.68 6.32 4 7 C1.37886292 7 -0.50935112 6.68707555 -3 6 C-2 4 -2 4 -1 3 C-0.67 2.01 -0.34 1.02 0 0 Z " fill="#291F5E" transform="translate(365,127)"/>
<path d="M0 0 C4 2 4 2 5 4 C3.68 3.67 2.36 3.34 1 3 C1 8.28 1 13.56 1 19 C0.67 19 0.34 19 0 19 C0 12.73 0 6.46 0 0 Z " fill="#F0B95C" transform="translate(306,94)"/>
<path d="M0 0 C3.0831351 1.19899698 6.06279492 2.47700477 9 4 C9 5.65 9 7.3 9 9 C7.87105124 8.06725891 6.74699124 7.12859878 5.625 6.1875 C4.99851562 5.66542969 4.37203125 5.14335937 3.7265625 4.60546875 C2 3 2 3 0 0 Z " fill="#4B3349" transform="translate(349,135)"/>
<path d="M0 0 C0 2.62113708 -0.31292445 4.50935112 -1 7 C-1.66 7 -2.32 7 -3 7 C-2.34 8.65 -1.68 10.3 -1 12 C-1.99 12.495 -1.99 12.495 -3 13 C-4.42662219 10.14675563 -4.31033868 8.16545451 -4 5 C-2 2.125 -2 2.125 0 0 Z " fill="#442D41" transform="translate(162,210)"/>
<path d="M0 0 C0.66 0 1.32 0 2 0 C2 0.66 2 1.32 2 2 C3.32 2.66 4.64 3.32 6 4 C6 4.99 6 5.98 6 7 C4 6 2 5 0 4 C0 2.68 0 1.36 0 0 Z " fill="#726993" transform="translate(306,67)"/>
<path d="M0 0 C0.66 0 1.32 0 2 0 C2 0.66 2 1.32 2 2 C2.5775 2.28875 3.155 2.5775 3.75 2.875 C5.83333333 3.91666667 7.91666667 4.95833333 10 6 C6.29706315 6.33663062 4.60465619 6.47736015 1.625 4.125 C0 2 0 2 0 0 Z " fill="#3C2342" transform="translate(159,273)"/>
<path d="M0 0 C0.33 0.66 0.66 1.32 1 2 C-0.4375 4.625 -0.4375 4.625 -2 7 C-3.32 6.67 -4.64 6.34 -6 6 C-5.34 6 -4.68 6 -4 6 C-4 5.01 -4 4.02 -4 3 C-2 1.3125 -2 1.3125 0 0 Z " fill="#EEB953" transform="translate(340,223)"/>
<path d="M0 0 C2.31 1.98 4.62 3.96 7 6 C6.01 6.33 5.02 6.66 4 7 C3.34 6.67 2.68 6.34 2 6 C2.33 5.34 2.66 4.68 3 4 C1.68 3.67 0.36 3.34 -1 3 C-0.67 2.01 -0.34 1.02 0 0 Z " fill="#EBB164" transform="translate(342,129)"/>
<path d="M0 0 C0.99 0 1.98 0 3 0 C3.33 0.99 3.66 1.98 4 3 C3.34 3.66 2.68 4.32 2 5 C2 4.34 2 3.68 2 3 C1.34 3 0.68 3 0 3 C-0.33 3.99 -0.66 4.98 -1 6 C-1.33 5.34 -1.66 4.68 -2 4 C-1.0625 1.875 -1.0625 1.875 0 0 Z " fill="#302054" transform="translate(162,315)"/>
<path d="M0 0 C0.66 0 1.32 0 2 0 C2 1.65 2 3.3 2 5 C0.02 5.99 0.02 5.99 -2 7 C-1.42415568 4.61435923 -0.77772405 2.33317216 0 0 Z " fill="#EAB059" transform="translate(341,272)"/>
<path d="M0 0 C2.02054804 1.64169528 4.02043058 3.30911778 6 5 C6 5.33 6 5.66 6 6 C4.35 6 2.7 6 1 6 C0.4465236 3.92446352 0 2.15634036 0 0 Z " fill="#F4B95E" transform="translate(330,117)"/>
<path d="M0 0 C1.98 1.65 3.96 3.3 6 5 C3.3333581 6.33332095 1.83319697 5.67102033 -1 5 C-0.67 3.35 -0.34 1.7 0 0 Z " fill="#EAB363" transform="translate(324,111)"/>
<path d="M0 0 C2.475 0.495 2.475 0.495 5 1 C5.33 2.65 5.66 4.3 6 6 C3.97945196 4.35830472 1.97956942 2.69088222 0 1 C0 0.67 0 0.34 0 0 Z " fill="#4C3145" transform="translate(336,122)"/>
</svg>
