<?xml version="1.0" encoding="UTF-8"?>
<svg version="1.1" xmlns="http://www.w3.org/2000/svg" width="500" height="500">
<path d="M0 0 C3.78740173 3.23043089 5.03060132 5.79121196 5.49300098 10.79385853 C5.50512171 12.39710109 5.50071264 14.0005196 5.48335266 15.60371399 C5.48575777 16.49098913 5.48816288 17.37826426 5.49064088 18.29242653 C5.49522849 21.27236065 5.47852677 24.25180226 5.4621582 27.23168945 C5.46147625 29.37478765 5.4622069 31.5178867 5.46424007 33.66098404 C5.4660504 38.29985893 5.45880597 42.9386017 5.44480133 47.57745552 C5.42307581 55.01203157 5.42464009 62.44648921 5.43060303 69.88108826 C5.43598629 77.75372295 5.44065008 85.62634997 5.43836021 93.49898624 C5.43816577 94.16870198 5.43797132 94.83841771 5.43777099 95.52842787 C5.4375746 96.20018499 5.43737821 96.87194211 5.43717587 97.5640555 C5.42893693 126.14835033 5.48277075 154.73238364 5.609375 183.31640625 C5.61374985 184.31617427 5.61374985 184.31617427 5.61821309 185.33613962 C5.86078352 240.21049675 7.26158847 294.90001561 11.23577881 349.6424408 C11.79968636 357.49443872 12.24438048 365.31405131 12.27905273 373.18847656 C12.28419671 373.87775616 12.28934069 374.56703575 12.29464054 375.27720261 C12.25341538 384.50125179 9.3922459 391.39501764 4.125 398.8125 C3.568125 399.67875 3.01125 400.545 2.4375 401.4375 C-4.0235521 408.07317513 -12.64796249 411.99696503 -21.88891602 412.19287109 C-32.49922186 412.16665221 -41.55039979 410.62308189 -50.02734375 403.6953125 C-57.76577221 395.80964121 -62.04495969 385.79679224 -62.00537109 374.7644043 C-61.91744182 365.50608832 -61.3502849 356.26276254 -60.8515625 347.01953125 C-60.7440134 344.98582704 -60.63670849 342.95210991 -60.52963257 340.91838074 C-60.30456827 336.65601231 -60.07742958 332.39376148 -59.84863281 328.1315918 C-59.56104566 322.77353707 -59.27722915 317.41529181 -58.99480057 312.05696297 C-57.46051859 282.96412471 -55.8351822 253.88011956 -53.875 224.8125 C-54.65230469 224.65910156 -55.42960937 224.50570312 -56.23046875 224.34765625 C-58.46625912 223.89521418 -60.66755257 223.38480119 -62.875 222.8125 C-62.875 222.1525 -62.875 221.4925 -62.875 220.8125 C-63.7721875 220.626875 -63.7721875 220.626875 -64.6875 220.4375 C-66.875 219.8125 -66.875 219.8125 -69.875 217.8125 C-69.875 217.1525 -69.875 216.4925 -69.875 215.8125 C-70.535 215.8125 -71.195 215.8125 -71.875 215.8125 C-71.875 215.1525 -71.875 214.4925 -71.875 213.8125 C-72.535 213.8125 -73.195 213.8125 -73.875 213.8125 C-82.15191032 202.66582383 -80.63316973 189.95686493 -80.375 176.75 C-80.34849033 174.38225857 -80.32343186 172.01450046 -80.29980469 169.64672852 C-80.1071566 153.97049803 -79.5856406 138.40337826 -77.875 122.8125 C-77.73332276 121.45710702 -77.59241744 120.1016332 -77.45214844 118.74609375 C-68.91592202 36.70452936 -68.91592202 36.70452936 -40.5703125 12.875 C-30.03415471 5.13696936 -13.39631627 -5.53326107 0 0 Z " fill="#362B64" transform="translate(360.875,44.1875)"/>
<path d="M0 0 C3.24544251 0.04071344 4.2295947 0.30007938 7.125 2.0625 C9.9722513 5.07723667 11.18851563 6.98726873 11.38334656 11.18664551 C11.32862686 12.30132202 11.27390717 13.41599854 11.2175293 14.56445312 C11.16054367 15.83518677 11.10355804 17.10592041 11.04484558 18.41516113 C10.97146541 19.80803264 10.89791831 21.20089536 10.82421875 22.59375 C10.75550044 24.04548548 10.68779604 25.49726927 10.62104797 26.94909668 C10.44183778 30.79233363 10.24987124 34.63482771 10.05493164 38.47729492 C9.86389372 42.27620904 9.68293771 46.07559578 9.50195312 49.875 C9.46646425 50.61762589 9.43097538 51.36025177 9.39441109 52.12538147 C9.07716861 58.76754476 8.76160425 65.4097866 8.45062256 72.05224609 C8.31865244 74.86913556 8.18332795 77.68583419 8.04547119 80.50244141 C7.85649393 84.38647437 7.68699741 88.27122755 7.51953125 92.15625 C7.46157883 93.30452271 7.4036264 94.45279541 7.34391785 95.63586426 C7.04163635 103.11973872 7.58512859 109.14820564 12.25 115.3125 C16.28729323 118.31458984 19.60157708 118.44929516 24.47265625 118.38671875 C26.09506226 118.37064575 26.09506226 118.37064575 27.75024414 118.35424805 C28.57516357 118.34047119 29.40008301 118.32669434 30.25 118.3125 C30.24777939 117.01259628 30.24555878 115.71269257 30.24327087 114.37339783 C30.22299034 102.11703015 30.20800416 89.86066589 30.19818783 77.60428524 C30.1929715 71.30332171 30.18589651 65.00237174 30.17456055 58.70141602 C30.1636873 52.61952646 30.15771374 46.53764994 30.15512276 40.45575142 C30.15327652 38.13655963 30.1496713 35.81736854 30.14426994 33.4981823 C30.13700068 30.24738911 30.13601155 26.99664963 30.13647461 23.74584961 C30.13287933 22.789189 30.12928406 21.83252838 30.12557983 20.84687805 C30.14594665 7.61471678 30.14594665 7.61471678 33.6875 3.4375 C37.69194731 0.11673882 40.03515999 -0.12943559 45.25 0.3125 C48.00329021 2.10812405 49.77627461 3.36504922 51.25 6.3125 C52.37899741 12.79022479 52.38859062 19.3268624 52.36352539 25.88110352 C52.36367142 26.89678909 52.36381744 27.91247467 52.3639679 28.9589386 C52.36327617 32.28645022 52.35551868 35.61390452 52.34765625 38.94140625 C52.34578944 41.26024851 52.34436678 43.57909116 52.34336853 45.89793396 C52.33956408 51.97894392 52.32975161 58.05992971 52.31866455 64.14093018 C52.30840576 70.35501783 52.30386136 76.56910943 52.29882812 82.78320312 C52.28812737 94.95964599 52.27107599 107.13607098 52.25 119.3125 C54.33251928 119.18618974 56.41445377 119.05021288 58.49609375 118.91015625 C59.6555249 118.83547119 60.81495605 118.76078613 62.00952148 118.68383789 C66.61285432 118.1563257 68.67278557 117.28082686 72.25 114.3125 C75.99780099 108.85286896 76.81755725 103.93505733 76.57055664 97.44067383 C76.55438073 96.61617894 76.53820482 95.79168406 76.52153873 94.94220448 C76.33425511 87.14943616 75.86773665 79.37011177 75.29345512 71.59732628 C75.11500563 69.17922076 74.94535296 66.76062126 74.77760315 64.3417511 C74.36079387 58.35521179 73.93013512 52.36968766 73.49914551 46.38415527 C73.13174398 41.27505966 72.77002954 36.16562453 72.41603279 31.05558205 C72.24936148 28.68323068 72.07437143 26.31158918 71.89903259 23.93986511 C71.79742088 22.48557416 71.69620807 21.03125526 71.59545898 19.5769043 C71.50441391 18.31516891 71.41336884 17.05343353 71.31956482 15.75346375 C71.19377731 9.53149294 71.92396934 5.90071434 76.25 1.3125 C79.47340777 -0.29920388 82.76441919 -0.28292551 86.25 0.3125 C90.59504355 3.6185114 92.7668399 7.02527226 93.56201172 12.43530273 C93.83479761 15.1006814 94.05087367 17.76560063 94.25 20.4375 C94.33066711 21.44078339 94.41133423 22.44406677 94.4944458 23.47775269 C94.75498964 26.75538661 95.00311524 30.03381096 95.25 33.3125 C95.42533909 35.57439056 95.60079563 37.83627201 95.77636719 40.09814453 C96.82505313 53.78639083 97.75714347 67.47920571 98.5 81.1875 C98.54092773 81.93306152 98.58185547 82.67862305 98.62402344 83.44677734 C100.42746709 116.87010282 100.42746709 116.87010282 90.03125 129.60546875 C88.20585769 131.35480304 86.56323659 132.32328698 84.25 133.3125 C84.25 133.9725 84.25 134.6325 84.25 135.3125 C83.06679424 135.94559191 81.87812152 136.56846718 80.6875 137.1875 C79.69556641 137.70957031 79.69556641 137.70957031 78.68359375 138.2421875 C72.83898956 140.81268758 67.67365686 141.55008685 61.3125 141.4375 C60.62865234 141.42847656 59.94480469 141.41945312 59.24023438 141.41015625 C57.57666713 141.38688958 55.91328369 141.35103167 54.25 141.3125 C54.48771118 142.3948291 54.48771118 142.3948291 54.73022461 143.49902344 C55.59054005 148.15579898 55.63898761 152.83740485 55.8125 157.5625 C55.8549585 158.67608887 55.89741699 159.78967773 55.94116211 160.93701172 C56.44364341 175.7243185 56.33971593 190.51903292 56.25 205.3125 C57.013125 205.60125 57.77625 205.89 58.5625 206.1875 C66.26480908 209.41172241 69.10762152 214.92603265 72.25 222.3125 C73.54270489 226.19061467 73.56068979 229.95472814 73.71484375 234.00390625 C73.75239777 234.90803253 73.78995178 235.81215881 73.8286438 236.74368286 C73.95315995 239.7872796 74.07057043 242.83110294 74.1875 245.875 C74.27334668 248.03035519 74.35920303 250.18571 74.44506836 252.34106445 C75.26581473 273.33075099 75.89503725 294.32690356 76.4935503 315.32393932 C76.89696676 329.47111341 77.34396184 343.61015904 78.03979492 357.74633789 C78.83958622 374.35974381 78.52452897 386.00746782 67 398.8125 C65.25 400.3125 65.25 400.3125 63.25 400.3125 C63.25 400.9725 63.25 401.6325 63.25 402.3125 C52.2346286 409.05660494 39.70017081 410.25129426 27.0703125 407.66015625 C21.28349461 405.55995599 16.3221809 401.93067164 12.25 397.3125 C12.25 396.6525 12.25 395.9925 12.25 395.3125 C11.59 395.3125 10.93 395.3125 10.25 395.3125 C9.42834491 393.60855107 8.61809355 391.89910102 7.8125 390.1875 C7.36003906 389.23617188 6.90757812 388.28484375 6.44140625 387.3046875 C4.29607591 381.91674309 4.09491955 376.5960364 4.14160156 370.85742188 C4.14663382 369.70862171 4.14663382 369.70862171 4.15176773 368.53661346 C4.24552086 355.55312631 4.63428811 342.57236026 4.984375 329.59375 C5.00382329 328.8725038 5.02327158 328.15125759 5.04330921 327.40815544 C5.2278237 320.58466126 5.41494676 313.76124172 5.60735703 306.93796539 C5.85123283 298.28162626 6.0827009 289.62514378 6.29796767 280.96804476 C6.45150694 274.83555642 6.61931434 268.7035556 6.7975142 262.57173491 C6.90305649 258.92661091 7.00245607 255.28157268 7.08629608 251.63587952 C7.17995514 247.57746344 7.30313891 243.52044476 7.42871094 239.46289062 C7.45173279 238.27412323 7.47475464 237.08535583 7.49847412 235.86056519 C7.83874468 226.168893 9.90180366 218.07827007 16.625 210.8125 C17.35460937 209.9978125 18.08421875 209.183125 18.8359375 208.34375 C21.54143436 206.06728015 23.85609465 205.21232505 27.25 204.3125 C27.22679687 203.20003906 27.20359375 202.08757812 27.1796875 200.94140625 C26.9175325 181.03810732 28.18181303 161.17907316 29.25 141.3125 C28.16533447 141.33207764 27.08066895 141.35165527 25.96313477 141.37182617 C24.51839686 141.38766374 23.07365361 141.403019 21.62890625 141.41796875 C20.91657837 141.43210815 20.20425049 141.44624756 19.47033691 141.46081543 C10.04675531 141.53378265 2.44701306 138.31001089 -4.75 132.3125 C-7.75 128.92540323 -7.75 128.92540323 -7.75 126.3125 C-8.41 126.3125 -9.07 126.3125 -9.75 126.3125 C-10.39995297 124.89771865 -11.04478722 123.48058513 -11.6875 122.0625 C-12.04714844 121.27359375 -12.40679687 120.4846875 -12.77734375 119.671875 C-15.19225737 113.81401225 -14.93953408 108.18133564 -14.93359375 101.921875 C-14.93258163 100.7434906 -14.93156952 99.5651062 -14.93052673 98.35101318 C-14.82752698 82.55365617 -13.8692904 66.79364837 -12.95404053 51.02655029 C-12.76288952 47.69884119 -12.57975354 44.37071022 -12.3967371 41.04254532 C-12.21828836 37.80641148 -12.03652847 34.57047085 -11.85360527 31.3345871 C-11.76724893 29.80531204 -11.68153719 28.27600043 -11.59651375 26.7466507 C-11.47770362 24.62420177 -11.35481095 22.50202832 -11.23071289 20.37988281 C-11.16187393 19.18002747 -11.09303497 17.98017212 -11.02210999 16.74395752 C-10.23955345 6.87548647 -10.23955345 6.87548647 -7.25 3.4375 C-6.425 2.73625 -5.6 2.035 -4.75 1.3125 C-3.75 0.3125 -3.75 0.3125 0 0 Z " fill="#392C63" transform="translate(145.75,47.6875)"/>
<path d="M0 0 C0 60.72 0 121.44 0 184 C-32.02857143 184 -32.02857143 184 -38.25 179.8125 C-44.98115006 172.92836926 -44.47345592 165.60191463 -44.375 156.4375 C-44.37101196 155.76015808 -44.36702393 155.08281616 -44.36291504 154.38494873 C-43.57824747 37.81486884 -43.57824747 37.81486884 -17.765625 10.6484375 C-6.19990637 0 -6.19990637 0 0 0 Z " fill="#2D83CA" transform="translate(346,66)"/>
<path d="M0 0 C2.93423195 1.79646854 4.47205355 2.9441071 6 6 C7.9828249 20.84020513 8.3443899 35.78154515 8.65820312 50.72998047 C8.81632742 58.10697344 9.05163934 65.46230278 9.49609375 72.828125 C10.14242248 83.59326942 10.3392555 94.36362417 10.55224609 105.14453125 C10.76731023 117.53932509 10.76731023 117.53932509 11.77734375 129.88769531 C12.171756 133.62942201 12.22375507 137.36541399 12.25 141.125 C12.270625 141.87136719 12.29125 142.61773437 12.3125 143.38671875 C12.36506668 150.9431793 10.3940883 157.44726204 5 163 C0.92647225 166.57976681 -3.21785529 166.44239219 -8.41015625 166.2890625 C-11.6531868 165.92709529 -13.51204188 165.11099477 -16 163 C-16.70125 162.443125 -17.4025 161.88625 -18.125 161.3125 C-23.6396645 154.51108045 -23.27926902 147.54208749 -22.75 139.25 C-22.62782078 136.85558939 -22.50816898 134.46104889 -22.390625 132.06640625 C-22.32423828 130.77879395 -22.25785156 129.49118164 -22.18945312 128.16455078 C-21.97348104 123.68286204 -21.84759262 119.20015787 -21.734375 114.71484375 C-21.71437439 113.92492035 -21.69437378 113.13499695 -21.67376709 112.32113647 C-21.59573664 109.18155147 -21.51994455 106.04192095 -21.44665527 102.90222168 C-21.27300449 95.57974731 -21.06165311 88.28539376 -20.49609375 80.98046875 C-19.940511 73.7840803 -19.7649884 66.59575128 -19.61322021 59.38287354 C-19.47097893 53.05082576 -19.26705926 46.72023691 -19.07171631 40.38964844 C-19.00092156 38.0307072 -18.93690334 35.67165095 -18.87353516 33.3125 C-18.77003827 29.61112888 -18.62932356 25.91280543 -18.4616394 22.21380615 C-18.4044045 20.83391882 -18.35887283 19.45349064 -18.32571411 18.07281494 C-18.06220599 7.57970003 -18.06220599 7.57970003 -15.53271484 3.81787109 C-10.78863221 -0.56554275 -6.25201751 -1.26944518 0 0 Z " fill="#F4A130" transform="translate(192,270)"/>
<path d="M0 0 C6.6 0 13.2 0 20 0 C20.27126523 4.25596706 20.53896145 8.51194845 20.79956055 12.76855469 C20.88798536 14.19900213 20.97800951 15.62935214 21.07006836 17.05957031 C21.75664889 27.75334978 22.15829602 38.44521776 22.46875 49.15625 C22.78934228 60.20430932 23.20748311 71.24201022 23.75390625 82.28125 C23.78676664 82.9500116 23.81962704 83.61877319 23.8534832 84.30780029 C24.15351407 90.40670493 24.45972961 96.50528667 24.77319336 102.60351562 C25.47137245 116.23856946 26.13632899 129.87847618 26.33984375 143.53125 C26.36792618 144.49615356 26.39600861 145.46105713 26.42494202 146.4552002 C26.46113152 152.5208744 25.53764578 156.03269832 22 161 C20.1484375 162.5234375 20.1484375 162.5234375 18.375 163.375 C16.57847984 164.23999119 14.78341121 165.10829439 13 166 C6.76499178 166.52839053 2.94914488 165.87152557 -2 162 C-7.8807445 155.75009928 -7.69992646 150.39577433 -7.5 142.0625 C-7.48346981 140.6873469 -7.46780203 139.31218322 -7.45288086 137.93701172 C-7.11699708 115.92384361 -5.84772666 93.90098726 -4.75390625 71.9140625 C-4.66315575 70.05618858 -4.66315575 70.05618858 -4.5705719 68.16078186 C-4.24953886 61.86812981 -3.81394441 55.60710954 -3.21174622 49.3352356 C-2.95911386 46.54908861 -2.82841831 43.77289711 -2.75390625 40.9765625 C-2.72224365 39.94515137 -2.69058105 38.91374023 -2.65795898 37.85107422 C-2.62645752 36.78646973 -2.59495605 35.72186523 -2.5625 34.625 C-2.17477976 23.01014112 -1.220785 11.55676463 0 0 Z " fill="#2863B3" transform="translate(327,270)"/>
<path d="M0 0 C0.33 0 0.66 0 1 0 C1.39817235 7.92973259 1.78967959 15.85975816 2.17345428 23.79019928 C2.35199025 27.47552718 2.53253558 31.16073003 2.71826172 34.84570312 C3.43533023 49.10738784 4.13238799 63.37676674 4.34375 77.65625 C4.38550354 79.09176208 4.38550354 79.09176208 4.42810059 80.55627441 C4.46230679 86.5817652 3.50705219 90.06199856 0 95 C-1.8515625 96.5234375 -1.8515625 96.5234375 -3.625 97.375 C-5.42152016 98.23999119 -7.21658879 99.10829439 -9 100 C-15.43431679 100.54528108 -18.68988763 99.68456777 -24 96 C-24.33 95.34 -24.66 94.68 -25 94 C-21.59687262 95.05875074 -18.98646769 96.00902154 -16 98 C-11.1765046 98.53594393 -8.03612473 97.69074982 -4 95 C-2.09793151 91.94960779 -2.09793151 91.94960779 -1 89 C-0.01 89 0.98 89 2 89 C1.88155142 83.25238728 1.75728929 77.50494038 1.62768555 71.75756836 C1.58442742 69.80317585 1.54274602 67.84874778 1.50268555 65.89428711 C1.44476164 63.08175955 1.38113127 60.26940952 1.31640625 57.45703125 C1.29969376 56.58601273 1.28298126 55.7149942 1.26576233 54.81758118 C1.160692 50.14221917 1.160692 50.14221917 0.48632812 45.52734375 C-0.30529815 41.41343048 -0.12123199 37.28394051 -0.09765625 33.10546875 C-0.0962413 32.15811356 -0.09482635 31.21075836 -0.09336853 30.23469543 C-0.08778611 27.21893105 -0.07523682 24.20324182 -0.0625 21.1875 C-0.05748273 19.13867295 -0.05292022 17.08984473 -0.04882812 15.04101562 C-0.03782243 10.02731494 -0.02056988 5.0136702 0 0 Z " fill="#3359A2" transform="translate(349,336)"/>
<path d="M0 0 C3.40367358 0.50485111 5.15778544 1.85009633 7.44921875 4.36328125 C13.03947779 15.54379934 10.73878902 34.1455011 11.07421875 46.61328125 C11.09468262 47.3586615 11.11514648 48.10404175 11.13623047 48.87200928 C11.43319987 60.03689314 11.49365542 71.19486459 11.44921875 82.36328125 C11.11921875 82.36328125 10.78921875 82.36328125 10.44921875 82.36328125 C9.4187412 74.74967025 9.22324583 67.16456184 9.06106567 59.49291992 C8.79389153 47.28585405 8.38238641 35.09066487 7.63619995 22.90289307 C7.51357963 20.89377164 7.39942443 18.88413934 7.28540039 16.87451172 C7.20668701 15.66424316 7.12797363 14.45397461 7.046875 13.20703125 C6.97992432 12.14677734 6.91297363 11.08652344 6.84399414 9.99414062 C6.60599095 7.13792844 6.60599095 7.13792844 4.44921875 4.36328125 C-0.70895715 1.84709788 -5.08407979 2.46431257 -10.55078125 3.36328125 C-7.45660008 -0.44883084 -4.65388166 -0.12908577 0 0 Z " fill="#DB9D53" transform="translate(189.55078125,269.63671875)"/>
<path d="M0 0 C0.33 0 0.66 0 1 0 C1.03017445 4.77081252 1.04892393 9.54161588 1.0625 14.3125 C1.06510834 15.02996399 1.06771667 15.74742798 1.07040405 16.4866333 C1.10375548 27.73123072 0.84949451 38.91760954 0.09204102 50.1418457 C-0.25996888 56.70597741 -0.08388819 63.02981829 3 69 C3.99 69.33 4.98 69.66 6 70 C4.02 70.495 4.02 70.495 2 71 C-2.35172013 64.4724198 -3.82583331 56.7660094 -3 49 C-2.67 48.01 -2.34 47.02 -2 46 C-1.85732994 43.05007579 -1.76641505 40.11957725 -1.71875 37.16796875 C-1.70034058 36.29860184 -1.68193115 35.42923492 -1.66296387 34.53352356 C-1.60422377 31.75158442 -1.55143549 28.9695832 -1.5 26.1875 C-1.43208553 22.53503423 -1.35833502 18.88275112 -1.28125 15.23046875 C-1.26767456 14.39589645 -1.25409912 13.56132416 -1.2401123 12.70146179 C-1.14854897 8.37076426 -0.84912369 4.26495577 0 0 Z " fill="#4A2C37" transform="translate(170,362)"/>
<path d="M0 0 C3 2.5 3 2.5 5 5 C4.01 5.495 4.01 5.495 3 6 C2.67 5.34 2.34 4.68 2 4 C1.2575 4.474375 0.515 4.94875 -0.25 5.4375 C-3 7 -3 7 -5 7.375 C-8.12836168 8.35261303 -9.82105537 10.63947666 -12 13 C-12.33 12.34 -12.66 11.68 -13 11 C-13.99 11.495 -13.99 11.495 -15 12 C-14.54726428 7.133091 -13.35474936 4.5580675 -10 1 C-6.78707942 -0.60646029 -3.4741348 -0.62441428 0 0 Z " fill="#42376A" transform="translate(232,48)"/>
<path d="M0 0 C0.66 0 1.32 0 2 0 C2.89587605 12.3502912 3.11522956 24.61922367 3 37 C2.34 37 1.68 37 1 37 C-0.07650471 24.65864238 -0.11028714 12.38100347 0 0 Z " fill="#5D567B" transform="translate(369,370)"/>
<path d="M0 0 C0.7425 0.185625 1.485 0.37125 2.25 0.5625 C4.88638006 1.18222503 4.88638006 1.18222503 6.9375 0.4375 C9.98058766 -0.20800344 12.15902174 0.90234931 15 2 C15.33 3.65 15.66 5.3 16 7 C15.443125 6.67515625 14.88625 6.3503125 14.3125 6.015625 C11.68971657 4.86372687 9.85253627 4.73260649 7 4.75 C6.154375 4.74484375 5.30875 4.7396875 4.4375 4.734375 C1.86521189 5.01468845 0.2196892 5.7051813 -2 7 C-1.34 4.69 -0.68 2.38 0 0 Z " fill="#382555" transform="translate(180,266)"/>
<path d="M0 0 C5.14400416 1.36164816 8.1256048 4.6884072 11 9 C11.671875 11.2265625 11.671875 11.2265625 12 13 C11.01 12.67 10.02 12.34 9 12 C7.7763932 11.9254644 7.7763932 11.9254644 6 13 C5.731875 12.195625 5.46375 11.39125 5.1875 10.5625 C4.795625 9.716875 4.40375 8.87125 4 8 C3.01 7.67 2.02 7.34 1 7 C0.67 4.69 0.34 2.38 0 0 Z M5 6 C5 6.66 5 7.32 5 8 C5.66 7.67 6.32 7.34 7 7 C6.34 6.67 5.68 6.34 5 6 Z " fill="#554D78" transform="translate(204,254)"/>
<path d="M0 0 C-2.65705422 3.64114838 -4.78220774 6.29493504 -9 8 C-14.40123582 8.51440341 -19.21802982 8.82417533 -24 6 C-20.70303895 4.90101298 -19.59505097 5.12875556 -16.3125 5.9375 C-15.50425781 6.13214844 -14.69601563 6.32679688 -13.86328125 6.52734375 C-13.24839844 6.68332031 -12.63351563 6.83929688 -12 7 C-12 6.34 -12 5.68 -12 5 C-10.35 5 -8.7 5 -7 5 C-6.67 3.35 -6.34 1.7 -6 0 C-2.25 -1.125 -2.25 -1.125 0 0 Z " fill="#DC9D4C" transform="translate(201,428)"/>
<path d="M0 0 C0.33 1.32 0.66 2.64 1 4 C-2 6 -2 6 -4 6 C-4.268125 6.969375 -4.53625 7.93875 -4.8125 8.9375 C-5.204375 9.948125 -5.59625 10.95875 -6 12 C-9 13 -9 13 -12 12 C-10.47940093 8.11985064 -8.13921469 6.26093438 -4.875 3.75 C-3.96492188 3.04359375 -3.05484375 2.3371875 -2.1171875 1.609375 C-1.41851562 1.07828125 -0.71984375 0.5471875 0 0 Z " fill="#5D547E" transform="translate(325,54)"/>
<path d="M0 0 C0.33 1.32 0.66 2.64 1 4 C0.37351563 3.96519531 -0.25296875 3.93039063 -0.8984375 3.89453125 C-1.71570313 3.86746094 -2.53296875 3.84039062 -3.375 3.8125 C-4.59316406 3.76029297 -4.59316406 3.76029297 -5.8359375 3.70703125 C-6.55007812 3.80371094 -7.26421875 3.90039062 -8 4 C-8.99 5.485 -8.99 5.485 -10 7 C-12.125 7.6875 -12.125 7.6875 -14 8 C-13.12269491 5.29497597 -12.28331029 3.31599994 -10.375 1.1875 C-6.84016181 -0.5799191 -3.92581331 -0.19629067 0 0 Z " fill="#584E77" transform="translate(150,48)"/>
<path d="M0 0 C0.33 0 0.66 0 1 0 C1.03738281 0.82242187 1.07476562 1.64484375 1.11328125 2.4921875 C1.68164402 13.04985644 1.68164402 13.04985644 5 23 C5.99 23.33 6.98 23.66 8 24 C6.68 24.33 5.36 24.66 4 25 C-0.35172013 18.4724198 -1.82583331 10.7660094 -1 3 C-0.67 2.01 -0.34 1.02 0 0 Z " fill="#392248" transform="translate(168,408)"/>
<path d="M0 0 C1.65 0.33 3.3 0.66 5 1 C5 1.66 5 2.32 5 3 C0.16230728 6.6043679 -4.86277186 9.67698799 -11 10 C-10.67 8.68 -10.34 7.36 -10 6 C-8.68 6 -7.36 6 -6 6 C-3.98504093 5.38001259 -1.9812585 4.72045764 0 4 C0 2.68 0 1.36 0 0 Z " fill="#585078" transform="translate(356,445)"/>
<path d="M0 0 C0.33 0 0.66 0 1 0 C1.01458252 0.94319092 1.02916504 1.88638184 1.04418945 2.8581543 C1.10539606 6.37158661 1.17957508 9.88425446 1.26245117 13.3972168 C1.29561916 14.91501621 1.32367632 16.43293656 1.34643555 17.95092773 C1.38013278 20.13838019 1.43245204 22.32473264 1.48828125 24.51171875 C1.51446533 25.82615967 1.54064941 27.14060059 1.56762695 28.49487305 C2.0150641 32.12212041 2.88098449 34.06692731 5 37 C4.01 37.495 4.01 37.495 3 38 C-0.0735483 33.81330963 -0.40494161 30.32635823 -0.29296875 25.29296875 C-0.28872391 24.56757401 -0.28447906 23.84217926 -0.28010559 23.09480286 C-0.26339543 20.79198109 -0.2257596 18.49005447 -0.1875 16.1875 C-0.17244316 14.6204554 -0.1587565 13.053397 -0.14648438 11.48632812 C-0.11351731 7.65721043 -0.06178992 3.82875666 0 0 Z " fill="#325CA8" transform="translate(320,392)"/>
<path d="M0 0 C0 0.99 0 1.98 0 3 C-5.30804337 6.61398697 -9.54123843 8.07646026 -16 7 C-16.99 6.34 -17.98 5.68 -19 5 C-18.67 4.34 -18.34 3.68 -18 3 C-17.01 3.33 -16.02 3.66 -15 4 C-9.31202112 4.37298222 -5.99549995 4.04603656 -1 1 C-0.67 0.67 -0.34 0.34 0 0 Z " fill="#262E71" transform="translate(347,431)"/>
<path d="M0 0 C0.64582031 0.20496094 1.29164063 0.40992188 1.95703125 0.62109375 C11.57482685 3.37091493 21.04936297 3.69815013 31 4 C31 4.33 31 4.66 31 5 C27.64590806 5.05859857 24.29194983 5.09379582 20.9375 5.125 C19.99455078 5.14175781 19.05160156 5.15851563 18.08007812 5.17578125 C5.69708807 5.26207386 5.69708807 5.26207386 1.0625 1.375 C0.711875 0.92125 0.36125 0.4675 0 0 Z " fill="#3A7ABC" transform="translate(308,245)"/>
<path d="M0 0 C0.99 0.33 1.98 0.66 3 1 C3.73046875 2.84765625 3.73046875 2.84765625 4.1875 5.0625 C4.34605469 5.79597656 4.50460937 6.52945312 4.66796875 7.28515625 C4.83232422 8.13400391 4.83232422 8.13400391 5 9 C1.08597051 7.73058503 -0.79072873 6.48832306 -3 3 C-2.01 2.01 -1.02 1.02 0 0 Z " fill="#4F4673" transform="translate(314,443)"/>
<path d="M0 0 C0.33 0 0.66 0 1 0 C2.33257403 10.55808656 2.33257403 10.55808656 1 15 C0.34 14.67 -0.32 14.34 -1 14 C-1.02694851 12.04174127 -1.04637218 10.08337774 -1.0625 8.125 C-1.07410156 7.03445313 -1.08570313 5.94390625 -1.09765625 4.8203125 C-1 2 -1 2 0 0 Z " fill="#585176" transform="translate(300,410)"/>
<path d="M0 0 C1.5 1.3125 1.5 1.3125 3 3 C3 3.99 3 4.98 3 6 C4.98 6 6.96 6 9 6 C9 7.32 9 8.64 9 10 C6.1875 9.875 6.1875 9.875 3 9 C0.90767691 5.79177126 0 3.84052912 0 0 Z " fill="#5B527C" transform="translate(133,165)"/>
<path d="M0 0 C0.33 0 0.66 0 1 0 C1.336611 1.77021322 1.66917293 3.54119674 2 5.3125 C2.185625 6.29863281 2.37125 7.28476562 2.5625 8.30078125 C3 11 3 11 3 14 C2.01 14.66 1.02 15.32 0 16 C0 10.72 0 5.44 0 0 Z " fill="#252664" transform="translate(353,408)"/>
<path d="M0 0 C1.33333333 0 2.66666667 0 4 0 C4.625 2.875 4.625 2.875 5 6 C4.34 6.66 3.68 7.32 3 8 C2.01 7.67 1.02 7.34 0 7 C-0.33 8.32 -0.66 9.64 -1 11 C-0.67 7.37 -0.34 3.74 0 0 Z " fill="#2D2358" transform="translate(290,118)"/>
<path d="M0 0 C0.33 0 0.66 0 1 0 C1.22197585 2.10277123 1.42713637 4.20732302 1.625 6.3125 C1.74101562 7.48425781 1.85703125 8.65601563 1.9765625 9.86328125 C2 13 2 13 0 16 C-0.66 16 -1.32 16 -2 16 C-1.34 10.72 -0.68 5.44 0 0 Z " fill="#3877BB" transform="translate(310,120)"/>
<path d="M0 0 C0.99 0.33 1.98 0.66 3 1 C3.07654536 5.51617599 3.10228696 9.59085217 2 14 C0 12 0 12 -0.1953125 9.1796875 C-0.17210937 8.08914063 -0.14890625 6.99859375 -0.125 5.875 C-0.10695313 4.77929688 -0.08890625 3.68359375 -0.0703125 2.5546875 C-0.04710937 1.71164062 -0.02390625 0.86859375 0 0 Z " fill="#554C78" transform="translate(304,317)"/>
<path d="M0 0 C5.28 0 10.56 0 16 0 C15.67 1.32 15.34 2.64 15 4 C14.01 3.34 13.02 2.68 12 2 C9.02550392 1.75780685 9.02550392 1.75780685 5.8125 1.875 C4.72582031 1.89304687 3.63914063 1.91109375 2.51953125 1.9296875 C1.68808594 1.95289063 0.85664063 1.97609375 0 2 C0 1.34 0 0.68 0 0 Z " fill="#4D3141" transform="translate(180,269)"/>
<path d="M0 0 C0.33 0 0.66 0 1 0 C1.8125 2.6875 1.8125 2.6875 2 6 C-0.4375 8.875 -0.4375 8.875 -3 11 C-3.33 10.34 -3.66 9.68 -4 9 C-3.22265625 6.8359375 -3.22265625 6.8359375 -2.0625 4.375 C-1.68222656 3.55773437 -1.30195313 2.74046875 -0.91015625 1.8984375 C-0.60980469 1.27195312 -0.30945313 0.64546875 0 0 Z " fill="#645B85" transform="translate(298,86)"/>
<path d="M0 0 C0 0.66 0 1.32 0 2 C-0.99 2.495 -0.99 2.495 -2 3 C-2.45375 3.825 -2.9075 4.65 -3.375 5.5 C-5 8 -5 8 -7.1875 8.8125 C-7.785625 8.874375 -8.38375 8.93625 -9 9 C-7.45665977 5.21180126 -4.44676575 0 0 0 Z " fill="#3876B9" transform="translate(334,73)"/>
<path d="M0 0 C3.16115776 1.36983503 3.9927092 1.9890638 6 5 C6.1953125 7.26171875 6.1953125 7.26171875 6.125 9.6875 C6.10695312 10.49574219 6.08890625 11.30398437 6.0703125 12.13671875 C6.03550781 13.05904297 6.03550781 13.05904297 6 14 C5.67 14 5.34 14 5 14 C5 11.36 5 8.72 5 6 C4.01 5.67 3.02 5.34 2 5 C0.8125 2.4375 0.8125 2.4375 0 0 Z " fill="#5B5578" transform="translate(191,49)"/>
<path d="M0 0 C0.33 0 0.66 0 1 0 C2.10765663 6.86747109 1.700773 12.26718787 0 19 C-0.33 19 -0.66 19 -1 19 C-1.10655578 12.55929529 -0.96205088 6.37358711 0 0 Z " fill="#201647" transform="translate(307,285)"/>
<path d="M0 0 C2.475 0.99 2.475 0.99 5 2 C4.67 3.65 4.34 5.3 4 7 C3.01 7 2.02 7 1 7 C0.67 4.69 0.34 2.38 0 0 Z " fill="#473D6F" transform="translate(204,254)"/>
<path d="M0 0 C0.66 0.33 1.32 0.66 2 1 C2 1.66 2 2.32 2 3 C2.66 3 3.32 3 4 3 C3.34 4.65 2.68 6.3 2 8 C0.4375 6.8125 0.4375 6.8125 -1 5 C-0.6875 2.3125 -0.6875 2.3125 0 0 Z " fill="#2E235E" transform="translate(233,51)"/>
<path d="M0 0 C3.16115776 1.36983503 3.9927092 1.9890638 6 5 C5.625 7.1875 5.625 7.1875 5 9 C2.67527795 6.14693203 1.2491742 3.45925163 0 0 Z " fill="#595178" transform="translate(359,44)"/>
<path d="M0 0 C0.99 0.33 1.98 0.66 3 1 C1.8553125 1.86625 1.8553125 1.86625 0.6875 2.75 C-2.00891579 4.83357198 -2.00891579 4.83357198 -3.6875 7.25 C-4.3371875 8.11625 -4.3371875 8.11625 -5 9 C-5.66 9 -6.32 9 -7 9 C-5.44499019 5.18315774 -2.96404505 2.80804268 0 0 Z " fill="#6E668A" transform="translate(167,254)"/>
<path d="M0 0 C0.85039667 2.38111068 1.07366994 3.71350578 0.4375 6.1875 C-1 8 -1 8 -4.125 8.75 C-5.548125 8.87375 -5.548125 8.87375 -7 9 C-6.57847656 8.51789063 -6.15695313 8.03578125 -5.72265625 7.5390625 C-5.17480469 6.90742188 -4.62695312 6.27578125 -4.0625 5.625 C-3.51722656 4.99851563 -2.97195312 4.37203125 -2.41015625 3.7265625 C-0.93041376 2.04367666 -0.93041376 2.04367666 0 0 Z " fill="#6A6288" transform="translate(221,157)"/>
<path d="M0 0 C2 3 2 3 2.4375 5.125 C2.7159375 6.053125 2.7159375 6.053125 3 7 C3.99 7.33 4.98 7.66 6 8 C4.68 8.33 3.36 8.66 2 9 C-0.29013653 5.5647952 -0.17842973 4.014669 0 0 Z " fill="#4D2F42" transform="translate(170,424)"/>
<path d="M0 0 C1.32 0.66 2.64 1.32 4 2 C1.03 4.475 1.03 4.475 -2 7 C-1.125 1.125 -1.125 1.125 0 0 Z " fill="#59527A" transform="translate(212,441)"/>
<path d="M0 0 C1.86830571 3.73661142 2.508219 5.03589176 2 9 C1.01 9.99 0.02 10.98 -1 12 C-0.67 8.04 -0.34 4.08 0 0 Z " fill="#386EB4" transform="translate(307,140)"/>
<path d="M0 0 C0.66 0 1.32 0 2 0 C1.01 2.97 0.02 5.94 -1 9 C-1.33 9 -1.66 9 -2 9 C-2.25 3.375 -2.25 3.375 0 0 Z " fill="#253073" transform="translate(317,89)"/>
<path d="M0 0 C3.79588866 0.54226981 5.47211993 2.20127563 8 5 C7.01 5.495 7.01 5.495 6 6 C5.67 5.34 5.34 4.68 5 4 C4.01 4 3.02 4 2 4 C2 3.01 2 2.02 2 1 C1.34 0.67 0.68 0.34 0 0 Z " fill="#847D9D" transform="translate(229,48)"/>
</svg>
