<svg width="256" height="256" version="1.1" xmlns="http://www.w3.org/2000/svg" desc="Created with imagetracer.js version 1.2.6" ><path fill="rgb(0,0,0)" stroke="rgb(0,0,0)" stroke-width="1" opacity="0" d="M 0 0 L 256 0 L 256 256 L 0 256 L 0 0 Z M 100 82 L 94 85 Q 91 86 90 90 Q 89 91 89 90 L 88 91 L 82 91 L 82 90 L 81 91 Q 80 90 80 91 Q 78 91 79 92 L 78 92 L 77 94 L 77 98 L 79 101 Q 80 100 80 101 L 81 101 L 83 102 Q 83 103 84 102 L 86 102 Q 87 101 87 102 L 88 102 L 90 102 L 92 105 L 94 108 L 98 109 L 99 110 Q 99 109 101 110 L 102 110 L 103 110 L 103 110 L 104 110 L 105 110 L 105 109 L 109 108 Q 112 106 114 102 L 115 102 L 116 102 Q 117 103 117 102 L 118 102 Q 120 102 120 102 L 122 102 Q 122 101 123 102 L 124 102 L 125 102 L 126 102 L 126 102 L 129 102 Q 130 101 130 102 L 131 102 L 135 102 Q 136 101 136 102 L 138 102 L 139 102 Q 140 101 140 102 L 142 102 L 144 102 Q 145 101 145 102 L 146 102 Q 147 103 147 102 L 149 102 Q 150 101 150 102 L 152 102 L 153 102 L 155 102 L 155 102 L 156 102 L 156 102 Q 158 102 159 102 L 160 102 L 162 102 L 163 102 L 165 102 L 165 102 L 166 102 L 167 102 Q 169 102 170 102 Q 171 102 173 102 Q 174 101 174 102 Q 176 102 175 101 L 176 101 L 179 98 L 179 94 L 177 91 L 176 91 L 175 91 L 169 91 Q 168 90 168 91 L 167 90 Q 166 91 164 91 Q 164 90 163 91 L 162 90 Q 161 91 160 91 Q 159 90 159 91 Q 156 91 156 90 Q 155 91 153 91 Q 153 90 152 91 Q 151 90 149 90 Q 148 91 148 90 L 146 91 Q 146 90 145 91 L 141 91 L 141 90 Q 140 91 138 91 L 137 90 L 136 91 L 136 90 L 135 91 L 135 90 Q 134 91 133 91 Q 132 90 132 91 Q 130 91 130 90 L 129 91 L 122 91 Q 122 90 121 91 Q 120 91 119 90 L 119 91 L 114 91 L 113 87 Q 110 85 107 83 L 104 83 L 104 82 L 100 82 Z M 141 114 L 141 115 L 137 115 L 135 117 L 131 120 L 131 122 Q 131 123 129 123 L 128 122 L 127 123 L 126 122 Q 125 123 124 123 Q 123 122 123 123 L 121 122 Q 121 123 118 123 Q 118 122 117 123 L 116 122 Q 115 123 113 123 Q 113 122 112 123 Q 110 123 110 122 L 108 123 L 104 123 L 103 122 L 102 123 L 95 123 L 95 122 L 94 123 L 83 123 L 82 122 Q 81 123 80 123 Q 78 125 77 127 L 77 128 L 78 131 L 81 134 L 94 134 L 94 134 L 96 134 Q 96 135 97 134 L 102 134 L 103 134 L 103 134 L 117 134 Q 117 135 118 134 L 124 134 L 124 134 L 126 134 Q 126 135 127 134 L 130 134 L 131 134 L 133 138 L 134 138 L 137 141 L 138 141 L 138 142 L 139 141 Q 141 140 141 142 L 141 142 L 145 142 L 145 142 L 146 141 L 147 141 L 149 140 L 150 140 L 152 138 L 155 135 L 156 134 Q 157 135 157 134 L 164 134 L 165 134 Q 165 133 168 134 L 169 134 L 170 134 L 170 134 L 171 134 L 171 134 L 172 134 L 175 134 L 176 133 L 179 130 L 179 126 Q 177 125 178 124 L 175 123 L 168 123 L 168 122 L 167 123 L 162 123 L 161 122 L 160 123 Q 158 123 157 122 L 155 123 Q 155 119 152 118 Q 152 117 151 117 L 151 116 L 150 117 L 147 115 L 141 114 Z M 108 146 Q 108 147 106 147 L 101 149 L 101 150 L 100 151 L 98 155 L 82 155 L 82 154 Q 81 155 80 155 L 77 158 L 77 162 L 78 163 L 78 163 L 80 165 Q 80 166 81 165 L 81 166 L 87 166 L 89 166 L 89 166 L 90 166 L 90 166 L 93 166 L 94 166 L 97 166 Q 97 167 98 166 Q 99 165 99 166 L 98 167 Q 100 167 99 168 L 100 168 L 100 170 L 101 170 L 104 172 Q 106 172 105 173 L 110 174 L 110 174 L 113 173 L 114 173 Q 115 172 115 173 L 120 170 L 123 166 L 124 166 L 125 166 L 126 166 L 129 166 Q 130 165 130 166 L 132 166 L 133 166 L 135 166 L 135 166 L 136 166 L 136 166 L 138 166 L 139 166 Q 140 165 140 166 L 142 166 L 143 166 L 144 166 L 145 166 L 147 166 L 148 166 L 149 166 Q 149 167 151 166 Q 152 165 152 166 L 155 166 L 156 166 L 157 166 Q 158 165 158 166 L 159 166 L 160 166 L 162 166 L 162 166 L 163 166 L 163 166 L 167 166 L 169 166 L 169 166 L 170 166 L 171 166 Q 172 165 172 166 L 174 166 L 175 166 L 176 166 L 179 163 L 179 162 L 180 162 L 179 161 L 179 158 L 178 156 L 175 155 Q 172 155 171 154 L 169 155 L 162 155 L 161 154 L 160 155 L 142 155 Q 142 154 141 155 L 133 155 L 133 154 L 132 155 L 123 155 L 120 149 L 119 149 L 117 148 Q 115 148 116 147 L 113 147 L 113 146 L 108 146 Z " /><path fill="rgb(244,244,243)" stroke="rgb(244,244,243)" stroke-width="1" opacity="0.2901960784313726" d="M 99.8 82 L 104 82.3 L 99.8 82.5 L 99.8 82 Z " /><path fill="rgb(244,244,243)" stroke="rgb(244,244,243)" stroke-width="1" opacity="0.2901960784313726" d="M 97.8 82.5 L 99 82.8 L 96.8 83.5 L 96.8 83 L 97.8 82.5 Z " /><path fill="rgb(244,244,243)" stroke="rgb(244,244,243)" stroke-width="1" opacity="0.2901960784313726" d="M 104.8 82.5 L 106 82.8 L 104.8 83 L 104.8 82.5 Z " /><path fill="rgb(244,244,243)" stroke="rgb(244,244,243)" stroke-width="1" opacity="0.2901960784313726" d="M 106.8 83 Q 110.5 84.3 112.5 87.3 L 112.8 88 L 113.5 87.8 Q 112.5 88.3 113.5 88.8 L 114 90.5 L 118.8 90.5 L 119.3 90 Q 119.6 90.9 121.3 90.5 Q 121.8 89.5 122.3 90.5 L 128.8 90.5 L 129.8 90 Q 130.1 90.9 131.8 90.5 Q 132.3 89.5 132.8 90.5 Q 134.4 90.9 134.8 90 L 135.3 90.5 L 135.8 90 L 136.3 90.5 L 136.8 90 L 138.3 90.5 Q 140.3 91 140.8 90 L 141.3 90.5 L 145.3 90.5 Q 145.8 89.5 146.3 90.5 L 147.8 90 Q 148.3 91 148.8 90 Q 151.2 89.6 152.3 90.5 Q 152.8 89.5 153.3 90.5 Q 155.3 91 155.8 90 Q 156.4 91.1 158.8 90.5 Q 159.3 89.5 159.8 90.5 Q 161.4 90.9 161.8 90 L 163.3 90.5 Q 163.8 89.5 164.3 90.5 Q 166.3 91 166.8 90 L 167.8 90.5 Q 168.3 89.5 168.8 90.5 L 175.3 90.5 L 176.3 91 L 177 90.8 L 178.5 93.3 Q 178 94 177.5 92.8 Q 177.9 91.6 176.8 92 L 175.3 91 L 114.3 91 L 113.5 90.3 Q 112.4 86.9 109.8 85 L 106.8 83.5 L 106.8 83 Z " /><path fill="rgb(244,244,243)" stroke="rgb(244,244,243)" stroke-width="1" opacity="0.2901960784313726" d="M 94.8 84 Q 95.5 84.5 94.3 85 L 91.5 87.3 L 90.8 88.5 L 91 87.8 L 90.5 86.8 L 91.3 87 L 93.8 84.5 L 94.8 84 Z " /><path fill="rgb(244,244,243)" stroke="rgb(244,244,243)" stroke-width="1" opacity="0.2901960784313726" d="M 81.8 90 L 82.3 90.5 L 88.3 90.5 L 88.8 90 L 89.3 90.5 L 90 90.3 L 89.8 91 L 81.3 91 Q 80.5 90.5 81.8 90 Z " /><path fill="rgb(244,244,243)" stroke="rgb(244,244,243)" stroke-width="1" opacity="0.2901960784313726" d="M 80.3 90.5 L 80.5 91.5 L 79.8 91.5 L 78 93.3 Q 76.9 94.7 77.5 97.8 L 79.5 100.3 L 79.3 100.5 L 77.5 98.8 Q 76.4 97.3 77 94.3 L 78 92 L 79 92 Q 78.4 90.7 79.8 91 L 80.3 90.5 Z " /><path fill="rgb(244,244,243)" stroke="rgb(244,244,243)" stroke-width="1" opacity="0.2901960784313726" d="M 178.8 96.5 L 179 97.8 L 177.5 99.8 L 177.8 100.5 Q 177 99.2 176.3 101 L 175.5 100.8 L 178 98.8 L 178.8 96.5 Z " /><path fill="rgb(244,244,243)" stroke="rgb(244,244,243)" stroke-width="1" opacity="0.2901960784313726" d="M 80 100.5 L 81 100.8 Q 80.5 102 80 101.3 L 80 100.5 Z " /><path fill="rgb(244,244,243)" stroke="rgb(244,244,243)" stroke-width="1" opacity="0.2901960784313726" d="M 81.8 101 L 89.8 101 L 90.5 101.8 L 91.5 103.8 Q 91 105 90.5 104.3 Q 91.5 103.8 90.5 103.3 L 90 101.5 L 87.8 101.5 L 87.3 102 Q 86.8 101 86.3 102 L 83.8 101.5 Q 83.3 102.5 82.8 101.5 Q 81.3 101.8 81.8 101 Z " /><path fill="rgb(244,244,243)" stroke="rgb(244,244,243)" stroke-width="1" opacity="0.2901960784313726" d="M 113.5 101 L 174.8 101 L 175 102 L 173.8 101.5 Q 173.1 102.6 170.8 102 L 169.8 101.5 Q 169.2 102.5 167.3 102 L 166.3 101.5 L 165.3 102 L 164.8 101.5 L 163.3 102 L 161.8 101.5 L 160.3 102 L 158.8 101.5 Q 158.2 102.5 156.3 102 L 155.8 101.5 L 155.3 102 L 154.8 101.5 L 153.3 102 L 151.8 101.5 L 150.3 102 Q 149.8 101 149.3 102 L 147.3 101.5 Q 146.8 102.5 146.3 101.5 L 145.3 102 Q 144.8 101 144.3 102 L 141.8 101.5 L 140.3 102 Q 139.8 101 139.3 102 L 137.8 101.5 L 136.3 102 Q 135.8 101 135.3 102 L 131.3 101.5 L 130.3 102 Q 129.8 101 129.3 102 L 126.3 102 L 125.8 101.5 L 124.8 102 L 123.8 101.5 L 122.8 102 Q 122.3 101 121.8 102 L 120.3 101.5 Q 119.9 102.4 118.3 102 L 117.3 101.5 Q 116.8 102.5 116.3 101.5 L 115.3 102 L 114.3 101.5 Q 112.4 105.6 108.8 108 L 107.3 108.5 L 107.3 108 L 108.8 107.5 L 112.5 103.8 L 113.5 101 Z " /><path fill="rgb(244,244,243)" stroke="rgb(244,244,243)" stroke-width="1" opacity="0.2901960784313726" d="M 91.8 104.5 L 95.5 107.8 L 94.8 107.5 L 92.8 106 L 92 106.3 L 92.5 105.8 L 91.5 104.8 L 91.8 104.5 Z " /><path fill="rgb(244,244,243)" stroke="rgb(244,244,243)" stroke-width="1" opacity="0.2901960784313726" d="M 97.3 108.5 L 100 109.3 L 98.8 110 L 97 108.8 L 97.3 108.5 Z " /><path fill="rgb(244,244,243)" stroke="rgb(244,244,243)" stroke-width="1" opacity="0.2901960784313726" d="M 103.8 109 Q 105.4 108.4 105 109.8 L 104.3 109.5 L 103.3 110 Q 102.5 109.5 103.8 109 Z " /><path fill="rgb(244,244,243)" stroke="rgb(244,244,243)" stroke-width="1" opacity="0.2901960784313726" d="M 141.3 114 L 144 114.3 L 141.3 114.5 L 141.3 114 Z " /><path fill="rgb(244,244,243)" stroke="rgb(244,244,243)" stroke-width="1" opacity="0.2901960784313726" d="M 138.8 114.5 L 140 114.8 L 138.8 115 L 138.8 114.5 Z " /><path fill="rgb(244,244,243)" stroke="rgb(244,244,243)" stroke-width="1" opacity="0.2901960784313726" d="M 145.8 114.5 L 148.3 115 L 149 115.8 L 148.3 115.5 L 145.8 115 L 145.8 114.5 Z " /><path fill="rgb(244,244,243)" stroke="rgb(244,244,243)" stroke-width="1" opacity="0.2901960784313726" d="M 137.3 115 L 138 115.3 Q 134.2 116.7 132 119.8 L 131.3 121 L 131 120.3 Q 133.4 116.9 137.3 115 Z " /><path fill="rgb(244,244,243)" stroke="rgb(244,244,243)" stroke-width="1" opacity="0.2901960784313726" d="M 149.8 116 Q 150.3 117 150.8 116 L 151.5 116.3 L 151.3 117 Q 152.4 116.6 152 117.8 L 154.5 120.8 Q 154 121.5 153.5 120.3 L 150.8 117 Q 148.8 116.7 149.8 116 Z " /><path fill="rgb(244,244,243)" stroke="rgb(244,244,243)" stroke-width="1" opacity="0.2901960784313726" d="M 80.8 122 L 81.3 122.5 L 81.8 122 L 83.3 122.5 L 94.3 122.5 L 94.8 122 L 95.3 122.5 L 102.3 122.5 L 102.8 122 L 104.3 122.5 L 108.3 122.5 L 109.8 122 Q 110.2 123 112.3 122.5 Q 112.8 121.5 113.3 122.5 Q 115.3 123 115.8 122 L 117.3 122.5 Q 117.8 121.5 118.3 122.5 Q 120.6 123.1 121.3 122 L 122.8 122.5 Q 123.3 121.5 123.8 122.5 Q 125.4 122.9 125.8 122 L 127.3 122.5 L 127.8 122 L 129.3 122.5 L 130.5 122.8 L 81.3 123 Q 80 122.5 80.8 122 Z " /><path fill="rgb(244,244,243)" stroke="rgb(244,244,243)" stroke-width="1" opacity="0.2901960784313726" d="M 156.8 122 Q 157.8 122.9 160.3 122.5 L 160.8 122 L 162.3 122.5 L 167.3 122.5 L 167.8 122 L 168.3 122.5 L 175.3 122.5 L 177.5 123.8 L 176.8 124 L 175.3 123 L 155 122.8 L 156.8 122 Z " /><path fill="rgb(244,244,243)" stroke="rgb(244,244,243)" stroke-width="1" opacity="0.2901960784313726" d="M 79.8 123 L 80.5 123.3 L 78 125.3 L 77.5 126.3 L 77.3 129.5 L 76.5 127.3 Q 77.5 124.5 79.8 123 Z " /><path fill="rgb(244,244,243)" stroke="rgb(244,244,243)" stroke-width="1" opacity="0.2901960784313726" d="M 177.8 124.5 Q 179.3 124.7 179 126.8 L 178.5 126.8 L 178.5 125.8 L 177.5 124.8 L 177.8 124.5 Z " /><path fill="rgb(244,244,243)" stroke="rgb(244,244,243)" stroke-width="1" opacity="0.2901960784313726" d="M 178.8 129 L 179 130.3 L 175.8 133 L 175.8 132.5 L 178.5 130.3 L 178.8 129 Z " /><path fill="rgb(244,244,243)" stroke="rgb(244,244,243)" stroke-width="1" opacity="0.2901960784313726" d="M 77.8 130 L 79.8 132.5 L 80.8 133 L 130.3 133 L 131 133.8 L 130.3 134 L 129.8 133.5 L 126.8 133.5 Q 126.3 134.5 125.8 133.5 L 124.3 134 L 123.8 133.5 L 117.8 133.5 Q 117.3 134.5 116.8 133.5 L 103.3 133.5 L 102.8 134 L 102.3 133.5 L 96.8 133.5 Q 96.3 134.5 95.8 133.5 L 94.3 134 L 93.8 133.5 L 80.8 133.5 L 77.5 130.8 L 77.8 130 Z " /><path fill="rgb(244,244,243)" stroke="rgb(244,244,243)" stroke-width="1" opacity="0.2901960784313726" d="M 155 133 L 175 133.3 L 171.8 133.5 L 171.3 134 L 170.8 133.5 L 170.3 134 L 169.8 133.5 L 169.3 134 L 167.8 133.5 Q 165.4 132.9 164.8 134 L 164.3 133.5 L 157.3 133.5 Q 156.8 134.5 156.3 133.5 L 154.5 134.8 L 152.3 138 L 152 137.8 L 153 136.8 L 155 133.8 L 155 133 Z " /><path fill="rgb(244,244,243)" stroke="rgb(244,244,243)" stroke-width="1" opacity="0.2901960784313726" d="M 131.3 134.5 Q 132.5 135 131.8 135.5 Q 130.5 135 131.3 134.5 Z " /><path fill="rgb(244,244,243)" stroke="rgb(244,244,243)" stroke-width="1" opacity="0.2901960784313726" d="M 132.3 136 Q 134.4 138.9 138 140.3 L 137.3 140.5 L 134.8 139 L 134.8 140 L 134 139.3 Q 135.1 138.6 133.8 138 Q 132.6 138.4 133 137.3 L 132 136.3 L 132.3 136 Z " /><path fill="rgb(244,244,243)" stroke="rgb(244,244,243)" stroke-width="1" opacity="0.2901960784313726" d="M 151.3 138 L 151.5 138.3 L 149.8 140 L 149 139.8 L 151.3 138 Z " /><path fill="rgb(244,244,243)" stroke="rgb(244,244,243)" stroke-width="1" opacity="0.2901960784313726" d="M 138.8 140.5 L 140 140.8 L 138.3 141.5 Q 137.5 141 138.8 140.5 Z " /><path fill="rgb(244,244,243)" stroke="rgb(244,244,243)" stroke-width="1" opacity="0.2901960784313726" d="M 146.3 140.5 L 147.5 140.8 L 146.3 141 L 146.3 140.5 Z " /><path fill="rgb(244,244,243)" stroke="rgb(244,244,243)" stroke-width="1" opacity="0.2901960784313726" d="M 140.5 141 L 145.3 141 L 145.5 141.8 L 144.8 141.5 L 141.3 141.5 L 140.8 142 L 140.5 141 Z " /><path fill="rgb(244,244,243)" stroke="rgb(244,244,243)" stroke-width="1" opacity="0.2901960784313726" d="M 108.3 146 L 113 146.3 L 108.3 146.5 L 108.3 146 Z " /><path fill="rgb(244,244,243)" stroke="rgb(244,244,243)" stroke-width="1" opacity="0.2901960784313726" d="M 104.3 146.5 L 105.3 147 L 106.8 146.5 L 106.8 147 Q 102.1 147.9 100 151.3 L 98.8 153.5 L 98.5 152.8 L 101 149.8 L 101 149 L 104.5 147.3 L 104.3 146.5 Z " /><path fill="rgb(244,244,243)" stroke="rgb(244,244,243)" stroke-width="1" opacity="0.2901960784313726" d="M 113.8 146.5 L 116 146.5 L 116 147.3 L 115.3 147 Q 113.3 147.4 113.8 146.5 Z " /><path fill="rgb(244,244,243)" stroke="rgb(244,244,243)" stroke-width="1" opacity="0.2901960784313726" d="M 117.8 148 L 118.8 149 L 119.5 148.8 L 122 152.3 L 121.8 152.5 L 120.5 151.3 L 119.3 149.5 L 117.5 148.3 L 117.8 148 Z " /><path fill="rgb(244,244,243)" stroke="rgb(244,244,243)" stroke-width="1" opacity="0.2901960784313726" d="M 81.8 154 L 82.3 154.5 L 97.8 154.5 L 98.5 154.3 L 97.8 155 L 81.3 155 Q 80.5 154.5 81.8 154 Z " /><path fill="rgb(244,244,243)" stroke="rgb(244,244,243)" stroke-width="1" opacity="0.2901960784313726" d="M 122.8 154 L 123.3 154.5 L 132.3 154.5 Q 132.8 153.5 133.3 154.5 L 141.3 154.5 L 141.8 154 L 142.3 154.5 L 160.3 154.5 L 161.3 154 L 161.8 154.5 L 169.3 154.5 L 170.8 154 Q 172.2 155.1 175.3 154.5 L 178 156.3 L 179 157.8 L 179 158.8 L 178.5 158.8 L 178.5 157.8 Q 177.2 157.2 177.5 156 L 175.3 155 L 123.3 155 Q 122 154.5 122.8 154 Z " /><path fill="rgb(244,244,243)" stroke="rgb(244,244,243)" stroke-width="1" opacity="0.2901960784313726" d="M 79.8 155 L 80.5 155.3 L 78 157.3 Q 76.9 158.7 77.5 161.8 L 77.8 162.5 L 77 162.3 L 77 158.3 L 79.8 155 Z " /><path fill="rgb(244,244,243)" stroke="rgb(244,244,243)" stroke-width="1" opacity="0.2901960784313726" d="M 178.8 161 Q 180 161.5 179.3 162 Q 178.1 161.6 178.5 162.8 L 174.8 166 L 173.8 165.5 L 172.3 166 Q 171.8 165 171.3 166 L 169.8 165.5 L 169.3 166 L 168.8 165.5 L 167.3 166 L 163.3 166 L 162.8 165.5 L 162.3 166 L 161.8 165.5 L 160.3 166 L 159.3 165.5 L 158.3 166 Q 157.8 165 157.3 166 L 155.8 165.5 L 155.3 166 L 152.3 166 Q 151.8 165 151.3 166 Q 149.2 166.5 148.8 165.5 L 148.3 166 L 146.8 165.5 L 145.3 166 L 143.8 165.5 L 143.3 166 L 141.8 165.5 L 140.3 166 Q 139.8 165 139.3 166 L 137.8 165.5 L 136.3 166 L 135.8 165.5 L 135.3 166 L 134.8 165.5 L 133.3 166 L 131.8 165.5 L 130.3 166 Q 129.8 165 129.3 166 L 125.8 165.5 L 125.3 166 L 123.8 165.5 L 122.5 166.3 L 121.3 168 L 121 167.8 L 122 166.8 L 122.5 165 L 175.3 165 L 178 162.8 L 178.8 161 Z " /><path fill="rgb(244,244,243)" stroke="rgb(244,244,243)" stroke-width="1" opacity="0.2901960784313726" d="M 78.3 163 L 79.5 164.3 L 79.3 164.5 L 78 163.3 L 78.3 163 Z " /><path fill="rgb(244,244,243)" stroke="rgb(244,244,243)" stroke-width="1" opacity="0.2901960784313726" d="M 80.3 164.5 Q 81.4 164.1 81 165.3 L 81.8 165 L 98.3 165 L 99 165.8 L 99.5 167.3 L 101.8 170 L 103.5 171.3 L 103.3 171.5 L 102.3 170.5 L 100.8 169.5 L 100 169.8 L 100 168 L 99 168 Q 99.6 166.7 98.3 167 L 98.5 166.3 Q 98.9 165.1 97.8 165.5 Q 97.3 166.5 96.8 165.5 L 94.3 166 L 92.8 165.5 L 90.3 166 L 89.8 165.5 L 89.3 166 L 88.8 165.5 L 87.3 166 L 81.3 166 L 80 164.8 L 80.3 164.5 Z " /><path fill="rgb(244,244,243)" stroke="rgb(244,244,243)" stroke-width="1" opacity="0.2901960784313726" d="M 120.8 168.5 L 121 168.8 L 119.8 170 L 119.5 169.8 L 120.8 168.5 Z " /><path fill="rgb(244,244,243)" stroke="rgb(244,244,243)" stroke-width="1" opacity="0.2901960784313726" d="M 118.8 170 L 119 170.3 L 117.8 171.5 L 116.8 172 Q 116 171.5 117.3 171 L 118.8 170 Z " /><path fill="rgb(244,244,243)" stroke="rgb(244,244,243)" stroke-width="1" opacity="0.2901960784313726" d="M 105 172 L 107.8 173 L 112.5 173.3 L 110.3 174 L 109.8 173.5 L 105 173 L 105 172 Z " /><path fill="rgb(244,244,243)" stroke="rgb(244,244,243)" stroke-width="1" opacity="0.2901960784313726" d="M 115 172 L 116 172.3 Q 115.5 173.5 115 172.8 L 115 172 Z " /><path fill="rgb(254,254,254)" stroke="rgb(254,254,254)" stroke-width="1" opacity="0.996078431372549" d="M 99.3 82.5 L 104.3 82.5 Q 104.6 83.4 106.3 83 Q 109.8 84.4 112 87.3 L 114.3 91 L 175.3 91 L 177.5 92 Q 177.2 93.2 178.5 93.8 L 179 96.3 L 178 98.8 L 176.3 100.5 L 175.3 101 L 113.5 101 L 112.5 103.8 L 108.8 107.5 L 103.3 109.5 L 100.3 109.5 L 95.8 108 L 91.5 104.3 L 89.8 101 L 81.3 101 L 79.8 100.5 L 78 98.8 Q 76.9 97.3 77.5 94.3 L 79.8 91.5 L 80.8 91 L 90 91 L 90.5 88.8 L 93.8 85 L 99.3 82.5 Z " /><path fill="rgb(254,254,254)" stroke="rgb(254,254,254)" stroke-width="1" opacity="0.996078431372549" d="M 140.3 114.5 L 145.3 114.5 L 148.3 115.5 Q 151.5 117 153.5 119.8 L 155 123 L 175.3 123 L 177.5 124 Q 177.2 125.2 178.5 125.8 L 179 128.8 L 178.5 130.3 L 176.3 132.5 L 175.3 133 L 155 133 L 155 133.8 L 151.8 138 L 147.8 140.5 Q 146.1 140.1 145.8 141 L 140.3 141 L 136.3 139.5 L 132 135.8 L 130.3 133 L 80.8 133 L 78 130.8 Q 76.9 129.3 77.5 126.3 L 79.8 123.5 L 80.8 123 L 130.5 123 Q 131.6 119.2 134.8 117 L 138.3 115 Q 139.9 115.4 140.3 114.5 Z " /><path fill="rgb(254,254,254)" stroke="rgb(254,254,254)" stroke-width="1" opacity="0.996078431372549" d="M 107.3 146.5 L 113.3 146.5 Q 113.6 147.4 115.3 147 L 120.5 150.8 L 123.3 155 L 175.3 155 L 177.5 156 Q 177.2 157.2 178.5 157.8 L 179 160.8 Q 178.2 163.2 176.3 164.5 L 175.3 165 L 122.5 165 L 122 166.8 L 119.3 170 L 116.3 172 L 113.3 173 L 107.8 173 L 103.8 171.5 L 100.5 168.8 L 98.3 165 L 81.3 165 L 79.8 164.5 L 78 162.8 Q 76.9 161.3 77.5 158.3 L 79.8 155.5 L 80.8 155 L 97.8 155 L 98.5 154.3 Q 99.8 150.5 102.8 148.5 L 107.3 146.5 Z " /></svg>