<?xml version="1.0" standalone="no"?>
<!DOCTYPE svg PUBLIC "-//W3C//DTD SVG 20010904//EN"
 "http://www.w3.org/TR/2001/REC-SVG-20010904/DTD/svg10.dtd">
<svg version="1.0" xmlns="http://www.w3.org/2000/svg"
 width="1024.000000pt" height="1024.000000pt" viewBox="0 0 1024.000000 1024.000000"
 preserveAspectRatio="xMidYMid meet">

<g transform="translate(0.000000,1024.000000) scale(0.100000,-0.100000)"
fill="#000000" stroke="none">
<path d="M4710 9540 c-746 -100 -1381 -418 -1886 -942 -466 -484 -766 -1097
-870 -1773 -19 -128 -32 -525 -22 -665 53 -679 337 -1415 891 -2305 271 -435
481 -732 1127 -1595 262 -349 507 -678 546 -730 225 -303 408 -577 482 -718
56 -107 82 -132 139 -132 51 0 88 33 126 112 88 183 498 758 1191 1673 956
1262 1446 2084 1694 2845 132 404 186 727 185 1105 0 257 -22 449 -79 694
-170 735 -637 1426 -1263 1874 -441 316 -926 500 -1481 563 -183 20 -607 17
-780 -6z m737 -225 c65 -9 129 -18 143 -20 14 -2 43 -7 65 -11 397 -62 837
-245 1177 -490 407 -292 728 -672 948 -1119 143 -290 226 -549 271 -846 30
-196 33 -670 5 -809 -1 -8 -6 -37 -10 -65 -47 -313 -160 -681 -323 -1055 -52
-119 -230 -480 -278 -565 -12 -22 -62 -110 -111 -195 l-89 -155 -5 543 -5 544
-24 19 c-22 18 -44 19 -387 19 l-364 0 0 405 c0 431 -3 460 -48 484 -15 8
-400 11 -1292 11 l-1272 0 -29 -29 -29 -29 0 -421 0 -420 -376 -3 -376 -3 -19
-24 c-18 -22 -19 -46 -19 -559 l0 -536 -31 50 c-102 160 -311 554 -419 789
-228 495 -344 900 -381 1333 -11 121 -7 482 6 582 45 343 137 638 300 960 311
613 817 1103 1416 1370 273 122 670 227 934 246 44 4 82 8 84 10 12 11 433 2
538 -11z m803 -4870 l0 -1365 -368 0 -369 0 -6 263 c-4 144 -7 312 -7 374 0
164 29 153 -385 153 l-333 0 -17 -26 c-18 -27 -21 -107 -24 -546 l-1 -218
-375 0 -375 0 0 1365 0 1365 1130 0 1130 0 0 -1365z m-2460 -450 l0 -915 -89
0 -89 0 -113 163 c-62 89 -157 225 -211 302 l-98 140 0 613 0 612 300 0 300 0
0 -915z m3193 908 l67 -6 0 -603 0 -602 -70 -99 c-38 -54 -134 -190 -213 -303
l-144 -205 -93 -3 -93 -3 6 647 c4 356 7 768 7 916 l0 268 233 0 c127 0 262
-3 300 -7z m-511 -2035 c-11 -15 -628 -842 -803 -1078 -298 -401 -495 -680
-525 -743 -10 -20 -21 -37 -24 -37 -3 0 -17 19 -30 42 -36 66 -109 172 -247
360 -69 95 -149 205 -177 243 -69 95 -434 583 -630 843 -89 117 -189 251 -223
298 l-63 84 1366 0 c1092 0 1364 -3 1356 -12z"/>
<path d="M4737 8719 c-45 -26 -47 -45 -47 -461 l0 -393 -395 0 -395 0 -32 -33
-33 -32 -3 -343 c-4 -380 -1 -395 61 -416 19 -7 171 -11 413 -11 l383 0 3
-392 c3 -425 3 -425 58 -448 17 -7 147 -10 384 -8 l358 3 24 28 24 28 0 395 0
394 401 0 401 0 34 34 34 34 0 351 0 351 -29 32 -29 33 -406 0 -406 0 0 395
c0 433 1 423 -60 455 -24 12 -87 15 -377 15 -218 0 -355 -4 -366 -11z m613
-598 l0 -399 26 -31 26 -31 403 2 402 3 7 -134 c3 -74 6 -172 6 -217 l0 -84
-416 -2 -417 -3 -21 -28 c-20 -27 -20 -36 -17 -422 l3 -395 -229 4 -228 3 -1
379 c0 209 -1 386 -2 394 -1 8 -13 28 -27 43 l-26 27 -404 0 -405 0 0 216 0
216 400 -3 401 -3 27 27 27 27 2 308 c2 169 3 351 3 405 l0 97 230 0 230 0 0
-399z"/>
<path d="M4905 8428 c0 -62 4 -86 15 -96 13 -10 13 -11 -2 -6 -16 5 -17 -17
-21 -303 -1 -169 -7 -319 -12 -332 -6 -19 -5 -22 6 -16 11 7 12 6 2 -6 -6 -8
-13 -24 -15 -37 -3 -24 -20 -31 -27 -11 -2 7 1 9 9 4 8 -5 11 -1 8 11 -2 11
-10 17 -19 15 -8 -3 -192 -4 -410 -2 l-396 3 5 -31 c2 -17 8 -29 12 -26 5 3 6
13 3 23 -4 16 0 18 26 14 37 -5 39 -17 9 -43 -15 -13 -17 -17 -6 -13 12 4 16
1 14 -12 -2 -10 -11 -20 -21 -24 -16 -6 -17 -7 -2 -13 8 -3 18 -1 21 6 2 7 5
4 5 -7 1 -12 -4 -16 -14 -12 -8 3 -15 0 -16 -7 0 -7 -4 -3 -8 8 -5 11 -7 30
-6 43 1 12 -2 22 -6 22 -5 0 -9 -42 -9 -93 0 -52 -2 -127 -4 -168 -2 -41 -2
-61 1 -45 5 29 26 59 36 50 7 -8 -4 -44 -14 -44 -5 0 -9 -7 -9 -15 0 -10 10
-15 28 -16 149 -2 294 0 299 5 4 3 -1 6 -10 6 -17 0 -22 11 -11 23 10 9 46
-12 39 -24 -4 -5 74 -9 205 -9 199 0 214 -1 241 -21 59 -42 59 -43 59 -454 l0
-375 215 0 214 0 -2 395 c-1 217 1 395 5 395 4 0 8 5 8 11 0 5 -6 7 -12 3 -8
-4 -10 -3 -5 2 5 5 14 9 20 9 7 0 12 9 12 20 0 11 6 20 13 20 6 0 11 5 10 10
-2 6 -7 9 -13 7 -5 -2 -7 0 -3 4 4 4 2 14 -4 23 -9 11 -6 10 9 -2 14 -12 23
-15 28 -8 3 6 1 11 -6 11 -7 0 -9 3 -6 6 4 4 14 1 23 -7 10 -8 20 -14 23 -14
3 0 5 -4 3 -8 -1 -5 8 -6 20 -2 18 5 20 4 8 -4 -22 -16 -43 -13 -37 3 4 10 1
13 -8 9 -8 -3 -13 -9 -10 -13 5 -8 -24 -25 -38 -21 -5 1 -6 -3 -2 -9 4 -7 12
-7 25 0 10 5 39 10 64 10 43 0 61 12 34 23 -10 4 -10 6 0 6 7 1 15 -6 18 -14
5 -12 32 -15 158 -15 96 0 146 4 136 9 -8 6 -17 8 -21 5 -4 -2 -10 0 -14 6 -3
5 1 10 10 10 9 0 14 4 10 10 -3 5 6 3 20 -4 18 -10 37 -11 63 -5 25 5 39 4 44
-4 13 -21 9 -22 -44 -18 -29 1 -51 1 -48 -2 13 -13 240 -11 240 2 0 5 -20 7
-45 5 -31 -3 -45 -1 -45 8 0 9 -3 9 -12 0 -16 -16 -28 -15 -28 1 0 8 13 12 38
11 20 -1 39 -3 42 -4 3 -1 16 -3 30 -4 14 -1 39 -4 55 -5 l30 -3 -30 -8 c-27
-7 -26 -8 15 -9 31 0 40 2 31 8 -11 7 -12 13 -4 23 6 7 10 28 9 46 -1 17 2 32
7 32 4 0 6 4 3 8 -10 17 -14 62 -5 62 5 0 9 -5 9 -12 0 -6 2 -9 5 -6 3 3 3 12
-1 21 -4 13 -10 14 -24 7 -13 -7 -21 -7 -25 1 -4 6 -13 8 -20 5 -7 -2 -15 4
-18 15 -5 19 -5 19 22 0 19 -14 32 -17 43 -10 11 6 19 6 23 -1 12 -19 32 -10
30 13 -1 12 -3 59 -4 105 l-1 82 -404 0 -404 -1 -27 26 c-20 21 -29 24 -40 15
-9 -7 -15 -8 -20 0 -5 9 15 15 38 11 5 -1 5 4 1 11 -4 6 -8 57 -9 112 -1 65
-5 101 -12 101 -22 0 -24 13 -4 20 19 6 20 14 18 285 l-1 280 -215 0 -216 0 0
-82z m85 68 c0 -9 -40 -13 -46 -5 -3 5 6 9 20 9 14 0 26 -2 26 -4z m93 -3 c-7
-2 -21 -2 -30 0 -10 3 -4 5 12 5 17 0 24 -2 18 -5z m68 -5 c0 -10 2 -10 6 0 5
13 43 17 43 4 0 -5 -6 -9 -12 -9 -7 0 -17 -2 -23 -3 -21 -5 -45 0 -45 10 0 15
30 12 31 -2z m84 2 c-3 -5 -10 -10 -16 -10 -5 0 -9 5 -9 10 0 6 7 10 16 10 8
0 12 -4 9 -10z m32 -12 c-3 -8 -6 -5 -6 6 -1 11 2 17 5 13 3 -3 4 -12 1 -19z
m41 -18 c-1 -16 -5 -27 -9 -24 -4 2 -10 -2 -12 -8 -3 -8 -6 -6 -6 5 -1 11 -6
15 -13 11 -7 -4 -8 -3 -4 4 4 6 13 9 21 5 9 -3 15 1 15 11 0 9 -5 16 -11 16
-5 0 -7 5 -4 10 11 18 25 0 23 -30z m-348 -75 c-1 -51 -4 -73 -13 -81 -4 -4
-7 2 -7 12 0 11 -5 25 -11 31 -7 7 -6 15 5 26 19 19 20 28 4 25 -10 -3 -15 31
-8 47 1 3 4 10 5 15 1 6 3 13 5 18 5 17 21 -57 20 -93z m190 75 c12 -7 10 -9
-8 -7 -12 0 -22 5 -22 9 0 11 12 10 30 -2z m-105 -20 c-3 -5 2 -10 11 -10 10
0 15 -3 11 -6 -10 -10 -39 5 -32 16 3 5 8 10 11 10 3 0 2 -4 -1 -10z m81 -4
c14 4 24 2 24 -4 0 -15 -53 -9 -56 6 -1 7 0 8 3 2 2 -5 16 -7 29 -4z m-69 -51
c0 -8 -4 -12 -9 -9 -5 3 -6 10 -3 15 9 13 12 11 12 -6z m88 -25 c-3 -5 -14
-10 -23 -9 -14 0 -13 2 3 9 27 11 27 11 20 0z m-86 -9 c10 -7 7 -9 -12 -8 -14
1 -23 5 -20 10 6 9 15 9 32 -2z m129 -16 c-3 -3 -9 2 -12 12 -6 14 -5 15 5 6
7 -7 10 -15 7 -18z m-264 -71 c3 -8 2 -12 -4 -9 -6 3 -10 10 -10 16 0 14 7 11
14 -7z m114 -13 c12 -10 22 -23 22 -29 0 -6 5 -12 12 -14 8 -3 6 -7 -5 -11 -9
-3 -16 -3 -16 1 3 19 -2 33 -10 28 -4 -3 -7 -17 -6 -31 2 -14 -1 -25 -7 -25
-6 0 -7 8 -4 17 4 9 1 20 -6 25 -10 6 -10 10 1 17 12 8 12 12 2 25 -18 22 -9
20 17 -3z m-33 -3 c5 4 5 1 1 -6 -4 -7 -11 -10 -16 -7 -4 3 -10 -1 -13 -7 -3
-7 -4 -3 -4 9 1 15 5 19 13 13 6 -6 15 -6 19 -2z m296 -6 c-7 -2 -18 1 -23 6
-8 8 -4 9 13 5 13 -4 18 -8 10 -11z m-341 -17 c0 -14 -4 -25 -9 -25 -4 0 -6
11 -3 25 2 14 6 25 8 25 2 0 4 -11 4 -25z m-30 5 c0 -5 -2 -10 -4 -10 -3 0 -8
5 -11 10 -3 6 -1 10 4 10 6 0 11 -4 11 -10z m190 -4 c0 -3 -4 -8 -10 -11 -5
-3 -10 -1 -10 4 0 6 5 11 10 11 6 0 10 -2 10 -4z m34 -4 c3 -5 -1 -9 -9 -9 -8
0 -15 4 -15 9 0 4 4 8 9 8 6 0 12 -4 15 -8z m156 2 c0 -8 -19 -13 -24 -6 -3 5
1 9 9 9 8 0 15 -2 15 -3z m-90 -8 c0 -2 -8 -10 -17 -17 -16 -13 -17 -12 -4 4
13 16 21 21 21 13z m82 -20 c10 5 10 4 1 -6 -7 -8 -9 -19 -5 -25 4 -6 -2 -1
-13 12 -17 19 -23 21 -35 11 -12 -11 -12 -10 -1 5 10 13 17 15 27 6 7 -6 19
-7 26 -3z m-315 -28 c-3 -7 -5 -2 -5 12 0 14 2 19 5 13 2 -7 2 -19 0 -25z
m130 10 c-3 -8 -6 -5 -6 6 -1 11 2 17 5 13 3 -3 4 -12 1 -19z m71 -24 c-3 -14
-5 -12 -10 9 -3 19 -2 25 4 19 6 -6 8 -18 6 -28z m-247 -1 c13 -17 13 -17 -6
-3 -11 8 -22 16 -24 17 -2 2 0 3 6 3 6 0 17 -8 24 -17z m139 7 c0 -5 -2 -10
-4 -10 -3 0 -8 5 -11 10 -3 6 -1 10 4 10 6 0 11 -4 11 -10z m57 -15 c0 -8 -3
-13 -5 -10 -3 3 -10 0 -17 -5 -8 -7 -12 -5 -12 5 0 8 4 12 8 9 4 -2 10 0 14 6
9 14 12 13 12 -5z m-153 -1 c-7 -3 -11 -13 -9 -22 1 -9 0 -12 -2 -5 -2 7 -11
9 -19 6 -13 -5 -13 -7 -3 -14 8 -4 11 -10 8 -13 -2 -3 -11 -1 -19 4 -12 8 -11
12 5 29 11 11 27 20 35 20 8 0 10 -3 4 -5z m60 -22 c2 -4 -2 -16 -10 -27 -8
-10 -14 -14 -14 -8 0 7 5 15 11 19 8 4 7 9 -2 15 -10 6 -10 9 -2 9 6 0 14 -3
17 -8z m264 -22 c14 0 15 -2 3 -9 -17 -11 -43 17 -33 34 4 5 8 2 10 -7 2 -10
11 -18 20 -18z m-198 -16 c0 -8 4 -13 9 -10 5 4 7 -3 4 -14 -3 -11 -10 -20
-15 -20 -5 0 -6 4 -3 10 3 5 1 19 -5 30 -7 13 -7 20 0 20 5 0 10 -7 10 -16z
m-150 -16 c0 -5 5 -6 12 -2 6 4 8 3 4 -4 -3 -5 0 -13 6 -16 9 -4 8 -5 -2 -5
-30 2 -41 -1 -35 -11 4 -6 10 -8 14 -6 4 3 13 1 21 -5 8 -5 10 -9 4 -9 -6 0
-10 -12 -9 -27 1 -16 0 -20 -2 -10 -2 9 -9 17 -14 17 -6 0 -8 4 -4 9 3 6 -4
15 -16 21 -20 11 -20 12 -2 27 10 8 13 12 6 9 -7 -4 -11 1 -10 13 1 19 27 18
27 -1z m330 -16 c0 -13 -3 -12 -20 3 -11 10 -17 22 -14 27 8 12 34 -11 34 -30z
m-230 -27 c0 -5 -5 -3 -10 5 -8 12 -10 10 -10 -9 0 -13 -3 -22 -6 -18 -4 3 -3
18 0 34 6 21 9 24 17 12 5 -7 9 -18 9 -24z m100 14 c0 -4 -7 -6 -15 -3 -8 4
-15 10 -15 15 0 4 7 6 15 3 8 -4 15 -10 15 -15z m-69 -6 c13 -16 12 -17 -3 -4
-10 7 -18 15 -18 17 0 8 8 3 21 -13z m101 -10 c-6 -3 -10 -8 -7 -13 3 -4 -4
-10 -15 -13 -11 -3 -20 -3 -20 -1 0 9 44 43 49 38 3 -4 0 -9 -7 -11z m114 2
c-3 -9 1 -18 9 -21 8 -4 12 -11 8 -18 -4 -6 -8 -14 -8 -18 0 -3 -4 -10 -9 -15
-5 -5 -6 -3 -2 5 10 16 0 15 -28 -4 -16 -10 -26 -12 -31 -5 -3 6 1 11 9 11 13
0 40 35 39 50 -1 9 9 30 14 30 3 0 2 -7 -1 -15z m-385 -38 c-10 -9 -11 -8 -5
6 3 10 9 15 12 12 3 -3 0 -11 -7 -18z m219 2 c0 -4 -7 -6 -15 -3 -8 4 -15 10
-15 15 0 4 7 6 15 3 8 -4 15 -10 15 -15z m75 1 c3 -5 1 -10 -4 -10 -6 0 -11 5
-11 10 0 6 2 10 4 10 3 0 8 -4 11 -10z m-25 -4 c0 -2 -8 -10 -17 -17 -16 -13
-17 -12 -4 4 13 16 21 21 21 13z m-230 -10 c0 -3 -4 -8 -10 -11 -5 -3 -10 -1
-10 4 0 6 5 11 10 11 6 0 10 -2 10 -4z m120 -6 c0 -5 -2 -10 -4 -10 -3 0 -8 5
-11 10 -3 6 -1 10 4 10 6 0 11 -4 11 -10z m-156 -24 c-4 -19 -2 -24 10 -22 8
1 19 6 23 11 4 4 2 5 -4 1 -7 -4 -13 -2 -13 3 0 14 17 14 25 1 10 -17 -14 -38
-35 -33 -21 5 -25 19 -14 47 9 25 15 19 8 -8z m111 -16 c3 -5 -1 -10 -10 -10
-9 0 -13 5 -10 10 3 6 8 10 10 10 2 0 7 -4 10 -10z m103 -11 c-2 -3 3 -13 11
-22 7 -10 9 -17 3 -17 -5 0 -13 7 -16 16 -3 8 -10 13 -15 9 -6 -3 -8 -12 -4
-20 3 -10 -1 -15 -13 -14 -11 0 -14 3 -7 6 10 3 10 10 2 25 -10 18 -9 20 5 15
9 -4 16 -2 16 4 0 6 5 9 11 7 6 -2 9 -6 7 -9z m-113 -19 c4 6 11 10 18 10 6 0
2 -6 -9 -14 -11 -8 -30 -12 -46 -9 -19 4 -29 0 -36 -14 -13 -24 1 -53 14 -31
8 12 13 12 34 0 l25 -14 -27 6 c-25 6 -39 -6 -20 -17 4 -2 1 -2 -5 -1 -7 2
-13 -3 -13 -11 0 -8 -4 -15 -10 -15 -5 0 -9 3 -9 8 1 4 0 12 -1 17 -16 61 12
102 57 84 13 -5 25 -4 28 1z m194 -4 c8 -10 8 -16 -3 -25 -11 -9 -16 -9 -22 0
-4 7 -3 9 4 5 6 -3 13 -2 17 4 3 5 1 10 -4 10 -6 0 -11 5 -11 10 0 14 5 13 19
-4z m81 -9 c0 -13 5 -28 12 -35 9 -9 8 -12 -5 -12 -9 0 -17 7 -17 15 0 8 -9
15 -21 15 -11 0 -17 -4 -14 -10 4 -6 -1 -7 -11 -3 -11 4 -13 8 -6 11 7 2 10 7
7 12 -3 4 4 6 15 3 14 -4 20 0 20 11 0 9 5 16 10 16 6 0 10 -10 10 -23z m-378
-59 c2 -21 0 -38 -4 -38 -4 0 -8 21 -7 48 1 52 6 48 11 -10z m247 35 c-10 -2
-20 -14 -23 -26 -5 -18 -8 -20 -16 -7 -5 8 -10 18 -10 22 0 7 27 16 50 16 11
0 11 -1 -1 -5z m-82 -25 c-3 -8 -6 -5 -6 6 -1 11 2 17 5 13 3 -3 4 -12 1 -19z
m-27 -8 c-8 -5 -6 -10 7 -15 10 -5 22 -7 26 -6 5 1 5 -4 2 -10 -5 -8 -10 -8
-18 0 -18 18 -31 13 -16 -6 8 -9 9 -14 3 -10 -6 3 -20 0 -30 -8 -18 -13 -18
-14 9 -20 19 -5 27 -13 26 -29 -1 -17 -2 -17 -6 -3 -2 9 -8 15 -13 12 -5 -3
-7 -12 -3 -20 3 -10 -1 -15 -13 -15 -11 0 -15 4 -9 8 15 11 17 34 4 43 -7 4
-13 16 -14 27 -1 14 3 18 18 14 14 -3 18 -1 13 7 -10 16 3 53 16 45 7 -4 6 -9
-2 -14z m234 -6 c9 -3 16 -11 16 -16 0 -6 -6 -5 -15 2 -8 6 -19 9 -25 5 -5 -3
-10 -1 -10 4 0 12 11 14 34 5z m-84 -42 c0 -15 -2 -15 -10 -2 -13 20 -13 33 0
25 6 -3 10 -14 10 -23z m86 7 c3 -6 1 -15 -5 -20 -6 -5 -9 -6 -6 -3 3 4 0 13
-6 21 -8 9 -8 13 -1 13 6 0 14 -5 18 -11z m-144 -56 c-14 -23 -14 -24 4 -21
10 2 18 -2 17 -8 -1 -6 4 -11 12 -11 7 0 11 6 8 14 -3 7 1 13 8 13 7 0 9 -3 6
-7 -4 -3 -3 -11 3 -17 14 -18 -29 -18 -53 -1 -16 11 -24 12 -35 3 -17 -15 -44
-20 -36 -7 3 5 12 9 20 9 17 0 17 5 4 31 -7 13 -7 19 0 19 5 0 10 -7 10 -15 0
-8 5 -15 11 -15 5 0 7 5 4 10 -8 14 1 27 19 27 12 0 12 -4 -2 -24z m58 11 c0
-8 -19 -13 -24 -6 -3 5 1 9 9 9 8 0 15 -2 15 -3z m94 -10 c5 -14 4 -15 -9 -4
-12 10 -15 9 -15 -5 0 -21 -13 -12 -16 10 -3 21 32 19 40 -1z m-346 -29 c0
-13 -4 -22 -9 -20 -4 3 -10 1 -14 -5 -3 -5 3 -10 14 -10 11 0 22 9 26 20 3 11
14 20 23 20 15 -1 15 -2 -1 -11 -9 -6 -15 -14 -12 -20 4 -5 1 -9 -4 -9 -18 0
-12 -18 7 -23 10 -3 6 -5 -11 -6 -16 0 -26 3 -22 8 3 6 -4 9 -15 8 -12 -1 -18
-7 -16 -14 3 -7 1 -15 -3 -18 -5 -2 -11 4 -14 15 -3 11 -2 20 3 20 4 0 15 16
24 35 20 42 24 43 24 10z m90 -42 c-3 -16 -38 -28 -38 -13 0 15 18 21 23 8 3
-8 6 -6 6 5 1 9 4 17 7 17 3 0 4 -7 2 -17z m72 -3 c-13 -24 -16 -25 -24 -4 -3
8 -2 12 3 9 5 -3 12 -1 16 5 11 19 16 10 5 -10z m37 -16 c-9 -9 -28 6 -21 18
4 6 10 6 17 -1 6 -6 8 -13 4 -17z m126 -8 c3 4 4 -4 2 -17 -3 -13 -9 -25 -15
-27 -6 -2 -8 -8 -4 -13 3 -5 2 -9 -3 -8 -24 4 -39 -3 -48 -23 -6 -14 -20 -24
-35 -25 -22 -1 -22 -1 -2 4 20 4 27 14 23 35 0 4 10 10 24 14 28 7 44 42 24
55 -10 6 -10 9 -2 9 7 0 10 7 7 18 -3 9 1 7 8 -6 8 -12 17 -20 21 -16z m43 5
c-4 -6 -13 -11 -19 -10 -9 0 -9 2 1 6 19 7 14 23 -5 17 -15 -5 -16 -4 -3 5 17
12 36 -1 26 -18z m-96 9 c0 -5 -5 -10 -11 -10 -5 0 -7 5 -4 10 3 6 8 10 11 10
2 0 4 -4 4 -10z m179 -17 c6 6 12 8 12 4 1 -4 2 -13 3 -19 1 -7 8 -12 16 -10
11 3 11 1 0 -13 -25 -30 -47 -36 -61 -17 -11 14 -11 15 1 5 15 -14 54 2 44 18
-4 6 -11 6 -20 -2 -10 -8 -14 -8 -14 0 0 16 -16 14 -34 -5 -15 -14 -16 -14
-16 1 0 9 -5 13 -11 9 -7 -4 -6 3 2 17 11 20 14 21 17 7 6 -29 21 -21 17 9
l-3 27 18 -21 c13 -16 20 -19 29 -10z m-216 2 c-3 -9 -8 -14 -10 -11 -3 3 -2
9 2 15 9 16 15 13 8 -4z m-978 -7 c4 4 13 -2 21 -12 11 -15 14 -16 14 -5 0 9
7 16 15 16 8 0 15 -4 15 -9 0 -4 10 -8 23 -9 13 0 16 -3 8 -6 -26 -10 -49 -41
-40 -52 5 -6 6 -9 3 -6 -4 3 -14 -1 -23 -8 -14 -10 -14 -10 -3 5 14 17 1 35
-18 23 -5 -3 -10 -1 -10 5 0 6 8 10 18 8 20 -3 42 9 42 24 0 7 -5 7 -14 -1
-15 -13 -49 -4 -40 10 3 5 0 9 -5 9 -6 0 -11 -7 -11 -16 0 -8 -4 -13 -9 -9 -5
3 -12 1 -16 -5 -10 -16 -25 -1 -25 25 0 22 3 23 24 15 13 -5 27 -6 31 -2z
m609 -4 c-16 -13 -16 -15 -1 -10 9 3 17 1 17 -4 0 -15 -22 -11 -45 7 -16 12
-16 14 -3 10 10 -3 20 -2 23 3 4 6 11 10 18 10 6 0 2 -7 -9 -16z m646 12 c0
-11 -19 -15 -25 -6 -3 5 1 10 9 10 9 0 16 -2 16 -4z m67 -13 c-5 13 -1 17 16
17 18 0 19 -2 7 -10 -13 -8 -13 -10 1 -10 9 0 19 3 23 7 15 15 70 11 84 -6 13
-15 13 -15 8 1 -4 15 6 16 94 15 82 -2 100 -5 109 -20 8 -13 8 -16 -1 -15 -7
2 -12 -2 -13 -9 0 -7 -6 -18 -13 -25 -11 -11 -13 -10 -10 2 1 8 -2 15 -7 15
-6 0 -9 -3 -8 -7 2 -4 -9 -3 -23 2 -28 11 -77 3 -68 -11 3 -5 0 -9 -5 -9 -20
0 -26 5 -25 20 1 9 -8 17 -19 17 -19 2 -19 2 -1 -12 18 -13 17 -14 -11 -11
-17 1 -29 8 -27 14 1 7 -8 12 -20 12 -14 0 -18 -3 -12 -8 6 -4 15 -18 19 -31
4 -13 10 -19 14 -14 10 14 49 13 55 -2 3 -9 0 -12 -8 -9 -7 3 -16 -2 -19 -10
-4 -9 -1 -16 5 -16 6 0 8 -3 5 -7 -4 -3 -18 3 -30 15 -13 12 -27 19 -31 15
-11 -12 -26 20 -15 33 6 8 -3 16 -30 26 -50 20 -69 10 -41 -22 24 -27 26 -38
5 -20 -10 9 -15 9 -15 1 0 -6 -4 -11 -8 -11 -5 0 -8 16 -7 35 3 35 -3 43 -21
25 -6 -6 -15 -6 -24 0 -13 8 -12 10 3 10 9 0 17 7 17 15 0 13 4 13 27 -2 26
-17 27 -17 20 0z m377 5 c-3 -4 -9 -8 -15 -8 -5 0 -9 4 -9 8 0 5 7 9 15 9 8 0
12 -4 9 -9z m184 3 c10 -6 10 -10 -3 -21 -12 -10 -21 -10 -38 -2 -20 11 -19
11 8 6 29 -5 29 -5 11 10 -14 12 -16 16 -5 16 8 0 20 -4 27 -9z m-1742 -10
c-4 -5 0 -12 6 -14 7 -3 3 -6 -10 -6 -13 -1 -21 3 -18 8 4 5 0 12 -6 14 -7 3
-3 6 10 6 13 1 21 -3 18 -8z m69 -1 c-4 -6 -11 -8 -16 -5 -5 3 -6 -1 -3 -10 6
-14 9 -13 22 6 11 17 16 18 23 8 7 -12 9 -12 9 0 0 10 3 11 13 2 8 -6 17 -8
20 -4 4 3 7 0 7 -8 0 -11 2 -11 10 1 5 8 10 11 10 5 0 -5 -4 -14 -8 -20 -9
-13 -35 -18 -27 -5 4 6 -6 10 -24 10 -16 0 -33 -5 -37 -11 -4 -8 -9 -8 -17 0
-9 9 -16 5 -30 -11 -10 -13 -16 -17 -15 -8 2 8 9 21 16 28 7 8 10 18 7 23 -4
5 6 9 20 9 15 0 24 -4 20 -10z m146 -4 c-10 -12 -5 -14 31 -10 24 2 35 1 26
-2 -10 -3 -18 -11 -18 -17 0 -7 -4 -6 -10 3 -5 8 -10 10 -10 5 0 -6 -9 -11
-19 -11 -11 0 -17 4 -15 8 3 4 -1 8 -8 8 -8 1 -6 6 6 15 25 19 32 19 17 1z
m46 8 c-3 -3 -12 -4 -19 -1 -8 3 -5 6 6 6 11 1 17 -2 13 -5z m67 -1 c4 -5 13
-8 18 -8 6 0 12 -11 13 -25 1 -14 4 -29 6 -35 2 -5 0 -11 -6 -13 -5 -1 -11 10
-12 24 -2 30 -23 59 -23 32 0 -8 -7 -21 -15 -28 -13 -10 -13 -15 -3 -21 27
-17 -25 -23 -54 -6 -29 17 -37 10 -15 -12 10 -10 9 -11 -5 -6 -14 6 -18 2 -18
-19 0 -23 2 -25 26 -16 16 7 23 7 19 0 -3 -6 -13 -10 -21 -10 -8 0 -14 -6 -14
-12 0 -9 -3 -8 -10 2 -8 12 -10 12 -16 -3 -7 -18 -34 -24 -34 -6 0 5 4 8 9 5
12 -8 27 14 34 51 4 20 2 33 -6 37 -9 3 -8 7 3 15 10 7 19 6 31 -5 8 -7 18
-14 22 -14 14 0 55 54 50 66 -5 15 9 19 21 7z m74 -7 c-10 -7 -18 -19 -18 -25
0 -7 -5 -9 -10 -6 -8 5 -8 11 -1 19 6 7 8 16 4 19 -3 4 5 7 18 7 22 -1 23 -2
7 -14z m268 -13 c25 4 34 -8 12 -16 -20 -7 -48 12 -47 31 1 15 2 14 6 -1 4
-14 12 -18 29 -14z m4 17 c0 -5 -2 -10 -4 -10 -3 0 -8 5 -11 10 -3 6 -1 10 4
10 6 0 11 -4 11 -10z m53 3 c-7 -2 -19 -2 -25 0 -7 3 -2 5 12 5 14 0 19 -2 13
-5z m140 -13 c-3 -11 -9 -20 -15 -20 -5 0 -4 9 2 20 6 11 12 20 14 20 2 0 2
-9 -1 -20z m967 -35 c0 -42 -4 -55 -15 -55 -9 0 -12 -6 -9 -15 4 -8 11 -12 18
-8 7 3 6 1 -1 -7 -7 -8 -20 -15 -28 -16 -13 -2 -14 0 -4 12 12 14 6 28 -12 30
-5 1 -13 2 -19 3 -8 1 -8 29 0 51 2 3 2 8 1 13 0 4 2 6 7 6 4 -1 18 -1 32 0
20 1 22 3 10 11 -13 9 -13 11 0 20 8 5 16 10 18 10 1 0 2 -25 2 -55z m-65 29
c-20 -15 -21 -18 -24 -50 0 -8 -6 -12 -11 -9 -8 5 -7 11 1 21 9 11 8 14 -2 14
-8 0 0 9 16 20 35 23 49 26 20 4z m-1221 -9 c-4 -8 -11 -12 -16 -9 -6 4 -5 10
3 15 19 12 19 11 13 -6z m66 3 c0 -4 -4 -9 -10 -13 -5 -3 -7 -12 -4 -20 3 -7
-4 -23 -16 -35 -17 -17 -24 -19 -36 -9 -19 16 -18 29 4 29 13 0 14 -2 3 -9 -7
-5 -9 -11 -4 -14 12 -8 31 5 33 23 4 27 0 41 -10 35 -5 -3 -7 0 -5 7 6 14 45
19 45 6z m141 -5 c13 -16 12 -17 -3 -4 -10 7 -18 15 -18 17 0 8 8 3 21 -13z
m203 1 c3 -8 2 -12 -4 -9 -6 3 -10 10 -10 16 0 14 7 11 14 -7z m663 2 c-3 -7
-1 -18 5 -24 6 -6 6 -12 -3 -17 -7 -5 -10 -4 -5 3 3 6 2 13 -4 17 -5 3 -10 0
-10 -7 0 -10 -2 -10 -8 -1 -14 22 -39 -19 -36 -60 3 -37 -9 -57 -22 -36 -4 8
-3 9 4 5 15 -9 11 26 -4 46 -6 7 -14 22 -18 32 -5 16 -4 17 8 7 8 -7 20 -9 27
-5 8 5 5 11 -10 19 -20 10 -18 11 20 11 25 0 44 5 47 12 2 7 6 12 9 12 3 0 3
-6 0 -14z m47 5 c4 -5 -1 -8 -9 -7 -21 3 -31 16 -12 16 9 0 18 -4 21 -9z
m-1874 -5 c0 -2 -7 -7 -16 -10 -8 -3 -12 -2 -9 4 6 10 25 14 25 6z m934 -4 c3
-5 -1 -9 -9 -9 -8 0 -15 4 -15 9 0 4 4 8 9 8 6 0 12 -4 15 -8z m-754 -11 c0
-5 -7 -12 -16 -15 -14 -5 -15 -4 -4 9 14 17 20 19 20 6z m131 -25 c-6 -14 -13
-26 -15 -26 -3 0 -3 7 0 15 4 8 2 15 -4 15 -17 0 -23 -30 -7 -36 8 -4 15 -10
15 -14 0 -14 -33 -21 -44 -9 -8 9 -7 10 7 6 20 -7 22 4 5 21 -7 7 -8 12 -4 12
5 0 4 6 -2 13 -8 9 -4 12 16 14 15 0 28 6 30 13 2 6 6 9 8 7 3 -2 0 -16 -5
-31z m369 20 c0 -24 -17 -28 -23 -6 -3 13 0 20 9 20 8 0 14 -6 14 -14z m355 4
c-3 -5 -12 -10 -18 -10 -7 0 -6 4 3 10 19 12 23 12 15 0z m-1024 -15 c-1 -5
-5 -10 -10 -10 -5 0 -13 -3 -17 -7 -12 -12 -24 -9 -21 5 5 25 49 36 48 12z
m214 -19 c18 -5 23 -11 17 -24 -6 -15 -7 -15 -10 2 -4 19 -4 19 -21 0 -9 -10
-15 -17 -14 -15 2 2 -3 11 -10 19 -10 13 -9 15 8 9 17 -6 18 -5 4 5 -9 7 -13
20 -10 28 4 13 6 12 9 -2 2 -9 14 -19 27 -22z m414 20 c9 -10 9 -16 1 -21 -6
-4 -14 -4 -17 -1 -4 3 0 6 8 6 10 1 8 5 -5 15 -11 8 -15 15 -9 15 6 0 16 -6
22 -14z m252 -9 c-10 -9 -11 -8 -5 6 3 10 9 15 12 12 3 -3 0 -11 -7 -18z m259
14 c0 -5 -7 -12 -16 -15 -14 -5 -15 -4 -4 9 14 17 20 19 20 6z m474 -2 c-4 -7
-1 -10 7 -7 21 8 51 -11 45 -28 -3 -8 -1 -14 4 -14 6 0 10 -5 10 -11 0 -6 -7
-8 -16 -5 -8 3 -12 2 -9 -3 3 -5 2 -12 -2 -14 -5 -3 -9 8 -9 24 -1 16 3 29 9
29 6 0 7 3 4 6 -9 9 -38 -16 -31 -27 3 -5 2 -15 -3 -21 -22 -36 6 -49 41 -19
18 15 19 15 12 -21 -6 -32 -4 -38 11 -38 16 -1 15 -3 -5 -19 -12 -11 -18 -22
-12 -24 6 -3 5 -4 -1 -3 -7 1 -13 9 -15 18 -1 12 3 15 14 10 15 -5 15 -4 3 11
-7 9 -18 14 -25 10 -17 -11 -36 -12 -36 -3 0 5 10 10 22 12 12 2 23 9 26 16 3
11 0 12 -17 3 -12 -7 -26 -9 -31 -6 -6 3 -10 0 -10 -8 0 -8 -7 -17 -15 -21
-13 -5 -13 -2 1 20 20 29 13 42 -10 19 -14 -15 -17 -15 -22 -1 -3 9 -10 13
-15 10 -5 -3 -9 -1 -9 5 0 5 5 13 11 16 6 4 8 14 5 22 -3 8 -1 11 4 8 6 -3 10
4 10 15 0 14 5 20 13 17 7 -3 19 4 25 14 7 10 15 19 18 19 3 0 2 -5 -2 -11z
m290 -29 c9 -12 8 -13 -4 -3 -8 6 -18 11 -22 10 -3 -1 -10 2 -15 7 -5 5 -3 6
5 2 7 -5 12 -1 13 11 0 14 2 15 6 3 3 -8 11 -22 17 -30z m-1868 15 c-8 -7 -13
-15 -9 -18 3 -4 12 -2 20 5 7 6 15 9 16 7 1 -2 11 -15 22 -28 18 -22 18 -24 2
-18 -11 4 -17 2 -16 -6 4 -34 -1 -38 -31 -22 -33 17 -44 19 -35 6 3 -5 0 -13
-6 -17 -8 -4 -9 -3 -5 4 11 19 -5 14 -21 -5 -13 -16 -13 -16 -3 5 6 12 16 22
23 22 7 0 6 4 -3 10 -12 8 -9 9 12 8 15 -1 25 -5 22 -9 -2 -4 3 -10 12 -13 8
-3 12 -2 9 3 -3 5 -1 12 5 16 5 3 10 13 10 21 0 13 -3 13 -20 1 -22 -15 -74
-11 -64 5 3 5 13 7 22 3 9 -3 13 -3 10 1 -9 8 13 31 30 31 12 0 11 -3 -2 -12z
m301 8 c-4 -3 -1 -13 6 -21 11 -13 9 -14 -10 -1 -16 9 -19 16 -10 21 15 9 23
10 14 1z m495 -7 c-3 -6 -6 -20 -4 -31 l2 -20 -9 20 c-14 30 -13 42 4 42 8 0
11 -5 7 -11z m347 -3 c10 -17 10 -17 11 0 0 9 5 17 10 17 6 0 10 -6 10 -14 0
-23 17 -28 34 -10 15 14 17 14 15 -2 0 -4 5 -10 12 -15 15 -9 19 -48 6 -56 -6
-3 -8 -2 -5 3 9 15 -10 54 -27 54 -8 0 -15 -5 -15 -11 0 -5 4 -8 9 -5 5 3 11
-1 15 -9 3 -8 2 -14 -2 -14 -21 3 -22 -3 -5 -18 10 -10 13 -14 6 -9 -8 5 -13
4 -13 -2 0 -15 38 -35 55 -29 8 4 11 -1 8 -13 -5 -18 -33 -17 -33 1 0 5 -6 9
-12 9 -17 0 -48 56 -38 67 5 4 2 17 -6 28 -13 17 -16 18 -24 5 -6 -9 -10 -10
-10 -3 0 6 -7 19 -16 27 -8 9 -11 16 -5 16 5 0 15 -8 20 -17z m119 -8 c-3 -3
-9 2 -12 12 -6 14 -5 15 5 6 7 -7 10 -15 7 -18z m42 10 c0 -8 -7 -15 -16 -15
-14 0 -14 3 -4 15 7 8 14 15 16 15 2 0 4 -7 4 -15z m90 5 c0 -5 -4 -10 -10
-10 -5 0 -10 5 -10 10 0 6 5 10 10 10 6 0 10 -4 10 -10z m-1040 -35 c0 -5 -5
-3 -10 5 -5 8 -10 20 -10 25 0 6 5 3 10 -5 5 -8 10 -19 10 -25z m320 20 c0 -2
-6 -5 -13 -8 -8 -3 -14 1 -14 8 0 7 6 11 14 8 7 -3 13 -6 13 -8z m215 -3 c-3
-3 -11 0 -18 7 -9 10 -8 11 6 5 10 -3 15 -9 12 -12z m165 8 c0 -5 -4 -10 -10
-10 -5 0 -10 5 -10 10 0 6 5 10 10 10 6 0 10 -4 10 -10z m-930 -5 c0 -2 -6 -8
-13 -14 -10 -8 -14 -7 -14 2 0 8 6 14 14 14 7 0 13 -1 13 -2z m1553 -15 c3
-11 1 -18 -4 -14 -5 3 -9 -1 -9 -8 0 -10 -2 -10 -9 1 -10 15 -4 41 9 41 4 0
10 -9 13 -20z m-550 -37 c-9 -7 -13 -13 -9 -13 5 0 3 -7 -4 -15 -14 -17 -7
-19 20 -5 14 7 17 6 16 -8 -1 -12 6 -17 23 -16 21 1 22 -1 7 -11 -17 -13 -23
-31 -7 -21 5 4 7 -4 3 -16 -4 -16 -7 -18 -10 -8 -2 8 -11 21 -20 28 -10 8 -11
12 -4 12 10 0 10 3 0 13 -6 8 -23 11 -37 9 -26 -5 -26 -5 -7 16 17 20 17 22 2
28 -15 6 -15 8 1 21 10 8 12 12 6 8 -7 -3 -13 -2 -13 4 0 17 25 18 37 2 10
-13 9 -18 -4 -28z m671 40 c4 -4 13 -8 19 -9 7 0 21 -2 31 -2 17 -2 15 -16 -2
-18 -4 0 -14 -4 -24 -8 -18 -8 -17 -43 1 -38 9 2 9 -3 1 -18 -12 -22 -22 -27
-14 -7 3 8 -2 20 -11 27 -14 12 -13 15 6 36 l22 23 -22 -4 c-11 -2 -25 -6 -30
-9 -7 -5 -8 11 -2 32 2 5 18 2 25 -5z m-1514 -7 c0 -3 -4 -8 -10 -11 -5 -3
-10 -1 -10 4 0 6 5 11 10 11 6 0 10 -2 10 -4z m56 -33 c-3 -4 -6 -1 -6 5 0 7
-8 12 -17 12 -15 0 -16 2 -3 10 10 6 17 4 23 -6 5 -9 6 -18 3 -21z m205 24
c-6 -8 -9 -16 -6 -18 2 -3 -10 -13 -28 -23 l-32 -18 25 21 c14 11 21 21 16 21
-6 0 -1 7 10 15 24 18 30 19 15 2z m314 4 c3 -5 1 -12 -5 -16 -5 -3 -10 -2
-10 4 0 5 -8 12 -17 14 -14 4 -13 5 4 6 12 0 24 -3 28 -8z m225 0 c0 -11 -31
-24 -39 -16 -3 3 1 10 9 15 19 12 30 12 30 1z m187 -10 c0 -11 -5 -18 -9 -15
-4 3 -5 11 -1 19 7 21 12 19 10 -4z m88 9 c-3 -5 -14 -10 -23 -9 -14 0 -13 2
3 9 27 11 27 11 20 0z m45 6 c0 -2 -7 -7 -16 -10 -8 -3 -12 -2 -9 4 6 10 25
14 25 6z m-933 -12 c-3 -3 -12 -4 -19 -1 -8 3 -5 6 6 6 11 1 17 -2 13 -5z
m164 -21 c-12 -20 -14 -14 -5 12 4 9 9 14 11 11 3 -2 0 -13 -6 -23z m137 2 c9
-18 7 -21 -16 -23 -21 -1 -24 0 -12 8 11 7 11 10 2 10 -10 0 -10 3 0 14 7 8
14 13 14 12 1 0 6 -10 12 -21z m136 10 c-4 -8 -8 -15 -10 -15 -2 0 -4 7 -4 15
0 8 4 15 10 15 5 0 7 -7 4 -15z m46 5 c0 -5 -10 -15 -22 -21 l-23 -12 20 21
c23 24 25 25 25 12z m-450 -8 c0 -5 -7 -9 -15 -9 -8 0 -12 4 -9 9 3 4 9 8 15
8 5 0 9 -4 9 -8z m186 -17 c-10 -8 -15 -18 -11 -24 3 -6 1 -11 -4 -11 -6 0
-11 5 -11 10 0 6 -4 10 -10 10 -5 0 -7 -7 -3 -16 4 -11 2 -15 -6 -13 -19 7
-16 23 8 35 11 6 18 14 13 19 -4 4 1 5 11 2 10 -4 17 -2 17 5 0 6 3 8 7 4 5
-4 0 -14 -11 -21z m304 15 c0 -5 -2 -10 -4 -10 -3 0 -8 5 -11 10 -3 6 -1 10 4
10 6 0 11 -4 11 -10z m37 4 c-3 -3 -12 -4 -19 -1 -8 3 -5 6 6 6 11 1 17 -2 13
-5z m407 -10 c4 -9 2 -13 -5 -8 -7 4 -10 1 -7 -7 3 -8 17 -13 31 -13 15 1 24
-2 21 -7 -2 -4 -11 -6 -18 -3 -8 3 -17 0 -22 -7 -4 -7 -3 -10 4 -5 6 3 14 2
17 -4 4 -6 3 -10 -2 -9 -25 4 -44 -2 -37 -13 5 -10 4 -10 -6 -1 -10 9 -16 8
-27 -3 -20 -19 -26 -18 -52 10 -17 18 -19 26 -10 31 7 5 10 4 5 -3 -10 -16 28
-34 42 -20 7 7 12 9 12 5 0 -4 8 -3 18 2 12 7 18 19 16 40 -2 33 10 42 20 15z
m311 6 c3 -5 1 -10 -4 -10 -6 0 -11 5 -11 10 0 6 2 10 4 10 3 0 8 -4 11 -10z
m-1835 -4 c0 -2 -7 -7 -16 -10 -8 -3 -12 -2 -9 4 6 10 25 14 25 6z m210 -6 c0
-5 -8 -10 -17 -10 -15 0 -16 2 -3 10 19 12 20 12 20 0z m480 -10 c-8 -15 -8
-20 1 -20 7 0 10 -3 6 -6 -3 -3 -10 -3 -16 1 -11 6 2 45 15 45 2 0 0 -9 -6
-20z m473 7 c3 -9 -4 -13 -23 -12 -16 0 -26 4 -23 8 3 5 11 6 19 3 8 -3 14 -1
14 4 0 14 7 12 13 -3z m-353 -1 c0 -2 -8 -10 -17 -17 -16 -13 -17 -12 -4 4 13
16 21 21 21 13z m120 -6 c0 -5 -5 -10 -11 -10 -5 0 -7 5 -4 10 3 6 8 10 11 10
2 0 4 -4 4 -10z m840 1 c0 -6 -5 -13 -12 -17 -6 -4 -8 -3 -4 4 3 5 0 13 -6 15
-8 3 -6 6 5 6 9 1 17 -3 17 -8z m-1624 -26 c0 -19 -5 -25 -20 -25 -17 0 -18 2
-6 10 8 5 16 14 16 20 4 30 10 27 10 -5z m405 18 c0 -5 2 -18 3 -30 2 -13 -2
-19 -7 -16 -6 4 -8 -1 -3 -12 5 -15 4 -16 -9 -5 -16 13 -21 35 -6 26 5 -3 11
1 15 9 5 15 -5 19 -33 16 -7 -2 -10 2 -6 8 7 12 45 15 46 4z m474 -3 c-3 -5
-12 -10 -18 -10 -7 0 -6 4 3 10 19 12 23 12 15 0z m38 -20 c-7 -28 -13 -25
-13 6 0 14 4 23 9 20 5 -3 7 -15 4 -26z m-850 4 c7 1 8 1 4 -2 -4 -2 -2 -11 5
-20 11 -15 11 -15 -3 -5 -9 7 -19 10 -22 6 -4 -3 -7 5 -6 18 0 13 3 19 5 12 3
-7 11 -11 17 -9z m413 7 c-3 -5 1 -11 8 -14 8 -3 17 -1 20 6 3 7 4 3 3 -8 -1
-11 4 -20 12 -20 28 0 21 -21 -11 -30 -18 -6 -32 -15 -31 -21 1 -6 -5 -11 -13
-11 -19 0 -18 13 2 21 23 9 8 24 -21 21 -14 -2 -23 1 -20 5 3 5 13 6 22 3 9
-4 14 -2 11 3 -6 10 8 54 17 54 4 0 4 -4 1 -9z m474 -16 c0 -8 -6 -12 -14 -9
-8 3 -12 12 -9 20 6 17 23 9 23 -11z m380 21 c0 -9 -30 -14 -35 -6 -4 6 3 10
14 10 12 0 21 -2 21 -4z m496 -22 c13 -14 24 -30 24 -36 0 -6 -8 -1 -19 10
-10 12 -21 18 -25 15 -4 -4 -4 0 0 10 3 10 1 17 -5 17 -6 0 -11 -5 -11 -12 0
-6 -3 -9 -6 -5 -6 6 3 27 13 27 3 0 16 -11 29 -26z m-1995 -14 c6 0 8 4 4 9
-3 5 0 13 6 17 7 4 9 3 6 -3 -4 -6 5 -19 20 -28 23 -15 25 -15 20 -2 -8 20 11
33 25 19 8 -8 8 -15 0 -25 -7 -8 -9 -16 -7 -19 3 -3 -3 -8 -15 -11 -12 -3 -18
-1 -13 5 3 6 -2 17 -12 24 -19 14 -35 5 -48 -26 -4 -10 -6 -8 -7 8 -2 12 -3
28 -4 35 -3 20 8 34 12 15 2 -10 8 -18 13 -18z m949 20 c0 -5 -2 -10 -4 -10
-3 0 -8 5 -11 10 -3 6 -1 10 4 10 6 0 11 -4 11 -10z m208 -2 c-2 -6 -10 -13
-16 -14 -9 -2 -9 -1 -1 3 8 4 7 8 -2 14 -11 7 -10 9 4 9 10 0 17 -5 15 -12z
m675 -9 c-6 -6 -9 -18 -6 -25 3 -8 1 -14 -4 -14 -13 0 -12 32 1 46 6 7 13 10
15 8 3 -2 0 -9 -6 -15z m-1336 -20 c-9 -6 -14 -15 -11 -21 4 -7 2 -8 -4 -4
-13 8 -5 36 10 36 5 0 6 6 2 13 -5 9 -3 8 7 -1 12 -11 11 -15 -4 -23z m537 23
c3 -5 -1 -9 -9 -9 -8 0 -12 4 -9 9 3 4 7 8 9 8 2 0 6 -4 9 -8z m750 -1 c-9 -9
-34 -9 -34 -1 0 5 9 8 20 7 10 -1 17 -3 14 -6z m-1350 -18 c-6 17 15 25 29 10
12 -12 -27 -32 -40 -21 -13 10 -18 -1 -14 -26 1 -5 -5 -6 -13 -3 -10 4 -13 -1
-11 -21 2 -24 2 -25 -11 -8 -7 11 -11 23 -8 28 3 5 -6 7 -20 4 -19 -3 -23 -1
-19 11 3 8 8 10 12 5 8 -14 71 13 71 29 0 7 7 4 15 -7 13 -16 14 -16 9 -1z
m563 -15 c-3 -7 -5 -2 -5 12 0 14 2 19 5 13 2 -7 2 -19 0 -25z m627 9 c4 -15
2 -17 -7 -8 -16 16 -27 13 -21 -6 5 -14 4 -15 -4 -4 -6 8 -8 19 -6 26 8 19 32
13 38 -8z m-1328 1 c-3 -19 -25 -55 -26 -42 0 6 3 14 8 18 4 4 8 12 8 17 2 15
4 19 8 19 2 0 3 -6 2 -12z m748 -20 c-17 -19 -17 -21 -1 -15 44 17 49 16 15
-3 -21 -11 -38 -26 -38 -32 0 -6 -3 -8 -6 -5 -4 4 -1 13 6 22 10 12 10 15 -1
15 -8 0 -4 9 11 24 30 29 41 25 14 -6z m151 13 c-3 -6 -11 -11 -16 -11 -5 0
-4 6 3 14 14 16 24 13 13 -3z m600 2 c-2 -10 -4 -22 -4 -26 -1 -5 -6 -5 -12
-1 -8 4 -7 9 2 15 8 5 10 9 6 9 -5 0 -5 5 -2 10 9 15 14 12 10 -7z m106 0 c12
-16 12 -17 -2 -6 -9 7 -20 9 -24 5 -5 -4 -5 -1 -1 6 9 16 11 15 27 -5z m59 2
c0 -8 -7 -15 -15 -15 -16 0 -20 12 -8 23 11 12 23 8 23 -8z m-1222 -20 c-3 -3
-9 2 -12 12 -6 14 -5 15 5 6 7 -7 10 -15 7 -18z m117 15 c4 -6 11 -7 17 -4 7
4 8 2 4 -5 -6 -9 -12 -9 -24 1 -10 7 -19 14 -21 15 -2 2 1 3 7 3 6 0 14 -5 17
-10z m388 -4 c17 -13 24 -37 10 -35 -26 4 -43 -3 -43 -18 0 -14 -2 -15 -9 -4
-5 7 -6 22 -4 32 4 16 8 17 20 8 11 -10 13 -9 11 2 -2 8 -7 17 -13 21 -7 5 -7
8 0 8 6 -1 18 -7 28 -14z m-1102 -19 c-10 -9 -11 -8 -5 6 3 10 9 15 12 12 3
-3 0 -11 -7 -18z m74 12 c10 -15 -1 -23 -20 -15 -9 3 -13 10 -10 16 8 13 22
13 30 -1z m558 -4 c-3 -9 -8 -14 -10 -11 -3 3 -2 9 2 15 9 16 15 13 8 -4z
m367 7 c0 -5 -14 -19 -32 -32 -29 -22 -30 -24 -13 -36 10 -8 14 -14 8 -14 -6
0 -16 6 -22 13 -8 11 -6 18 9 32 12 10 18 25 16 32 -3 8 2 13 14 13 11 0 20
-4 20 -8z m860 -2 c0 -5 -4 -10 -10 -10 -5 0 -10 5 -10 10 0 6 5 10 10 10 6 0
10 -4 10 -10z m-1973 -6 c-3 -3 -12 -4 -19 -1 -8 3 -5 6 6 6 11 1 17 -2 13 -5z
m220 -9 c0 -8 -4 -12 -9 -9 -5 3 -6 10 -3 15 9 13 12 11 12 -6z m1126 -7 c12
-13 25 -22 29 -21 4 2 5 -4 1 -13 -5 -13 -8 -13 -23 3 -10 10 -15 22 -12 27 3
5 -2 6 -12 3 -9 -4 -14 -3 -11 2 3 5 -3 12 -12 14 -17 4 -17 5 0 6 9 0 27 -9
40 -21z m147 18 c0 -3 -4 -8 -10 -11 -5 -3 -10 -1 -10 4 0 6 5 11 10 11 6 0
10 -2 10 -4z m143 -13 c-3 -7 -6 -13 -8 -13 -2 0 -5 6 -8 13 -3 8 1 14 8 14 7
0 11 -6 8 -14z m35 3 c-7 -8 -15 -12 -17 -11 -5 6 10 25 20 25 5 0 4 -6 -3
-14z m-897 -13 c13 -16 12 -17 -3 -4 -10 7 -18 15 -18 17 0 8 8 3 21 -13z
m382 11 c10 -11 -5 -34 -22 -34 -14 1 -14 2 2 14 14 11 15 15 5 19 -7 3 -8 6
-2 6 6 1 13 -2 17 -5z m138 -11 c13 -16 12 -17 -3 -4 -10 7 -18 15 -18 17 0 8
8 3 21 -13z m-1229 -34 c7 -1 17 -1 21 0 5 1 6 -3 3 -8 -4 -5 0 -12 6 -14 7
-3 1 -5 -14 -4 -15 1 -25 4 -23 7 2 4 -5 14 -16 23 -21 19 -33 22 -24 7 4 -6
-1 -7 -11 -3 -14 5 -13 8 7 19 21 11 25 10 31 -7 4 -10 13 -20 20 -20z m471
21 c-3 -11 -9 -20 -15 -20 -5 0 -4 9 2 20 6 11 12 20 14 20 2 0 2 -9 -1 -20z
m217 -23 c12 -4 12 -6 -2 -6 -9 -1 -20 4 -23 9 -4 6 -11 7 -17 4 -7 -4 -8 -2
-4 4 4 7 2 12 -3 12 -6 0 -11 5 -11 12 0 6 10 2 23 -9 12 -11 29 -23 37 -26z
m210 18 c0 -8 -3 -16 -7 -18 -5 -3 -8 5 -8 18 0 13 3 21 8 18 4 -2 7 -10 7
-18z m473 7 c15 -16 15 -18 -3 -18 -10 0 -17 4 -14 8 2 4 -4 11 -13 17 -15 9
-16 10 -2 11 9 0 23 -8 32 -18z m123 -7 c-9 -9 -16 -13 -16 -8 0 12 22 34 28
28 2 -2 -3 -11 -12 -20z m199 2 c6 -5 3 -7 -7 -3 -10 3 -18 -1 -20 -11 -3 -14
-5 -14 -18 2 -9 11 -10 16 -2 11 7 -4 15 -1 18 9 4 9 9 12 13 8 3 -4 11 -12
16 -16z m209 11 c-3 -4 -11 -5 -19 -1 -21 7 -19 12 4 10 11 0 18 -5 15 -9z
m-1993 -15 c13 -16 12 -17 -3 -4 -10 7 -18 15 -18 17 0 8 8 3 21 -13z m109 11
c0 -8 -19 -13 -24 -6 -3 5 1 9 9 9 8 0 15 -2 15 -3z m123 -8 c4 -10 1 -13 -9
-9 -7 3 -14 9 -14 14 0 14 17 10 23 -5z m77 10 c0 -3 -4 -8 -10 -11 -5 -3 -10
-1 -10 4 0 6 5 11 10 11 6 0 10 -2 10 -4z m176 -23 c-7 -7 -26 7 -26 19 0 6 6
6 15 -2 9 -7 13 -15 11 -17z m396 -1 c-6 -15 -7 -15 -10 2 -3 15 -6 16 -13 5
-7 -12 -10 -12 -21 0 -8 9 -9 11 -1 7 6 -3 14 -2 18 3 10 17 34 1 27 -17z
m250 10 c-7 -2 -9 -9 -6 -14 4 -7 2 -8 -4 -4 -6 4 -9 13 -6 21 4 8 11 12 17 8
8 -5 7 -8 -1 -11z m405 -4 c-3 -8 -6 -5 -6 6 -1 11 2 17 5 13 3 -3 4 -12 1
-19z m327 -18 c-5 -5 -10 3 -11 18 -1 22 0 24 9 8 6 -10 6 -22 2 -26z m80 19
c-11 -5 -13 -8 -5 -8 8 -1 12 -4 8 -7 -3 -3 -11 -3 -17 1 -8 5 -8 11 1 21 6 7
16 11 22 7 6 -4 3 -9 -9 -14z m-1357 -11 c-3 -8 -6 -5 -6 6 -1 11 2 17 5 13 3
-3 4 -12 1 -19z m663 3 c-7 -14 -6 -21 2 -23 8 -3 6 -7 -4 -10 -11 -5 -15 -2
-13 10 2 9 4 23 4 30 1 6 6 12 11 12 7 0 7 -6 0 -19z m471 2 c13 -16 12 -17
-3 -4 -10 7 -18 15 -18 17 0 8 8 3 21 -13z m329 7 c0 -5 -2 -10 -4 -10 -3 0
-8 5 -11 10 -3 6 -1 10 4 10 6 0 11 -4 11 -10z m-1335 -10 c3 -6 -1 -7 -9 -4
-18 7 -21 14 -7 14 6 0 13 -4 16 -10z m245 0 c0 -5 -2 -10 -4 -10 -3 0 -8 5
-11 10 -3 6 -1 10 4 10 6 0 11 -4 11 -10z m410 6 c0 -2 -6 -9 -14 -15 -11 -9
-16 -9 -22 0 -4 7 -3 9 4 5 6 -3 13 -2 17 4 6 10 15 14 15 6z m461 -22 c17
-18 19 -23 6 -18 -9 3 -17 10 -17 16 0 5 -4 6 -10 3 -5 -3 -10 1 -10 9 0 21 2
20 31 -10z m154 16 c-3 -5 -12 -10 -18 -10 -7 0 -6 4 3 10 19 12 23 12 15 0z
m-1943 -24 c7 4 8 2 4 -5 -4 -6 -12 -9 -17 -6 -5 4 -9 1 -9 -6 0 -7 -3 -10 -6
-6 -3 3 -2 16 2 29 6 19 9 20 12 5 2 -9 8 -14 14 -11z m163 14 c-3 -5 -12 -10
-18 -10 -7 0 -6 4 3 10 19 12 23 12 15 0z m234 -7 c-6 -7 -15 -10 -20 -7 -13
8 -3 21 15 21 12 0 13 -4 5 -14z m861 7 c0 -5 -2 -10 -4 -10 -3 0 -8 5 -11 10
-3 6 -1 10 4 10 6 0 11 -4 11 -10z m-425 -18 c-3 -3 -11 0 -18 7 -9 10 -8 11
6 5 10 -3 15 -9 12 -12z m175 6 c0 -4 -4 -8 -9 -8 -6 0 -12 4 -15 8 -3 5 1 9
9 9 8 0 15 -4 15 -9z m554 -9 c-6 -11 -24 -2 -24 11 0 5 7 7 15 4 8 -4 12 -10
9 -15z m59 4 c-3 -7 -6 -13 -8 -13 -2 0 -5 6 -8 13 -3 8 1 14 8 14 7 0 11 -6
8 -14z m247 2 c-7 -9 -15 -13 -19 -10 -3 3 1 10 9 15 21 14 24 12 10 -5z
m-1366 -11 c3 -8 2 -12 -4 -9 -6 3 -10 10 -10 16 0 14 7 11 14 -7z m406 2 c-7
-7 -13 -7 -20 0 -6 6 -3 10 10 10 13 0 16 -4 10 -10z m50 4 c0 -5 -7 -7 -15
-4 -8 4 -15 8 -15 10 0 2 7 4 15 4 8 0 15 -4 15 -10z m163 3 c-9 -3 -10 -10
-3 -24 11 -20 4 -24 -24 -13 -9 3 -16 10 -16 16 0 5 5 6 12 2 7 -4 8 -3 4 4
-4 6 -13 9 -21 6 -8 -4 -12 -11 -8 -17 3 -6 1 -7 -5 -3 -17 10 -15 24 6 29 23
6 70 7 55 0z m817 -1 c0 -5 -7 -9 -15 -9 -8 0 -12 4 -9 9 3 4 9 8 15 8 5 0 9
-4 9 -8z m-1466 -42 c-6 -5 -24 21 -24 34 0 6 6 1 14 -10 8 -10 12 -21 10 -24z
m689 20 c-10 -11 -19 -20 -21 -20 -1 0 2 9 8 20 6 11 15 20 20 20 6 0 2 -9 -7
-20z m277 10 c0 -5 -8 -10 -17 -10 -15 0 -16 2 -3 10 19 12 20 12 20 0z m295
0 c3 -6 -1 -7 -9 -4 -18 7 -21 14 -7 14 6 0 13 -4 16 -10z m-1691 -6 c9 -3 13
-11 9 -17 -3 -5 -2 -8 3 -4 5 3 25 2 44 -3 28 -7 19 -8 -42 -8 -43 0 -78 4
-78 8 0 5 14 7 30 6 30 -2 41 8 18 17 -7 3 -10 6 -6 6 3 1 13 -2 22 -5z m586
-17 c0 15 33 10 38 -5 2 -8 -13 -12 -47 -12 -47 0 -65 10 -41 25 6 3 10 1 10
-4 0 -6 5 -11 11 -11 6 0 8 8 5 18 -5 14 -4 14 9 -2 8 -11 15 -15 15 -9z
m-440 -8 c0 -5 -11 -9 -25 -9 -14 0 -25 4 -25 10 0 5 7 7 15 4 8 -4 15 -1 15
6 0 6 5 8 10 5 6 -3 10 -10 10 -16z m240 0 c0 -6 -4 -7 -10 -4 -5 3 -10 11
-10 16 0 6 5 7 10 4 6 -3 10 -11 10 -16z m304 0 c-31 -12 -40 -9 -20 6 10 8
24 11 29 8 6 -4 2 -10 -9 -14z m142 9 c4 -7 4 -10 -1 -6 -4 4 -14 3 -22 -4
-11 -8 -12 -7 -7 6 7 19 20 21 30 4z m687 -9 c-6 -6 -19 -9 -29 -6 -16 4 -15
5 4 6 12 0 22 6 22 13 0 6 3 8 7 5 4 -4 2 -12 -4 -18z m-1213 1 c0 -5 -11 -9
-25 -8 -14 1 -25 6 -25 10 0 4 11 8 25 8 14 0 25 -4 25 -10z m459 1 c7 -5 9
-11 5 -14 -5 -3 -15 1 -22 9 -14 16 -5 18 17 5z m136 -1 c3 -6 -1 -7 -9 -4
-18 7 -21 14 -7 14 6 0 13 -4 16 -10z m262 -12 c-3 -8 -6 -5 -6 6 -1 11 2 17
5 13 3 -3 4 -12 1 -19z m397 14 c3 -5 -1 -9 -9 -9 -8 0 -15 4 -15 9 0 4 4 8 9
8 6 0 12 -4 15 -8z m-598 -30 c-17 -16 -18 -16 -5 5 7 12 15 20 18 17 3 -2 -3
-12 -13 -22z m-256 9 c0 -6 -4 -12 -8 -15 -5 -3 -9 1 -9 9 0 8 4 15 9 15 4 0
8 -4 8 -9z m380 -6 c0 -7 8 -18 17 -24 10 -5 14 -13 10 -18 -5 -4 -14 -1 -20
8 -7 9 -19 14 -27 12 -12 -4 -13 -3 -1 5 7 5 10 15 7 21 -4 6 -2 11 3 11 6 0
11 -7 11 -15z m-198 -2 c-6 -2 -10 -9 -7 -14 4 -5 -1 -6 -10 -2 -13 5 -14 7
-3 14 7 5 18 8 23 8 6 0 4 -3 -3 -6z m148 3 c0 -2 -8 -10 -17 -17 -16 -13 -17
-12 -4 4 13 16 21 21 21 13z m100 -22 c0 -2 -9 0 -20 6 -11 6 -20 13 -20 16 0
2 9 0 20 -6 11 -6 20 -13 20 -16z m-352 -9 c-3 -3 -9 2 -12 12 -6 14 -5 15 5
6 7 -7 10 -15 7 -18z m134 -27 c-7 -7 -12 -8 -12 -2 0 14 12 26 19 19 2 -3 -1
-11 -7 -17z m233 -17 c3 -5 2 -12 -3 -15 -5 -3 -9 1 -9 9 0 17 3 19 12 6z
m-377 -36 c-3 -14 -2 -27 2 -30 11 -7 10 -65 -1 -65 -5 0 -4 -6 3 -14 9 -10
17 -11 26 -4 7 6 15 9 17 6 3 -3 -6 -10 -18 -17 -18 -9 -23 -19 -19 -37 3 -16
0 -24 -9 -24 -11 0 -11 -2 1 -10 12 -8 11 -10 -7 -10 -27 0 -30 18 -7 35 14
10 15 15 4 35 -17 31 -21 143 -6 152 17 12 19 10 14 -17z m257 5 c-3 -5 -12
-10 -18 -10 -7 0 -6 4 3 10 19 12 23 12 15 0z m-85 -4 c0 -2 -8 -10 -17 -17
-16 -13 -17 -12 -4 4 13 16 21 21 21 13z m186 -71 c1 -8 -3 -18 -8 -22 -6 -3
-8 -1 -4 5 3 6 2 13 -4 17 -6 4 -8 11 -4 16 7 12 17 4 20 -16z m-235 -33 c-7
-2 -18 1 -23 6 -8 8 -4 9 13 5 13 -4 18 -8 10 -11z m43 10 c3 -5 -1 -9 -9 -9
-8 0 -12 4 -9 9 3 4 7 8 9 8 2 0 6 -4 9 -8z m196 -58 c0 -13 -3 -14 -15 -4 -8
7 -15 21 -15 32 0 17 2 18 15 4 8 -8 15 -22 15 -32z m-180 2 c0 -3 -4 -8 -10
-11 -5 -3 -10 -1 -10 4 0 6 5 11 10 11 6 0 10 -2 10 -4z m-117 -61 c-7 -21
-12 -19 -10 4 0 11 5 18 9 15 4 -3 5 -11 1 -19z m42 15 c-3 -5 -12 -10 -18
-10 -7 0 -6 4 3 10 19 12 23 12 15 0z m228 -21 c-9 -9 -12 -7 -10 9 1 14 5 18
11 12 7 -7 6 -14 -1 -21z m-210 -8 c3 -14 1 -18 -9 -14 -15 6 -18 16 -7 26 9
10 10 9 16 -12z m32 -1 c3 -6 -1 -7 -9 -4 -18 7 -21 14 -7 14 6 0 13 -4 16
-10z m120 0 c-3 -5 -1 -10 5 -10 8 0 8 -6 0 -20 -6 -11 -16 -20 -23 -20 -8 0
-7 3 2 9 8 5 11 16 8 24 -3 8 -3 18 0 21 10 10 15 7 8 -4z m-298 -22 c-3 -8
-6 -5 -6 6 -1 11 2 17 5 13 3 -3 4 -12 1 -19z m261 -6 c2 -7 -1 -12 -8 -12 -6
0 -9 4 -6 9 4 5 1 12 -4 14 -6 3 -5 4 2 3 6 -1 14 -8 16 -14z m-223 -2 c3 -5
1 -10 -4 -10 -6 0 -11 5 -11 10 0 6 2 10 4 10 3 0 8 -4 11 -10z m165 2 c0 -4
-9 -8 -19 -8 -11 0 -17 4 -15 8 3 4 12 8 20 8 8 0 14 -4 14 -8z m157 -39 c-3
-10 -5 -4 -5 12 0 17 2 24 5 18 2 -7 2 -21 0 -30z m-212 17 c3 -5 1 -10 -4
-10 -6 0 -11 5 -11 10 0 6 2 10 4 10 3 0 8 -4 11 -10z m141 -53 c6 -9 5 -9 -8
0 -8 7 -17 10 -20 7 -3 -2 -8 2 -12 11 -4 13 -2 14 14 5 10 -5 22 -16 26 -23z
m-272 15 c3 -5 -1 -9 -9 -9 -8 0 -12 4 -9 9 3 4 7 8 9 8 2 0 6 -4 9 -8z m363
-42 c1 -16 -1 -17 -12 -7 -11 10 -8 19 10 27 1 0 1 -9 2 -20z m-62 0 c3 -5 1
-10 -4 -10 -6 0 -11 5 -11 10 0 6 2 10 4 10 3 0 8 -4 11 -10z m-185 -10 c0 -5
-5 -10 -11 -10 -5 0 -7 5 -4 10 3 6 8 10 11 10 2 0 4 -4 4 -10z m-125 -20 c-2
-12 2 -23 10 -27 8 -3 12 -9 9 -15 -9 -14 -37 30 -30 47 8 22 15 18 11 -5z
m131 -18 c-10 -11 -16 -12 -16 -4 0 7 5 12 10 12 6 0 10 8 11 18 0 11 2 13 6
4 3 -8 -2 -21 -11 -30z m217 3 c-3 -9 -8 -14 -10 -11 -3 3 -2 9 2 15 9 16 15
13 8 -4z m-153 1 c0 -2 -7 -7 -16 -10 -8 -3 -12 -2 -9 4 6 10 25 14 25 6z m63
-23 c-3 -7 -6 -13 -8 -13 -2 0 -5 6 -8 13 -3 8 1 14 8 14 7 0 11 -6 8 -14z
m32 8 c3 -5 2 -12 -3 -15 -5 -3 -9 1 -9 9 0 17 3 19 12 6z m64 -27 c-6 -8 -6
-14 0 -18 5 -3 12 0 15 6 3 7 4 2 3 -11 -2 -25 -23 -41 -25 -19 0 7 -3 22 -5
34 -3 13 0 21 9 21 10 0 11 -4 3 -13z m-219 2 c0 -2 -11 -11 -25 -20 -20 -13
-23 -13 -19 -2 3 8 13 17 22 19 10 3 18 5 20 6 1 0 2 -1 2 -3z m107 -28 c-3
-8 -6 -5 -6 6 -1 11 2 17 5 13 3 -3 4 -12 1 -19z m-17 8 c0 -2 -7 -7 -16 -10
-8 -3 -12 -2 -9 4 6 10 25 14 25 6z m167 -18 c-3 -8 -6 -5 -6 6 -1 11 2 17 5
13 3 -3 4 -12 1 -19z m-117 8 c0 -2 -8 -10 -17 -17 -16 -13 -17 -12 -4 4 13
16 21 21 21 13z m-233 -38 c-3 -8 -6 -5 -6 6 -1 11 2 17 5 13 3 -3 4 -12 1
-19z m149 3 c0 -16 -3 -17 -14 -9 -12 10 -7 19 13 28 1 0 1 -9 1 -19z m-61
-10 c-3 -6 -11 -11 -16 -11 -5 0 -4 6 3 14 14 16 24 13 13 -3z m245 -2 c0 -5
5 -7 11 -3 6 3 3 -6 -7 -20 -10 -17 -20 -23 -24 -16 -4 6 -14 8 -24 4 -12 -5
-11 0 6 20 24 27 38 33 38 15z m-73 -12 c0 -8 -6 -14 -14 -14 -9 0 -10 4 -2
14 6 7 12 13 14 13 1 0 2 -6 2 -13z m-132 -7 c3 -6 -1 -7 -9 -4 -18 7 -21 14
-7 14 6 0 13 -4 16 -10z m90 -10 c-3 -5 -12 -10 -18 -10 -7 0 -6 4 3 10 19 12
23 12 15 0z m25 -35 c0 -8 -4 -15 -9 -15 -13 0 -22 16 -14 24 11 11 23 6 23
-9z m73 0 c38 10 45 -14 13 -42 -40 -34 -54 -28 -18 7 21 19 26 30 17 30 -8 0
-15 -4 -15 -9 0 -4 -10 -6 -23 -4 -13 3 -24 11 -24 19 0 10 4 11 13 3 7 -5 23
-7 37 -4z m-186 -10 c0 -8 -4 -12 -9 -9 -5 3 -6 10 -3 15 9 13 12 11 12 -6z
m-116 -12 c13 -16 12 -17 -3 -4 -10 7 -18 15 -18 17 0 8 8 3 21 -13z m151 -25
c-9 -9 -12 -7 -12 12 0 19 3 21 12 12 9 -9 9 -15 0 -24z m-67 16 c13 -5 14 -8
3 -15 -19 -13 -28 -11 -28 6 0 17 2 18 25 9z m111 -20 c1 -9 0 -13 -4 -10 -3
4 -7 14 -8 22 -1 9 0 13 4 10 3 -4 7 -14 8 -22z m84 16 c0 -5 -7 -7 -15 -4 -8
4 -15 8 -15 10 0 2 7 4 15 4 8 0 15 -4 15 -10z m-328 -42 c-7 -7 -10 -5 -7 8
5 29 6 30 12 16 3 -8 1 -18 -5 -24z m163 2 c3 -5 2 -10 -4 -10 -5 0 -13 5 -16
10 -3 6 -2 10 4 10 5 0 13 -4 16 -10z m-95 -6 c0 -8 -19 -13 -24 -6 -3 5 1 9
9 9 8 0 15 -2 15 -3z m303 -14 c3 -13 1 -18 -6 -14 -8 5 -7 2 1 -7 24 -26 5
-38 -24 -14 -15 13 1 52 22 55 1 0 4 -9 7 -20z m-320 -25 c-3 -9 -8 -14 -10
-11 -3 3 -2 9 2 15 9 16 15 13 8 -4z m77 -9 c0 -2 -7 -7 -16 -10 -8 -3 -12 -2
-9 4 6 10 25 14 25 6z"/>
<path d="M5296 7997 c3 -10 9 -15 12 -12 3 3 0 11 -7 18 -10 9 -11 8 -5 -6z"/>
<path d="M4175 7609 c-4 -6 -5 -12 -2 -15 2 -3 7 2 10 11 7 17 1 20 -8 4z"/>
<path d="M5778 7603 c6 -2 18 -2 25 0 6 3 1 5 -13 5 -14 0 -19 -2 -12 -5z"/>
<path d="M5728 7593 c7 -3 16 -2 19 1 4 3 -2 6 -13 5 -11 0 -14 -3 -6 -6z"/>
<path d="M5615 7550 c3 -5 8 -10 11 -10 2 0 4 5 4 10 0 6 -5 10 -11 10 -5 0
-7 -4 -4 -10z"/>
<path d="M6132 7564 c-16 -13 -16 -13 1 -14 10 0 15 -5 12 -10 -4 -6 -11 -7
-17 -4 -7 4 -8 2 -4 -4 9 -16 29 -6 42 22 12 26 -5 32 -34 10z"/>
<path d="M5734 7518 c-4 -6 -3 -8 4 -4 6 4 10 -1 9 -13 -1 -14 -5 -17 -13 -10
-15 12 -26 -2 -15 -19 12 -19 50 13 44 38 -6 22 -18 26 -29 8z"/>
<path d="M4730 7430 c-8 -5 -13 -10 -10 -11 3 0 16 -2 29 -5 20 -4 22 -2 11
11 -7 8 -13 15 -14 15 0 0 -8 -5 -16 -10z"/>
<path d="M4155 7430 c3 -5 8 -10 11 -10 2 0 4 5 4 10 0 6 -5 10 -11 10 -5 0
-7 -4 -4 -10z"/>
<path d="M5291 6604 c0 -11 3 -14 6 -6 3 7 2 16 -1 19 -3 4 -6 -2 -5 -13z"/>
<path d="M6185 7400 c-3 -5 -1 -10 4 -10 6 0 11 5 11 10 0 6 -2 10 -4 10 -3 0
-8 -4 -11 -10z"/>
<path d="M6196 7317 c3 -10 9 -15 12 -12 3 3 0 11 -7 18 -10 9 -11 8 -5 -6z"/>
<path d="M6179 7288 c-6 -21 -5 -38 1 -38 5 0 8 9 7 20 -1 17 -5 26 -8 18z"/>
<path d="M4436 5468 c-13 -19 -16 -57 -16 -219 l0 -198 26 -20 c25 -19 40 -21
206 -21 l180 0 30 30 30 30 -4 191 c-4 248 16 229 -244 229 -188 0 -193 -1
-208 -22z"/>
<path d="M5364 5465 l-25 -25 3 -189 c3 -185 4 -190 27 -215 l24 -26 185 0
184 0 29 29 29 29 0 177 c0 183 -8 224 -45 239 -9 3 -100 6 -201 6 -184 0
-185 0 -210 -25z"/>
<path d="M4471 4670 c-48 -21 -50 -33 -51 -233 0 -188 0 -188 25 -213 l25 -25
186 3 186 3 24 28 c23 27 24 33 24 197 0 180 -6 212 -42 231 -29 16 -344 23
-377 9z"/>
<path d="M5369 4661 c-23 -19 -24 -23 -27 -207 -4 -207 0 -226 51 -244 16 -5
103 -10 192 -10 149 0 164 2 189 21 l26 20 0 199 0 199 -26 20 c-25 19 -40 21
-204 21 -160 0 -180 -2 -201 -19z"/>
</g>
</svg>
