<?xml version="1.0" encoding="UTF-8"?>
<svg version="1.1" xmlns="http://www.w3.org/2000/svg" width="500" height="500">
<path d="M0 0 C0 0.66 0 1.32 0 2 C1.09441406 2.38865234 1.09441406 2.38865234 2.2109375 2.78515625 C11.32288677 6.75408654 19.46468932 15.61982026 26 23 C26 23.66 26 24.32 26 25 C26.66 25 27.32 25 28 25 C28.99 27.475 28.99 27.475 30 30 C30.66 30 31.32 30 32 30 C34.54047345 33.29385523 36.72452541 36.82241766 38.94628906 40.33740234 C39.89507266 41.8344404 40.86428032 43.31848722 41.8359375 44.80078125 C63.28817249 79.11465034 61.51297947 120.97970953 52.90625 158.94921875 C46.43664735 185.87569941 34.00772213 209.91365298 19 233 C18.29101562 234.10730469 17.58203125 235.21460938 16.8515625 236.35546875 C16.13742187 237.45503906 15.42328125 238.55460937 14.6875 239.6875 C14.03136719 240.70199219 13.37523437 241.71648437 12.69921875 242.76171875 C12.13847656 243.50035156 11.57773437 244.23898437 11 245 C10.34 245 9.68 245 9 245 C8.75378906 245.7321875 8.50757813 246.464375 8.25390625 247.21875 C6.86587016 250.29750918 5.28363868 252.08351854 2.9375 254.5 C-1.26967771 259.00671787 -4.7328959 263.7302582 -8.08032227 268.88476562 C-9.00728254 270.28818897 -9.9983183 271.64889445 -11 273 C-11.66 273 -12.32 273 -13 273 C-13.144375 273.61875 -13.28875 274.2375 -13.4375 274.875 C-14 277 -14 277 -15 279 C-15.66 279 -16.32 279 -17 279 C-17.12600586 279.58773193 -17.25201172 280.17546387 -17.38183594 280.78100586 C-18.37492575 284.34585313 -20.39486994 287.38759549 -22.25 290.5625 C-25.34967433 295.96612588 -28.19093974 301.35544721 -30.68359375 307.0703125 C-32.39939462 310.88886043 -34.25403617 314.63053084 -36.125 318.375 C-36.46217041 319.05369141 -36.79934082 319.73238281 -37.14672852 320.43164062 C-40.91765318 327.95295014 -40.91765318 327.95295014 -43 331 C-43.66 331 -44.32 331 -45 331 C-45.4021875 331.8353125 -45.4021875 331.8353125 -45.8125 332.6875 C-47.10899496 335.21225334 -48.42476323 337.63714484 -50 340 C-50.66 340 -51.32 340 -52 340 C-52 340.66 -52 341.32 -52 342 C-52.66 342 -53.32 342 -54 342 C-54 342.66 -54 343.32 -54 344 C-54.66 344 -55.32 344 -56 344 C-56 344.66 -56 345.32 -56 346 C-56.66 346 -57.32 346 -58 346 C-58 346.66 -58 347.32 -58 348 C-68.85193945 356.95656646 -82.40784756 364.30013936 -96 368 C-97.24652344 368.34546875 -98.49304688 368.6909375 -99.77734375 369.046875 C-105.96791326 370.3975217 -112.21958954 370.37207672 -118.52685547 370.37060547 C-120.60079002 370.37494929 -122.67253783 370.41128484 -124.74609375 370.44921875 C-137.24903198 370.55608306 -149.02850307 368.2353405 -160.1875 362.3125 C-160.84693604 361.9707373 -161.50637207 361.62897461 -162.18579102 361.27685547 C-182.63914999 350.35090527 -195.95352762 332.91960711 -202.96875 310.96875 C-208.07687466 290.72544116 -205.56334341 268.8665451 -201.50390625 248.703125 C-199.81275504 240.29997259 -198.49465987 231.84812197 -197.20343018 223.37545776 C-196.82516886 220.89555767 -196.44102444 218.41662553 -196.05615234 215.93774414 C-194.87351547 208.25321504 -193.77842878 200.56504992 -192.86328125 192.84375 C-192.78390823 192.17507401 -192.70453522 191.50639801 -192.62275696 190.81745911 C-191.35360423 179.73396504 -190.91849737 168.64878989 -190.875 157.5 C-190.87032715 156.68748779 -190.8656543 155.87497559 -190.86083984 155.0378418 C-190.8086051 146.95450696 -190.8086051 146.95450696 -192 139 C-193.63260714 137.62517293 -195.30225062 136.29352333 -197 135 C-201.1230752 127.56749664 -200.46988553 118.78805303 -200.375 110.5625 C-200.37034729 109.85035339 -200.36569458 109.13820679 -200.36090088 108.40447998 C-200.17808911 84.5686377 -194.61522146 64.29325487 -184 43 C-183.34 43 -182.68 43 -182 43 C-181.34 41.02 -180.68 39.04 -180 37 C-179.34 37 -178.68 37 -178 37 C-178 36.01 -178 35.02 -178 34 C-177.34 34 -176.68 34 -176 34 C-175.74992187 33.26910156 -175.49984375 32.53820312 -175.2421875 31.78515625 C-172.9669324 26.68371949 -168.82078656 23.0022052 -165 19 C-164.49484863 18.46761719 -163.98969727 17.93523437 -163.46923828 17.38671875 C-161.88604014 15.72623215 -160.28958962 14.07975274 -158.6875 12.4375 C-157.93267334 11.65040649 -157.93267334 11.65040649 -157.16259766 10.84741211 C-154.60810483 8.27033201 -152.71105402 6.36140906 -149 6 C-149 5.34 -149 4.68 -149 4 C-146.74113952 2.34432297 -144.50230412 0.84496776 -142.125 -0.625 C-141.40900635 -1.0679541 -140.6930127 -1.5109082 -139.95532227 -1.96728516 C-127.42622423 -9.52460497 -114.3173391 -14.93660537 -100 -18 C-99.0409375 -18.22429688 -98.081875 -18.44859375 -97.09375 -18.6796875 C-63.89194098 -25.19509626 -28.71828125 -17.01824074 0 0 Z " fill="#2077C7" transform="translate(325,63)"/>
<path d="M0 0 C2.12385024 1.62968707 4.15662399 3.31447496 6.1796875 5.06640625 C6.99308594 5.68902344 7.80648437 6.31164062 8.64453125 6.953125 C23.81657256 19.60038902 33.63133534 40.38429145 35.79296875 59.90234375 C38.48825515 91.0677084 32.34275245 122.14378248 18.1796875 150.06640625 C17.88980957 150.64197266 17.59993164 151.21753906 17.30126953 151.81054688 C13.50245174 159.30399954 9.5168214 166.42570252 4.52734375 173.2109375 C3.13160551 175.02608582 3.13160551 175.02608582 2.1796875 177.06640625 C1.5196875 177.06640625 0.8596875 177.06640625 0.1796875 177.06640625 C0.1796875 177.72640625 0.1796875 178.38640625 0.1796875 179.06640625 C-0.89454251 180.20994142 -1.98197371 181.34276119 -3.1171875 182.42578125 C-4.46459623 183.72374378 -5.78114046 185.05373981 -7.0859375 186.39453125 C-7.88515625 187.214375 -8.684375 188.03421875 -9.5078125 188.87890625 C-10.27480469 189.66910156 -11.04179687 190.45929688 -11.83203125 191.2734375 C-13.8203125 193.06640625 -13.8203125 193.06640625 -15.8203125 193.06640625 C-15.8203125 193.72640625 -15.8203125 194.38640625 -15.8203125 195.06640625 C-17.65625 196.73046875 -17.65625 196.73046875 -20.1953125 198.69140625 C-21.10796875 199.40683594 -22.020625 200.12226563 -22.9609375 200.859375 C-24.77970473 202.2632049 -26.60222059 203.66220149 -28.4296875 205.0546875 C-33.53268493 209.00871811 -37.8843553 213.12167624 -42.078125 218.03125 C-44.20130559 220.51146769 -46.48108969 222.79040568 -48.8203125 225.06640625 C-49.5628125 225.87078125 -50.3053125 226.67515625 -51.0703125 227.50390625 C-60.32374578 236.12642362 -70.09995446 240.77722415 -82.7578125 240.56640625 C-84.14516602 240.58960938 -84.14516602 240.58960938 -85.56054688 240.61328125 C-97.12187045 240.54846654 -105.53909336 235.9022489 -113.8203125 228.06640625 C-122.70694647 218.63603942 -125.41196432 209.70682384 -125.29760742 196.97631836 C-125.08506569 190.95150864 -124.19709335 186.16603447 -120.8203125 181.06640625 C-120.46195313 180.4528125 -120.10359375 179.83921875 -119.734375 179.20703125 C-118.6953125 177.50390625 -118.6953125 177.50390625 -116.8203125 175.06640625 C-116.1603125 175.06640625 -115.5003125 175.06640625 -114.8203125 175.06640625 C-114.6140625 174.50953125 -114.4078125 173.95265625 -114.1953125 173.37890625 C-112.85184497 171.11943814 -111.76873548 170.06654065 -109.7578125 168.44140625 C-106.81206537 166.39521228 -106.81206537 166.39521228 -105.8203125 164.06640625 C-105.46167863 158.59723972 -105.45080675 155.55908058 -108.8203125 151.06640625 C-109.58021484 150.22722656 -109.58021484 150.22722656 -110.35546875 149.37109375 C-114.502367 144.52814402 -115.64751377 141.01198471 -115.28515625 134.61328125 C-114.63237092 131.03667593 -113.1286499 128.83641113 -110.8203125 126.06640625 C-108.80551632 123.28737703 -107.83797158 121.82574664 -107.7578125 118.37890625 C-108.73625469 115.32846883 -109.80742501 113.36280449 -111.5078125 110.69140625 C-114.25912523 106.30256522 -116.25151857 101.89418834 -118.0703125 97.06640625 C-118.31612061 96.42654785 -118.56192871 95.78668945 -118.81518555 95.12744141 C-122.21843756 85.82451536 -123.14510115 76.86977609 -123.0703125 67.00390625 C-123.07804688 65.97974609 -123.08578125 64.95558594 -123.09375 63.90039062 C-123.0397993 42.79217839 -113.68483452 22.91772859 -98.95703125 8.04296875 C-71.60225913 -18.43922934 -31.16692377 -21.3679048 0 0 Z " fill="#3758B2" transform="translate(295.8203125,104.93359375)"/>
<path d="M0 0 C0 0.66 0 1.32 0 2 C1.09441406 2.38865234 1.09441406 2.38865234 2.2109375 2.78515625 C11.32288677 6.75408654 19.46468932 15.61982026 26 23 C26 23.66 26 24.32 26 25 C26.66 25 27.32 25 28 25 C28.99 27.475 28.99 27.475 30 30 C30.66 30 31.32 30 32 30 C34.54047345 33.29385523 36.72452541 36.82241766 38.94628906 40.33740234 C39.89507266 41.8344404 40.86428032 43.31848722 41.8359375 44.80078125 C63.28817249 79.11465034 61.51297947 120.97970953 52.90625 158.94921875 C46.43664735 185.87569941 34.00772213 209.91365298 19 233 C18.29101562 234.10730469 17.58203125 235.21460938 16.8515625 236.35546875 C16.13742187 237.45503906 15.42328125 238.55460937 14.6875 239.6875 C14.03136719 240.70199219 13.37523437 241.71648437 12.69921875 242.76171875 C12.13847656 243.50035156 11.57773437 244.23898437 11 245 C10.34 245 9.68 245 9 245 C8.75378906 245.7321875 8.50757813 246.464375 8.25390625 247.21875 C6.86587016 250.29750918 5.28363868 252.08351854 2.9375 254.5 C-1.26967771 259.00671787 -4.7328959 263.7302582 -8.08032227 268.88476562 C-9.00728254 270.28818897 -9.9983183 271.64889445 -11 273 C-11.66 273 -12.32 273 -13 273 C-13.144375 273.61875 -13.28875 274.2375 -13.4375 274.875 C-14 277 -14 277 -15 279 C-15.66 279 -16.32 279 -17 279 C-17.12600586 279.58773193 -17.25201172 280.17546387 -17.38183594 280.78100586 C-18.37492575 284.34585313 -20.39486994 287.38759549 -22.25 290.5625 C-25.34967433 295.96612588 -28.19093974 301.35544721 -30.68359375 307.0703125 C-32.39939462 310.88886043 -34.25403617 314.63053084 -36.125 318.375 C-36.46217041 319.05369141 -36.79934082 319.73238281 -37.14672852 320.43164062 C-40.91765318 327.95295014 -40.91765318 327.95295014 -43 331 C-43.66 331 -44.32 331 -45 331 C-45.4021875 331.8353125 -45.4021875 331.8353125 -45.8125 332.6875 C-47.10899496 335.21225334 -48.42476323 337.63714484 -50 340 C-50.66 340 -51.32 340 -52 340 C-52 340.66 -52 341.32 -52 342 C-52.66 342 -53.32 342 -54 342 C-54 342.66 -54 343.32 -54 344 C-54.66 344 -55.32 344 -56 344 C-56 344.66 -56 345.32 -56 346 C-56.66 346 -57.32 346 -58 346 C-58 346.66 -58 347.32 -58 348 C-68.85193945 356.95656646 -82.40784756 364.30013936 -96 368 C-97.24652344 368.34546875 -98.49304688 368.6909375 -99.77734375 369.046875 C-105.96791326 370.3975217 -112.21958954 370.37207672 -118.52685547 370.37060547 C-120.60079002 370.37494929 -122.67253783 370.41128484 -124.74609375 370.44921875 C-137.24903198 370.55608306 -149.02850307 368.2353405 -160.1875 362.3125 C-160.84693604 361.9707373 -161.50637207 361.62897461 -162.18579102 361.27685547 C-182.63914999 350.35090527 -195.95352762 332.91960711 -202.96875 310.96875 C-205.26332288 301.87544266 -205.34367343 292.70028051 -205.4375 283.375 C-205.44971588 282.70430481 -205.46193176 282.03360962 -205.47451782 281.34259033 C-205.50425461 279.40308734 -205.50067734 277.46316303 -205.49609375 275.5234375 C-205.49794678 274.38825684 -205.4997998 273.25307617 -205.50170898 272.08349609 C-204.88957037 268.32130108 -203.63360439 266.70784502 -201 264 C-198 262 -198 262 -194.625 262.0625 C-191.33565027 262.91319389 -189.34964845 263.58635413 -187.01708984 266.06176758 C-184.57167995 270.7218994 -185.44736832 276.6904363 -185.5 281.8125 C-185.36148295 293.21941388 -184.5741154 302.50936578 -180 313 C-179.566875 314.06734375 -179.13375 315.1346875 -178.6875 316.234375 C-175.01454966 324.45677519 -168.69051281 334.4356883 -160 338 C-160 338.66 -160 339.32 -160 340 C-159.28585938 340.2784375 -158.57171875 340.556875 -157.8359375 340.84375 C-155.05206584 341.97877205 -152.34556352 343.22156901 -149.625 344.5 C-132.15482391 352.45161964 -111.78434874 351.79920001 -93.71484375 345.93359375 C-71.28554261 337.16446053 -58.44247105 320.25542571 -49.02441406 298.77490234 C-48.67862305 297.97648926 -48.33283203 297.17807617 -47.9765625 296.35546875 C-43.42391708 285.88387674 -38.45086326 276.17898172 -32.11181641 266.67431641 C-31.08883117 265.13377343 -30.09564891 263.57354931 -29.10546875 262.01171875 C-26.18070242 257.43598943 -26.18070242 257.43598943 -25 256 C-24.34 256 -23.68 256 -23 256 C-22.7525 255.2678125 -22.505 254.535625 -22.25 253.78125 C-20.87422649 250.72015394 -19.31681914 248.91611139 -17 246.5 C-8.5892566 237.39962973 -1.46164442 227.57225575 5 217 C5.63550781 216.00613281 6.27101563 215.01226562 6.92578125 213.98828125 C30.22249071 177.21114574 44.83280762 129.06328478 35.62939453 85.59472656 C32.31695284 71.93893515 26.89337411 59.61416167 19.00390625 48.01953125 C17 45 17 45 16 42 C15.34 42 14.68 42 14 42 C12.6559907 40.00715862 11.32458708 38.00580329 10 36 C6.35026857 31.9331564 2.17698832 28.77621816 -2.20703125 25.55078125 C-2.79871094 25.03902344 -3.39039063 24.52726562 -4 24 C-4 23.34 -4 22.68 -4 22 C-4.53753906 21.75636719 -5.07507813 21.51273438 -5.62890625 21.26171875 C-8 20 -8 20 -10.71484375 18.08203125 C-34.12013809 1.59903002 -66.21180468 -2.63337453 -94.0625 2.1875 C-111.15055204 5.52598206 -127.14222765 12.47446453 -140.4375 23.875 C-143 26 -143 26 -145 26 C-145 26.66 -145 27.32 -145 28 C-146.09291638 29.12817174 -147.19383177 30.24909076 -148.3203125 31.34375 C-155.91652965 38.83397342 -161.76014942 46.70814632 -167 56 C-167.81984375 57.41732422 -167.81984375 57.41732422 -168.65625 58.86328125 C-173.29279793 67.41487347 -175.783665 76.57575814 -178 86 C-178.18232178 86.71164307 -178.36464355 87.42328613 -178.55249023 88.15649414 C-179.20018535 92.2719906 -179.13575391 96.34027707 -179.140625 100.5 C-179.15894342 102.37501224 -179.17851283 104.2500126 -179.19921875 106.125 C-179.22823478 109.06791446 -179.25000166 112.01005791 -179.25048828 114.953125 C-179.25382176 117.80277185 -179.28834834 120.65065888 -179.328125 123.5 C-179.3210553 124.37720703 -179.3139856 125.25441406 -179.30670166 126.15820312 C-179.3956024 130.62265649 -179.55621273 132.43866567 -182.41308594 136.05224609 C-185.6421753 138.48351025 -187.17121482 138.75266991 -191.0703125 138.48046875 C-194.5221238 137.62100966 -195.96185032 135.81744221 -198 133 C-199.64430344 128.21339414 -200.2641991 123.99653002 -200.30078125 118.94921875 C-200.30642593 118.29743149 -200.31207062 117.64564423 -200.31788635 116.97410583 C-200.32982969 114.87832287 -200.3236933 112.78328059 -200.3125 110.6875 C-200.31034485 109.97035828 -200.3081897 109.25321655 -200.30596924 108.51434326 C-200.19047431 84.61757399 -194.64243112 64.34783521 -184 43 C-183.34 43 -182.68 43 -182 43 C-181.34 41.02 -180.68 39.04 -180 37 C-179.34 37 -178.68 37 -178 37 C-178 36.01 -178 35.02 -178 34 C-177.34 34 -176.68 34 -176 34 C-175.74992187 33.26910156 -175.49984375 32.53820312 -175.2421875 31.78515625 C-172.9669324 26.68371949 -168.82078656 23.0022052 -165 19 C-164.49484863 18.46761719 -163.98969727 17.93523437 -163.46923828 17.38671875 C-161.88604014 15.72623215 -160.28958962 14.07975274 -158.6875 12.4375 C-157.93267334 11.65040649 -157.93267334 11.65040649 -157.16259766 10.84741211 C-154.60810483 8.27033201 -152.71105402 6.36140906 -149 6 C-149 5.34 -149 4.68 -149 4 C-146.74113952 2.34432297 -144.50230412 0.84496776 -142.125 -0.625 C-141.40900635 -1.0679541 -140.6930127 -1.5109082 -139.95532227 -1.96728516 C-127.42622423 -9.52460497 -114.3173391 -14.93660537 -100 -18 C-99.0409375 -18.22429688 -98.081875 -18.44859375 -97.09375 -18.6796875 C-63.89194098 -25.19509626 -28.71828125 -17.01824074 0 0 Z " fill="#302968" transform="translate(325,63)"/>
<path d="M0 0 C2.12385024 1.62968707 4.15662399 3.31447496 6.1796875 5.06640625 C6.99308594 5.68902344 7.80648437 6.31164062 8.64453125 6.953125 C23.81657256 19.60038902 33.63133534 40.38429145 35.79296875 59.90234375 C38.48825515 91.0677084 32.34275245 122.14378248 18.1796875 150.06640625 C17.88980957 150.64197266 17.59993164 151.21753906 17.30126953 151.81054688 C13.50245174 159.30399954 9.5168214 166.42570252 4.52734375 173.2109375 C3.13160551 175.02608582 3.13160551 175.02608582 2.1796875 177.06640625 C1.5196875 177.06640625 0.8596875 177.06640625 0.1796875 177.06640625 C0.1796875 177.72640625 0.1796875 178.38640625 0.1796875 179.06640625 C-0.89454251 180.20994142 -1.98197371 181.34276119 -3.1171875 182.42578125 C-4.46459623 183.72374378 -5.78114046 185.05373981 -7.0859375 186.39453125 C-7.88515625 187.214375 -8.684375 188.03421875 -9.5078125 188.87890625 C-10.27480469 189.66910156 -11.04179687 190.45929688 -11.83203125 191.2734375 C-13.8203125 193.06640625 -13.8203125 193.06640625 -15.8203125 193.06640625 C-15.8203125 193.72640625 -15.8203125 194.38640625 -15.8203125 195.06640625 C-17.65625 196.73046875 -17.65625 196.73046875 -20.1953125 198.69140625 C-21.10796875 199.40683594 -22.020625 200.12226563 -22.9609375 200.859375 C-24.77970473 202.2632049 -26.60222059 203.66220149 -28.4296875 205.0546875 C-33.53268493 209.00871811 -37.8843553 213.12167624 -42.078125 218.03125 C-44.20130559 220.51146769 -46.48108969 222.79040568 -48.8203125 225.06640625 C-49.5628125 225.87078125 -50.3053125 226.67515625 -51.0703125 227.50390625 C-60.32374578 236.12642362 -70.09995446 240.77722415 -82.7578125 240.56640625 C-84.14516602 240.58960938 -84.14516602 240.58960938 -85.56054688 240.61328125 C-97.12187045 240.54846654 -105.53909336 235.9022489 -113.8203125 228.06640625 C-122.70694647 218.63603942 -125.41196432 209.70682384 -125.29760742 196.97631836 C-125.08506569 190.95150864 -124.19709335 186.16603447 -120.8203125 181.06640625 C-120.46195313 180.4528125 -120.10359375 179.83921875 -119.734375 179.20703125 C-118.6953125 177.50390625 -118.6953125 177.50390625 -116.8203125 175.06640625 C-116.1603125 175.06640625 -115.5003125 175.06640625 -114.8203125 175.06640625 C-114.6140625 174.50953125 -114.4078125 173.95265625 -114.1953125 173.37890625 C-112.85184497 171.11943814 -111.76873548 170.06654065 -109.7578125 168.44140625 C-106.81206537 166.39521228 -106.81206537 166.39521228 -105.8203125 164.06640625 C-105.46167863 158.59723972 -105.45080675 155.55908058 -108.8203125 151.06640625 C-109.58021484 150.22722656 -109.58021484 150.22722656 -110.35546875 149.37109375 C-114.502367 144.52814402 -115.64751377 141.01198471 -115.28515625 134.61328125 C-114.63237092 131.03667593 -113.1286499 128.83641113 -110.8203125 126.06640625 C-108.80551632 123.28737703 -107.83797158 121.82574664 -107.7578125 118.37890625 C-108.73625469 115.32846883 -109.80742501 113.36280449 -111.5078125 110.69140625 C-114.25912523 106.30256522 -116.25151857 101.89418834 -118.0703125 97.06640625 C-118.31612061 96.42654785 -118.56192871 95.78668945 -118.81518555 95.12744141 C-122.21843756 85.82451536 -123.14510115 76.86977609 -123.0703125 67.00390625 C-123.07804688 65.97974609 -123.08578125 64.95558594 -123.09375 63.90039062 C-123.0397993 42.79217839 -113.68483452 22.91772859 -98.95703125 8.04296875 C-71.60225913 -18.43922934 -31.16692377 -21.3679048 0 0 Z M-73.4453125 11.75390625 C-74.06792969 12.07423828 -74.69054687 12.39457031 -75.33203125 12.72460938 C-76.83202686 13.49768403 -78.32678621 14.28090611 -79.8203125 15.06640625 C-79.8203125 15.72640625 -79.8203125 16.38640625 -79.8203125 17.06640625 C-80.39910156 17.32164063 -80.97789062 17.576875 -81.57421875 17.83984375 C-88.4086312 21.57202724 -93.18226369 28.35568109 -96.8203125 35.06640625 C-97.26375 35.87335938 -97.7071875 36.6803125 -98.1640625 37.51171875 C-101.56792357 43.98301276 -103.94818726 49.88317763 -103.86328125 57.30859375 C-103.84910156 58.54867187 -103.83492187 59.78875 -103.8203125 61.06640625 C-101.933125 60.99679688 -101.933125 60.99679688 -100.0078125 60.92578125 C-79.73228683 60.40206653 -61.6249692 64.53787658 -45.8203125 78.06640625 C-45.00949219 78.73414063 -44.19867188 79.401875 -43.36328125 80.08984375 C-33.48313363 88.53314831 -27.67092893 98.07215472 -22.8203125 110.06640625 C-22.47742188 110.89140625 -22.13453125 111.71640625 -21.78125 112.56640625 C-17.93540023 123.78047286 -17.02131236 144.13805813 -22.2578125 155.06640625 C-23.8203125 157.06640625 -23.8203125 157.06640625 -25.8203125 158.06640625 C-32.29090074 158.41934743 -32.29090074 158.41934743 -35.8203125 156.06640625 C-36.91234729 152.79030187 -36.87563099 150.54629616 -36.77734375 147.10546875 C-36.75607422 145.91050781 -36.73480469 144.71554688 -36.71289062 143.484375 C-36.66032365 140.9944954 -36.59561398 138.50483655 -36.51757812 136.015625 C-36.29585844 120.62663652 -41.08425706 107.80460473 -51.29296875 96.2734375 C-58.04501185 89.70038818 -65.21626658 85.70619066 -73.8203125 82.06640625 C-74.63886719 81.70546875 -75.45742187 81.34453125 -76.30078125 80.97265625 C-84.33855281 77.98443137 -93.37651766 78.60078872 -101.8203125 79.06640625 C-103.24352311 80.25801285 -103.24352311 80.25801285 -102.8828125 83.69140625 C-101.79891075 92.60507199 -96.09124209 101.67506035 -90.2578125 108.31640625 C-87.81991033 111.40396916 -87.39932375 113.5711891 -87.5078125 117.50390625 C-88.30044622 122.89531109 -90.6344166 126.09099128 -94.32421875 129.99609375 C-96.21201856 132.6084538 -96.31802514 133.90593097 -95.8203125 137.06640625 C-94.64935976 139.08170119 -94.64935976 139.08170119 -93.0078125 140.87890625 C-86.61831889 149.02060142 -85.758812 156.76985142 -86.8203125 167.06640625 C-88.95256163 174.964899 -93.8418662 180.44415936 -100.0078125 185.62890625 C-103.88118516 188.98437032 -105.54831526 191.11036077 -106.02734375 196.31640625 C-106.34940356 204.14126684 -104.98883793 210.03374608 -99.6328125 215.87890625 C-94.83210993 220.28709854 -89.9247245 222.13886895 -83.4453125 222.50390625 C-71.42689104 221.94826005 -63.63267165 214.40925849 -55.8515625 205.91796875 C-54.72160423 204.61851674 -53.5989537 203.31266733 -52.484375 202 C-47.17107326 195.82609305 -41.56849516 190.94248839 -34.7265625 186.51171875 C-33.78296875 185.79628906 -33.78296875 185.79628906 -32.8203125 185.06640625 C-32.8203125 184.40640625 -32.8203125 183.74640625 -32.8203125 183.06640625 C-31.923125 182.63328125 -31.923125 182.63328125 -31.0078125 182.19140625 C-28.62703458 181.01898599 -28.62703458 181.01898599 -25.8203125 179.06640625 C-25.8203125 178.40640625 -25.8203125 177.74640625 -25.8203125 177.06640625 C-25.1603125 177.06640625 -24.5003125 177.06640625 -23.8203125 177.06640625 C-23.8203125 176.40640625 -23.8203125 175.74640625 -23.8203125 175.06640625 C-22.5003125 174.40640625 -21.1803125 173.74640625 -19.8203125 173.06640625 C-19.8203125 172.40640625 -19.8203125 171.74640625 -19.8203125 171.06640625 C-19.1603125 171.06640625 -18.5003125 171.06640625 -17.8203125 171.06640625 C-16.18326249 169.20722864 -14.68173389 167.35410207 -13.1953125 165.37890625 C-12.75018311 164.78948242 -12.30505371 164.20005859 -11.84643555 163.59277344 C-3.9417761 152.97411028 1.6735518 142.28834621 6.41479492 129.99414062 C7.13527401 128.17834014 7.92497851 126.39044727 8.71875 124.60546875 C10.3856782 120.56740205 11.59584019 116.52570677 12.7421875 112.31640625 C12.95037109 111.58164063 13.15855469 110.846875 13.37304688 110.08984375 C16.27813633 99.56230953 17.53116629 89.59550588 17.49536133 78.65112305 C17.4921966 76.63470519 17.51577282 74.61975407 17.54101562 72.60351562 C17.55022306 53.88480729 11.50853304 37.27138046 -0.8203125 23.06640625 C-2.79408967 21.33660987 -4.73904621 19.71439627 -6.8203125 18.12890625 C-7.3884668 17.69578125 -7.95662109 17.26265625 -8.54199219 16.81640625 C-20.03859619 8.28153126 -31.05645089 4.70196272 -45.2578125 4.75390625 C-46.57362305 4.72973633 -46.57362305 4.72973633 -47.91601562 4.70507812 C-57.29967174 4.69816312 -65.22005932 7.40523487 -73.4453125 11.75390625 Z " fill="#2A2466" transform="translate(295.8203125,104.93359375)"/>
<path d="M0 0 C1.13696461 3.33559815 0.85790684 5.07110422 -0.4375 8.3125 C-1.94605252 12.45416238 -2.27959421 15.61969076 -2 20 C-2.99 20.33 -3.98 20.66 -5 21 C-5.02495763 25.65901308 -5.04298042 30.31798614 -5.05493164 34.97705078 C-5.05992073 36.55778686 -5.06671438 38.13851841 -5.07543945 39.71923828 C-5.16986399 51.4578993 -5.16986399 51.4578993 -4.11889648 63.13916016 C-4 65 -4 65 -5 68 C-5.66 68 -6.32 68 -7 68 C-7 68.66 -7 69.32 -7 70 C-7.66 69.67 -8.32 69.34 -9 69 C-8.505 68.01 -8.505 68.01 -8 67 C-7.89084061 64.05363592 -7.83851942 61.12680092 -7.82421875 58.1796875 C-7.80097452 56.34504119 -7.7768555 54.5104058 -7.75195312 52.67578125 C-7.71720915 49.79761956 -7.68771253 46.91984724 -7.67407227 44.04150391 C-7.60444119 31.74144172 -6.68446375 20.7850016 -3 9 C-2.69441162 8.0207959 -2.38882324 7.0415918 -2.07397461 6.03271484 C-1.41611911 4.01061323 -0.71519298 2.00254033 0 0 Z " fill="#2E6BB7" transform="translate(152,129)"/>
<path d="M0 0 C0.33 0 0.66 0 1 0 C1.12377604 5.74739758 1.21442248 11.49401627 1.2746582 17.24243164 C1.29977281 19.19699623 1.33387131 21.15146717 1.37719727 23.10571289 C1.43798434 25.91836668 1.46623983 28.72977702 1.48828125 31.54296875 C1.51408768 32.41398727 1.5398941 33.2850058 1.56648254 34.18241882 C1.56854046 38.6533371 1.45350698 40.42225086 -1.3972168 44.05395508 C-5.35083744 47.00999205 -7.17723737 46.62229195 -12 46 C-12.99 45.01 -13.98 44.02 -15 43 C-11.37 43.33 -7.74 43.66 -4 44 C-4 43.34 -4 42.68 -4 42 C-3.01 42 -2.02 42 -1 42 C-1.00785522 40.35801636 -1.00785522 40.35801636 -1.01586914 38.68286133 C-1.03400733 34.61076682 -1.04546423 30.53867587 -1.05493164 26.46655273 C-1.0599517 24.70612995 -1.0667691 22.94571132 -1.07543945 21.18530273 C-1.08760703 18.65086846 -1.09325166 16.11648946 -1.09765625 13.58203125 C-1.10281754 12.79850784 -1.10797882 12.01498444 -1.11329651 11.2077179 C-1.11369066 7.34408861 -0.9444276 3.754835 0 0 Z " fill="#1D2E74" transform="translate(144,155)"/>
<path d="M0 0 C0.33 0.66 0.66 1.32 1 2 C0.67 2.66 0.34 3.32 0 4 C-1.65 4 -3.3 4 -5 4 C-5 16.21 -5 28.42 -5 41 C-5.99 41.495 -5.99 41.495 -7 42 C-7.03758423 40.71536865 -7.03758423 40.71536865 -7.07592773 39.40478516 C-7.17194054 36.1804097 -7.27111093 32.95614999 -7.37231445 29.73193359 C-7.41521641 28.34525251 -7.45691549 26.9585336 -7.49731445 25.57177734 C-7.72819131 17.67635907 -8.09294327 9.85099526 -9 2 C-6.03 1.34 -3.06 0.68 0 0 Z " fill="#4984BF" transform="translate(142,199)"/>
<path d="M0 0 C0.33 0 0.66 0 1 0 C0.52070744 3.7544584 -0.07477893 7.3374252 -1.02734375 11 C-2.30611237 16.68749232 -2.25630715 22.25734957 -2.1875 28.0625 C-2.1865332 29.61807617 -2.1865332 29.61807617 -2.18554688 31.20507812 C-2.15309464 36.89143052 -1.84391528 42.3761486 -1 48 C-1.66 48 -2.32 48 -3 48 C-5.09568408 41.1496809 -5.26959897 34.82146816 -5.1875 27.6875 C-5.18685547 26.60404297 -5.18621094 25.52058594 -5.18554688 24.40429688 C-5.14090155 16.42270465 -5.14090155 16.42270465 -4 13 C-3.931009 10.93854893 -3.91532273 8.87498599 -3.9375 6.8125 C-3.94652344 5.72582031 -3.95554688 4.63914063 -3.96484375 3.51953125 C-3.97644531 2.68808594 -3.98804688 1.85664063 -4 1 C-3.01 1 -2.02 1 -1 1 C-0.67 0.67 -0.34 0.34 0 0 Z " fill="#2C6CBA" transform="translate(176,144)"/>
<path d="M0 0 C1.32 0.66 2.64 1.32 4 2 C3.67 2.66 3.34 3.32 3 4 C2.34 4 1.68 4 1 4 C0.71253906 4.57621094 0.42507812 5.15242188 0.12890625 5.74609375 C-0.58823673 7.17789825 -1.30916007 8.60782036 -2.03515625 10.03515625 C-2.37417969 10.70417969 -2.71320313 11.37320312 -3.0625 12.0625 C-3.40410156 12.73410156 -3.74570313 13.40570313 -4.09765625 14.09765625 C-5.67582224 17.42478542 -6.12079833 20.03466265 -6.09765625 23.66796875 C-6.09443359 24.56064453 -6.09121094 25.45332031 -6.08789062 26.37304688 C-6.07951172 27.30181641 -6.07113281 28.23058594 -6.0625 29.1875 C-6.05798828 30.12787109 -6.05347656 31.06824219 -6.04882812 32.03710938 C-6.03704626 34.35813712 -6.02059558 36.67903644 -6 39 C-6.66 39 -7.32 39 -8 39 C-11.78559962 31.42880076 -8.75659218 18.9623631 -7 11 C-6.67 10.01 -6.34 9.02 -6 8 C-5.01 8 -4.02 8 -3 8 C-2.690625 6.865625 -2.38125 5.73125 -2.0625 4.5625 C-1 1 -1 1 0 0 Z " fill="#2B6CB8" transform="translate(178,276)"/>
<path d="M0 0 C1 3 1 3 -0.125 5.375 C-2.17840648 8.24976907 -4.47335883 10.53351695 -7 13 C-10.39362786 16.7518394 -10.39362786 16.7518394 -13 21.0625 C-14.45847177 23.88828906 -16.7605757 25.7605757 -19 28 C-20.57013645 30.38428127 -21.84117539 32.59159386 -22.875 35.25 C-24 37 -24 37 -26.625 37.75 C-27.40875 37.8325 -28.1925 37.915 -29 38 C-27.68 35.69 -26.36 33.38 -25 31 C-24.34 31 -23.68 31 -23 31 C-22.62875 29.90171875 -22.62875 29.90171875 -22.25 28.78125 C-20.87422649 25.72015394 -19.31681914 23.91611139 -17 21.5 C-13.29118224 17.50265185 -9.86789099 13.39202829 -6.5625 9.0625 C-6.13775391 8.50691406 -5.71300781 7.95132812 -5.27539062 7.37890625 C-3.44072891 4.96035381 -1.68453822 2.52680733 0 0 Z " fill="#1D2C72" transform="translate(325,288)"/>
<path d="M0 0 C0.33 0.99 0.66 1.98 1 3 C1.66 3 2.32 3 3 3 C3 2.34 3 1.68 3 1 C3.66 1 4.32 1 5 1 C4.49396008 3.16874252 4.00016187 4.99967627 3 7 C2.34 7 1.68 7 1 7 C1 7.66 1 8.32 1 9 C0.34 9 -0.32 9 -1 9 C-1 9.66 -1 10.32 -1 11 C-1.66 11 -2.32 11 -3 11 C-3 11.66 -3 12.32 -3 13 C-4.32 12.34 -5.64 11.68 -7 11 C-7 10.01 -7 9.02 -7 8 C-6.34 8 -5.68 8 -5 8 C-4.731875 7.236875 -4.46375 6.47375 -4.1875 5.6875 C-3.05575888 3.12619116 -2.08776599 1.80307062 0 0 Z " fill="#463E73" transform="translate(272,396)"/>
<path d="M0 0 C2.51331148 2.06517273 3.64980336 3.11511372 5 6 C5.48364904 10.9809029 5.14935454 15.89457867 4.8125 20.875 C4.73912511 22.24466462 4.66813787 23.61445935 4.59960938 24.984375 C4.42317081 28.32494523 4.22253875 31.66223623 4 35 C3.67 35 3.34 35 3 35 C2.9906543 34.14245117 2.98130859 33.28490234 2.97167969 32.40136719 C2.92758709 29.21027321 2.86593944 26.02013244 2.79248047 22.82958984 C2.76430901 21.45048349 2.74307528 20.07121682 2.72900391 18.69189453 C2.70752455 16.70577051 2.65876868 14.72000091 2.609375 12.734375 C2.58842773 11.54038086 2.56748047 10.34638672 2.54589844 9.11621094 C1.89722379 5.41331146 0.99427507 4.21397313 -2 2 C-4.32275177 1.59952556 -6.65739357 1.2602896 -9 1 C-9.66 0.34 -10.32 -0.32 -11 -1 C-3.2486631 -2.49064171 -3.2486631 -2.49064171 0 0 Z " fill="#2F65AF" transform="translate(136,325)"/>
<path d="M0 0 C0.66 0 1.32 0 2 0 C0.46971522 7.84270952 -2.05111154 15.09292836 -5 22.5 C-5.34417969 23.37237305 -5.68835938 24.24474609 -6.04296875 25.14355469 C-6.54763672 26.38733887 -6.54763672 26.38733887 -7.0625 27.65625 C-7.36285156 28.39681641 -7.66320312 29.13738281 -7.97265625 29.90039062 C-9.08237949 32.16836113 -10.42839223 34.0299251 -12 36 C-12 34.35 -12 32.7 -12 31 C-11.34 31 -10.68 31 -10 31 C-9.89042969 30.24074219 -9.78085937 29.48148438 -9.66796875 28.69921875 C-9.50941406 27.70535156 -9.35085938 26.71148437 -9.1875 25.6875 C-8.96126953 24.20830078 -8.96126953 24.20830078 -8.73046875 22.69921875 C-8 20 -8 20 -6.55859375 18.65234375 C-4.00978029 15.95021821 -3.65074478 12.40619022 -2.875 8.875 C-1.10472973 1.10472973 -1.10472973 1.10472973 0 0 Z " fill="#3F53A5" transform="translate(307,214)"/>
<path d="M0 0 C0 0.99 0 1.98 0 3 C-2.79738628 5.6022198 -5.39021581 7.64547431 -8.6875 9.5625 C-11.19035028 11.11832585 -12.39509524 12.55443085 -14 15 C-14.99 16.485 -14.99 16.485 -16 18 C-16.66 18 -17.32 18 -18 18 C-18.33 19.32 -18.66 20.64 -19 22 C-19.66 21.67 -20.32 21.34 -21 21 C-16.87602386 14.15905134 -12.12303147 8.18008463 -6 3 C-5.34 3 -4.68 3 -4 3 C-4 2.34 -4 1.68 -4 1 C-2 0 -2 0 0 0 Z " fill="#3C52A4" transform="translate(220,119)"/>
<path d="M0 0 C2.55995131 2.55995131 2.97463033 4.26028383 3.09765625 7.84741211 C3.08605469 8.97928955 3.07445312 10.11116699 3.0625 11.27734375 C3.05476563 12.51291016 3.04703125 13.74847656 3.0390625 15.02148438 C3.01305979 17.6282556 2.98701824 20.23502643 2.9609375 22.84179688 C2.95320313 24.07865234 2.94546875 25.31550781 2.9375 26.58984375 C2.92589844 27.72284912 2.91429687 28.85585449 2.90234375 30.02319336 C2.98624544 32.58072675 3.07024655 34.62338692 4 37 C6.49034386 38.29660434 6.49034386 38.29660434 9 39 C8.67 39.66 8.34 40.32 8 41 C3.36760603 39.53713875 3.36760603 39.53713875 1.84594727 37.3137207 C0.75811057 34.33841672 0.79169967 31.89715163 0.83984375 28.73046875 C0.8562793 26.90225586 0.8562793 26.90225586 0.87304688 25.03710938 C0.89431641 23.76673828 0.91558594 22.49636719 0.9375 21.1875 C0.97215138 18.68105019 1.00223847 16.17453235 1.02734375 13.66796875 C1.04531006 12.55703857 1.06327637 11.4461084 1.08178711 10.30151367 C0.99504307 6.79990277 0.55840622 3.45522399 0 0 Z " fill="#23246E" transform="translate(257,223)"/>
<path d="M0 0 C0.33 0.66 0.66 1.32 1 2 C1.66 2 2.32 2 3 2 C4.4088974 3.84037223 5.72840298 5.74971704 7 7.6875 C7.70125 8.74324219 8.4025 9.79898438 9.125 10.88671875 C10.73769598 13.56446603 11.95452347 16.06504244 13 19 C11.68 18.34 10.36 17.68 9 17 C9 16.01 9 15.02 9 14 C8.01 13.67 7.02 13.34 6 13 C5.67 12.01 5.34 11.02 5 10 C3.67696283 9.6278958 2.34262065 9.29369827 1 9 C0.67 8.34 0.34 7.68 0 7 C0.66 7 1.32 7 2 7 C1.34 6.01 0.68 5.02 0 4 C0 2.68 0 1.36 0 0 Z " fill="#4B4474" transform="translate(354,91)"/>
<path d="M0 0 C7.875 0.875 7.875 0.875 9 2 C14.55746119 2.28745489 18.62677982 1.54996736 24 0 C26.203125 0.44140625 26.203125 0.44140625 28 1 C20.73687896 4.39653259 14.29542067 6.87277072 6.4375 4.09375 C4.24461203 3.13436151 2.11474161 2.11986317 0 1 C0 0.67 0 0.34 0 0 Z " fill="#3F53A5" transform="translate(199,322)"/>
<path d="M0 0 C0.66 1.32 1.32 2.64 2 4 C1.44828125 4.21527344 0.8965625 4.43054688 0.328125 4.65234375 C-2.19388437 6.11223173 -3.90427528 7.89635628 -5.8581543 10.0378418 C-12.80533776 17.6479384 -12.80533776 17.6479384 -17.6875 18.1875 C-19.3271875 18.0946875 -19.3271875 18.0946875 -21 18 C-18.68548375 16.148387 -16.56311701 14.79029616 -13.875 13.5 C-8.20286045 10.38588417 -4.15139553 4.84468693 0 0 Z " fill="#252971" transform="translate(241,308)"/>
<path d="M0 0 C12.15479595 -0.62653587 21.68025669 0.32517975 33 5 C32.34 5.66 31.68 6.32 31 7 C29.22739369 6.54857225 27.4569632 6.08859477 25.6875 5.625 C24.20830078 5.24214844 24.20830078 5.24214844 22.69921875 4.8515625 C20 4 20 4 17 2 C15.07255631 1.6373883 15.07255631 1.6373883 12.98828125 1.5859375 C12.23095703 1.54726562 11.47363281 1.50859375 10.69335938 1.46875 C9.90767578 1.4378125 9.12199219 1.406875 8.3125 1.375 C7.11657227 1.31699219 7.11657227 1.31699219 5.89648438 1.2578125 C3.93136525 1.16367506 1.9657146 1.08075368 0 1 C0 0.67 0 0.34 0 0 Z " fill="#3B52A4" transform="translate(194,184)"/>
<path d="M0 0 C0.99 0.66 1.98 1.32 3 2 C1.27628361 4.39992037 -0.4536905 6.7948874 -2.1875 9.1875 C-2.67025391 9.86103516 -3.15300781 10.53457031 -3.65039062 11.22851562 C-6.51415612 15.16859567 -9.45242716 18.65996342 -13 22 C-12.67 20.35 -12.34 18.7 -12 17 C-11.34 17 -10.68 17 -10 17 C-9.731875 16.42121094 -9.46375 15.84242188 -9.1875 15.24609375 C-7.97873378 12.95977606 -6.60372533 11.08720322 -5 9.0625 C-2.76917046 6.1515395 -1.1059289 3.53897249 0 0 Z " fill="#2E6BB6" transform="translate(325,283)"/>
<path d="M0 0 C0.3403125 0.9590625 0.3403125 0.9590625 0.6875 1.9375 C1.85250896 4.27193661 1.85250896 4.27193661 4.625 4.75 C5.40875 4.8325 6.1925 4.915 7 5 C7 5.33 7 5.66 7 6 C0.1834265 7.7879537 -5.96517526 8.23668569 -13 8 C-13 7.67 -13 7.34 -13 7 C-8.545 6.505 -8.545 6.505 -4 6 C-4 5.01 -4 4.02 -4 3 C-3.34 3 -2.68 3 -2 3 C-2 2.34 -2 1.68 -2 1 C-1.34 0.67 -0.68 0.34 0 0 Z " fill="#4F4875" transform="translate(222,425)"/>
<path d="M0 0 C0.33 0 0.66 0 1 0 C1 1.98 1 3.96 1 6 C1.99 6.33 2.98 6.66 4 7 C3.34 7.66 2.68 8.32 2 9 C1.3732442 12.10331169 0.98036934 15.20990524 0.5625 18.34765625 C0.376875 19.22292969 0.19125 20.09820312 0 21 C-0.66 21.33 -1.32 21.66 -2 22 C-2.25515919 14.47280398 -1.28297723 7.41148455 0 0 Z " fill="#4485C0" transform="translate(128,284)"/>
<path d="M0 0 C0.33 0 0.66 0 1 0 C1 1.65 1 3.3 1 5 C1.99 5.33 2.98 5.66 4 6 C3.67 6.99 3.34 7.98 3 9 C2.01 8.67 1.02 8.34 0 8 C-1.32 11.3 -2.64 14.6 -4 18 C-4.66 18 -5.32 18 -6 18 C-4.23536928 11.89262558 -2.30442525 5.92566493 0 0 Z " fill="#2673BF" transform="translate(324,228)"/>
<path d="M0 0 C1.051875 0.598125 2.10375 1.19625 3.1875 1.8125 C3.82945312 2.17730469 4.47140625 2.54210937 5.1328125 2.91796875 C6.63003284 3.7856048 8.10111919 4.69827071 9.5625 5.625 C12.29224014 7.16485341 15.00602222 8.09484393 18 9 C17.401875 9.28875 16.80375 9.5775 16.1875 9.875 C13.80672208 11.04742026 13.80672208 11.04742026 11 13 C10.01 13 9.02 13 8 13 C8.66 11.68 9.32 10.36 10 9 C9.4225 8.66226562 8.845 8.32453125 8.25 7.9765625 C7.13625 7.30753906 7.13625 7.30753906 6 6.625 C5.2575 6.18414062 4.515 5.74328125 3.75 5.2890625 C2.88375 4.65097656 2.88375 4.65097656 2 4 C2 3.34 2 2.68 2 2 C1.34 2 0.68 2 0 2 C0 1.34 0 0.68 0 0 Z " fill="#2C71BE" transform="translate(184,335)"/>
<path d="M0 0 C0.33 0 0.66 0 1 0 C1.33706931 9.83743016 1.02149686 18.50386702 -2 28 C-2.33 28 -2.66 28 -3 28 C-2.3972149 18.59337993 -1.32867987 9.32655869 0 0 Z " fill="#6598CA" transform="translate(132,256)"/>
<path d="M0 0 C2 1 2 1 2.60302734 2.74829102 C3.37146853 7.10704444 3.43018551 11.52265995 3.625 15.9375 C3.6765625 16.92685547 3.728125 17.91621094 3.78125 18.93554688 C3.82507813 19.89396484 3.86890625 20.85238281 3.9140625 21.83984375 C3.9548291 22.70988037 3.9955957 23.57991699 4.03759766 24.47631836 C3.99849725 27.10086954 3.59233807 29.44779555 3 32 C2.67 32 2.34 32 2 32 C1.97494385 31.2479126 1.9498877 30.4958252 1.92407227 29.72094727 C1.80849486 26.33460804 1.68559655 22.94857387 1.5625 19.5625 C1.52318359 18.37849609 1.48386719 17.19449219 1.44335938 15.97460938 C1.40146484 14.84990234 1.35957031 13.72519531 1.31640625 12.56640625 C1.27974854 11.52427979 1.24309082 10.48215332 1.20532227 9.40844727 C1.26484659 7.0500174 1.26484659 7.0500174 0 6 C-0.04080783 4.00041636 -0.04254356 1.99954746 0 0 Z " fill="#4A476D" transform="translate(380,149)"/>
<path d="M0 0 C0.66 0.33 1.32 0.66 2 1 C3.24575306 4.73725919 3.48893443 8.08852457 3 12 C1.5 14 1.5 14 0 15 C0 14.01 0 13.02 0 12 C-0.66 12 -1.32 12 -2 12 C-1.125 7.25 -1.125 7.25 0 5 C0.0396713 3.33380554 0.04384447 1.66608987 0 0 Z " fill="#2972C2" transform="translate(188,257)"/>
<path d="M0 0 C-7.92 0 -15.84 0 -24 0 C-20.17803336 -1.91098332 -18.14742414 -2.37125891 -14 -2.6875 C-12.96875 -2.77386719 -11.9375 -2.86023437 -10.875 -2.94921875 C-6.37535481 -3.02869618 -4.07849557 -2.03924779 0 0 Z " fill="#1B2569" transform="translate(264,63)"/>
<path d="M0 0 C3 1 3 1 4.38671875 3.72265625 C4.81597656 4.82480469 5.24523437 5.92695313 5.6875 7.0625 C6.12449219 8.16722656 6.56148437 9.27195313 7.01171875 10.41015625 C7.33785156 11.26480469 7.66398438 12.11945313 8 13 C8.66 13 9.32 13 10 13 C10.99435406 16.09354597 10.87840996 17.90279155 10 21 C5.77245623 14.15485378 2.19855018 7.75958885 0 0 Z " fill="#1F2C73" transform="translate(178,201)"/>
<path d="M0 0 C6.64409958 -0.21432579 12.53205867 0.48766299 19 2 C19 2.66 19 3.32 19 4 C20.32 4 21.64 4 23 4 C23 4.66 23 5.32 23 6 C21.75863281 5.72285156 20.51726562 5.44570312 19.23828125 5.16015625 C17.59636049 4.79424248 15.95443305 4.42835864 14.3125 4.0625 C13.08756836 3.78889648 13.08756836 3.78889648 11.83789062 3.50976562 C7.89917517 2.63272372 3.96208805 1.76659545 0 1 C0 0.67 0 0.34 0 0 Z " fill="#2E69B3" transform="translate(259,91)"/>
<path d="M0 0 C0.66 0 1.32 0 2 0 C1.40531984 5.66828055 -0.09242801 10.60322154 -2.0625 15.9375 C-2.34416016 16.71673828 -2.62582031 17.49597656 -2.91601562 18.29882812 C-3.60467706 20.20140125 -4.30149903 22.10101725 -5 24 C-6.1130398 20.22645053 -5.68517025 18.47993987 -4.1875 14.8125 C-2.27884637 9.89887266 -1.01660652 5.1677498 0 0 Z " fill="#1E2D73" transform="translate(325,217)"/>
<path d="M0 0 C0.99 0.66 1.98 1.32 3 2 C-0.15064889 6.14085283 -2.00049227 8.28964209 -7 10 C-8.77277259 11.52007842 -8.77277259 11.52007842 -10 13 C-10.66 12.67 -11.32 12.34 -12 12 C-8.04 8.04 -4.08 4.08 0 0 Z " fill="#534D7B" transform="translate(169,73)"/>
<path d="M0 0 C2.16337361 3.24506041 3.30871672 6.26961121 4.625 9.9375 C5.07101562 11.16339844 5.51703125 12.38929688 5.9765625 13.65234375 C7 17 7 17 7 21 C6.34 21 5.68 21 5 21 C5 19.02 5 17.04 5 15 C4.34 15 3.68 15 3 15 C2.34 12.69 1.68 10.38 1 8 C0.67 8 0.34 8 0 8 C0 5.36 0 2.72 0 0 Z " fill="#2B6BB7" transform="translate(354,129)"/>
<path d="M0 0 C0.33 0 0.66 0 1 0 C1 1.98 1 3.96 1 6 C0.34 6 -0.32 6 -1 6 C-0.896875 7.0725 -0.79375 8.145 -0.6875 9.25 C-1 13 -1 13 -3.5 15.4375 C-4.7375 16.2109375 -4.7375 16.2109375 -6 17 C-6.33 16.34 -6.66 15.68 -7 15 C-5.8203125 12.28515625 -5.8203125 12.28515625 -4.125 9.0625 C-1.81191414 4.6381304 -1.81191414 4.6381304 0 0 Z " fill="#1F2E72" transform="translate(276,361)"/>
<path d="M0 0 C1.32 0.33 2.64 0.66 4 1 C4 1.66 4 2.32 4 3 C4.7425 3.2475 5.485 3.495 6.25 3.75 C9.20124062 5.09147301 10.84814974 6.60905526 13 9 C10.625 9.125 10.625 9.125 8 9 C7.34 8.34 6.68 7.68 6 7 C5.01 7.495 5.01 7.495 4 8 C0 2.25 0 2.25 0 0 Z " fill="#5A547D" transform="translate(321,62)"/>
<path d="M0 0 C0.66 0 1.32 0 2 0 C2 0.66 2 1.32 2 2 C2.70511719 2.27585937 3.41023437 2.55171875 4.13671875 2.8359375 C7.0659984 4.02683155 9.93753586 5.30875136 12.8125 6.625 C14.27623047 7.29402344 14.27623047 7.29402344 15.76953125 7.9765625 C16.50558594 8.31429688 17.24164063 8.65203125 18 9 C14.94255252 10.35114472 13.77959635 9.9224598 10.546875 8.78515625 C9.27604557 8.22254947 8.01048782 7.64790949 6.75 7.0625 C6.1003125 6.77181641 5.450625 6.48113281 4.78125 6.18164062 C3.18284785 5.46471025 1.59076946 4.73371051 0 4 C0 2.68 0 1.36 0 0 Z " fill="#1F2E76" transform="translate(163,401)"/>
<path d="M0 0 C2.68656601 2.20317005 3.89617725 3.35049382 4.45410156 6.84082031 C4.4331543 7.90913086 4.41220703 8.97744141 4.390625 10.078125 C4.37773437 11.23828125 4.36484375 12.3984375 4.3515625 13.59375 C4.31804687 14.8003125 4.28453125 16.006875 4.25 17.25 C4.23195312 18.47203125 4.21390625 19.6940625 4.1953125 20.953125 C4.148181 23.96954078 4.08239413 26.98437491 4 30 C3.67 30 3.34 30 3 30 C3 22.08 3 14.16 3 6 C2.34 6 1.68 6 1 6 C0.67 4.02 0.34 2.04 0 0 Z " fill="#162970" transform="translate(135,327)"/>
<path d="M0 0 C0.33 0.66 0.66 1.32 1 2 C0.525625 2.598125 0.05125 3.19625 -0.4375 3.8125 C-2.16465744 6.00382924 -2.16465744 6.00382924 -3 9 C-4.7421875 10.421875 -4.7421875 10.421875 -6.875 11.75 C-7.57367188 12.19859375 -8.27234375 12.6471875 -8.9921875 13.109375 C-11 14 -11 14 -14 13 C-9.25 9 -9.25 9 -7 9 C-6.7525 8.38125 -6.505 7.7625 -6.25 7.125 C-4.77229238 4.61289704 -3.56044823 4.23892656 -1 3 C-0.67 2.01 -0.34 1.02 0 0 Z " fill="#2B6AB7" transform="translate(252,324)"/>
<path d="M0 0 C0.66 0.33 1.32 0.66 2 1 C1.360625 1.928125 0.72125 2.85625 0.0625 3.8125 C-2.08622093 6.84219943 -2.08622093 6.84219943 -3 10 C-5.9375 11.75 -5.9375 11.75 -9 13 C-9.66 12.67 -10.32 12.34 -11 12 C-10.27683594 11.29423828 -10.27683594 11.29423828 -9.5390625 10.57421875 C-8.90742188 9.95160156 -8.27578125 9.32898438 -7.625 8.6875 C-6.99851562 8.07261719 -6.37203125 7.45773437 -5.7265625 6.82421875 C-3.81913393 4.91187472 -3.81913393 4.91187472 -2 2 C-1.34 2 -0.68 2 0 2 C0 1.34 0 0.68 0 0 Z " fill="#2C6BB6" transform="translate(296,282)"/>
<path d="M0 0 C1 3 1 3 0.5 5.1875 C-0.17905683 9.00719469 0.4156984 12.16957839 1 16 C-0.56073255 13.65890118 -1.86373867 11.43666597 -3.125 8.9375 C-3.65480469 7.89916016 -3.65480469 7.89916016 -4.1953125 6.83984375 C-5 5 -5 5 -5 3 C-2.5 1.375 -2.5 1.375 0 0 Z " fill="#2970BE" transform="translate(325,128)"/>
<path d="M0 0 C3.12290635 0.48578543 5.99580359 0.9986012 9 2 C9 2.66 9 3.32 9 4 C10.32 4.66 11.64 5.32 13 6 C13 6.66 13 7.32 13 8 C7.73691968 6.58795406 4.2437012 4.31008693 0 1 C0 0.67 0 0.34 0 0 Z " fill="#645D86" transform="translate(151,416)"/>
<path d="M0 0 C0.33 0.66 0.66 1.32 1 2 C4.465 1.505 4.465 1.505 8 1 C4.72654007 4.27345993 0.2027148 4.88053072 -4.3046875 5.125 C-6.20358219 5.125 -8.10231518 5.06777446 -10 5 C-10 4.34 -10 3.68 -10 3 C-8.72125 2.87625 -7.4425 2.7525 -6.125 2.625 C-2.65209064 2.30957601 -2.65209064 2.30957601 0 0 Z " fill="#2D70C0" transform="translate(222,408)"/>
<path d="M0 0 C0.99 0.33 1.98 0.66 3 1 C1.33333333 4.33333333 -0.33333333 7.66666667 -2 11 C-3.32 9.35 -4.64 7.7 -6 6 C-2.25 3 -2.25 3 0 3 C0 2.01 0 1.02 0 0 Z " fill="#4E4779" transform="translate(305,342)"/>
<path d="M0 0 C0.66 0 1.32 0 2 0 C1.67 3.3 1.34 6.6 1 10 C1.66 10 2.32 10 3 10 C3 10.66 3 11.32 3 12 C1.37373596 13.38232443 -0.2925002 14.71937515 -2 16 C-1.42978066 10.6496441 -0.79265639 5.32212148 0 0 Z " fill="#5C8CC6" transform="translate(123,315)"/>
<path d="M0 0 C2.125 0.375 2.125 0.375 4 1 C3.52797514 5.24822374 1.03344482 7.19989709 -2 10 C-2.1953125 3.9453125 -2.1953125 3.9453125 -2 2 C-1.34 1.34 -0.68 0.68 0 0 Z " fill="#474073" transform="translate(323,315)"/>
<path d="M0 0 C0.66 0 1.32 0 2 0 C0.90345909 2.6915095 -0.17367085 4.16428324 -2.3125 6.1875 C-5.71245051 9.74558774 -7.77037316 13.64511183 -10 18 C-10.33 17.34 -10.66 16.68 -11 16 C-10.07421875 13.94140625 -10.07421875 13.94140625 -8.6875 11.5625 C-8.23761719 10.78003906 -7.78773438 9.99757813 -7.32421875 9.19140625 C-6.2614878 7.4327276 -5.13981749 5.70972623 -4 4 C-3.34 4 -2.68 4 -2 4 C-1.34 2.68 -0.68 1.36 0 0 Z " fill="#1C2F78" transform="translate(183,276)"/>
<path d="M0 0 C0 3.67214448 -1.09830092 5.37039233 -2.875 8.5625 C-3.40867187 9.53316406 -3.94234375 10.50382812 -4.4921875 11.50390625 C-6 14 -6 14 -8 16 C-8 14.02 -8 12.04 -8 10 C-7.01 10 -6.02 10 -5 10 C-4.67 8.02 -4.34 6.04 -4 4 C-3.34 4 -2.68 4 -2 4 C-2.33 3.01 -2.66 2.02 -3 1 C-2.01 0.67 -1.02 0.34 0 0 Z " fill="#6E6A8C" transform="translate(360,266)"/>
<path d="M0 0 C0.99 0.33 1.98 0.66 3 1 C3.88902912 7.04819812 4.12348383 12.89223486 4.0625 19 C4.05798828 19.87011719 4.05347656 20.74023438 4.04882812 21.63671875 C4.0371736 23.75784293 4.01924357 25.8789311 4 28 C3.67 28 3.34 28 3 28 C2.95101563 26.81664062 2.90203125 25.63328125 2.8515625 24.4140625 C2.47057735 16.09222062 1.9665702 8.12849016 0 0 Z " fill="#3B4E9D" transform="translate(274,216)"/>
<path d="M0 0 C0.33 0 0.66 0 1 0 C1 1.65 1 3.3 1 5 C0.071875 5.3403125 0.071875 5.3403125 -0.875 5.6875 C-3.63318783 7.3910866 -3.94965851 8.99902431 -5 12 C-5.66 12.66 -6.32 13.32 -7 14 C-7.99 13.67 -8.98 13.34 -10 13 C-9.52949219 12.48050781 -9.05898438 11.96101563 -8.57421875 11.42578125 C-5.30878337 7.76822319 -2.41434979 4.2921774 0 0 Z " fill="#202D73" transform="translate(268,378)"/>
<path d="M0 0 C0.66 0 1.32 0 2 0 C0.39369175 4.24292532 -1.5768162 8.27025107 -3.625 12.3125 C-4.11226562 13.28026367 -4.11226562 13.28026367 -4.609375 14.26757812 C-5.40441956 15.84597541 -6.20195634 17.42311694 -7 19 C-8.15957207 15.52128379 -7.77456651 14.65780355 -6.5625 11.3125 C-6.27503906 10.50425781 -5.98757812 9.69601563 -5.69140625 8.86328125 C-5.46324219 8.24839844 -5.23507813 7.63351563 -5 7 C-4.34 7 -3.68 7 -3 7 C-2.690625 6.21625 -2.38125 5.4325 -2.0625 4.625 C-1 2 -1 2 0 0 Z " fill="#1C2C73" transform="translate(159,112)"/>
<path d="M0 0 C-1.34209166 4.02627499 -3.48701801 4.75169153 -7 7 C-9.43638232 9.10032958 -9.94893544 9.84680631 -11 13 C-13.0625 13.6875 -13.0625 13.6875 -15 14 C-13.54238919 10.63163511 -11.6759774 8.43494248 -9.0625 5.875 C-8.37285156 5.19179687 -7.68320313 4.50859375 -6.97265625 3.8046875 C-2.81385281 0 -2.81385281 0 0 0 Z " fill="#1D2C74" transform="translate(207,106)"/>
<path d="M0 0 C-5.73264095 3.94915265 -9.02922598 5.13152404 -16 5 C-4.85714286 -2.42857143 -4.85714286 -2.42857143 0 0 Z " fill="#3C52A4" transform="translate(239,112)"/>
<path d="M0 0 C1.17463364 3.52390092 0.77415531 5.3718443 0.125 9 C-0.05804688 10.051875 -0.24109375 11.10375 -0.4296875 12.1875 C-1 15 -1 15 -2 18 C-3.95635231 14.08729537 -3.3696659 9.2758022 -3 5 C-1.5 1.8125 -1.5 1.8125 0 0 Z " fill="#1E2C74" transform="translate(184,232)"/>
<path d="M0 0 C0.99 0.33 1.98 0.66 3 1 C3 1.99 3 2.98 3 4 C3.99 4 4.98 4 6 4 C6 4.99 6 5.98 6 7 C5.01 7 4.02 7 3 7 C2.01 8.485 2.01 8.485 1 10 C0 7 -1 4 -2 1 C-1.34 0.67 -0.68 0.34 0 0 Z " fill="#2B235F" transform="translate(331,70)"/>
<path d="M0 0 C0 3.38755275 -0.43021201 5.00313201 -2 8 C-3.89911619 9.85365863 -5.87999381 11.38695181 -8 13 C-8.33 12.34 -8.66 11.68 -9 11 C-8.34 11 -7.68 11 -7 11 C-6.6596875 9.948125 -6.6596875 9.948125 -6.3125 8.875 C-4.68343133 5.30656387 -2.59359269 2.93485489 0 0 Z " fill="#686289" transform="translate(156,86)"/>
<path d="M0 0 C2.6486859 3.19668988 4.93992341 6.39486597 7 10 C5.02 10 3.04 10 1 10 C0.37542727 6.56484998 0 3.50935186 0 0 Z " fill="#1F2B6D" transform="translate(146,381)"/>
<path d="M0 0 C0.33 0.99 0.66 1.98 1 3 C-0.32 3.99 -1.64 4.98 -3 6 C-3 5.01 -3 4.02 -3 3 C-3.66 2.67 -4.32 2.34 -5 2 C-4.67 3.65 -4.34 5.3 -4 7 C-4.99 7.33 -5.98 7.66 -7 8 C-6.67 5.69 -6.34 3.38 -6 1 C-3 0 -3 0 0 0 Z " fill="#2A245F" transform="translate(128,328)"/>
<path d="M0 0 C0.99 0 1.98 0 3 0 C1.07289294 10.55808656 1.07289294 10.55808656 -1 15 C-1.66 13.68 -2.32 12.36 -3 11 C-2.67 11 -2.34 11 -2 11 C-1.67 9.35 -1.34 7.7 -1 6 C-0.34 6 0.32 6 1 6 C0.67 4.02 0.34 2.04 0 0 Z " fill="#706B96" transform="translate(372,229)"/>
<path d="M0 0 C0.99 0 1.98 0 3 0 C2 3 2 3 0 4 C-5.78993435 4.36761488 -5.78993435 4.36761488 -8 4 C-8.99 3.01 -9.98 2.02 -11 1 C-7.37 1.33 -3.74 1.66 0 2 C0 1.34 0 0.68 0 0 Z " fill="#2F3874" transform="translate(140,197)"/>
<path d="M0 0 C0.99 0 1.98 0 3 0 C3 0.99 3 1.98 3 3 C3.66 3 4.32 3 5 3 C5 3.66 5 4.32 5 5 C5.66 5 6.32 5 7 5 C7.99 8.3 8.98 11.6 10 15 C7.3881688 13.6940844 6.92398083 12.31178947 5.5625 9.75 C3.78274553 6.4485028 1.960655 3.19896342 0 0 Z " fill="#1C2C6F" transform="translate(343,109)"/>
<path d="M0 0 C0.66 0.33 1.32 0.66 2 1 C-1.66666667 4.66666667 -5.33333333 8.33333333 -9 12 C-9.99 11.67 -10.98 11.34 -12 11 C-10.625 9.5 -10.625 9.5 -9 8 C-8.34 8 -7.68 8 -7 8 C-7 7.34 -7 6.68 -7 6 C-2.52941176 2 -2.52941176 2 0 2 C0 1.34 0 0.68 0 0 Z " fill="#242B75" transform="translate(270,282)"/>
<path d="M0 0 C0.75 1.6875 0.75 1.6875 1 4 C-0.5625 6.75 -0.5625 6.75 -3 9 C-6.25 9.3125 -6.25 9.3125 -9 9 C-9.33 8.34 -9.66 7.68 -10 7 C-8.906875 6.773125 -7.81375 6.54625 -6.6875 6.3125 C-2.87511789 5.34252805 -2.87511789 5.34252805 -1.0625 2.375 C-0.711875 1.59125 -0.36125 0.8075 0 0 Z " fill="#3D51A4" transform="translate(275,257)"/>
<path d="M0 0 C0.33 0.66 0.66 1.32 1 2 C1.66 2 2.32 2 3 2 C3 2.66 3 3.32 3 4 C1.50390625 5.4375 1.50390625 5.4375 -0.4375 7 C-3.15188238 9.14525044 -3.15188238 9.14525044 -5 12 C-5.66 11.67 -6.32 11.34 -7 11 C-4.69 7.37 -2.38 3.74 0 0 Z " fill="#26296F" transform="translate(292,255)"/>
<path d="M0 0 C1.61363928 3.22727857 0.08456242 5.68923051 -1 9 C-1.62469505 10.35350594 -2.2716331 11.69934483 -3 13 C-3.66 13 -4.32 13 -5 13 C-3.91343356 8.06866002 -2.8990762 4.21683811 0 0 Z " fill="#3E52A3" transform="translate(198,143)"/>
<path d="M0 0 C-1.62170379 1.00533667 -3.24747237 2.00411907 -4.875 3 C-6.23238281 3.8353125 -6.23238281 3.8353125 -7.6171875 4.6875 C-10 6 -10 6 -12 6 C-12 4.68 -12 3.36 -12 2 C-9 1 -9 1 -7 1 C-6.360625 0.649375 -5.72125 0.29875 -5.0625 -0.0625 C-3 -1 -3 -1 0 0 Z " fill="#2B6EBA" transform="translate(248,401)"/>
<path d="M0 0 C2.91843445 2.626591 4.94517315 5.66976339 7 9 C7 9.66 7 10.32 7 11 C5.68 10.34 4.36 9.68 3 9 C3 8.01 3 7.02 3 6 C2.01 5.67 1.02 5.34 0 5 C0 3.35 0 1.7 0 0 Z " fill="#635F86" transform="translate(360,99)"/>
<path d="M0 0 C0.66 0 1.32 0 2 0 C3.32421875 1.609375 3.32421875 1.609375 4.6875 3.75 C5.14511719 4.44609375 5.60273438 5.1421875 6.07421875 5.859375 C7.16906025 8.39090725 6.9435441 9.46100862 6 12 C4.99466333 10.37829621 3.99588093 8.75252763 3 7.125 C2.443125 6.22007812 1.88625 5.31515625 1.3125 4.3828125 C0 2 0 2 0 0 Z " fill="#2B6EB8" transform="translate(145,377)"/>
<path d="M0 0 C1.57554035 2.88628401 2.46276373 5.53342384 3.125 8.75 C3.29257813 9.54921875 3.46015625 10.3484375 3.6328125 11.171875 C3.81457031 12.07679688 3.81457031 12.07679688 4 13 C0.49608504 10.10927016 -0.91307143 8.8692857 -1.375 4.25 C-1 1 -1 1 0 0 Z " fill="#212D75" transform="translate(140,363)"/>
<path d="M0 0 C0.66 0 1.32 0 2 0 C2.33 0.99 2.66 1.98 3 3 C1.78515625 4.82421875 1.78515625 4.82421875 0.0625 6.6875 C-0.50339844 7.31011719 -1.06929687 7.93273437 -1.65234375 8.57421875 C-2.09707031 9.04472656 -2.54179687 9.51523438 -3 10 C-3.33 9.34 -3.66 8.68 -4 8 C-3.34 7.01 -2.68 6.02 -2 5 C-1.64830932 3.67139075 -1.31229724 2.33841672 -1 1 C-0.67 0.67 -0.34 0.34 0 0 Z " fill="#2772BD" transform="translate(192,113)"/>
<path d="M0 0 C1.32 0.33 2.64 0.66 4 1 C4 3.97 4 6.94 4 10 C1.7448078 7.7448078 1.02276532 5.9952413 0 3 C0 2.01 0 1.02 0 0 Z " fill="#1E2B6D" transform="translate(353,124)"/>
<path d="M0 0 C1.32 0.33 2.64 0.66 4 1 C1.525 5.455 1.525 5.455 -1 10 C-1.33 10 -1.66 10 -2 10 C-1.54177532 6.53058454 -1.10868317 3.32604951 0 0 Z " fill="#534E74" transform="translate(348,282)"/>
<path d="M0 0 C0.33 1.32 0.66 2.64 1 4 C0.34 4.66 -0.32 5.32 -1 6 C-1.71408334 7.98356483 -2.38617742 9.98315437 -3 12 C-3.99 11.67 -4.98 11.34 -6 11 C-4.02 7.37 -2.04 3.74 0 0 Z " fill="#1E2F78" transform="translate(185,128)"/>
<path d="M0 0 C2.31 0.33 4.62 0.66 7 1 C7.66 2.98 8.32 4.96 9 7 C5.18315774 5.44499019 2.80804268 2.96404505 0 0 Z " fill="#272872" transform="translate(286,121)"/>
<path d="M0 0 C-1.66751148 3.94139078 -4.22710649 6.7892812 -7 10 C-7.33 9.34 -7.66 8.68 -8 8 C-7.0625 5.875 -7.0625 5.875 -6 4 C-5.34 4 -4.68 4 -4 4 C-4 3.01 -4 2.02 -4 1 C-2 0 -2 0 0 0 Z " fill="#1E3076" transform="translate(174,95)"/>
<path d="M0 0 C-1.93694678 0.81381795 -3.87457711 1.62600916 -5.8125 2.4375 C-6.89144531 2.88996094 -7.97039062 3.34242187 -9.08203125 3.80859375 C-11.0295126 4.60375013 -13.00438943 5.33479648 -15 6 C-15 5.34 -15 4.68 -15 4 C-9.89829197 0.0847357 -6.24305983 -1.72540261 0 0 Z " fill="#2F6CB9" transform="translate(228,95)"/>
<path d="M0 0 C1.1055189 0.93590504 2.20935453 1.87379858 3.3125 2.8125 C3.92738281 3.33457031 4.54226562 3.85664063 5.17578125 4.39453125 C6.85424679 5.87172469 8.43882034 7.40039131 10 9 C6.4948582 8.35089967 3.84825221 7.15543411 1 5 C0.1875 2.3125 0.1875 2.3125 0 0 Z " fill="#1D2C70" transform="translate(153,392)"/>
<path d="M0 0 C0.66 0.33 1.32 0.66 2 1 C1.02501855 2.5027237 0.04490611 4.00211963 -0.9375 5.5 C-1.48277344 6.3353125 -2.02804687 7.170625 -2.58984375 8.03125 C-3.05519531 8.6809375 -3.52054687 9.330625 -4 10 C-4.33 10 -4.66 10 -5 10 C-5 8.35 -5 6.7 -5 5 C-4.34 5 -3.68 5 -3 5 C-3 4.01 -3 3.02 -3 2 C-2.01 2 -1.02 2 0 2 C0 1.34 0 0.68 0 0 Z " fill="#1E2C70" transform="translate(303,270)"/>
<path d="M0 0 C-0.66 1.32 -1.32 2.64 -2 4 C-4.97 3.505 -4.97 3.505 -8 3 C-8 2.34 -8 1.68 -8 1 C-3.375 -1.125 -3.375 -1.125 0 0 Z " fill="#2D225E" transform="translate(137,195)"/>
<path d="M0 0 C1.41750563 0.11509661 2.83401169 0.24253658 4.25 0.375 C5.03890625 0.44460937 5.8278125 0.51421875 6.640625 0.5859375 C9.085877 1.01507113 10.84836903 1.78600638 13 3 C9.57056481 4.18771723 7.62215325 3.80226223 4.25 2.5625 C3.45078125 2.27503906 2.6515625 1.98757812 1.828125 1.69140625 C1.22484375 1.46324219 0.6215625 1.23507813 0 1 C0 0.67 0 0.34 0 0 Z " fill="#625C88" transform="translate(279,46)"/>
<path d="M0 0 C0.66 0.33 1.32 0.66 2 1 C1.67 1.66 1.34 2.32 1 3 C1.66 3 2.32 3 3 3 C3 2.01 3 1.02 3 0 C3.66 0 4.32 0 5 0 C3.25 5.75 3.25 5.75 1 8 C0.34 5.69 -0.32 3.38 -1 1 C-0.67 0.67 -0.34 0.34 0 0 Z " fill="#2971C0" transform="translate(268,368)"/>
<path d="M0 0 C0.33 0.66 0.66 1.32 1 2 C-0.28965176 3.37562854 -1.62689293 4.70766393 -3 6 C-3.66 6 -4.32 6 -5 6 C-5 6.99 -5 7.98 -5 9 C-6.32 8.67 -7.64 8.34 -9 8 C-7.87811441 6.85111717 -6.75238316 5.70598863 -5.625 4.5625 C-4.99851562 3.92441406 -4.37203125 3.28632813 -3.7265625 2.62890625 C-2 1 -2 1 0 0 Z " fill="#2E6AB9" transform="translate(265,311)"/>
<path d="M0 0 C2.86453858 3.41016497 4.34703566 6.90694544 6 11 C4.125 10.875 4.125 10.875 2 10 C0.40155515 6.40349908 0 3.96602757 0 0 Z " fill="#3E55A6" transform="translate(250,210)"/>
<path d="M0 0 C6.78082192 5.42465753 6.78082192 5.42465753 9 9 C9 9.66 9 10.32 9 11 C8.34 11 7.68 11 7 11 C5.2734375 9.1015625 5.2734375 9.1015625 3.375 6.625 C2.42753906 5.40683594 2.42753906 5.40683594 1.4609375 4.1640625 C0 2 0 2 0 0 Z " fill="#3068B4" transform="translate(330,94)"/>
<path d="M0 0 C3.465 1.98 3.465 1.98 7 4 C7 4.66 7 5.32 7 6 C8.32 6.66 9.64 7.32 11 8 C10.01 8.495 10.01 8.495 9 9 C8.01 8.34 7.02 7.68 6 7 C6 6.34 6 5.68 6 5 C5.195625 4.731875 4.39125 4.46375 3.5625 4.1875 C2.716875 3.795625 1.87125 3.40375 1 3 C0.67 2.01 0.34 1.02 0 0 Z " fill="#306DB7" transform="translate(314,81)"/>
<path d="M0 0 C0.33 0.66 0.66 1.32 1 2 C0.34 2 -0.32 2 -1 2 C-0.67 2.99 -0.34 3.98 0 5 C-2.35438733 6.42944945 -3.48032433 7.08661261 -6.25 6.625 C-6.8275 6.41875 -7.405 6.2125 -8 6 C-4.25 3 -4.25 3 -2 3 C-2 2.34 -2 1.68 -2 1 C-1.34 0.67 -0.68 0.34 0 0 Z " fill="#6C648B" transform="translate(178,66)"/>
<path d="M0 0 C0.66 0.33 1.32 0.66 2 1 C1.195625 1.61875 0.39125 2.2375 -0.4375 2.875 C-3.03874519 4.74164041 -3.03874519 4.74164041 -4 7 C-5.65 7 -7.3 7 -9 7 C-6.3765992 4.08511023 -3.28183606 2.11496102 0 0 Z " fill="#1C2E74" transform="translate(249,399)"/>
<path d="M0 0 C0.66 0.33 1.32 0.66 2 1 C-0.97 4.96 -0.97 4.96 -4 9 C-4.66 8.01 -5.32 7.02 -6 6 C-5.34 6 -4.68 6 -4 6 C-3.67 5.01 -3.34 4.02 -3 3 C-2.34 3 -1.68 3 -1 3 C-0.67 2.01 -0.34 1.02 0 0 Z " fill="#2B70BC" transform="translate(265,380)"/>
<path d="M0 0 C0.33 0 0.66 0 1 0 C1 1.98 1 3.96 1 6 C1.99 6.33 2.98 6.66 4 7 C3.34 7.66 2.68 8.32 2 9 C1.01 10.32 0.02 11.64 -1 13 C-0.67 8.71 -0.34 4.42 0 0 Z " fill="#6BA3D4" transform="translate(128,284)"/>
<path d="M0 0 C-0.804375 0.45375 -1.60875 0.9075 -2.4375 1.375 C-5.08856572 2.74725665 -5.08856572 2.74725665 -6 5 C-6.66 5 -7.32 5 -8 5 C-8 4.34 -8 3.68 -8 3 C-8.66 2.67 -9.32 2.34 -10 2 C-6.70021068 -0.19985954 -3.76967739 -1.88483869 0 0 Z " fill="#2A225B" transform="translate(216,50)"/>
<path d="M0 0 C0.33 0.99 0.66 1.98 1 3 C1.66 3 2.32 3 3 3 C2.67 4.32 2.34 5.64 2 7 C0.68 6.34 -0.64 5.68 -2 5 C-2 4.01 -2 3.02 -2 2 C-1.34 2 -0.68 2 0 2 C0 1.34 0 0.68 0 0 Z " fill="#3C346D" transform="translate(267,402)"/>
<path d="M0 0 C6.57142857 5 6.57142857 5 8 10 C6 8.625 6 8.625 4 7 C4 6.34 4 5.68 4 5 C3.01 4.67 2.02 4.34 1 4 C0.3125 1.9375 0.3125 1.9375 0 0 Z " fill="#3D4E9E" transform="translate(242,200)"/>
<path d="M0 0 C5.57142857 5.14285714 5.57142857 5.14285714 6 9 C5.01 9.495 5.01 9.495 4 10 C4 9.01 4 8.02 4 7 C3.34 7 2.68 7 2 7 C1.34 4.69 0.68 2.38 0 0 Z " fill="#1D3275" transform="translate(314,124)"/>
<path d="M0 0 C2.3828125 -0.29296875 2.3828125 -0.29296875 5.125 -0.1875 C6.03507813 -0.16042969 6.94515625 -0.13335937 7.8828125 -0.10546875 C8.58148438 -0.07066406 9.28015625 -0.03585938 10 0 C5.96707255 2.2344598 2.55032566 2.54496743 -2 3 C-1.34 2.01 -0.68 1.02 0 0 Z " fill="#3070BC" transform="translate(230,91)"/>
<path d="M0 0 C4.12751449 0.60698743 7.3321148 2.03810791 11 4 C11 4.66 11 5.32 11 6 C7.2089881 4.55049545 3.6125362 2.84827434 0 1 C0 0.67 0 0.34 0 0 Z " fill="#1D2C72" transform="translate(300,72)"/>
<path d="M0 0 C0.66 0.33 1.32 0.66 2 1 C0.95125002 3.62187494 0.35068687 4.79371361 -2.125 6.25 C-2.74375 6.4975 -3.3625 6.745 -4 7 C-4 5.68 -4 4.36 -4 3 C-3.01 3 -2.02 3 -1 3 C-0.67 2.01 -0.34 1.02 0 0 Z " fill="#59537B" transform="translate(263,409)"/>
<path d="M0 0 C0.99 0.99 1.98 1.98 3 3 C2.34 3.66 1.68 4.32 1 5 C-1.125 4.625 -1.125 4.625 -3 4 C-3 3.01 -3 2.02 -3 1 C-2.01 0.67 -1.02 0.34 0 0 Z " fill="#2A215F" transform="translate(133,387)"/>
<path d="M0 0 C2 1 2 1 2.625 2.625 C3.12095645 5.7660575 3.06103811 8.82601831 3 12 C2.67 12 2.34 12 2 12 C0.40861915 7.82262526 -0.21278058 4.46839215 0 0 Z " fill="#7E7B9A" transform="translate(380,149)"/>
<path d="M0 0 C0 0.99 0 1.98 0 3 C-3.80504787 4.79682816 -4.70600835 5.07349791 -9 4 C-6.03 2.68 -3.06 1.36 0 0 Z " fill="#1E2D73" transform="translate(225,95)"/>
<path d="M0 0 C0.99 0.33 1.98 0.66 3 1 C-1.75 5.875 -1.75 5.875 -4 7 C-4 5.68 -4 4.36 -4 3 C-3.01 3 -2.02 3 -1 3 C-0.67 2.01 -0.34 1.02 0 0 Z " fill="#272873" transform="translate(185,82)"/>
<path d="M0 0 C2.64 0 5.28 0 8 0 C8 0.66 8 1.32 8 2 C8.99 2.33 9.98 2.66 11 3 C9 4 9 4 6.8359375 3.44140625 C6.02382813 3.15136719 5.21171875 2.86132812 4.375 2.5625 C3.55773437 2.27503906 2.74046875 1.98757812 1.8984375 1.69140625 C1.27195312 1.46324219 0.64546875 1.23507813 0 1 C0 0.67 0 0.34 0 0 Z " fill="#1F2E77" transform="translate(289,68)"/>
<path d="M0 0 C0.226875 0.639375 0.45375 1.27875 0.6875 1.9375 C1.85250896 4.27193661 1.85250896 4.27193661 4.625 4.75 C5.40875 4.8325 6.1925 4.915 7 5 C7 5.33 7 5.66 7 6 C3.37471432 6.20140476 1.13498292 5.85776765 -2 4 C-1.34 2.68 -0.68 1.36 0 0 Z " fill="#433D71" transform="translate(222,425)"/>
<path d="M0 0 C2.31 0 4.62 0 7 0 C7 1.32 7 2.64 7 4 C4.08482708 2.92598892 2.22189824 2.22189824 0 0 Z " fill="#286EB9" transform="translate(165,402)"/>
<path d="M0 0 C0.33 0 0.66 0 1 0 C1.125 2.375 1.125 2.375 1 5 C0.34 5.66 -0.32 6.32 -1 7 C-1.99 6.67 -2.98 6.34 -4 6 C-2.69593116 3.98079663 -1.36176581 1.98075027 0 0 Z " fill="#2A70BA" transform="translate(307,267)"/>
<path d="M0 0 C0.66 0 1.32 0 2 0 C2.33 0.99 2.66 1.98 3 3 C5.50447516 4.21869929 5.50447516 4.21869929 8 5 C7.67 5.66 7.34 6.32 7 7 C4.625 6.3125 4.625 6.3125 2 5 C0.6875 2.375 0.6875 2.375 0 0 Z " fill="#272E7A" transform="translate(258,257)"/>
<path d="M0 0 C0.33 0 0.66 0 1 0 C1 2.64 1 5.28 1 8 C-0.65 8.66 -2.3 9.32 -4 10 C-2.68 6.7 -1.36 3.4 0 0 Z " fill="#20266E" transform="translate(189,222)"/>
<path d="M0 0 C0.99 0.33 1.98 0.66 3 1 C1.92598892 3.91517292 1.22189824 5.77810176 -1 8 C-0.67 5.36 -0.34 2.72 0 0 Z " fill="#2B245B" transform="translate(129,140)"/>
<path d="M0 0 C3.93673644 1.31224548 6.22719294 2.91910327 9 6 C5.59687262 4.94124926 2.98646769 3.99097846 0 2 C0 1.34 0 0.68 0 0 Z " fill="#2E70B9" transform="translate(304,75)"/>
<path d="M0 0 C0.99 0.33 1.98 0.66 3 1 C0.03 3.475 0.03 3.475 -3 6 C-2.625 3.5625 -2.625 3.5625 -2 1 C-1.34 0.67 -0.68 0.34 0 0 Z " fill="#3F52A2" transform="translate(246,300)"/>
<path d="M0 0 C0.99 0 1.98 0 3 0 C1.8141763 3.37503669 0.72426311 5.64722731 -2 8 C-1.34 5.36 -0.68 2.72 0 0 Z " fill="#2D6EB9" transform="translate(332,272)"/>
<path d="M0 0 C1.10191901 4.40767604 0.58706842 5.8922935 -1 10 C-1.66 10 -2.32 10 -3 10 C-2.01 6.7 -1.02 3.4 0 0 Z " fill="#2F6AB4" transform="translate(321,236)"/>
<path d="M0 0 C-2.31 1.65 -4.62 3.3 -7 5 C-6.67 3.35 -6.34 1.7 -6 0 C-3 -1 -3 -1 0 0 Z " fill="#2B70BB" transform="translate(204,108)"/>
<path d="M0 0 C0.625 1.875 0.625 1.875 1 4 C0.34 4.66 -0.32 5.32 -1 6 C-1.99 5.67 -2.98 5.34 -4 5 C-2.68 3.35 -1.36 1.7 0 0 Z M-6 5 C-5.34 5 -4.68 5 -4 5 C-4.33 5.66 -4.66 6.32 -5 7 C-5.33 6.34 -5.66 5.68 -6 5 Z " fill="#2A235B" transform="translate(163,81)"/>
<path d="M0 0 C2.97 0.99 5.94 1.98 9 3 C5.71023192 4.09658936 4.28696233 3.79953138 1 3 C0.67 2.01 0.34 1.02 0 0 Z " fill="#706B8E" transform="translate(296,50)"/>
</svg>
