<svg width="256" height="256" version="1.1" xmlns="http://www.w3.org/2000/svg" desc="Created with imagetracer.js version 1.2.6" ><path fill="rgb(0,0,0)" stroke="rgb(0,0,0)" stroke-width="1" opacity="0" d="M 0.5 0.5 L 255.5 0.5 L 255.5 255.5 L 0.5 255.5 L 0.5 0.5 Z M 79 90 L 79 91 L 77 93 L 76 93 Q 76 94 75 95 L 75 97 L 74 98 Q 75 99 75 100 L 76 100 L 75 101 L 76 101 L 77 103 Q 79 104 81 106 L 82 105 Q 84 106 85 105 Q 86 104 86 105 L 86 105 Q 85 104 87 104 L 90 101 Q 90 100 90 98 L 91 98 Q 90 97 90 95 Q 88 94 90 93 L 89 93 L 88 91 Q 87 90 86 91 L 85 90 L 85 91 L 84 90 L 80 90 Q 80 91 79 90 Z M 100 92 L 100 94 L 99 96 Q 99 98 98 98 L 99 101 L 100 101 L 100 102 L 102 102 L 103 103 L 104 103 L 106 103 L 107 103 Q 108 104 108 103 Q 110 102 110 103 L 110 103 L 110 103 L 117 103 Q 118 104 118 103 L 120 103 L 120 103 L 123 103 Q 124 104 124 103 L 126 103 L 126 103 L 131 103 Q 132 104 132 103 L 134 103 L 134 103 L 137 103 Q 138 104 138 103 L 140 103 L 140 103 L 149 103 Q 150 104 150 103 L 152 103 L 152 103 L 160 103 Q 160 104 161 103 L 162 103 L 163 103 L 164 103 Q 164 102 166 103 Q 166 104 167 103 L 173 103 L 174 103 L 175 103 L 176 103 L 181 102 L 182 101 L 184 97 L 182 93 Q 180 93 180 92 L 103 92 L 102 93 L 101 92 L 102 93 L 101 93 L 100 92 Z M 78 116 Q 78 117 79 117 L 77 119 L 76 119 L 76 120 L 74 120 L 74 121 Q 76 120 75 122 L 75 123 L 75 126 Q 75 126 75 128 L 76 128 Q 77 130 80 131 L 82 132 Q 83 131 85 131 L 87 130 L 90 127 Q 90 126 90 124 L 91 124 L 90 121 Q 89 121 90 120 L 89 120 L 90 119 L 88 119 L 88 117 L 87 118 L 87 117 L 85 116 Q 84 117 84 116 Q 82 116 81 117 Q 80 115 79 117 L 78 116 Z M 103 118 L 102 119 L 100 119 L 100 120 L 99 122 Q 98 123 99 123 Q 98 124 98 125 L 99 125 L 100 128 Q 102 127 102 129 L 103 129 L 127 129 L 128 129 Q 128 128 130 129 Q 130 130 131 129 L 145 129 L 146 129 L 146 129 L 178 129 L 179 129 L 179 129 L 180 129 Q 180 128 181 128 L 184 124 L 183 123 Q 184 122 183 121 L 183 121 L 182 121 L 182 119 L 180 119 L 178 118 Q 178 119 177 118 L 143 118 L 143 119 L 142 118 L 103 118 Z M 80 142 L 79 143 Q 78 142 78 143 L 77 145 L 76 144 L 75 150 Q 76 150 75 151 Q 74 153 76 152 L 76 153 L 76 156 L 78 156 L 81 158 L 83 157 L 84 158 L 85 157 L 87 156 L 90 153 Q 90 152 90 150 L 91 150 L 90 148 L 90 146 L 89 146 L 89 145 Q 88 145 89 144 L 88 144 L 87 143 L 86 143 L 86 142 L 80 142 Z M 101 144 Q 99 146 99 148 L 98 148 L 99 150 L 98 151 L 99 153 Q 101 152 100 154 L 101 154 L 103 155 L 103 156 Q 104 156 104 155 L 105 155 L 105 156 L 107 155 L 109 156 L 110 155 L 113 155 Q 113 154 114 155 L 115 155 L 116 155 Q 117 154 117 155 L 120 155 L 121 155 L 121 156 L 122 155 L 130 155 Q 130 156 131 155 L 144 155 L 144 156 Q 145 155 146 155 Q 147 156 147 155 L 167 155 L 167 156 Q 168 154 170 155 Q 171 156 171 155 L 173 156 L 174 155 Q 176 154 176 156 Q 178 156 178 155 L 179 155 L 183 152 L 183 151 L 184 151 L 183 150 Q 183 148 183 147 L 181 145 L 181 144 L 101 144 Z " /><path fill="rgb(151,151,150)" stroke="rgb(151,151,150)" stroke-width="1" opacity="0.1568627450980392" d="M 255.8 50.5 L 256 52.3 L 255.5 52.3 L 255.8 50.5 Z " /><path fill="rgb(151,151,150)" stroke="rgb(151,151,150)" stroke-width="1" opacity="0.1568627450980392" d="M 255.8 59.5 L 256 60.8 L 255.5 60.8 L 255.8 59.5 Z " /><path fill="rgb(151,151,150)" stroke="rgb(151,151,150)" stroke-width="1" opacity="0.1568627450980392" d="M 255.8 190 L 256 191.3 L 255.5 191.3 L 255.8 190 Z " /><path fill="rgb(151,151,150)" stroke="rgb(151,151,150)" stroke-width="1" opacity="0.1568627450980392" d="M 255.8 198 L 256 199.8 L 255.5 199.8 L 255.8 198 Z " /><path fill="rgb(151,151,150)" stroke="rgb(151,151,150)" stroke-width="1" opacity="0.1568627450980392" d="M 255.8 202 L 256 203.3 L 255.5 203.3 L 255.8 202 Z " /><path fill="rgb(151,151,150)" stroke="rgb(151,151,150)" stroke-width="1" opacity="0.1568627450980392" d="M 11.8 255.5 L 15 255.8 L 11.8 256 L 11.8 255.5 Z " /><path fill="rgb(151,151,150)" stroke="rgb(151,151,150)" stroke-width="1" opacity="0.1568627450980392" d="M 16.3 255.5 L 18.5 255.8 L 16.3 256 L 16.3 255.5 Z " /><path fill="rgb(151,151,150)" stroke="rgb(151,151,150)" stroke-width="1" opacity="0.1568627450980392" d="M 22.8 255.5 L 31.5 255.8 L 22.8 256 L 22.8 255.5 Z " /><path fill="rgb(151,151,150)" stroke="rgb(151,151,150)" stroke-width="1" opacity="0.1568627450980392" d="M 32.3 255.5 L 46 255.8 L 32.3 256 L 32.3 255.5 Z " /><path fill="rgb(151,151,150)" stroke="rgb(151,151,150)" stroke-width="1" opacity="0.1568627450980392" d="M 47.8 255.5 L 101.5 255.8 L 47.8 256 L 47.8 255.5 Z " /><path fill="rgb(151,151,150)" stroke="rgb(151,151,150)" stroke-width="1" opacity="0.1568627450980392" d="M 102.3 255.5 L 165 255.8 L 102.3 256 L 102.3 255.5 Z " /><path fill="rgb(151,151,150)" stroke="rgb(151,151,150)" stroke-width="1" opacity="0.1568627450980392" d="M 165.8 255.5 L 219.5 255.8 L 165.8 256 L 165.8 255.5 Z " /><path fill="rgb(151,151,150)" stroke="rgb(151,151,150)" stroke-width="1" opacity="0.1568627450980392" d="M 220.3 255.5 L 227 255.8 L 220.3 256 L 220.3 255.5 Z " /><path fill="rgb(151,151,150)" stroke="rgb(151,151,150)" stroke-width="1" opacity="0.1568627450980392" d="M 227.8 255.5 L 230 255.8 L 227.8 256 L 227.8 255.5 Z " /><path fill="rgb(151,151,150)" stroke="rgb(151,151,150)" stroke-width="1" opacity="0.1568627450980392" d="M 234.8 255.5 L 236 255.8 L 234.8 256 L 234.8 255.5 Z " /><path fill="rgb(151,151,150)" stroke="rgb(151,151,150)" stroke-width="1" opacity="0.1568627450980392" d="M 236.8 255.5 L 239 255.8 L 236.8 256 L 236.8 255.5 Z " /><path fill="rgb(199,200,199)" stroke="rgb(199,200,199)" stroke-width="1" opacity="0.3843137254901961" d="M 81.3 90 L 84 90.3 L 81.3 90.5 L 81.3 90 Z " /><path fill="rgb(199,200,199)" stroke="rgb(199,200,199)" stroke-width="1" opacity="0.3843137254901961" d="M 79.3 90.5 L 80 90.8 L 78.8 91.5 Q 78 91 79.3 90.5 Z " /><path fill="rgb(199,200,199)" stroke="rgb(199,200,199)" stroke-width="1" opacity="0.3843137254901961" d="M 87.8 92 L 89 93.3 L 88.8 93.5 L 87.5 92.3 L 87.8 92 Z " /><path fill="rgb(199,200,199)" stroke="rgb(199,200,199)" stroke-width="1" opacity="0.3843137254901961" d="M 102.8 92 L 179.3 92 L 182.5 94.8 Q 183.5 96 183 98.8 L 182.5 98.8 L 182.5 95.8 L 180.3 93 L 179.3 92.5 L 102.8 92.5 L 102.8 92 Z " /><path fill="rgb(199,200,199)" stroke="rgb(199,200,199)" stroke-width="1" opacity="0.3843137254901961" d="M 100.3 93.5 Q 101 94 99.8 94.5 Q 99 94 100.3 93.5 Z " /><path fill="rgb(199,200,199)" stroke="rgb(199,200,199)" stroke-width="1" opacity="0.3843137254901961" d="M 98.8 96.5 L 99 97.8 L 98.5 97.8 L 98.8 96.5 Z " /><path fill="rgb(199,200,199)" stroke="rgb(199,200,199)" stroke-width="1" opacity="0.3843137254901961" d="M 99.8 100 L 101.5 101.8 L 101.3 102 L 99.5 100.3 L 99.8 100 Z " /><path fill="rgb(199,200,199)" stroke="rgb(199,200,199)" stroke-width="1" opacity="0.3843137254901961" d="M 181.8 100.5 Q 182.5 101 181.3 101.5 Q 180.5 101 181.8 100.5 Z " /><path fill="rgb(199,200,199)" stroke="rgb(199,200,199)" stroke-width="1" opacity="0.3843137254901961" d="M 88.8 101.5 L 89 101.8 L 86.8 104 L 86.5 103.8 L 88.8 101.5 Z " /><path fill="rgb(199,200,199)" stroke="rgb(199,200,199)" stroke-width="1" opacity="0.3843137254901961" d="M 102.3 102 L 104 102.3 L 102.3 102.5 L 102.3 102 Z " /><path fill="rgb(199,200,199)" stroke="rgb(199,200,199)" stroke-width="1" opacity="0.3843137254901961" d="M 178.3 102 L 179.5 102.3 L 178.3 102.5 L 178.3 102 Z " /><path fill="rgb(199,200,199)" stroke="rgb(199,200,199)" stroke-width="1" opacity="0.3843137254901961" d="M 78.8 103.5 L 80 104.3 L 79.3 104.5 Q 78 104 78.8 103.5 Z " /><path fill="rgb(199,200,199)" stroke="rgb(199,200,199)" stroke-width="1" opacity="0.3843137254901961" d="M 80.8 104.5 L 84.5 104.8 L 80.8 105 L 80.8 104.5 Z " /><path fill="rgb(199,200,199)" stroke="rgb(199,200,199)" stroke-width="1" opacity="0.3843137254901961" d="M 78.8 117 Q 79.5 117.5 78.3 118 Q 77.5 117.5 78.8 117 Z " /><path fill="rgb(199,200,199)" stroke="rgb(199,200,199)" stroke-width="1" opacity="0.3843137254901961" d="M 86.3 117 Q 87.5 117.5 86.8 118 Q 85.5 117.5 86.3 117 Z " /><path fill="rgb(199,200,199)" stroke="rgb(199,200,199)" stroke-width="1" opacity="0.3843137254901961" d="M 77.3 118 L 77.5 118.3 L 76.5 119.3 L 75.8 120.5 L 76 119.8 L 77.3 118 Z " /><path fill="rgb(199,200,199)" stroke="rgb(199,200,199)" stroke-width="1" opacity="0.3843137254901961" d="M 87.8 118 Q 89 118.5 88.3 119 Q 87 118.5 87.8 118 Z " /><path fill="rgb(199,200,199)" stroke="rgb(199,200,199)" stroke-width="1" opacity="0.3843137254901961" d="M 101.8 118.5 L 102.5 118.8 L 101.3 119.5 Q 100.5 119 101.8 118.5 Z " /><path fill="rgb(199,200,199)" stroke="rgb(199,200,199)" stroke-width="1" opacity="0.3843137254901961" d="M 100.3 119.5 L 100 120.3 L 99.3 122 L 99 121.3 L 100.3 119.5 Z " /><path fill="rgb(199,200,199)" stroke="rgb(199,200,199)" stroke-width="1" opacity="0.3843137254901961" d="M 181.8 120 L 182.5 121.3 L 182 121.3 L 181.8 120 Z " /><path fill="rgb(199,200,199)" stroke="rgb(199,200,199)" stroke-width="1" opacity="0.3843137254901961" d="M 182.8 122 L 183 124.8 L 182.5 124.8 L 182.8 122 Z " /><path fill="rgb(199,200,199)" stroke="rgb(199,200,199)" stroke-width="1" opacity="0.3843137254901961" d="M 98.8 122.5 L 99 124.3 L 98.5 124.3 L 98.8 122.5 Z " /><path fill="rgb(199,200,199)" stroke="rgb(199,200,199)" stroke-width="1" opacity="0.3843137254901961" d="M 99.3 125 L 100 126.3 Q 99.5 127 99 125.8 L 99.3 125 Z " /><path fill="rgb(199,200,199)" stroke="rgb(199,200,199)" stroke-width="1" opacity="0.3843137254901961" d="M 89.8 125.5 L 90 126.3 L 88.3 128.5 L 88 128.3 L 89 127.3 L 89.8 125.5 Z " /><path fill="rgb(199,200,199)" stroke="rgb(199,200,199)" stroke-width="1" opacity="0.3843137254901961" d="M 181.8 126.5 L 182 126.8 L 180.8 128 L 179.3 128.5 L 179.3 128 L 181.8 126.5 Z " /><path fill="rgb(199,200,199)" stroke="rgb(199,200,199)" stroke-width="1" opacity="0.3843137254901961" d="M 76.8 128 Q 77.8 129.7 80 130.3 L 79.3 130.5 L 76.5 128.3 L 76.8 128 Z " /><path fill="rgb(199,200,199)" stroke="rgb(199,200,199)" stroke-width="1" opacity="0.3843137254901961" d="M 87.3 129 Q 88 129.5 86.8 130 Q 86 129.5 87.3 129 Z " /><path fill="rgb(199,200,199)" stroke="rgb(199,200,199)" stroke-width="1" opacity="0.3843137254901961" d="M 80.8 130.5 L 82 130.8 L 80.8 131 L 80.8 130.5 Z " /><path fill="rgb(199,200,199)" stroke="rgb(199,200,199)" stroke-width="1" opacity="0.3843137254901961" d="M 83.3 130.5 L 85 130.8 L 83.3 131 L 83.3 130.5 Z " /><path fill="rgb(199,200,199)" stroke="rgb(199,200,199)" stroke-width="1" opacity="0.3843137254901961" d="M 81.3 142 L 84.5 142.3 L 81.3 142.5 L 81.3 142 Z " /><path fill="rgb(199,200,199)" stroke="rgb(199,200,199)" stroke-width="1" opacity="0.3843137254901961" d="M 79.3 142.5 L 80 142.8 L 78.8 143.5 Q 78 143 79.3 142.5 Z " /><path fill="rgb(199,200,199)" stroke="rgb(199,200,199)" stroke-width="1" opacity="0.3843137254901961" d="M 87.8 144 L 89 145.3 L 88.8 145.5 L 87.5 144.3 L 87.8 144 Z " /><path fill="rgb(199,200,199)" stroke="rgb(199,200,199)" stroke-width="1" opacity="0.3843137254901961" d="M 102.8 144 L 179.3 144 L 182.5 146.8 L 183 148.8 L 182.5 148.8 Q 182.3 146 180.3 145 L 179.3 144.5 L 102.8 144.5 L 102.8 144 Z " /><path fill="rgb(199,200,199)" stroke="rgb(199,200,199)" stroke-width="1" opacity="0.3843137254901961" d="M 101.3 144.5 L 102 144.8 L 99.8 146.5 L 99.5 146.3 L 101.3 144.5 Z " /><path fill="rgb(199,200,199)" stroke="rgb(199,200,199)" stroke-width="1" opacity="0.3843137254901961" d="M 98.8 148 L 99 150.3 L 98.5 150.3 L 98.8 148 Z " /><path fill="rgb(199,200,199)" stroke="rgb(199,200,199)" stroke-width="1" opacity="0.3843137254901961" d="M 99.3 151 L 100 152.3 Q 99.5 153 99 151.8 L 99.3 151 Z " /><path fill="rgb(199,200,199)" stroke="rgb(199,200,199)" stroke-width="1" opacity="0.3843137254901961" d="M 88.8 153.5 L 89 153.8 L 86.8 156 L 86.5 155.8 L 88.8 153.5 Z " /><path fill="rgb(199,200,199)" stroke="rgb(199,200,199)" stroke-width="1" opacity="0.3843137254901961" d="M 76.8 154 Q 78 154.5 77.3 155 Q 76 154.5 76.8 154 Z " /><path fill="rgb(199,200,199)" stroke="rgb(199,200,199)" stroke-width="1" opacity="0.3843137254901961" d="M 78.3 155.5 L 80 156.3 L 79.3 156.5 L 78 155.8 L 78.3 155.5 Z " /><path fill="rgb(199,200,199)" stroke="rgb(199,200,199)" stroke-width="1" opacity="0.3843137254901961" d="M 80.8 156.5 L 84.5 156.8 L 80.8 157 L 80.8 156.5 Z " /><path fill="rgb(230,230,230)" stroke="rgb(230,230,230)" stroke-width="1" opacity="0.8823529411764706" d="M 80.3 90.5 L 81.5 90.8 L 80.3 91 L 80.3 90.5 Z " /><path fill="rgb(230,230,230)" stroke="rgb(230,230,230)" stroke-width="1" opacity="0.8823529411764706" d="M 83.8 90.5 L 85 90.8 L 83.8 91 L 83.8 90.5 Z " /><path fill="rgb(230,230,230)" stroke="rgb(230,230,230)" stroke-width="1" opacity="0.8823529411764706" d="M 78.3 91.5 L 78.5 91.8 L 76.3 94 L 76 93.8 L 78.3 91.5 Z " /><path fill="rgb(230,230,230)" stroke="rgb(230,230,230)" stroke-width="1" opacity="0.8823529411764706" d="M 86.8 91.5 L 89 93.8 L 88.8 94 L 86.5 91.8 L 86.8 91.5 Z " /><path fill="rgb(230,230,230)" stroke="rgb(230,230,230)" stroke-width="1" opacity="0.8823529411764706" d="M 101.3 93 L 101.5 93.3 L 99.8 95 L 99.5 94.8 L 101.3 93 Z " /><path fill="rgb(230,230,230)" stroke="rgb(230,230,230)" stroke-width="1" opacity="0.8823529411764706" d="M 75.3 96 L 75.5 98.8 L 75 98.8 L 75.3 96 Z " /><path fill="rgb(230,230,230)" stroke="rgb(230,230,230)" stroke-width="1" opacity="0.8823529411764706" d="M 89.8 96 L 90 98.8 L 89.5 98.8 L 89.8 96 Z " /><path fill="rgb(230,230,230)" stroke="rgb(230,230,230)" stroke-width="1" opacity="0.8823529411764706" d="M 181.8 100 L 182 100.3 L 180.8 101.5 L 180.5 101.3 L 181.8 100 Z " /><path fill="rgb(230,230,230)" stroke="rgb(230,230,230)" stroke-width="1" opacity="0.8823529411764706" d="M 76.3 101 L 78.5 103.3 L 78.3 103.5 L 76 101.3 L 76.3 101 Z " /><path fill="rgb(230,230,230)" stroke="rgb(230,230,230)" stroke-width="1" opacity="0.8823529411764706" d="M 101.3 101 L 102.5 101.8 L 101.8 102 Q 100.5 101.5 101.3 101 Z " /><path fill="rgb(230,230,230)" stroke="rgb(230,230,230)" stroke-width="1" opacity="0.8823529411764706" d="M 104.3 102 L 178 102.3 L 104.3 102.5 L 104.3 102 Z " /><path fill="rgb(230,230,230)" stroke="rgb(230,230,230)" stroke-width="1" opacity="0.8823529411764706" d="M 86.8 103 Q 87.5 103.5 86.3 104 Q 85.5 103.5 86.8 103 Z " /><path fill="rgb(230,230,230)" stroke="rgb(230,230,230)" stroke-width="1" opacity="0.8823529411764706" d="M 80.8 116.5 L 82 116.8 L 80.8 117 L 80.8 116.5 Z " /><path fill="rgb(230,230,230)" stroke="rgb(230,230,230)" stroke-width="1" opacity="0.8823529411764706" d="M 83.3 116.5 L 84.5 116.8 L 83.3 117 L 83.3 116.5 Z " /><path fill="rgb(230,230,230)" stroke="rgb(230,230,230)" stroke-width="1" opacity="0.8823529411764706" d="M 79.3 117 L 80 117.3 L 78.8 118 Q 78 117.5 79.3 117 Z " /><path fill="rgb(230,230,230)" stroke="rgb(230,230,230)" stroke-width="1" opacity="0.8823529411764706" d="M 85.3 117 L 86.5 117.8 L 85.8 117.5 Q 84.6 117.4 85.3 117 Z " /><path fill="rgb(230,230,230)" stroke="rgb(230,230,230)" stroke-width="1" opacity="0.8823529411764706" d="M 77.8 118 L 78 118.3 L 76.8 119.5 L 76.5 119.3 L 77.8 118 Z " /><path fill="rgb(230,230,230)" stroke="rgb(230,230,230)" stroke-width="1" opacity="0.8823529411764706" d="M 87.3 118 L 89 119.8 L 88.8 120 L 87 118.3 L 87.3 118 Z " /><path fill="rgb(230,230,230)" stroke="rgb(230,230,230)" stroke-width="1" opacity="0.8823529411764706" d="M 102.8 118.5 L 140 118.8 L 102.8 119 L 102.8 118.5 Z " /><path fill="rgb(230,230,230)" stroke="rgb(230,230,230)" stroke-width="1" opacity="0.8823529411764706" d="M 140.8 118.5 L 179 118.8 L 140.8 119 L 140.8 118.5 Z " /><path fill="rgb(230,230,230)" stroke="rgb(230,230,230)" stroke-width="1" opacity="0.8823529411764706" d="M 180.3 119 L 182 120.8 L 181.8 121 L 180 119.3 L 180.3 119 Z " /><path fill="rgb(230,230,230)" stroke="rgb(230,230,230)" stroke-width="1" opacity="0.8823529411764706" d="M 100.8 119.5 Q 101.5 120 100.3 120.5 Q 99.5 120 100.8 119.5 Z " /><path fill="rgb(230,230,230)" stroke="rgb(230,230,230)" stroke-width="1" opacity="0.8823529411764706" d="M 75.3 122 L 75.5 124.8 L 75 124.8 L 75.3 122 Z " /><path fill="rgb(230,230,230)" stroke="rgb(230,230,230)" stroke-width="1" opacity="0.8823529411764706" d="M 89.8 122 L 90 125.3 L 89.5 125.3 L 89.8 122 Z " /><path fill="rgb(230,230,230)" stroke="rgb(230,230,230)" stroke-width="1" opacity="0.8823529411764706" d="M 181.8 126 L 182 126.3 L 180.8 127.5 L 180.5 127.3 L 181.8 126 Z " /><path fill="rgb(230,230,230)" stroke="rgb(230,230,230)" stroke-width="1" opacity="0.8823529411764706" d="M 100.3 126.5 Q 101.5 127 100.8 127.5 Q 99.5 127 100.3 126.5 Z " /><path fill="rgb(230,230,230)" stroke="rgb(230,230,230)" stroke-width="1" opacity="0.8823529411764706" d="M 76.3 127 L 77.5 128.3 L 77.3 128.5 L 76 127.3 L 76.3 127 Z " /><path fill="rgb(230,230,230)" stroke="rgb(230,230,230)" stroke-width="1" opacity="0.8823529411764706" d="M 102.8 128 L 179 128.3 L 102.8 128.5 L 102.8 128 Z " /><path fill="rgb(230,230,230)" stroke="rgb(230,230,230)" stroke-width="1" opacity="0.8823529411764706" d="M 86.8 129 Q 87.5 129.5 86.3 130 Q 85.5 129.5 86.8 129 Z " /><path fill="rgb(230,230,230)" stroke="rgb(230,230,230)" stroke-width="1" opacity="0.8823529411764706" d="M 78.3 143.5 L 78.5 143.8 L 76.3 146 L 76 145.8 L 78.3 143.5 Z " /><path fill="rgb(230,230,230)" stroke="rgb(230,230,230)" stroke-width="1" opacity="0.8823529411764706" d="M 88.3 145 Q 89.5 145.5 88.8 146 Q 87.5 145.5 88.3 145 Z " /><path fill="rgb(230,230,230)" stroke="rgb(230,230,230)" stroke-width="1" opacity="0.8823529411764706" d="M 75.3 148 L 75.5 150.8 L 75 150.8 L 75.3 148 Z " /><path fill="rgb(230,230,230)" stroke="rgb(230,230,230)" stroke-width="1" opacity="0.8823529411764706" d="M 89.8 148 L 90 151.3 L 89.5 151.3 L 89.8 148 Z " /><path fill="rgb(230,230,230)" stroke="rgb(230,230,230)" stroke-width="1" opacity="0.8823529411764706" d="M 181.8 152 L 182 152.3 L 180.3 154 L 180 153.8 L 181.8 152 Z " /><path fill="rgb(230,230,230)" stroke="rgb(230,230,230)" stroke-width="1" opacity="0.8823529411764706" d="M 100.3 152.5 Q 101.5 153 100.8 153.5 Q 99.5 153 100.3 152.5 Z " /><path fill="rgb(230,230,230)" stroke="rgb(230,230,230)" stroke-width="1" opacity="0.8823529411764706" d="M 76.3 153 L 78.5 155.3 L 78.3 155.5 L 76 153.3 L 76.3 153 Z " /><path fill="rgb(230,230,230)" stroke="rgb(230,230,230)" stroke-width="1" opacity="0.8823529411764706" d="M 102.8 154 L 179 154.3 L 102.8 154.5 L 102.8 154 Z " /><path fill="rgb(230,230,230)" stroke="rgb(230,230,230)" stroke-width="1" opacity="0.8823529411764706" d="M 86.8 155 Q 87.5 155.5 86.3 156 Q 85.5 155.5 86.8 155 Z " /><path fill="rgb(254,254,254)" stroke="rgb(254,254,254)" stroke-width="1" opacity="0.9490196078431372" d="M 85.3 90 L 86 90.8 L 85.8 91.5 Q 86.9 91.9 86.5 90.8 Q 87 90 87.5 91.3 L 86.5 91.8 L 89.3 95 L 90 94.8 L 89.5 95.3 L 89.5 99.8 L 89.8 100.5 L 89 100.3 L 89.5 101.3 L 88.5 101.3 L 87.3 103 L 85.8 104 L 81.3 104.5 L 78.8 103.5 L 78 103.8 L 78.5 103.3 L 76 100.8 L 75.5 99.8 L 75.5 95.3 L 78.8 91.5 L 81.8 90.5 L 83.3 90.5 Q 83.6 91.4 85.3 91 L 85.3 90 Z " /><path fill="rgb(254,254,254)" stroke="rgb(254,254,254)" stroke-width="1" opacity="0.9490196078431372" d="M 100.3 92 L 100.5 93.3 L 100 93.3 L 100.3 92 Z " /><path fill="rgb(254,254,254)" stroke="rgb(254,254,254)" stroke-width="1" opacity="0.9490196078431372" d="M 103.3 92.5 L 178.8 92.5 L 180.8 93.5 L 181.5 93.3 Q 180.5 93.8 181.5 94.3 L 182.5 96.3 L 182.5 98.8 L 180.5 101.3 L 180.8 102 L 179.8 101.5 L 179.8 102.5 L 179.3 102 L 102.8 102 L 100.8 101 L 100.8 102 Q 99.6 102.4 100 101.3 Q 101 100.8 100 100.3 L 99.8 99.5 L 99.3 100.5 L 98 98.3 L 99 98 Q 99.4 96.7 98.5 96.3 L 99.5 96.3 L 99.5 95.3 L 101.8 93 L 103.3 92.5 Z M 99 98 L 99 99 L 100 99 L 99 98 Z " /><path fill="rgb(254,254,254)" stroke="rgb(254,254,254)" stroke-width="1" opacity="0.9490196078431372" d="M 89.3 93 Q 90.5 93.5 89.8 94 Q 88.5 93.5 89.3 93 Z " /><path fill="rgb(254,254,254)" stroke="rgb(254,254,254)" stroke-width="1" opacity="0.9490196078431372" d="M 74.3 98 Q 75.7 97.6 75 99.8 L 74.5 99.8 L 74.3 98 Z " /><path fill="rgb(254,254,254)" stroke="rgb(254,254,254)" stroke-width="1" opacity="0.9490196078431372" d="M 79.8 104.5 L 81.5 105.3 L 80.8 106 L 79.5 104.8 L 79.8 104.5 Z " /><path fill="rgb(254,254,254)" stroke="rgb(254,254,254)" stroke-width="1" opacity="0.9490196078431372" d="M 78.3 116 Q 79.5 116.5 78.8 117 Q 77.4 117.3 78.3 116 Z " /><path fill="rgb(254,254,254)" stroke="rgb(254,254,254)" stroke-width="1" opacity="0.9490196078431372" d="M 81.8 116 L 82.8 116.5 L 83.8 116 L 83.8 116.5 L 83 116.8 L 84.8 117 L 87 118 Q 87.6 116.5 85.8 117 L 84.5 116.3 L 85.3 116 L 87.5 117.3 L 87 118.3 L 88.3 119.5 L 88.5 119.3 L 89.3 118 L 89.3 119.5 L 88.5 119.8 L 89.5 121.3 L 89.5 125.8 L 87.3 129 L 84.3 130.5 L 80.5 130.8 L 80.8 131.5 L 79.5 130.8 L 80.5 130.3 L 77.5 129 L 77.5 128.3 L 75.8 126 L 75.3 127.5 L 74.5 125.8 L 74.5 124.3 L 75 124.3 L 75.3 126 L 75.5 121.8 L 76 120.3 L 78 118.3 L 77.8 117.5 L 78.8 118 Q 79.8 116.8 82 116.8 L 81.8 116 Z " /><path fill="rgb(254,254,254)" stroke="rgb(254,254,254)" stroke-width="1" opacity="0.9490196078431372" d="M 102.8 118 L 142.5 118.3 L 140.5 118.8 L 179.8 119 L 182 121.3 L 182.3 122 Q 182.9 120.9 183.5 122.3 L 182.5 122.3 L 182.5 124.8 L 179.8 128 L 102 128.3 L 103 128.8 L 102.3 129 L 101.5 128.3 L 101.8 127.5 L 100.8 127 L 100 127.3 Q 101 126.8 100 126.3 L 98.8 122.5 L 98 122.8 L 98.5 121.8 L 98 120.8 L 98.5 120.8 L 99.3 122.5 L 101 119.8 L 100 119.5 Q 99.4 118 101.3 118.5 L 101.3 119.5 L 102.3 119 L 140 118.8 L 102.8 118.5 L 102.8 118 Z " /><path fill="rgb(254,254,254)" stroke="rgb(254,254,254)" stroke-width="1" opacity="0.9490196078431372" d="M 143.3 118 L 177.5 118.3 L 143.3 118.5 L 143.3 118 Z " /><path fill="rgb(254,254,254)" stroke="rgb(254,254,254)" stroke-width="1" opacity="0.9490196078431372" d="M 74.3 120 Q 75.9 119.4 75.5 120.8 L 74.8 120.5 Q 73.6 120.4 74.3 120 Z " /><path fill="rgb(254,254,254)" stroke="rgb(254,254,254)" stroke-width="1" opacity="0.9490196078431372" d="M 98.3 123.5 L 99 124.8 Q 98.5 126 98 125.3 L 98.3 123.5 Z " /><path fill="rgb(254,254,254)" stroke="rgb(254,254,254)" stroke-width="1" opacity="0.9490196078431372" d="M 183.3 124 Q 184.5 124.5 183.8 125 Q 182.5 124.5 183.3 124 Z " /><path fill="rgb(254,254,254)" stroke="rgb(254,254,254)" stroke-width="1" opacity="0.9490196078431372" d="M 79.8 142 L 81.3 142.5 L 84.3 142.5 Q 84.7 141.6 86 142 L 85.5 143.3 L 86.5 143.5 L 87.3 142 L 87 142.8 L 86.5 143.8 L 87.8 144.5 L 88.5 144.3 L 88 145.3 L 89.3 147 L 89.8 146 L 90 146.8 L 89.5 147.3 L 89.5 151.8 L 89.8 152.5 L 89 152.3 L 89.5 153.3 L 88.5 153.3 L 87.3 155 L 85.8 156 Q 84.1 155.6 83.8 156.5 L 80.8 156.5 L 80.3 157 L 80.3 156 Q 77.2 155.3 76 152.8 Q 74.8 151.2 75.5 147.8 L 76 146.3 L 78.5 143.8 L 78 142.5 L 79 142.8 L 78.8 143.5 L 81 142.8 L 79.8 142.5 L 79.8 142 Z " /><path fill="rgb(254,254,254)" stroke="rgb(254,254,254)" stroke-width="1" opacity="0.9490196078431372" d="M 101.3 144 L 102.8 144.5 L 178.8 144.5 L 181.5 146.3 L 182.5 148.3 L 182.8 151 L 183.5 150.8 L 183 151.3 L 183.3 152 Q 182.1 152.4 182.5 151.3 L 182 151.3 L 179.8 154 L 102 154.3 L 104 154.8 L 103.5 156 L 102.5 155.8 L 102.8 155 L 101.5 154.3 L 101.8 153.5 L 100 152.3 L 99 148.8 L 100.8 145.5 L 102.5 144.8 L 101.3 144.5 L 100.5 144.8 L 101.3 144 Z " /><path fill="rgb(254,254,254)" stroke="rgb(254,254,254)" stroke-width="1" opacity="0.9490196078431372" d="M 179.8 144 L 181 144.3 L 179.8 144.5 L 179.8 144 Z " /><path fill="rgb(254,254,254)" stroke="rgb(254,254,254)" stroke-width="1" opacity="0.9490196078431372" d="M 90.3 148.5 L 90.5 149.8 L 90 149.8 L 90.3 148.5 Z " /><path fill="rgb(254,254,254)" stroke="rgb(254,254,254)" stroke-width="1" opacity="0.9490196078431372" d="M 98.3 150 L 99.5 152.3 L 99.3 152.5 L 98 151.3 L 98.5 150.8 L 98.3 150 Z " /><path fill="rgb(254,254,254)" stroke="rgb(254,254,254)" stroke-width="1" opacity="0.9490196078431372" d="M 74.8 150.5 L 75 151.8 L 74.5 151.8 L 74.8 150.5 Z " /><path fill="rgb(254,254,254)" stroke="rgb(254,254,254)" stroke-width="1" opacity="0.9490196078431372" d="M 76.3 154 L 76.5 155 L 77.5 155.3 L 76 155.5 L 76.3 154 Z " /><path fill="rgb(254,254,254)" stroke="rgb(254,254,254)" stroke-width="1" opacity="0.9490196078431372" d="M 105 154.5 L 106.5 154.8 L 105.3 155.5 L 105 154.5 Z " /><path fill="rgb(254,254,254)" stroke="rgb(254,254,254)" stroke-width="1" opacity="0.9490196078431372" d="M 107.8 154.5 Q 110 154 110.5 155.3 L 109.8 155 L 108.8 155.5 L 107.8 155 L 107 155.3 L 107.8 154.5 Z " /><path fill="rgb(254,254,254)" stroke="rgb(254,254,254)" stroke-width="1" opacity="0.9490196078431372" d="M 111.8 154.5 Q 113.3 154.3 113.5 155.3 L 112.8 155 Q 111.3 155.3 111.8 154.5 Z " /><path fill="rgb(254,254,254)" stroke="rgb(254,254,254)" stroke-width="1" opacity="0.9490196078431372" d="M 117.3 154.5 L 120.5 154.8 L 117.3 155 L 117.3 154.5 Z " /><path fill="rgb(254,254,254)" stroke="rgb(254,254,254)" stroke-width="1" opacity="0.9490196078431372" d="M 121 154.5 L 133.5 154.8 L 130.8 155 L 130.3 155.5 L 129.8 155 L 121.8 155 L 121 155.3 L 121 154.5 Z " /><path fill="rgb(254,254,254)" stroke="rgb(254,254,254)" stroke-width="1" opacity="0.9490196078431372" d="M 134.8 154.5 L 139.5 154.8 L 134.8 155 L 134.8 154.5 Z " /><path fill="rgb(254,254,254)" stroke="rgb(254,254,254)" stroke-width="1" opacity="0.9490196078431372" d="M 140.3 154.5 L 146 154.8 L 144.3 155.5 L 143.8 155 L 140.3 155 L 140.3 154.5 Z " /><path fill="rgb(254,254,254)" stroke="rgb(254,254,254)" stroke-width="1" opacity="0.9490196078431372" d="M 146.5 154.5 L 148 154.8 L 147 155.3 L 147.3 156 L 146.5 154.5 Z " /><path fill="rgb(254,254,254)" stroke="rgb(254,254,254)" stroke-width="1" opacity="0.9490196078431372" d="M 150.3 154.5 L 154 154.8 L 150.3 155 L 150.3 154.5 Z " /><path fill="rgb(254,254,254)" stroke="rgb(254,254,254)" stroke-width="1" opacity="0.9490196078431372" d="M 154.8 154.5 L 161.5 154.8 L 154.8 155 L 154.8 154.5 Z " /><path fill="rgb(254,254,254)" stroke="rgb(254,254,254)" stroke-width="1" opacity="0.9490196078431372" d="M 162.3 154.5 L 169.5 154.8 L 167.3 155.5 L 166.8 155 L 162.3 155 L 162.3 154.5 Z " /><path fill="rgb(254,254,254)" stroke="rgb(254,254,254)" stroke-width="1" opacity="0.9490196078431372" d="M 170.3 154.5 L 171.5 154.8 L 170.8 155.5 Q 169.5 155 170.3 154.5 Z " /><path fill="rgb(254,254,254)" stroke="rgb(254,254,254)" stroke-width="1" opacity="0.9490196078431372" d="M 172.3 154.5 L 175.5 154.8 L 172.8 155.5 Q 171.5 155 172.3 154.5 Z " /><path fill="rgb(254,254,254)" stroke="rgb(254,254,254)" stroke-width="1" opacity="0.9490196078431372" d="M 176.3 154.5 L 177.3 155 L 178 154.8 L 178 155.5 L 176 155.5 L 176.3 154.5 Z " /><path fill="rgb(254,254,254)" stroke="rgb(254,254,254)" stroke-width="1" opacity="0.9490196078431372" d="M 81.3 157 Q 82.8 156.8 83 157.8 L 82.3 157.5 Q 80.8 157.8 81.3 157 Z " /><path fill="rgb(161,161,160)" stroke="rgb(161,161,160)" stroke-width="1" opacity="0.20392156862745098" d="M 0 0 L 43.5 0.3 L 0.5 0.5 L 0.3 31.5 L 0 0 Z " /><path fill="rgb(161,161,160)" stroke="rgb(161,161,160)" stroke-width="1" opacity="0.20392156862745098" d="M 47.8 0 L 56.5 0.3 L 47.8 0.5 L 47.8 0 Z " /><path fill="rgb(161,161,160)" stroke="rgb(161,161,160)" stroke-width="1" opacity="0.20392156862745098" d="M 57.3 0 L 60 0.3 L 57.3 0.5 L 57.3 0 Z " /><path fill="rgb(161,161,160)" stroke="rgb(161,161,160)" stroke-width="1" opacity="0.20392156862745098" d="M 60.8 0 L 62 0.3 L 60.8 0.5 L 60.8 0 Z " /><path fill="rgb(161,161,160)" stroke="rgb(161,161,160)" stroke-width="1" opacity="0.20392156862745098" d="M 62.8 0 L 65.5 0.3 L 62.8 0.5 L 62.8 0 Z " /><path fill="rgb(161,161,160)" stroke="rgb(161,161,160)" stroke-width="1" opacity="0.20392156862745098" d="M 66.8 0 L 68 0.3 L 66.8 0.5 L 66.8 0 Z " /><path fill="rgb(161,161,160)" stroke="rgb(161,161,160)" stroke-width="1" opacity="0.20392156862745098" d="M 68.8 0 L 71 0.3 L 68.8 0.5 L 68.8 0 Z " /><path fill="rgb(161,161,160)" stroke="rgb(161,161,160)" stroke-width="1" opacity="0.20392156862745098" d="M 74.3 0 L 75.5 0.3 L 74.3 0.5 L 74.3 0 Z " /><path fill="rgb(161,161,160)" stroke="rgb(161,161,160)" stroke-width="1" opacity="0.20392156862745098" d="M 80.3 0 L 82 0.3 L 80.3 0.5 L 80.3 0 Z " /><path fill="rgb(161,161,160)" stroke="rgb(161,161,160)" stroke-width="1" opacity="0.20392156862745098" d="M 86.3 0 L 88 0.3 L 86.3 0.5 L 86.3 0 Z " /><path fill="rgb(161,161,160)" stroke="rgb(161,161,160)" stroke-width="1" opacity="0.20392156862745098" d="M 90.3 0 L 91.5 0.3 L 90.3 0.5 L 90.3 0 Z " /><path fill="rgb(161,161,160)" stroke="rgb(161,161,160)" stroke-width="1" opacity="0.20392156862745098" d="M 92.3 0 L 95.5 0.3 L 92.3 0.5 L 92.3 0 Z " /><path fill="rgb(161,161,160)" stroke="rgb(161,161,160)" stroke-width="1" opacity="0.20392156862745098" d="M 102.8 0 L 104 0.3 L 102.8 0.5 L 102.8 0 Z " /><path fill="rgb(161,161,160)" stroke="rgb(161,161,160)" stroke-width="1" opacity="0.20392156862745098" d="M 110.3 0 L 113.5 0.3 L 110.3 0.5 L 110.3 0 Z " /><path fill="rgb(161,161,160)" stroke="rgb(161,161,160)" stroke-width="1" opacity="0.20392156862745098" d="M 114.3 0 L 118 0.3 L 114.3 0.5 L 114.3 0 Z " /><path fill="rgb(161,161,160)" stroke="rgb(161,161,160)" stroke-width="1" opacity="0.20392156862745098" d="M 120.3 0 L 123 0.3 L 120.3 0.5 L 120.3 0 Z " /><path fill="rgb(161,161,160)" stroke="rgb(161,161,160)" stroke-width="1" opacity="0.20392156862745098" d="M 124.8 0 L 127 0.3 L 124.8 0.5 L 124.8 0 Z " /><path fill="rgb(161,161,160)" stroke="rgb(161,161,160)" stroke-width="1" opacity="0.20392156862745098" d="M 127.8 0 L 134.5 0.3 L 127.8 0.5 L 127.8 0 Z " /><path fill="rgb(161,161,160)" stroke="rgb(161,161,160)" stroke-width="1" opacity="0.20392156862745098" d="M 137.8 0 L 143.5 0.3 L 137.8 0.5 L 137.8 0 Z " /><path fill="rgb(161,161,160)" stroke="rgb(161,161,160)" stroke-width="1" opacity="0.20392156862745098" d="M 149.3 0 L 150.5 0.3 L 149.3 0.5 L 149.3 0 Z " /><path fill="rgb(161,161,160)" stroke="rgb(161,161,160)" stroke-width="1" opacity="0.20392156862745098" d="M 155.8 0 L 157 0.3 L 155.8 0.5 L 155.8 0 Z " /><path fill="rgb(161,161,160)" stroke="rgb(161,161,160)" stroke-width="1" opacity="0.20392156862745098" d="M 159.8 0 L 161 0.3 L 159.8 0.5 L 159.8 0 Z " /><path fill="rgb(161,161,160)" stroke="rgb(161,161,160)" stroke-width="1" opacity="0.20392156862745098" d="M 166.8 0 L 168 0.3 L 166.8 0.5 L 166.8 0 Z " /><path fill="rgb(161,161,160)" stroke="rgb(161,161,160)" stroke-width="1" opacity="0.20392156862745098" d="M 171.3 0 L 174 0.3 L 171.3 0.5 L 171.3 0 Z " /><path fill="rgb(161,161,160)" stroke="rgb(161,161,160)" stroke-width="1" opacity="0.20392156862745098" d="M 176.3 0 L 182 0.3 L 176.3 0.5 L 176.3 0 Z " /><path fill="rgb(161,161,160)" stroke="rgb(161,161,160)" stroke-width="1" opacity="0.20392156862745098" d="M 184.3 0 L 185.5 0.3 L 184.3 0.5 L 184.3 0 Z " /><path fill="rgb(161,161,160)" stroke="rgb(161,161,160)" stroke-width="1" opacity="0.20392156862745098" d="M 186.3 0 L 187.5 0.3 L 186.3 0.5 L 186.3 0 Z " /><path fill="rgb(161,161,160)" stroke="rgb(161,161,160)" stroke-width="1" opacity="0.20392156862745098" d="M 192.3 0 L 195.5 0.3 L 192.3 0.5 L 192.3 0 Z " /><path fill="rgb(161,161,160)" stroke="rgb(161,161,160)" stroke-width="1" opacity="0.20392156862745098" d="M 198.3 0 L 200 0.3 L 198.3 0.5 L 198.3 0 Z " /><path fill="rgb(161,161,160)" stroke="rgb(161,161,160)" stroke-width="1" opacity="0.20392156862745098" d="M 201.8 0 L 203.5 0.3 L 201.8 0.5 L 201.8 0 Z " /><path fill="rgb(161,161,160)" stroke="rgb(161,161,160)" stroke-width="1" opacity="0.20392156862745098" d="M 204.3 0 L 207 0.3 L 204.3 0.5 L 204.3 0 Z " /><path fill="rgb(161,161,160)" stroke="rgb(161,161,160)" stroke-width="1" opacity="0.20392156862745098" d="M 208.3 0 L 214.5 0.3 L 208.3 0.5 L 208.3 0 Z " /><path fill="rgb(161,161,160)" stroke="rgb(161,161,160)" stroke-width="1" opacity="0.20392156862745098" d="M 215.3 0 L 256 0 L 256 14.8 L 255.5 14.8 L 255.5 0.5 L 215.3 0.5 L 215.3 0 Z " /><path fill="rgb(161,161,160)" stroke="rgb(161,161,160)" stroke-width="1" opacity="0.20392156862745098" d="M 255.8 18 L 256 19.3 L 255.5 19.3 L 255.8 18 Z " /><path fill="rgb(161,161,160)" stroke="rgb(161,161,160)" stroke-width="1" opacity="0.20392156862745098" d="M 0.3 32 L 0.5 33.3 L 0 33.3 L 0.3 32 Z " /><path fill="rgb(161,161,160)" stroke="rgb(161,161,160)" stroke-width="1" opacity="0.20392156862745098" d="M 0.3 36 L 0.5 38.3 L 0 38.3 L 0.3 36 Z " /><path fill="rgb(161,161,160)" stroke="rgb(161,161,160)" stroke-width="1" opacity="0.20392156862745098" d="M 0.3 74.5 L 0.5 75.8 L 0 75.8 L 0.3 74.5 Z " /><path fill="rgb(161,161,160)" stroke="rgb(161,161,160)" stroke-width="1" opacity="0.20392156862745098" d="M 0.3 80 L 0.5 82.3 L 0 82.3 L 0.3 80 Z " /><path fill="rgb(161,161,160)" stroke="rgb(161,161,160)" stroke-width="1" opacity="0.20392156862745098" d="M 0.3 83 L 0.5 85.3 L 0 85.3 L 0.3 83 Z " /><path fill="rgb(161,161,160)" stroke="rgb(161,161,160)" stroke-width="1" opacity="0.20392156862745098" d="M 0.3 87.5 L 0.5 88.8 L 0 88.8 L 0.3 87.5 Z " /><path fill="rgb(161,161,160)" stroke="rgb(161,161,160)" stroke-width="1" opacity="0.20392156862745098" d="M 77.8 91.5 L 78 91.8 L 76.3 93.5 L 76 93.3 L 77.8 91.5 Z " /><path fill="rgb(161,161,160)" stroke="rgb(161,161,160)" stroke-width="1" opacity="0.20392156862745098" d="M 0.3 92 L 0.5 113.3 L 0 113.3 L 0.3 92 Z " /><path fill="rgb(161,161,160)" stroke="rgb(161,161,160)" stroke-width="1" opacity="0.20392156862745098" d="M 76.3 101.5 Q 77.5 102 76.8 102.5 Q 75.5 102 76.3 101.5 Z " /><path fill="rgb(161,161,160)" stroke="rgb(161,161,160)" stroke-width="1" opacity="0.20392156862745098" d="M 0.3 114 L 0.5 125.8 L 0 125.8 L 0.3 114 Z " /><path fill="rgb(161,161,160)" stroke="rgb(161,161,160)" stroke-width="1" opacity="0.20392156862745098" d="M 0.3 126.5 L 0.5 162.3 L 0 162.3 L 0.3 126.5 Z " /><path fill="rgb(161,161,160)" stroke="rgb(161,161,160)" stroke-width="1" opacity="0.20392156862745098" d="M 77.8 143.5 L 78 143.8 L 76.8 145 L 76.5 144.8 L 77.8 143.5 Z " /><path fill="rgb(161,161,160)" stroke="rgb(161,161,160)" stroke-width="1" opacity="0.20392156862745098" d="M 0.3 228 L 0.5 230.3 L 0 230.3 L 0.3 228 Z " /><path fill="rgb(161,161,160)" stroke="rgb(161,161,160)" stroke-width="1" opacity="0.20392156862745098" d="M 0.3 232 L 0.5 233.8 L 0 233.8 L 0.3 232 Z " /><path fill="rgb(161,161,160)" stroke="rgb(161,161,160)" stroke-width="1" opacity="0.20392156862745098" d="M 0.3 236.5 L 0.5 237.8 L 0 237.8 L 0.3 236.5 Z " /><path fill="rgb(161,161,160)" stroke="rgb(161,161,160)" stroke-width="1" opacity="0.20392156862745098" d="M 0.3 238.5 L 0.5 255.5 L 6 255.8 L 0 256 L 0.3 238.5 Z " /><path fill="rgb(161,161,160)" stroke="rgb(161,161,160)" stroke-width="1" opacity="0.20392156862745098" d="M 255.8 247 L 256 252.3 L 255.5 252.3 L 255.8 247 Z " /><path fill="rgb(161,161,160)" stroke="rgb(161,161,160)" stroke-width="1" opacity="0.20392156862745098" d="M 255.8 253.5 L 256 255.8 L 255.5 255.8 L 255.8 253.5 Z " /><path fill="rgb(161,161,160)" stroke="rgb(161,161,160)" stroke-width="1" opacity="0.20392156862745098" d="M 244.3 255.5 L 245.5 255.8 L 244.3 256 L 244.3 255.5 Z " /><path fill="rgb(161,161,160)" stroke="rgb(161,161,160)" stroke-width="1" opacity="0.20392156862745098" d="M 247.3 255.5 L 250 255.8 L 247.3 256 L 247.3 255.5 Z " /><path fill="rgb(161,161,160)" stroke="rgb(161,161,160)" stroke-width="1" opacity="0.20392156862745098" d="M 250.8 255.5 L 252.5 255.8 L 250.8 256 L 250.8 255.5 Z " /><path fill="rgb(161,161,160)" stroke="rgb(161,161,160)" stroke-width="1" opacity="0.20392156862745098" d="M 253.3 255.5 L 255 255.8 L 253.3 256 L 253.3 255.5 Z " /><path fill="rgb(156,156,155)" stroke="rgb(156,156,155)" stroke-width="1" opacity="0.21176470588235294" d="M 84.8 0 L 86 0.3 L 84.8 0.5 L 84.8 0 Z " /><path fill="rgb(156,156,155)" stroke="rgb(156,156,155)" stroke-width="1" opacity="0.21176470588235294" d="M 97.3 0 L 98.5 0.3 L 97.3 0.5 L 97.3 0 Z " /><path fill="rgb(156,156,155)" stroke="rgb(156,156,155)" stroke-width="1" opacity="0.21176470588235294" d="M 107.3 0 L 108.5 0.3 L 107.3 0.5 L 107.3 0 Z " /><path fill="rgb(156,156,155)" stroke="rgb(156,156,155)" stroke-width="1" opacity="0.21176470588235294" d="M 123.3 0 L 124.5 0.3 L 123.3 0.5 L 123.3 0 Z " /><path fill="rgb(156,156,155)" stroke="rgb(156,156,155)" stroke-width="1" opacity="0.21176470588235294" d="M 150.8 0 L 153 0.3 L 150.8 0.5 L 150.8 0 Z " /><path fill="rgb(156,156,155)" stroke="rgb(156,156,155)" stroke-width="1" opacity="0.21176470588235294" d="M 154.3 0 L 155.5 0.3 L 154.3 0.5 L 154.3 0 Z " /><path fill="rgb(156,156,155)" stroke="rgb(156,156,155)" stroke-width="1" opacity="0.21176470588235294" d="M 161.3 0 L 162.5 0.3 L 161.3 0.5 L 161.3 0 Z " /><path fill="rgb(156,156,155)" stroke="rgb(156,156,155)" stroke-width="1" opacity="0.21176470588235294" d="M 163.3 0 L 165 0.3 L 163.3 0.5 L 163.3 0 Z " /><path fill="rgb(156,156,155)" stroke="rgb(156,156,155)" stroke-width="1" opacity="0.21176470588235294" d="M 190.3 0 L 192 0.3 L 190.3 0.5 L 190.3 0 Z " /><path fill="rgb(156,156,155)" stroke="rgb(156,156,155)" stroke-width="1" opacity="0.21176470588235294" d="M 255.8 19.5 L 256 34.3 L 255.5 34.3 L 255.8 19.5 Z " /><path fill="rgb(156,156,155)" stroke="rgb(156,156,155)" stroke-width="1" opacity="0.21176470588235294" d="M 255.8 35 L 256 37.8 L 255.5 37.8 L 255.8 35 Z " /><path fill="rgb(156,156,155)" stroke="rgb(156,156,155)" stroke-width="1" opacity="0.21176470588235294" d="M 255.8 38.5 L 256 42.8 L 255.5 42.8 L 255.8 38.5 Z " /><path fill="rgb(156,156,155)" stroke="rgb(156,156,155)" stroke-width="1" opacity="0.21176470588235294" d="M 0.3 40 L 0.5 41.3 L 0 41.3 L 0.3 40 Z " /><path fill="rgb(156,156,155)" stroke="rgb(156,156,155)" stroke-width="1" opacity="0.21176470588235294" d="M 0.3 42 L 0.5 43.3 L 0 43.3 L 0.3 42 Z " /><path fill="rgb(156,156,155)" stroke="rgb(156,156,155)" stroke-width="1" opacity="0.21176470588235294" d="M 255.8 43.5 L 256 47.8 L 255.5 47.8 L 255.8 43.5 Z " /><path fill="rgb(156,156,155)" stroke="rgb(156,156,155)" stroke-width="1" opacity="0.21176470588235294" d="M 0.3 44 L 0.5 46.3 L 0 46.3 L 0.3 44 Z " /><path fill="rgb(156,156,155)" stroke="rgb(156,156,155)" stroke-width="1" opacity="0.21176470588235294" d="M 0.3 47.5 L 0.5 50.8 L 0 50.8 L 0.3 47.5 Z " /><path fill="rgb(156,156,155)" stroke="rgb(156,156,155)" stroke-width="1" opacity="0.21176470588235294" d="M 0.3 51.5 L 0.5 65.8 L 0 65.8 L 0.3 51.5 Z " /><path fill="rgb(156,156,155)" stroke="rgb(156,156,155)" stroke-width="1" opacity="0.21176470588235294" d="M 255.8 55 L 256 59.3 L 255.5 59.3 L 255.8 55 Z " /><path fill="rgb(156,156,155)" stroke="rgb(156,156,155)" stroke-width="1" opacity="0.21176470588235294" d="M 255.8 61 L 256 63.8 L 255.5 63.8 L 255.8 61 Z " /><path fill="rgb(156,156,155)" stroke="rgb(156,156,155)" stroke-width="1" opacity="0.21176470588235294" d="M 255.8 65 L 256 67.8 L 255.5 67.8 L 255.8 65 Z " /><path fill="rgb(156,156,155)" stroke="rgb(156,156,155)" stroke-width="1" opacity="0.21176470588235294" d="M 0.3 67.5 L 0.5 69.3 L 0 69.3 L 0.3 67.5 Z " /><path fill="rgb(156,156,155)" stroke="rgb(156,156,155)" stroke-width="1" opacity="0.21176470588235294" d="M 255.8 68.5 L 256 76.3 L 255.5 76.3 L 255.8 68.5 Z " /><path fill="rgb(156,156,155)" stroke="rgb(156,156,155)" stroke-width="1" opacity="0.21176470588235294" d="M 0.3 71 L 0.5 74.3 L 0 74.3 L 0.3 71 Z " /><path fill="rgb(156,156,155)" stroke="rgb(156,156,155)" stroke-width="1" opacity="0.21176470588235294" d="M 0.3 76 L 0.5 79.8 L 0 79.8 L 0.3 76 Z " /><path fill="rgb(156,156,155)" stroke="rgb(156,156,155)" stroke-width="1" opacity="0.21176470588235294" d="M 255.8 78 L 256 142.3 L 255.5 142.3 L 255.8 78 Z " /><path fill="rgb(156,156,155)" stroke="rgb(156,156,155)" stroke-width="1" opacity="0.21176470588235294" d="M 255.8 143.5 L 256 175.3 L 255.5 175.3 L 255.8 143.5 Z " /><path fill="rgb(156,156,155)" stroke="rgb(156,156,155)" stroke-width="1" opacity="0.21176470588235294" d="M 0.3 162.5 L 0.5 163.8 L 0 163.8 L 0.3 162.5 Z " /><path fill="rgb(156,156,155)" stroke="rgb(156,156,155)" stroke-width="1" opacity="0.21176470588235294" d="M 0.3 168 L 0.5 169.8 L 0 169.8 L 0.3 168 Z " /><path fill="rgb(156,156,155)" stroke="rgb(156,156,155)" stroke-width="1" opacity="0.21176470588235294" d="M 0.3 174 L 0.5 177.8 L 0 177.8 L 0.3 174 Z " /><path fill="rgb(156,156,155)" stroke="rgb(156,156,155)" stroke-width="1" opacity="0.21176470588235294" d="M 255.8 176 L 256 189.8 L 255.5 189.8 L 255.8 176 Z " /><path fill="rgb(156,156,155)" stroke="rgb(156,156,155)" stroke-width="1" opacity="0.21176470588235294" d="M 0.3 178.5 L 0.5 214.3 L 0 214.3 L 0.3 178.5 Z " /><path fill="rgb(156,156,155)" stroke="rgb(156,156,155)" stroke-width="1" opacity="0.21176470588235294" d="M 255.8 191.5 L 256 196.3 L 255.5 196.3 L 255.8 191.5 Z " /><path fill="rgb(156,156,155)" stroke="rgb(156,156,155)" stroke-width="1" opacity="0.21176470588235294" d="M 255.8 200 L 256 201.8 L 255.5 201.8 L 255.8 200 Z " /><path fill="rgb(156,156,155)" stroke="rgb(156,156,155)" stroke-width="1" opacity="0.21176470588235294" d="M 255.8 204.5 L 256 209.8 L 255.5 209.8 L 255.8 204.5 Z " /><path fill="rgb(156,156,155)" stroke="rgb(156,156,155)" stroke-width="1" opacity="0.21176470588235294" d="M 255.8 212.5 L 256 214.3 L 255.5 214.3 L 255.8 212.5 Z " /><path fill="rgb(156,156,155)" stroke="rgb(156,156,155)" stroke-width="1" opacity="0.21176470588235294" d="M 0.3 215 L 0.5 218.8 L 0 218.8 L 0.3 215 Z " /><path fill="rgb(156,156,155)" stroke="rgb(156,156,155)" stroke-width="1" opacity="0.21176470588235294" d="M 255.8 217 L 256 222.3 L 255.5 222.3 L 255.8 217 Z " /><path fill="rgb(156,156,155)" stroke="rgb(156,156,155)" stroke-width="1" opacity="0.21176470588235294" d="M 0.3 219.5 L 0.5 220.8 L 0 220.8 L 0.3 219.5 Z " /><path fill="rgb(156,156,155)" stroke="rgb(156,156,155)" stroke-width="1" opacity="0.21176470588235294" d="M 0.3 221.5 L 0.5 222.8 L 0 222.8 L 0.3 221.5 Z " /><path fill="rgb(156,156,155)" stroke="rgb(156,156,155)" stroke-width="1" opacity="0.21176470588235294" d="M 0.3 223.5 L 0.5 226.3 L 0 226.3 L 0.3 223.5 Z " /><path fill="rgb(156,156,155)" stroke="rgb(156,156,155)" stroke-width="1" opacity="0.21176470588235294" d="M 255.8 223.5 L 256 245.8 L 255.5 245.8 L 255.8 223.5 Z " /><path fill="rgb(156,156,155)" stroke="rgb(156,156,155)" stroke-width="1" opacity="0.21176470588235294" d="M 0.3 230.5 L 0.5 231.8 L 0 231.8 L 0.3 230.5 Z " /></svg>