<svg width="256" height="256" version="1.1" xmlns="http://www.w3.org/2000/svg" desc="Created with imagetracer.js version 1.2.6" ><path fill="rgb(0,0,0)" stroke="rgb(0,0,0)" stroke-width="1" opacity="0" d="M 0 0 L 256 0 L 256 256 L 0 256 L 0 0 Z M 107 56 L 106 57 L 103 57 L 103 57 L 99 58 L 93 60 L 85 64 L 81 67 Q 80 66 81 67 L 78 70 L 77 71 L 73 75 L 72 75 L 73 75 Q 70 77 70 81 L 68 82 L 69 82 L 67 85 L 67 86 L 66 87 Q 66 89 65 90 L 63 100 Q 62 101 63 101 L 63 102 L 63 104 L 63 105 L 63 106 L 63 111 L 64 112 L 63 113 L 64 115 L 65 119 Q 66 119 65 120 L 66 121 L 66 123 L 69 129 L 75 137 L 81 144 L 83 145 L 82 145 L 84 146 Q 88 149 94 152 L 98 153 Q 99 154 99 153 L 102 154 L 104 154 L 104 155 L 107 155 L 109 156 Q 110 154 113 155 Q 113 156 114 155 L 117 155 L 117 156 L 119 155 Q 121 154 122 155 L 122 154 Q 124 154 124 154 L 126 154 L 131 152 L 133 151 L 134 150 L 139 148 L 143 145 L 144 145 L 165 166 L 165 167 L 166 167 L 187 188 Q 188 188 188 189 L 188 189 L 189 190 Q 190 189 190 190 L 193 188 L 196 184 L 194 181 L 173 161 Q 172 161 173 160 L 172 160 L 172 159 L 168 156 L 168 155 Q 166 155 166 153 Q 166 152 165 153 L 152 140 L 152 139 Q 151 139 150 138 L 151 137 L 152 135 L 153 135 L 153 134 Q 157 129 159 123 Q 161 122 160 121 L 161 119 L 161 118 L 162 118 L 161 116 L 162 115 L 162 112 L 162 112 L 162 99 L 162 98 L 162 96 L 161 93 L 161 92 L 159 86 L 156 81 L 156 80 L 151 73 L 150 71 Q 148 71 148 70 Q 148 69 147 69 L 146 67 L 145 68 L 141 65 L 136 61 Q 134 61 134 60 L 132 60 L 131 59 L 130 59 L 126 58 Q 125 57 125 58 L 122 56 L 121 57 Q 119 57 118 56 L 107 56 Z " /><path fill="rgb(0,0,0)" stroke="rgb(0,0,0)" stroke-width="1" opacity="0" d="M 110.3 65 L 114.3 65 Q 114.5 66.2 116.3 66 Q 116.7 65 118.8 65.5 Q 119.2 66.5 121.3 66 L 122.8 67 Q 123.3 66 123.8 67 L 125.3 67 L 126.8 68 L 129.3 68.5 L 133 70.8 L 133.3 71.5 Q 134 70.2 134.8 72 L 136 72.8 L 136.3 73.5 L 136.8 73 L 138.3 74.5 L 141.5 77.3 Q 141.2 78.6 142.5 78 L 142.5 79.3 L 143.5 79.3 L 148 85.8 L 150.5 91.3 L 151 93.8 L 150.8 94.5 L 151.5 94.8 L 151 96 Q 152.8 95.3 152 98.3 L 152.5 98.8 L 152.5 102.3 L 153 103.8 L 152.5 105.3 Q 153.4 105.6 153 107.3 L 152.5 107.8 L 152.5 111.8 L 152 112.3 L 152 114.3 L 151.3 116.5 L 150.5 116.3 L 151 117.8 L 147 126.3 L 139.8 135 L 139 134.8 L 136.8 137.5 L 135 138 Q 135.6 139.3 134.3 139 L 128.3 142.5 L 126.8 142.5 L 125.8 143.5 L 121.3 144.5 Q 120.5 143.2 119.8 145 Q 117.7 144.5 117.3 145.5 L 111.8 145.5 Q 111.3 144.5 110.8 145.5 L 105.3 145 L 103.8 144 L 102.8 144.5 L 99.8 143.5 L 98.8 142.5 Q 98.3 143.5 97.8 142.5 L 95.5 142 L 95.3 141 Q 94.8 142 94.3 141 Q 92.9 141.3 93.5 140 L 92.3 140 L 91 139.5 Q 91.6 138 89.8 138.5 Q 85.4 135.6 82 131.8 L 79 127.8 L 79.3 127 L 78 126.3 L 76.5 123.3 L 76.8 122.5 Q 75.4 122.9 76 121.3 L 75 119.8 L 75.3 119 Q 73.9 119.4 74.5 117.8 L 73.5 115.8 L 73 112.3 Q 74 111.8 73 111.3 L 72.5 110.3 L 73 109.8 L 72.5 108.3 L 73 106.3 L 72.5 105.8 L 72.5 100 Q 73.8 100.6 73.5 99.3 L 73 98.3 L 73.5 97.8 L 73.3 97 Q 74.4 97.4 74 96.3 L 73.5 95.3 L 74.5 93.3 L 74.5 91.5 L 75.5 91.3 L 75 90.3 L 80 81.3 L 86.3 74.5 L 93.8 69.5 L 94.5 69.8 Q 94.1 68.6 95.3 69 L 99.3 67 L 100.8 67 L 103.3 66 L 105.3 66 L 105.8 65.5 L 109.8 65.5 L 110.3 65 Z " /><path fill="rgb(254,254,254)" stroke="rgb(254,254,254)" stroke-width="1" opacity="0.996078431372549" d="M 106.3 56.5 L 118.8 56.5 L 119.3 57 L 121.8 57 L 122.3 57.5 L 126.3 58 L 130.8 59.5 L 132.3 60.5 L 133.3 60.5 L 139.8 64 L 143.8 67 L 151.5 74.8 L 155 79.8 L 158 85.8 L 160 91.8 L 160 93.3 L 161 95.8 L 161 97.8 L 161.5 98.3 L 161.5 112.3 L 161 112.8 L 161 115.3 L 160.5 115.8 L 160 119.3 L 158 123.8 L 158 124.8 L 154.5 131.3 L 149.5 137.8 L 194 182.3 Q 194.8 183.2 194.5 185.3 L 191.8 188.5 Q 189 189 187.8 188 L 169.8 170 L 169 170 L 169 169 Q 167.7 169.6 168 168.3 L 143.8 144 L 142.8 144 L 136.8 148.5 L 130.8 151.5 L 126.3 153 L 122.3 153.5 L 121.8 154 L 118.8 154 L 118.3 154.5 L 107.3 154.5 L 106.8 154 L 103.8 154 L 103.3 153.5 L 97.8 152.5 L 88.8 148.5 L 82.8 144.5 L 76 138.3 L 70 130.3 L 66.5 123.3 L 65 118.8 L 65 117.3 L 64 114.8 L 64 111.8 L 63.5 111.3 L 63.5 99.3 L 64 98.8 L 64 96.3 L 64.5 95.8 L 65 91.8 L 69 81.8 L 74 74.3 L 81.3 67 L 85.3 64 L 92.8 60 L 100.3 57.5 L 105.8 57 L 106.3 56.5 Z M 112 65 L 112 65 L 106 65 Q 106 66 103 66 L 103 66 L 101 66 L 97 68 Q 91 70 87 74 L 81 80 L 76 87 L 76 88 L 74 93 L 73 97 L 73 97 L 73 100 L 72 101 L 72 110 L 73 110 L 73 113 L 74 116 L 74 117 L 78 126 L 81 131 L 86 137 L 93 141 L 99 144 L 101 144 L 103 145 L 105 145 L 105 146 L 108 146 L 108 146 L 117 146 L 117 146 L 120 146 L 120 145 L 124 145 L 133 141 L 138 137 L 144 131 L 149 125 L 152 116 L 153 112 L 153 112 L 153 107 L 154 107 L 154 104 L 153 103 L 153 99 L 153 98 L 153 96 L 152 96 L 152 94 L 151 91 L 149 86 L 145 80 L 138 74 L 129 68 L 127 68 L 125 67 L 122 66 L 121 66 Q 119 66 118 65 L 113 65 L 112 65 Z " /><path fill="rgb(252,253,253)" stroke="rgb(252,253,253)" stroke-width="1" opacity="0.21568627450980393" d="M 106.8 56 L 110 56.3 L 106.8 56.5 L 106.8 56 Z " /><path fill="rgb(252,253,253)" stroke="rgb(252,253,253)" stroke-width="1" opacity="0.21568627450980393" d="M 115.3 56 L 118.5 56.3 L 115.3 56.5 L 115.3 56 Z " /><path fill="rgb(252,253,253)" stroke="rgb(252,253,253)" stroke-width="1" opacity="0.21568627450980393" d="M 121.3 56 L 124.5 57.3 L 123.3 57.5 L 122.8 57 L 120 56.8 L 121.3 56 Z " /><path fill="rgb(252,253,253)" stroke="rgb(252,253,253)" stroke-width="1" opacity="0.21568627450980393" d="M 103.3 56.5 L 104.5 56.8 L 103.3 57 L 103.3 56.5 Z " /><path fill="rgb(252,253,253)" stroke="rgb(252,253,253)" stroke-width="1" opacity="0.21568627450980393" d="M 100.8 57 L 102 57.3 L 100.8 57.5 L 100.8 57 Z " /><path fill="rgb(252,253,253)" stroke="rgb(252,253,253)" stroke-width="1" opacity="0.21568627450980393" d="M 125.3 57 L 126.5 57.8 L 125 58 L 125.3 57 Z " /><path fill="rgb(252,253,253)" stroke="rgb(252,253,253)" stroke-width="1" opacity="0.21568627450980393" d="M 95.3 58.5 L 96 58.8 L 94.3 59.5 L 94.3 59 L 95.3 58.5 Z " /><path fill="rgb(252,253,253)" stroke="rgb(252,253,253)" stroke-width="1" opacity="0.21568627450980393" d="M 130.3 59 Q 131.8 58.8 132 59.8 L 131.3 59.5 Q 129.8 59.8 130.3 59 Z " /><path fill="rgb(252,253,253)" stroke="rgb(252,253,253)" stroke-width="1" opacity="0.21568627450980393" d="M 92.8 59.5 L 93.5 59.8 L 91.8 60.5 L 91.8 60 L 92.8 59.5 Z " /><path fill="rgb(252,253,253)" stroke="rgb(252,253,253)" stroke-width="1" opacity="0.21568627450980393" d="M 132.8 60 L 135.8 61 L 138 62.8 L 137.3 62.5 L 132.8 60.5 L 132.8 60 Z " /><path fill="rgb(252,253,253)" stroke="rgb(252,253,253)" stroke-width="1" opacity="0.21568627450980393" d="M 87.8 62 Q 88.5 62.5 87.3 63 Q 86.5 62.5 87.8 62 Z " /><path fill="rgb(252,253,253)" stroke="rgb(252,253,253)" stroke-width="1" opacity="0.21568627450980393" d="M 85.3 63.5 Q 86 64 84.8 64.5 Q 84 64 85.3 63.5 Z " /><path fill="rgb(252,253,253)" stroke="rgb(252,253,253)" stroke-width="1" opacity="0.21568627450980393" d="M 139.8 63.5 Q 141 64 140.3 64.5 Q 139 64 139.8 63.5 Z " /><path fill="rgb(252,253,253)" stroke="rgb(252,253,253)" stroke-width="1" opacity="0.21568627450980393" d="M 82.8 64.5 L 83.3 65 L 84 64.8 L 82.8 66 L 82.5 65.8 L 83 65.3 L 82.8 64.5 Z " /><path fill="rgb(252,253,253)" stroke="rgb(252,253,253)" stroke-width="1" opacity="0.21568627450980393" d="M 141.3 64.5 L 142.5 65.8 L 142.3 66 L 141 64.8 L 141.3 64.5 Z " /><path fill="rgb(252,253,253)" stroke="rgb(252,253,253)" stroke-width="1" opacity="0.21568627450980393" d="M 107.3 65 L 110 65.3 L 107.3 65.5 L 107.3 65 Z " /><path fill="rgb(252,253,253)" stroke="rgb(252,253,253)" stroke-width="1" opacity="0.21568627450980393" d="M 114.8 65 L 117.5 65.3 L 115.3 66 Q 114 65.5 114.8 65 Z " /><path fill="rgb(252,253,253)" stroke="rgb(252,253,253)" stroke-width="1" opacity="0.21568627450980393" d="M 104.3 65.5 L 105.5 65.8 L 104.3 66 L 104.3 65.5 Z " /><path fill="rgb(252,253,253)" stroke="rgb(252,253,253)" stroke-width="1" opacity="0.21568627450980393" d="M 119.3 65.5 L 120.5 65.8 L 119.3 66 L 119.3 65.5 Z " /><path fill="rgb(252,253,253)" stroke="rgb(252,253,253)" stroke-width="1" opacity="0.21568627450980393" d="M 81.8 66 L 82 66.3 L 80.3 68 L 80.5 67.3 Q 80.1 66.1 81.3 66.5 L 81.8 66 Z " /><path fill="rgb(252,253,253)" stroke="rgb(252,253,253)" stroke-width="1" opacity="0.21568627450980393" d="M 101.8 66 L 103 66.3 L 101.8 66.5 L 101.8 66 Z " /><path fill="rgb(252,253,253)" stroke="rgb(252,253,253)" stroke-width="1" opacity="0.21568627450980393" d="M 121.8 66 Q 123.4 65.4 123 66.8 L 122.3 66.5 Q 121.1 66.4 121.8 66 Z " /><path fill="rgb(252,253,253)" stroke="rgb(252,253,253)" stroke-width="1" opacity="0.21568627450980393" d="M 143.3 66 L 145 67.8 L 144.8 68 L 143 66.3 L 143.3 66 Z " /><path fill="rgb(252,253,253)" stroke="rgb(252,253,253)" stroke-width="1" opacity="0.21568627450980393" d="M 145.8 67 L 146.8 69 Q 147.9 68.6 147.5 69.8 Q 148.1 71.3 149.5 71 Q 149.2 72.2 150.5 72.8 L 150.3 73 L 145.5 68.3 L 145.8 67 Z " /><path fill="rgb(252,253,253)" stroke="rgb(252,253,253)" stroke-width="1" opacity="0.21568627450980393" d="M 129.8 68.5 L 131 69.3 L 130.3 69.5 Q 129 69 129.8 68.5 Z " /><path fill="rgb(252,253,253)" stroke="rgb(252,253,253)" stroke-width="1" opacity="0.21568627450980393" d="M 77.8 69.5 L 78 69.8 L 76.8 71 L 76.5 70.8 L 77.8 69.5 Z " /><path fill="rgb(252,253,253)" stroke="rgb(252,253,253)" stroke-width="1" opacity="0.21568627450980393" d="M 132.8 70 L 133.5 71.3 L 133 71.3 L 132.8 70 Z " /><path fill="rgb(252,253,253)" stroke="rgb(252,253,253)" stroke-width="1" opacity="0.21568627450980393" d="M 91.3 70.5 Q 92 71 90.8 71.5 Q 90 71 91.3 70.5 Z " /><path fill="rgb(252,253,253)" stroke="rgb(252,253,253)" stroke-width="1" opacity="0.21568627450980393" d="M 134.3 71 Q 135.5 71.5 134.8 72 Q 133.5 71.5 134.3 71 Z " /><path fill="rgb(252,253,253)" stroke="rgb(252,253,253)" stroke-width="1" opacity="0.21568627450980393" d="M 89.8 71.5 Q 90.5 72 89.3 72.5 Q 88.5 72 89.8 71.5 Z " /><path fill="rgb(252,253,253)" stroke="rgb(252,253,253)" stroke-width="1" opacity="0.21568627450980393" d="M 135.8 72 L 136.5 73.3 L 136 73.3 L 135.8 72 Z " /><path fill="rgb(252,253,253)" stroke="rgb(252,253,253)" stroke-width="1" opacity="0.21568627450980393" d="M 75.3 72.5 L 75.5 72.8 L 73.3 75 L 72 74.8 Q 74.5 74.5 75.3 72.5 Z " /><path fill="rgb(252,253,253)" stroke="rgb(252,253,253)" stroke-width="1" opacity="0.21568627450980393" d="M 88.3 72.5 L 88.5 72.8 L 86.8 74.5 L 86.5 74.3 L 88.3 72.5 Z " /><path fill="rgb(252,253,253)" stroke="rgb(252,253,253)" stroke-width="1" opacity="0.21568627450980393" d="M 137.3 73 L 138.5 74.3 L 138.3 74.5 L 137 73.3 L 137.3 73 Z " /><path fill="rgb(252,253,253)" stroke="rgb(252,253,253)" stroke-width="1" opacity="0.21568627450980393" d="M 151.3 74 L 152.5 75.3 L 152.3 75.5 L 151 74.3 L 151.3 74 Z " /><path fill="rgb(252,253,253)" stroke="rgb(252,253,253)" stroke-width="1" opacity="0.21568627450980393" d="M 85.3 75 L 85.5 75.3 L 82.3 78.5 L 82 78.3 L 85.3 75 Z " /><path fill="rgb(252,253,253)" stroke="rgb(252,253,253)" stroke-width="1" opacity="0.21568627450980393" d="M 139.8 75 L 143.5 78.8 L 142.8 79.5 L 142.5 78 Q 141.2 78.6 141.5 77.3 L 139.5 75.3 L 139.8 75 Z " /><path fill="rgb(252,253,253)" stroke="rgb(252,253,253)" stroke-width="1" opacity="0.21568627450980393" d="M 72.8 75.5 L 73 75.8 L 71.5 77.3 L 70.3 79.5 L 70.5 78.8 L 71 77.3 L 70.8 76.5 L 71.3 77 L 72.8 75.5 Z " /><path fill="rgb(252,253,253)" stroke="rgb(252,253,253)" stroke-width="1" opacity="0.21568627450980393" d="M 152.8 76 Q 154 76.5 153.3 77 Q 152 76.5 152.8 76 Z " /><path fill="rgb(252,253,253)" stroke="rgb(252,253,253)" stroke-width="1" opacity="0.21568627450980393" d="M 153.8 77.5 Q 155 78 154.3 78.5 Q 153 78 153.8 77.5 Z " /><path fill="rgb(252,253,253)" stroke="rgb(252,253,253)" stroke-width="1" opacity="0.21568627450980393" d="M 81.8 79 L 81.3 80.5 L 82 80.8 L 81.3 81 L 80.8 80.5 L 80 80.8 L 81.8 79 Z " /><path fill="rgb(252,253,253)" stroke="rgb(252,253,253)" stroke-width="1" opacity="0.21568627450980393" d="M 154.8 79 L 156 80.8 L 155.5 80.8 L 154.5 79.3 L 154.8 79 Z " /><path fill="rgb(252,253,253)" stroke="rgb(252,253,253)" stroke-width="1" opacity="0.21568627450980393" d="M 143.8 79.5 L 145 80.8 L 144.8 81 L 143.5 79.8 L 143.8 79.5 Z " /><path fill="rgb(252,253,253)" stroke="rgb(252,253,253)" stroke-width="1" opacity="0.21568627450980393" d="M 69.3 81 L 69 81.8 L 67.3 85.5 L 67 84.8 L 68.5 82.3 L 68.3 81.5 L 69.3 81 Z " /><path fill="rgb(252,253,253)" stroke="rgb(252,253,253)" stroke-width="1" opacity="0.21568627450980393" d="M 79.8 81.5 Q 80.5 82 79.3 82.5 Q 78.5 82 79.8 81.5 Z " /><path fill="rgb(252,253,253)" stroke="rgb(252,253,253)" stroke-width="1" opacity="0.21568627450980393" d="M 145.3 81.5 L 147 83.8 Q 146.5 84.5 146 83.3 L 145 81.8 L 145.3 81.5 Z " /><path fill="rgb(252,253,253)" stroke="rgb(252,253,253)" stroke-width="1" opacity="0.21568627450980393" d="M 78.8 83 Q 79.5 83.5 78.3 84 Q 77.5 83.5 78.8 83 Z " /><path fill="rgb(252,253,253)" stroke="rgb(252,253,253)" stroke-width="1" opacity="0.21568627450980393" d="M 77.8 84.5 L 77.5 85.3 L 75.8 89 L 75.5 88.3 L 77.8 84.5 Z " /><path fill="rgb(252,253,253)" stroke="rgb(252,253,253)" stroke-width="1" opacity="0.21568627450980393" d="M 147.3 84.5 Q 148.8 85.3 147.3 86 L 147.3 84.5 Z " /><path fill="rgb(252,253,253)" stroke="rgb(252,253,253)" stroke-width="1" opacity="0.21568627450980393" d="M 66.8 86 L 66.5 86.8 L 66.3 88 L 66 86.8 L 66.8 86 Z " /><path fill="rgb(252,253,253)" stroke="rgb(252,253,253)" stroke-width="1" opacity="0.21568627450980393" d="M 65.8 88.5 L 66 89.3 L 65.3 91 L 65 89.8 L 65.8 88.5 Z " /><path fill="rgb(252,253,253)" stroke="rgb(252,253,253)" stroke-width="1" opacity="0.21568627450980393" d="M 74.8 90.5 Q 76 91 75.3 91.5 Q 73.9 91.8 74.8 90.5 Z " /><path fill="rgb(252,253,253)" stroke="rgb(252,253,253)" stroke-width="1" opacity="0.21568627450980393" d="M 64.8 91.5 L 65 92.8 L 64.5 92.8 L 64.8 91.5 Z " /><path fill="rgb(252,253,253)" stroke="rgb(252,253,253)" stroke-width="1" opacity="0.21568627450980393" d="M 74.3 92 L 74.5 93.3 L 73.8 95 L 73.5 93.8 L 74.3 92 Z " /><path fill="rgb(252,253,253)" stroke="rgb(252,253,253)" stroke-width="1" opacity="0.21568627450980393" d="M 151.3 93 L 151.5 94.5 L 150.5 94.3 L 151.3 93 Z " /><path fill="rgb(252,253,253)" stroke="rgb(252,253,253)" stroke-width="1" opacity="0.21568627450980393" d="M 64.3 93.5 L 64.5 94.8 L 64 94.8 L 64.3 93.5 Z " /><path fill="rgb(252,253,253)" stroke="rgb(252,253,253)" stroke-width="1" opacity="0.21568627450980393" d="M 151 95 Q 152.5 94.5 152 96 Q 150.5 96.5 151 95 Z " /><path fill="rgb(252,253,253)" stroke="rgb(252,253,253)" stroke-width="1" opacity="0.21568627450980393" d="M 73.3 95.5 L 74 97 Q 72.2 97.6 73.3 95.5 Z " /><path fill="rgb(252,253,253)" stroke="rgb(252,253,253)" stroke-width="1" opacity="0.21568627450980393" d="M 161.3 95.5 L 161.5 97.3 L 161 97.3 L 161.3 95.5 Z " /><path fill="rgb(252,253,253)" stroke="rgb(252,253,253)" stroke-width="1" opacity="0.21568627450980393" d="M 63.8 96 L 64 97.8 L 63.5 97.8 L 63.8 96 Z " /><path fill="rgb(252,253,253)" stroke="rgb(252,253,253)" stroke-width="1" opacity="0.21568627450980393" d="M 152.3 97 L 152.5 98.3 L 152 98.3 L 152.3 97 Z " /><path fill="rgb(252,253,253)" stroke="rgb(252,253,253)" stroke-width="1" opacity="0.21568627450980393" d="M 73.3 97.5 L 73 98.3 L 73.5 100 Q 71.8 100.7 72.5 98.3 L 73.3 97.5 Z " /><path fill="rgb(252,253,253)" stroke="rgb(252,253,253)" stroke-width="1" opacity="0.21568627450980393" d="M 161.8 98.5 L 162 101.3 L 161.5 101.3 L 161.8 98.5 Z " /><path fill="rgb(252,253,253)" stroke="rgb(252,253,253)" stroke-width="1" opacity="0.21568627450980393" d="M 63.3 99 L 63.5 104.3 L 63 104.3 L 62.5 103.3 Q 63.5 102.8 62.5 102.3 L 63 101.3 Q 62 100.8 63 100.3 L 63.3 99 Z " /><path fill="rgb(252,253,253)" stroke="rgb(252,253,253)" stroke-width="1" opacity="0.21568627450980393" d="M 152.8 99.5 L 153 102.3 L 152.5 102.3 L 152.8 99.5 Z " /><path fill="rgb(252,253,253)" stroke="rgb(252,253,253)" stroke-width="1" opacity="0.21568627450980393" d="M 72.3 101.5 L 72.5 105.8 L 73 106.8 L 72.5 108.3 L 72.8 109 L 72 108.8 L 72.3 101.5 Z " /><path fill="rgb(252,253,253)" stroke="rgb(252,253,253)" stroke-width="1" opacity="0.21568627450980393" d="M 152.8 104 L 153 105.3 L 152.5 105.3 L 152.8 104 Z " /><path fill="rgb(252,253,253)" stroke="rgb(252,253,253)" stroke-width="1" opacity="0.21568627450980393" d="M 63.3 106 L 63.5 111.3 L 63 111.3 L 63.3 106 Z " /><path fill="rgb(252,253,253)" stroke="rgb(252,253,253)" stroke-width="1" opacity="0.21568627450980393" d="M 152.8 107.5 L 153 110.3 L 152.5 110.3 L 152.8 107.5 Z " /><path fill="rgb(252,253,253)" stroke="rgb(252,253,253)" stroke-width="1" opacity="0.21568627450980393" d="M 161.8 109 L 162 111.8 L 161.5 111.8 L 161.8 109 Z " /><path fill="rgb(252,253,253)" stroke="rgb(252,253,253)" stroke-width="1" opacity="0.21568627450980393" d="M 72.8 110.5 L 73.5 111.8 Q 73 113 72.5 112.3 L 72.8 110.5 Z " /><path fill="rgb(252,253,253)" stroke="rgb(252,253,253)" stroke-width="1" opacity="0.21568627450980393" d="M 152.3 112 L 152.5 113.3 L 152 113.3 L 152.3 112 Z " /><path fill="rgb(252,253,253)" stroke="rgb(252,253,253)" stroke-width="1" opacity="0.21568627450980393" d="M 63.8 112.5 L 64 114.3 L 63.5 114.3 L 63 113.3 L 63.8 112.5 Z " /><path fill="rgb(252,253,253)" stroke="rgb(252,253,253)" stroke-width="1" opacity="0.21568627450980393" d="M 73.3 113.5 L 73.5 114.8 L 73 114.8 L 73.3 113.5 Z " /><path fill="rgb(252,253,253)" stroke="rgb(252,253,253)" stroke-width="1" opacity="0.21568627450980393" d="M 161.3 113.5 L 161.5 114.8 L 161 114.8 L 161.3 113.5 Z " /><path fill="rgb(252,253,253)" stroke="rgb(252,253,253)" stroke-width="1" opacity="0.21568627450980393" d="M 151.8 114.5 L 152 115.8 L 151.5 115.8 L 151.8 114.5 Z " /><path fill="rgb(252,253,253)" stroke="rgb(252,253,253)" stroke-width="1" opacity="0.21568627450980393" d="M 64.3 115.5 L 64.5 116.8 L 64 116.8 L 64.3 115.5 Z " /><path fill="rgb(252,253,253)" stroke="rgb(252,253,253)" stroke-width="1" opacity="0.21568627450980393" d="M 150.8 116 L 151.5 117.3 Q 151 118 150.5 116.8 L 150.8 116 Z " /><path fill="rgb(252,253,253)" stroke="rgb(252,253,253)" stroke-width="1" opacity="0.21568627450980393" d="M 160.8 116 Q 161.7 116.3 161.5 117.8 Q 161 118.5 160.5 117.3 L 160.8 116 Z " /><path fill="rgb(252,253,253)" stroke="rgb(252,253,253)" stroke-width="1" opacity="0.21568627450980393" d="M 160.3 118 L 160.5 119.3 L 160 119.3 L 160.3 118 Z " /><path fill="rgb(252,253,253)" stroke="rgb(252,253,253)" stroke-width="1" opacity="0.21568627450980393" d="M 74.5 119 L 75.5 119.3 Q 75 120.5 74.5 119.8 L 74.5 119 Z " /><path fill="rgb(252,253,253)" stroke="rgb(252,253,253)" stroke-width="1" opacity="0.21568627450980393" d="M 64.8 119.5 Q 65.9 119.1 65.5 120.3 L 65.3 120.5 Q 64 120 64.8 119.5 Z " /><path fill="rgb(252,253,253)" stroke="rgb(252,253,253)" stroke-width="1" opacity="0.21568627450980393" d="M 150.3 119.5 L 150.5 120.3 L 149.3 122.5 L 149 121.8 L 150.3 119.5 Z " /><path fill="rgb(252,253,253)" stroke="rgb(252,253,253)" stroke-width="1" opacity="0.21568627450980393" d="M 75.8 120 L 75.5 120.8 L 76 121.3 Q 75.4 122.9 76.8 122.5 L 76.5 123.3 L 77 123.8 L 77.5 124.8 Q 77 125.5 76.5 124.3 L 75 120.8 L 75.8 120 Z " /><path fill="rgb(252,253,253)" stroke="rgb(252,253,253)" stroke-width="1" opacity="0.21568627450980393" d="M 159 121.5 L 160 121.8 Q 159.5 123 159 122.3 L 159 121.5 Z " /><path fill="rgb(252,253,253)" stroke="rgb(252,253,253)" stroke-width="1" opacity="0.21568627450980393" d="M 148.3 124 Q 149 124.5 147.8 125 Q 147 124.5 148.3 124 Z " /><path fill="rgb(252,253,253)" stroke="rgb(252,253,253)" stroke-width="1" opacity="0.21568627450980393" d="M 67.3 125 L 69.5 129.3 Q 69 130 68.5 128.8 L 67 125.8 L 67.3 125 Z " /><path fill="rgb(252,253,253)" stroke="rgb(252,253,253)" stroke-width="1" opacity="0.21568627450980393" d="M 78.3 126.5 L 79.5 127.3 L 78.8 127.5 Q 77.5 127 78.3 126.5 Z " /><path fill="rgb(252,253,253)" stroke="rgb(252,253,253)" stroke-width="1" opacity="0.21568627450980393" d="M 146.8 126.5 Q 147.5 127 146.3 127.5 Q 145.5 127 146.8 126.5 Z " /><path fill="rgb(252,253,253)" stroke="rgb(252,253,253)" stroke-width="1" opacity="0.21568627450980393" d="M 79.3 128 Q 80.5 128.5 79.8 129 Q 78.5 128.5 79.3 128 Z " /><path fill="rgb(252,253,253)" stroke="rgb(252,253,253)" stroke-width="1" opacity="0.21568627450980393" d="M 145.8 128 L 146 128.3 L 144.8 129.5 L 144.5 129.3 L 145.8 128 Z " /><path fill="rgb(252,253,253)" stroke="rgb(252,253,253)" stroke-width="1" opacity="0.21568627450980393" d="M 156.3 128.5 L 156 129.3 L 155.3 130.5 L 155.5 129.8 L 156.3 128.5 Z " /><path fill="rgb(252,253,253)" stroke="rgb(252,253,253)" stroke-width="1" opacity="0.21568627450980393" d="M 80.3 129.5 L 82 131.3 L 81.8 131.5 L 80 129.8 L 80.3 129.5 Z " /><path fill="rgb(252,253,253)" stroke="rgb(252,253,253)" stroke-width="1" opacity="0.21568627450980393" d="M 69.8 130 L 72.5 133.8 L 72.3 134 L 71 132.8 L 69.5 130.3 L 69.8 130 Z " /><path fill="rgb(252,253,253)" stroke="rgb(252,253,253)" stroke-width="1" opacity="0.21568627450980393" d="M 144.3 130 L 144.5 130.3 L 142.3 132.5 L 142 132.3 L 144.3 130 Z " /><path fill="rgb(252,253,253)" stroke="rgb(252,253,253)" stroke-width="1" opacity="0.21568627450980393" d="M 154.8 131 Q 155.5 131.5 154.3 132 Q 153.5 131.5 154.8 131 Z " /><path fill="rgb(252,253,253)" stroke="rgb(252,253,253)" stroke-width="1" opacity="0.21568627450980393" d="M 83.3 132 L 83 132.8 L 84.5 134.3 L 84.3 134.5 L 82.5 132.8 L 83.3 132 Z " /><path fill="rgb(252,253,253)" stroke="rgb(252,253,253)" stroke-width="1" opacity="0.21568627450980393" d="M 153.8 132.5 Q 154.5 133 153.3 133.5 Q 152.5 133 153.8 132.5 Z " /><path fill="rgb(252,253,253)" stroke="rgb(252,253,253)" stroke-width="1" opacity="0.21568627450980393" d="M 152.8 134 L 153 135 L 151.8 135.5 L 151.5 135.3 L 152.8 134 Z " /><path fill="rgb(252,253,253)" stroke="rgb(252,253,253)" stroke-width="1" opacity="0.21568627450980393" d="M 72.8 134.5 L 74.5 136.3 L 74.3 136.5 L 72.5 134.8 L 72.8 134.5 Z " /><path fill="rgb(252,253,253)" stroke="rgb(252,253,253)" stroke-width="1" opacity="0.21568627450980393" d="M 139.3 134.5 L 139.5 135.3 L 137.3 137.5 L 137 137.3 L 139.3 134.5 Z " /><path fill="rgb(252,253,253)" stroke="rgb(252,253,253)" stroke-width="1" opacity="0.21568627450980393" d="M 86.3 135.5 L 88 137.3 L 87.8 137.5 L 86 135.8 L 86.3 135.5 Z " /><path fill="rgb(252,253,253)" stroke="rgb(252,253,253)" stroke-width="1" opacity="0.21568627450980393" d="M 74.8 137 L 81 143.3 L 80.8 143.5 L 74.5 137.3 L 74.8 137 Z " /><path fill="rgb(252,253,253)" stroke="rgb(252,253,253)" stroke-width="1" opacity="0.21568627450980393" d="M 150.3 137 L 150 137.8 L 151.3 139 Q 152.4 138.6 152 139.8 L 162 149.8 L 161.8 150 L 149.5 137.8 L 150.3 137 Z " /><path fill="rgb(252,253,253)" stroke="rgb(252,253,253)" stroke-width="1" opacity="0.21568627450980393" d="M 88.8 137.5 Q 90 138 89.3 138.5 Q 88 138 88.8 137.5 Z " /><path fill="rgb(252,253,253)" stroke="rgb(252,253,253)" stroke-width="1" opacity="0.21568627450980393" d="M 136.3 137.5 L 136.5 137.8 L 135.3 139 L 135 138 L 136.3 137.5 Z " /><path fill="rgb(252,253,253)" stroke="rgb(252,253,253)" stroke-width="1" opacity="0.21568627450980393" d="M 90.3 138.5 Q 91.4 138.1 91 139.3 L 90.8 139.5 Q 89.5 139 90.3 138.5 Z " /><path fill="rgb(252,253,253)" stroke="rgb(252,253,253)" stroke-width="1" opacity="0.21568627450980393" d="M 134.3 139 Q 135 139.5 133.8 140 L 131.8 141 Q 131 140.5 132.3 140 L 134.3 139 Z " /><path fill="rgb(252,253,253)" stroke="rgb(252,253,253)" stroke-width="1" opacity="0.21568627450980393" d="M 91.8 139.5 Q 92.2 140.4 93.5 140 L 93.3 141 L 91.5 139.8 L 91.8 139.5 Z " /><path fill="rgb(252,253,253)" stroke="rgb(252,253,253)" stroke-width="1" opacity="0.21568627450980393" d="M 96.3 142 L 98 142.8 L 97.3 143 L 96 142.3 L 96.3 142 Z " /><path fill="rgb(252,253,253)" stroke="rgb(252,253,253)" stroke-width="1" opacity="0.21568627450980393" d="M 98.8 142.5 Q 100 143 99.3 143.5 Q 97.9 143.8 98.8 142.5 Z " /><path fill="rgb(252,253,253)" stroke="rgb(252,253,253)" stroke-width="1" opacity="0.21568627450980393" d="M 126.8 142.5 L 128 142.8 L 126.3 143.5 Q 125.5 143 126.8 142.5 Z " /><path fill="rgb(252,253,253)" stroke="rgb(252,253,253)" stroke-width="1" opacity="0.21568627450980393" d="M 81.8 143.5 L 83.5 145.3 L 83.3 145.5 L 82 145.3 L 82.5 144.8 L 81.5 143.8 L 81.8 143.5 Z " /><path fill="rgb(252,253,253)" stroke="rgb(252,253,253)" stroke-width="1" opacity="0.21568627450980393" d="M 103.8 144 L 105 144.8 L 103.5 145 L 103.8 144 Z " /><path fill="rgb(252,253,253)" stroke="rgb(252,253,253)" stroke-width="1" opacity="0.21568627450980393" d="M 120.8 144 Q 122 144.5 121.3 145 L 120 144.8 L 120.8 144 Z " /><path fill="rgb(252,253,253)" stroke="rgb(252,253,253)" stroke-width="1" opacity="0.21568627450980393" d="M 122.3 144 L 123.5 144.3 L 122.3 144.5 L 122.3 144 Z " /><path fill="rgb(252,253,253)" stroke="rgb(252,253,253)" stroke-width="1" opacity="0.21568627450980393" d="M 143.3 144 L 187 187.8 L 186.8 188 L 182.3 183.5 L 181.5 183.8 L 182 183.3 L 180.8 182 L 180 182.3 L 180.5 181.8 L 165.8 167 Q 164.6 167.4 165 166.3 L 149.8 151 L 149.5 151.3 L 149.3 152 L 149 151.3 L 149.5 150.8 L 143.8 145 Q 142.4 145.3 143.3 144 Z " /><path fill="rgb(252,253,253)" stroke="rgb(252,253,253)" stroke-width="1" opacity="0.21568627450980393" d="M 142.3 144.5 L 142.5 144.8 L 141.3 146 L 141 145.8 L 142.3 144.5 Z " /><path fill="rgb(252,253,253)" stroke="rgb(252,253,253)" stroke-width="1" opacity="0.21568627450980393" d="M 106.3 145 L 108 145.3 L 106.3 145.5 L 106.3 145 Z " /><path fill="rgb(252,253,253)" stroke="rgb(252,253,253)" stroke-width="1" opacity="0.21568627450980393" d="M 111.3 145 L 111.8 145.5 L 115.5 145.8 L 110.3 146 L 110.3 145.5 L 111.3 145 Z " /><path fill="rgb(252,253,253)" stroke="rgb(252,253,253)" stroke-width="1" opacity="0.21568627450980393" d="M 117.8 145 L 119.5 145.3 L 117.8 145.5 L 117.8 145 Z " /><path fill="rgb(252,253,253)" stroke="rgb(252,253,253)" stroke-width="1" opacity="0.21568627450980393" d="M 84.3 145.5 Q 85.5 146 84.8 146.5 Q 83.5 146 84.3 145.5 Z " /><path fill="rgb(252,253,253)" stroke="rgb(252,253,253)" stroke-width="1" opacity="0.21568627450980393" d="M 140.3 146 L 140.5 146.3 L 139.3 147.5 L 139 147.3 L 140.3 146 Z " /><path fill="rgb(252,253,253)" stroke="rgb(252,253,253)" stroke-width="1" opacity="0.21568627450980393" d="M 85.8 146.5 Q 87 147 86.3 147.5 Q 85 147 85.8 146.5 Z " /><path fill="rgb(252,253,253)" stroke="rgb(252,253,253)" stroke-width="1" opacity="0.21568627450980393" d="M 88.3 148 Q 89.5 148.5 88.8 149 Q 87.5 148.5 88.3 148 Z " /><path fill="rgb(252,253,253)" stroke="rgb(252,253,253)" stroke-width="1" opacity="0.21568627450980393" d="M 137.3 148 Q 138 148.5 136.8 149 Q 136 148.5 137.3 148 Z " /><path fill="rgb(252,253,253)" stroke="rgb(252,253,253)" stroke-width="1" opacity="0.21568627450980393" d="M 133.8 150 Q 134.5 150.5 133.3 151 L 132.5 150.8 L 133.8 150 Z " /><path fill="rgb(252,253,253)" stroke="rgb(252,253,253)" stroke-width="1" opacity="0.21568627450980393" d="M 97.8 152.5 Q 99.4 151.9 99 153.3 L 98.3 153 Q 97.1 152.9 97.8 152.5 Z " /><path fill="rgb(252,253,253)" stroke="rgb(252,253,253)" stroke-width="1" opacity="0.21568627450980393" d="M 125.3 153 L 126.5 153.3 L 125.3 153.5 L 125.3 153 Z " /><path fill="rgb(252,253,253)" stroke="rgb(252,253,253)" stroke-width="1" opacity="0.21568627450980393" d="M 101.8 153.5 L 103 153.8 L 101.8 154 L 101.8 153.5 Z " /><path fill="rgb(252,253,253)" stroke="rgb(252,253,253)" stroke-width="1" opacity="0.21568627450980393" d="M 122.8 153.5 L 124 153.8 L 122.8 154 L 122.8 153.5 Z " /><path fill="rgb(252,253,253)" stroke="rgb(252,253,253)" stroke-width="1" opacity="0.21568627450980393" d="M 104.3 154 L 106 154.3 L 104.3 154.5 L 104.3 154 Z " /><path fill="rgb(252,253,253)" stroke="rgb(252,253,253)" stroke-width="1" opacity="0.21568627450980393" d="M 120.3 154 Q 122.4 153.3 122 154.8 L 121.3 154.5 Q 119.8 154.8 120.3 154 Z " /><path fill="rgb(252,253,253)" stroke="rgb(252,253,253)" stroke-width="1" opacity="0.21568627450980393" d="M 107.8 154.5 L 119 154.8 L 117.3 155.5 L 116.8 155 L 113.8 155 Q 113.3 156 112.8 155 Q 110 154.5 108.8 155.5 L 107.8 155 L 107 155.3 L 107.8 154.5 Z " /><path fill="rgb(252,253,253)" stroke="rgb(252,253,253)" stroke-width="1" opacity="0.21568627450980393" d="M 168.8 156 L 171.5 158.8 L 171.3 159 L 168.5 156.3 L 168.8 156 Z " /><path fill="rgb(252,253,253)" stroke="rgb(252,253,253)" stroke-width="1" opacity="0.21568627450980393" d="M 173.3 160.5 L 194 181.3 L 193.8 181.5 L 173 160.8 L 173.3 160.5 Z " /><path fill="rgb(252,253,253)" stroke="rgb(252,253,253)" stroke-width="1" opacity="0.21568627450980393" d="M 194.8 183 Q 196.1 183.6 195 184.3 L 194.8 185.5 L 194.8 183 Z " /><path fill="rgb(252,253,253)" stroke="rgb(252,253,253)" stroke-width="1" opacity="0.21568627450980393" d="M 193.8 187 Q 194.5 187.5 193.3 188 Q 192.5 187.5 193.8 187 Z " /><path fill="rgb(252,253,253)" stroke="rgb(252,253,253)" stroke-width="1" opacity="0.21568627450980393" d="M 187.8 188 L 188.3 189 L 189.5 188.5 L 189.3 189.5 Q 188.8 188.5 188.3 189.5 L 187.5 188.8 L 187.8 188 Z " /><path fill="rgb(252,253,253)" stroke="rgb(252,253,253)" stroke-width="1" opacity="0.21568627450980393" d="M 192.3 188 Q 193 188.5 191.8 189 L 191 188.8 L 192.3 188 Z " /><path fill="rgb(254,254,254)" stroke="rgb(254,254,254)" stroke-width="1" opacity="0.8509803921568627" d="M 110.3 56 L 115 56.3 L 110.3 56.5 L 110.3 56 Z " /><path fill="rgb(254,254,254)" stroke="rgb(254,254,254)" stroke-width="1" opacity="0.8509803921568627" d="M 104.8 56.5 L 106 56.8 L 104.8 57 L 104.8 56.5 Z " /><path fill="rgb(254,254,254)" stroke="rgb(254,254,254)" stroke-width="1" opacity="0.8509803921568627" d="M 84.3 64.5 Q 85 65 83.8 65.5 Q 83 65 84.3 64.5 Z " /><path fill="rgb(254,254,254)" stroke="rgb(254,254,254)" stroke-width="1" opacity="0.8509803921568627" d="M 140.8 64.5 Q 142 65 141.3 65.5 Q 140 65 140.8 64.5 Z " /><path fill="rgb(254,254,254)" stroke="rgb(254,254,254)" stroke-width="1" opacity="0.8509803921568627" d="M 82.3 66 Q 83 66.5 81.8 67 Q 81 66.5 82.3 66 Z " /><path fill="rgb(254,254,254)" stroke="rgb(254,254,254)" stroke-width="1" opacity="0.8509803921568627" d="M 142.8 66 Q 144 66.5 143.3 67 Q 142 66.5 142.8 66 Z " /><path fill="rgb(254,254,254)" stroke="rgb(254,254,254)" stroke-width="1" opacity="0.8509803921568627" d="M 79.8 68 L 80 68.3 L 75.8 72.5 L 75.5 72.3 L 79.8 68 Z " /><path fill="rgb(254,254,254)" stroke="rgb(254,254,254)" stroke-width="1" opacity="0.8509803921568627" d="M 145.3 68 L 151 73.8 L 150.8 74 L 145 68.3 L 145.3 68 Z " /><path fill="rgb(254,254,254)" stroke="rgb(254,254,254)" stroke-width="1" opacity="0.8509803921568627" d="M 134.8 71 Q 136 71.5 135.3 72 Q 134 71.5 134.8 71 Z " /><path fill="rgb(254,254,254)" stroke="rgb(254,254,254)" stroke-width="1" opacity="0.8509803921568627" d="M 136.3 72 Q 137.5 72.5 136.8 73 Q 135.5 72.5 136.3 72 Z " /><path fill="rgb(254,254,254)" stroke="rgb(254,254,254)" stroke-width="1" opacity="0.8509803921568627" d="M 86.8 73.5 L 87 73.8 L 85.8 75 L 85.5 74.8 L 86.8 73.5 Z " /><path fill="rgb(254,254,254)" stroke="rgb(254,254,254)" stroke-width="1" opacity="0.8509803921568627" d="M 138.3 73.5 L 139.5 74.8 L 139.3 75 L 138 73.8 L 138.3 73.5 Z " /><path fill="rgb(254,254,254)" stroke="rgb(254,254,254)" stroke-width="1" opacity="0.8509803921568627" d="M 73.8 74.5 Q 74.5 75 73.3 75.5 Q 72.5 75 73.8 74.5 Z " /><path fill="rgb(254,254,254)" stroke="rgb(254,254,254)" stroke-width="1" opacity="0.8509803921568627" d="M 151.8 75 Q 153 75.5 152.3 76 Q 151 75.5 151.8 75 Z " /><path fill="rgb(254,254,254)" stroke="rgb(254,254,254)" stroke-width="1" opacity="0.8509803921568627" d="M 72.3 76.5 Q 73 77 71.8 77.5 Q 71 77 72.3 76.5 Z " /><path fill="rgb(254,254,254)" stroke="rgb(254,254,254)" stroke-width="1" opacity="0.8509803921568627" d="M 81.8 78.5 L 82 78.8 L 80.8 80 L 80.5 79.8 L 81.8 78.5 Z " /><path fill="rgb(254,254,254)" stroke="rgb(254,254,254)" stroke-width="1" opacity="0.8509803921568627" d="M 143.8 79 Q 145 79.5 144.3 80 Q 143 79.5 143.8 79 Z " /><path fill="rgb(254,254,254)" stroke="rgb(254,254,254)" stroke-width="1" opacity="0.8509803921568627" d="M 79.8 81 Q 80.5 81.5 79.3 82 Q 78.5 81.5 79.8 81 Z " /><path fill="rgb(254,254,254)" stroke="rgb(254,254,254)" stroke-width="1" opacity="0.8509803921568627" d="M 145.3 81 Q 146.5 81.5 145.8 82 Q 144.5 81.5 145.3 81 Z " /><path fill="rgb(254,254,254)" stroke="rgb(254,254,254)" stroke-width="1" opacity="0.8509803921568627" d="M 78.8 82.5 Q 79.5 83 78.3 83.5 Q 77.5 83 78.8 82.5 Z " /><path fill="rgb(254,254,254)" stroke="rgb(254,254,254)" stroke-width="1" opacity="0.8509803921568627" d="M 161.8 101.5 L 162 108.8 L 161.5 108.8 L 161.8 101.5 Z " /><path fill="rgb(254,254,254)" stroke="rgb(254,254,254)" stroke-width="1" opacity="0.8509803921568627" d="M 153.3 103.5 L 153.5 106.8 L 153 106.8 L 153.3 103.5 Z " /><path fill="rgb(254,254,254)" stroke="rgb(254,254,254)" stroke-width="1" opacity="0.8509803921568627" d="M 63.3 104.5 L 63.5 105.8 L 63 105.8 L 63.3 104.5 Z " /><path fill="rgb(254,254,254)" stroke="rgb(254,254,254)" stroke-width="1" opacity="0.8509803921568627" d="M 152.8 110.5 L 153 111.8 L 152.5 111.8 L 152.8 110.5 Z " /><path fill="rgb(254,254,254)" stroke="rgb(254,254,254)" stroke-width="1" opacity="0.8509803921568627" d="M 148.3 124.5 Q 149 125 147.8 125.5 Q 147 125 148.3 124.5 Z " /><path fill="rgb(254,254,254)" stroke="rgb(254,254,254)" stroke-width="1" opacity="0.8509803921568627" d="M 145.3 129 Q 146 129.5 144.8 130 Q 144 129.5 145.3 129 Z " /><path fill="rgb(254,254,254)" stroke="rgb(254,254,254)" stroke-width="1" opacity="0.8509803921568627" d="M 81.3 131 L 82.5 132.3 L 82.3 132.5 L 81 131.3 L 81.3 131 Z " /><path fill="rgb(254,254,254)" stroke="rgb(254,254,254)" stroke-width="1" opacity="0.8509803921568627" d="M 143.8 131 L 144 131.3 L 138.3 137 L 138 136.8 L 143.8 131 Z " /><path fill="rgb(254,254,254)" stroke="rgb(254,254,254)" stroke-width="1" opacity="0.8509803921568627" d="M 152.8 133.5 Q 153.5 134 152.3 134.5 Q 151.5 134 152.8 133.5 Z " /><path fill="rgb(254,254,254)" stroke="rgb(254,254,254)" stroke-width="1" opacity="0.8509803921568627" d="M 72.8 134 Q 74 134.5 73.3 135 Q 72 134.5 72.8 134 Z " /><path fill="rgb(254,254,254)" stroke="rgb(254,254,254)" stroke-width="1" opacity="0.8509803921568627" d="M 84.8 134.5 L 86.5 136.3 L 86.3 136.5 L 84.5 134.8 L 84.8 134.5 Z " /><path fill="rgb(254,254,254)" stroke="rgb(254,254,254)" stroke-width="1" opacity="0.8509803921568627" d="M 151.3 135.5 L 151.5 135.8 L 149.8 137.5 L 149.5 137.3 L 151.3 135.5 Z " /><path fill="rgb(254,254,254)" stroke="rgb(254,254,254)" stroke-width="1" opacity="0.8509803921568627" d="M 74.8 136.5 L 76 137.8 L 75.8 138 L 74.5 136.8 L 74.8 136.5 Z " /><path fill="rgb(254,254,254)" stroke="rgb(254,254,254)" stroke-width="1" opacity="0.8509803921568627" d="M 136.8 137.5 Q 137.5 138 136.3 138.5 Q 135.5 138 136.8 137.5 Z " /><path fill="rgb(254,254,254)" stroke="rgb(254,254,254)" stroke-width="1" opacity="0.8509803921568627" d="M 89.8 138.5 Q 91 139 90.3 139.5 Q 89 139 89.8 138.5 Z " /><path fill="rgb(254,254,254)" stroke="rgb(254,254,254)" stroke-width="1" opacity="0.8509803921568627" d="M 80.3 142 L 81.5 143.3 L 81.3 143.5 L 80 142.3 L 80.3 142 Z " /><path fill="rgb(254,254,254)" stroke="rgb(254,254,254)" stroke-width="1" opacity="0.8509803921568627" d="M 143.8 144 L 168 168.3 L 167.8 168.5 L 143.5 144.3 L 143.8 144 Z " /><path fill="rgb(254,254,254)" stroke="rgb(254,254,254)" stroke-width="1" opacity="0.8509803921568627" d="M 83.3 144.5 Q 84.5 145 83.8 145.5 Q 82.5 145 83.3 144.5 Z " /><path fill="rgb(254,254,254)" stroke="rgb(254,254,254)" stroke-width="1" opacity="0.8509803921568627" d="M 108.3 145.5 L 110 145.8 L 108.3 146 L 108.3 145.5 Z " /><path fill="rgb(254,254,254)" stroke="rgb(254,254,254)" stroke-width="1" opacity="0.8509803921568627" d="M 115.8 145.5 L 117 145.8 L 115.8 146 L 115.8 145.5 Z " /><path fill="rgb(254,254,254)" stroke="rgb(254,254,254)" stroke-width="1" opacity="0.8509803921568627" d="M 139.3 146.5 Q 140 147 138.8 147.5 Q 138 147 139.3 146.5 Z " /><path fill="rgb(254,254,254)" stroke="rgb(254,254,254)" stroke-width="1" opacity="0.8509803921568627" d="M 162.3 150 L 194 181.8 L 193.8 182 L 162 150.3 L 162.3 150 Z " /><path fill="rgb(254,254,254)" stroke="rgb(254,254,254)" stroke-width="1" opacity="0.8509803921568627" d="M 118.8 154 L 120 154.3 L 118.8 154.5 L 118.8 154 Z " /><path fill="rgb(254,254,254)" stroke="rgb(254,254,254)" stroke-width="1" opacity="0.8509803921568627" d="M 169.8 170 L 187.5 187.8 L 187.3 188 L 169.5 170.3 L 169.8 170 Z " /><path fill="rgb(254,254,254)" stroke="rgb(254,254,254)" stroke-width="1" opacity="0.8509803921568627" d="M 193.8 186.5 L 194 186.8 L 192.8 188 L 192.5 187.8 L 193.8 186.5 Z " /><path fill="rgb(254,254,254)" stroke="rgb(254,254,254)" stroke-width="1" opacity="0.8509803921568627" d="M 189.8 188.5 L 191 188.8 L 189.8 189 L 189.8 188.5 Z " /></svg>