<svg width="256" height="256" version="1.1" xmlns="http://www.w3.org/2000/svg" desc="Created with imagetracer.js version 1.2.6" ><path fill="rgb(0,0,0)" stroke="rgb(0,0,0)" stroke-width="1" opacity="0" d="M 0 0 L 256 0 L 256 256 L 0 256 L 0 0 Z M 117 63 Q 117 65 115 65 L 115 66 L 113 69 L 113 70 L 114 70 L 113 71 L 113 72 L 113 73 L 113 75 L 112 76 L 112 78 Q 111 79 112 80 L 106 82 Q 106 83 105 82 L 103 84 L 101 83 L 100 81 L 99 81 L 94 78 L 93 76 L 93 77 L 89 77 Q 88 78 88 77 L 88 77 L 86 79 L 85 79 L 85 80 L 78 87 Q 77 87 77 88 L 75 90 L 74 90 L 72 94 Q 71 97 73 97 Q 72 99 73 99 L 73 99 Q 73 101 74 100 L 74 102 L 76 102 L 77 104 L 79 106 L 78 106 L 80 107 L 80 109 L 79 110 L 78 112 Q 76 113 78 114 L 77 115 Q 76 117 74 116 Q 73 117 73 116 L 72 117 Q 71 118 71 117 L 65 119 Q 63 119 63 122 Q 62 123 63 123 L 62 125 L 63 125 L 63 131 Q 62 131 63 132 L 62 133 L 63 134 L 63 141 L 64 143 L 63 144 L 64 144 L 67 146 Q 68 144 68 146 L 70 146 L 70 146 L 73 146 L 73 148 L 74 147 Q 75 146 75 147 L 75 147 L 78 148 L 79 150 L 79 152 L 80 154 L 77 158 Q 77 159 76 159 L 76 160 L 73 164 L 73 168 L 72 168 L 73 170 L 74 170 L 74 172 L 77 173 L 77 173 L 81 177 Q 80 178 81 178 L 82 179 L 83 180 Q 84 180 84 182 L 85 182 L 87 183 L 87 184 L 90 185 L 92 185 L 93 184 Q 95 185 95 183 Q 96 183 96 182 L 97 182 L 98 181 Q 100 181 99 180 Q 100 180 101 179 L 101 180 L 102 179 L 104 178 L 107 179 L 108 180 L 108 180 L 110 180 L 112 182 L 112 186 L 113 188 Q 114 188 113 189 L 115 195 L 115 195 L 116 196 Q 118 195 118 197 L 118 197 L 120 197 L 120 197 L 130 197 Q 131 198 131 197 L 136 197 L 137 197 L 138 197 L 140 196 Q 141 194 142 195 L 142 192 L 143 192 L 143 189 L 144 188 L 143 186 Q 145 185 144 185 L 144 181 Q 144 180 146 180 L 147 180 L 148 180 L 148 179 L 150 179 L 150 178 Q 151 178 152 178 L 153 178 Q 154 177 154 179 Q 155 179 154 180 L 155 180 L 155 179 L 158 181 L 158 182 L 160 182 L 160 184 L 160 184 L 161 183 L 164 186 L 165 185 Q 166 184 167 185 L 169 184 Q 170 184 170 183 Q 170 181 172 182 L 172 180 Q 174 180 173 179 Q 174 179 175 178 Q 175 176 176 177 L 176 176 L 177 176 L 177 175 Q 179 175 178 174 L 179 174 L 179 173 Q 181 173 180 172 L 181 172 L 181 171 L 183 169 L 184 167 L 184 165 Q 183 164 184 164 L 183 164 L 180 160 Q 181 158 179 159 Q 179 157 178 156 L 178 155 L 178 154 L 177 155 L 177 154 L 176 154 L 177 154 L 177 153 L 178 149 L 179 149 L 179 148 L 180 147 Q 181 148 182 147 L 184 147 L 184 146 L 190 145 L 191 145 Q 190 144 191 145 L 193 142 Q 195 141 194 141 L 194 139 L 194 138 L 194 137 Q 193 136 194 136 L 194 134 L 194 133 Q 193 132 194 132 L 194 129 L 194 128 L 194 126 L 194 125 L 194 124 L 194 121 Q 193 121 194 120 L 190 118 L 188 118 L 188 117 L 188 117 L 187 118 Q 186 116 184 117 Q 183 116 183 117 L 180 116 L 179 115 L 178 110 L 178 110 L 177 108 L 178 106 Q 178 105 180 105 L 180 104 L 184 98 L 184 94 L 183 92 L 177 86 L 177 85 L 176 85 L 175 84 L 176 83 L 174 83 L 170 78 L 170 78 L 167 77 L 166 77 Q 165 76 165 77 L 164 76 L 164 77 L 163 77 L 163 77 L 162 78 L 160 79 L 159 80 L 158 80 L 153 84 L 152 84 L 149 82 L 148 82 L 148 81 L 147 80 L 147 81 L 144 80 L 144 76 L 144 75 Q 145 74 143 73 L 144 72 L 143 70 Q 142 69 143 68 L 141 65 L 142 64 L 138 63 L 137 64 L 136 63 L 135 64 L 131 63 L 130 64 L 129 63 L 128 64 Q 127 63 127 64 L 125 63 L 124 64 L 122 63 L 122 64 Q 120 64 120 63 L 119 64 L 117 63 Z " /><path fill="rgb(0,0,0)" stroke="rgb(0,0,0)" stroke-width="1" opacity="0" d="M 123 101 Q 124.7 100.5 125.3 101.5 Q 125.7 100.6 127 101 L 127.3 102 L 127.5 101 Q 128.8 100.6 129.3 101.5 L 130.8 101 L 134.8 102 Q 135.3 101 135.8 102 L 138.5 102.8 L 138.3 103.5 L 139.8 104 L 140.8 103.5 L 142.5 104.8 L 142.8 105.5 Q 143.5 104.2 144.3 106 L 145 106 L 145 107 L 146.5 107 Q 145.9 108.3 147.3 108 L 148.5 108.8 Q 147.4 109.4 148.8 110 L 149.5 109.8 L 150.8 112 Q 151.9 111.6 151.5 112.8 L 153 115.3 L 152.8 116 Q 154.4 115.4 154 116.8 L 154.5 117.3 L 154.3 118 L 155 118.3 L 154 119.3 L 154.3 119.5 L 156 120.8 L 156.5 123.3 Q 155.5 123.8 156.5 124.3 Q 155.9 127.6 157.5 128.8 Q 156.5 129.3 157.5 129.8 Q 157.7 131.5 156.5 131.8 L 157 132.8 Q 156 133.3 157 133.8 L 156 136.8 Q 157 137.3 156 137.8 L 156 139.3 L 155.3 141 Q 154.6 139.9 154 141.3 L 155 141.8 L 154 142 L 154 144 L 153.3 144 L 153.5 144.8 L 152.8 145.5 L 152 145.8 L 152.3 146.5 L 151 147.3 Q 150.5 149.7 148.5 150.8 L 148.5 151.5 L 147.8 151.5 L 145.8 153.5 L 138.8 157.5 L 133.8 158.5 L 133.3 159 L 129.3 159 Q 128.9 159.9 127.3 159.5 L 126.8 159 L 122.8 159 L 121.3 158 L 120.3 158.5 L 116 157 L 115.8 156 Q 115.3 157 114.8 156 L 112.8 154.5 Q 112 155.7 111.3 154 L 109.5 152.8 L 109.5 152 L 108 152 L 108 150.5 L 107.3 150.5 Q 105.8 149.9 106 148.5 L 104.5 147.8 L 104 145 L 102.5 145 L 102.5 144.3 Q 101.6 143.9 102 142.3 L 100 139.3 L 100 137.3 L 99 134.8 L 100 132.8 L 99 130.8 L 99.3 130 Q 98.1 130.4 98.5 129.3 Q 99.9 128.9 99.5 126.8 Q 98.5 126.3 99.5 125.8 L 100 123.3 Q 99 122.8 100 122.3 L 101.3 118 L 102 118.3 L 101.5 117.3 L 104 114.3 L 103.5 113.8 L 105.5 111.8 L 106.8 110 L 108 109.8 L 107.5 109.3 L 108.8 108 L 109.5 108 Q 108.9 106.7 110.3 107 Q 110.8 105.6 112.5 106 L 113.3 104.5 L 115.3 104 L 116.3 103 L 117.3 104 L 117.5 103.8 L 118.3 102.5 L 121.3 101.5 L 121.8 102 L 122.3 101.5 L 123 101.8 L 123 101 Z " /><path fill="rgb(229,228,228)" stroke="rgb(229,228,228)" stroke-width="1" opacity="0.5607843137254902" d="M 117.3 63.5 L 138.5 63.8 L 117.3 64 L 117.3 63.5 Z " /><path fill="rgb(229,228,228)" stroke="rgb(229,228,228)" stroke-width="1" opacity="0.5607843137254902" d="M 116.3 64 L 116.5 64.3 L 114.5 66.3 L 114.3 67 L 114 66.3 L 116.3 64 Z " /><path fill="rgb(229,228,228)" stroke="rgb(229,228,228)" stroke-width="1" opacity="0.5607843137254902" d="M 140.3 64.5 L 141.5 65.8 L 141.3 66 L 140 64.8 L 140.3 64.5 Z " /><path fill="rgb(229,228,228)" stroke="rgb(229,228,228)" stroke-width="1" opacity="0.5607843137254902" d="M 113.8 67.5 L 114 68.8 L 113.5 68.8 L 113.8 67.5 Z " /><path fill="rgb(229,228,228)" stroke="rgb(229,228,228)" stroke-width="1" opacity="0.5607843137254902" d="M 142.3 68.5 L 142.5 69.8 L 142 69.8 L 142.3 68.5 Z " /><path fill="rgb(229,228,228)" stroke="rgb(229,228,228)" stroke-width="1" opacity="0.5607843137254902" d="M 113.3 71 L 113.5 72.3 L 113 72.3 L 113.3 71 Z " /><path fill="rgb(229,228,228)" stroke="rgb(229,228,228)" stroke-width="1" opacity="0.5607843137254902" d="M 142.8 71.5 L 143 72.8 L 142.5 72.8 L 142.8 71.5 Z " /><path fill="rgb(229,228,228)" stroke="rgb(229,228,228)" stroke-width="1" opacity="0.5607843137254902" d="M 112.8 73.5 L 113 74.8 L 112.5 74.8 L 112.8 73.5 Z " /><path fill="rgb(229,228,228)" stroke="rgb(229,228,228)" stroke-width="1" opacity="0.5607843137254902" d="M 143.3 75 L 143.5 76.3 L 143 76.3 L 143.3 75 Z " /><path fill="rgb(229,228,228)" stroke="rgb(229,228,228)" stroke-width="1" opacity="0.5607843137254902" d="M 89.3 76.5 L 92 76.8 L 89.3 77 L 89.3 76.5 Z " /><path fill="rgb(229,228,228)" stroke="rgb(229,228,228)" stroke-width="1" opacity="0.5607843137254902" d="M 112.3 76.5 L 112.5 77.8 L 112 77.8 L 112.3 76.5 Z " /><path fill="rgb(229,228,228)" stroke="rgb(229,228,228)" stroke-width="1" opacity="0.5607843137254902" d="M 164.3 76.5 L 167 76.8 L 164.3 77 L 164.3 76.5 Z " /><path fill="rgb(229,228,228)" stroke="rgb(229,228,228)" stroke-width="1" opacity="0.5607843137254902" d="M 88.3 77 Q 89 77.5 87.8 78 L 75.8 89.5 L 75.5 89.3 L 87.3 77.5 L 88.3 77 Z " /><path fill="rgb(229,228,228)" stroke="rgb(229,228,228)" stroke-width="1" opacity="0.5607843137254902" d="M 143.8 77.5 L 144 79.3 L 143.5 79.3 L 143.8 77.5 Z " /><path fill="rgb(229,228,228)" stroke="rgb(229,228,228)" stroke-width="1" opacity="0.5607843137254902" d="M 162.3 77.5 Q 163 78 161.8 78.5 Q 161 78 162.3 77.5 Z " /><path fill="rgb(229,228,228)" stroke="rgb(229,228,228)" stroke-width="1" opacity="0.5607843137254902" d="M 169.3 78 L 178 86.8 L 177.8 87 L 169 78.3 L 169.3 78 Z " /><path fill="rgb(229,228,228)" stroke="rgb(229,228,228)" stroke-width="1" opacity="0.5607843137254902" d="M 95.3 78.5 Q 96.5 79 95.8 79.5 Q 94.5 79 95.3 78.5 Z " /><path fill="rgb(229,228,228)" stroke="rgb(229,228,228)" stroke-width="1" opacity="0.5607843137254902" d="M 160.8 78.5 Q 161.5 79 160.3 79.5 Q 159.5 79 160.8 78.5 Z " /><path fill="rgb(229,228,228)" stroke="rgb(229,228,228)" stroke-width="1" opacity="0.5607843137254902" d="M 96.8 79.5 Q 98 80 97.3 80.5 Q 96 80 96.8 79.5 Z " /><path fill="rgb(229,228,228)" stroke="rgb(229,228,228)" stroke-width="1" opacity="0.5607843137254902" d="M 159.3 79.5 Q 160 80 158.8 80.5 Q 158 80 159.3 79.5 Z " /><path fill="rgb(229,228,228)" stroke="rgb(229,228,228)" stroke-width="1" opacity="0.5607843137254902" d="M 98.3 80.5 Q 99.5 81 98.8 81.5 Q 97.5 81 98.3 80.5 Z " /><path fill="rgb(229,228,228)" stroke="rgb(229,228,228)" stroke-width="1" opacity="0.5607843137254902" d="M 157.8 80.5 Q 158.5 81 157.3 81.5 Q 156.5 81 157.8 80.5 Z " /><path fill="rgb(229,228,228)" stroke="rgb(229,228,228)" stroke-width="1" opacity="0.5607843137254902" d="M 99.8 81.5 Q 101 82 100.3 82.5 Q 99 82 99.8 81.5 Z " /><path fill="rgb(229,228,228)" stroke="rgb(229,228,228)" stroke-width="1" opacity="0.5607843137254902" d="M 155.3 82 Q 156 82.5 154.8 83 Q 154 82.5 155.3 82 Z " /><path fill="rgb(229,228,228)" stroke="rgb(229,228,228)" stroke-width="1" opacity="0.5607843137254902" d="M 105.3 82.5 L 106 82.8 L 104.3 83.5 L 104.3 83 L 105.3 82.5 Z " /><path fill="rgb(229,228,228)" stroke="rgb(229,228,228)" stroke-width="1" opacity="0.5607843137254902" d="M 102.3 83 L 103.5 83.8 L 102.8 84 Q 101.5 83.5 102.3 83 Z " /><path fill="rgb(229,228,228)" stroke="rgb(229,228,228)" stroke-width="1" opacity="0.5607843137254902" d="M 151.3 83 L 153.3 83.5 L 154 83.3 Q 153.8 84.3 152.3 84 L 151 83.3 L 151.3 83 Z " /><path fill="rgb(229,228,228)" stroke="rgb(229,228,228)" stroke-width="1" opacity="0.5607843137254902" d="M 74.8 90.5 L 75 90.8 L 73.3 92.5 L 73 92.3 L 74.8 90.5 Z " /><path fill="rgb(229,228,228)" stroke="rgb(229,228,228)" stroke-width="1" opacity="0.5607843137254902" d="M 181.3 90.5 Q 183.4 91.6 184 94.3 L 183.5 94.3 Q 183 91.7 181 90.8 L 181.3 90.5 Z " /><path fill="rgb(229,228,228)" stroke="rgb(229,228,228)" stroke-width="1" opacity="0.5607843137254902" d="M 72.8 96.5 L 73.5 97.8 Q 73 98.5 72.5 97.3 L 72.8 96.5 Z " /><path fill="rgb(229,228,228)" stroke="rgb(229,228,228)" stroke-width="1" opacity="0.5607843137254902" d="M 182.8 98.5 Q 183.5 99 182.3 99.5 Q 181.5 99 182.8 98.5 Z " /><path fill="rgb(229,228,228)" stroke="rgb(229,228,228)" stroke-width="1" opacity="0.5607843137254902" d="M 74.3 99.5 L 75.5 100.8 L 75.3 101 L 74 99.8 L 74.3 99.5 Z " /><path fill="rgb(229,228,228)" stroke="rgb(229,228,228)" stroke-width="1" opacity="0.5607843137254902" d="M 181.8 100 Q 182.5 100.5 181.3 101 Q 180.5 100.5 181.8 100 Z " /><path fill="rgb(229,228,228)" stroke="rgb(229,228,228)" stroke-width="1" opacity="0.5607843137254902" d="M 123.8 100.5 L 125.5 100.8 L 123.8 101 L 123.8 100.5 Z " /><path fill="rgb(229,228,228)" stroke="rgb(229,228,228)" stroke-width="1" opacity="0.5607843137254902" d="M 130.3 100.5 L 132.5 100.8 L 130.3 101 L 130.3 100.5 Z " /><path fill="rgb(229,228,228)" stroke="rgb(229,228,228)" stroke-width="1" opacity="0.5607843137254902" d="M 75.8 101.5 Q 77 102 76.3 102.5 Q 75 102 75.8 101.5 Z " /><path fill="rgb(229,228,228)" stroke="rgb(229,228,228)" stroke-width="1" opacity="0.5607843137254902" d="M 180.8 101.5 L 181 101.8 L 179.8 103 L 179.5 102.8 L 180.8 101.5 Z " /><path fill="rgb(229,228,228)" stroke="rgb(229,228,228)" stroke-width="1" opacity="0.5607843137254902" d="M 139.3 102.5 L 142 103.8 L 141.3 104 L 139.3 103 L 139.3 102.5 Z " /><path fill="rgb(229,228,228)" stroke="rgb(229,228,228)" stroke-width="1" opacity="0.5607843137254902" d="M 76.8 103 L 79 105.8 L 78.8 106 L 77.5 104.8 L 76.5 103.3 L 76.8 103 Z " /><path fill="rgb(229,228,228)" stroke="rgb(229,228,228)" stroke-width="1" opacity="0.5607843137254902" d="M 114.3 103.5 Q 115 104 113.8 104.5 L 112.8 105 Q 112 104.5 113.3 104 L 114.3 103.5 Z " /><path fill="rgb(229,228,228)" stroke="rgb(229,228,228)" stroke-width="1" opacity="0.5607843137254902" d="M 179.3 103.5 L 179.5 103.8 L 178.3 105 L 178 104.8 L 179.3 103.5 Z " /><path fill="rgb(229,228,228)" stroke="rgb(229,228,228)" stroke-width="1" opacity="0.5607843137254902" d="M 142.8 104 Q 144 104.5 143.3 105 Q 142 104.5 142.8 104 Z " /><path fill="rgb(229,228,228)" stroke="rgb(229,228,228)" stroke-width="1" opacity="0.5607843137254902" d="M 111.8 105 Q 112.5 105.5 111.3 106 Q 110.5 105.5 111.8 105 Z " /><path fill="rgb(229,228,228)" stroke="rgb(229,228,228)" stroke-width="1" opacity="0.5607843137254902" d="M 144.3 105 Q 145.5 105.5 144.8 106 Q 143.5 105.5 144.3 105 Z " /><path fill="rgb(229,228,228)" stroke="rgb(229,228,228)" stroke-width="1" opacity="0.5607843137254902" d="M 177.8 105.5 Q 178.5 106 177.3 106.5 Q 176.5 106 177.8 105.5 Z " /><path fill="rgb(229,228,228)" stroke="rgb(229,228,228)" stroke-width="1" opacity="0.5607843137254902" d="M 110.3 106 L 110.5 106.3 L 109.3 107.5 L 109 107.3 L 110.3 106 Z " /><path fill="rgb(229,228,228)" stroke="rgb(229,228,228)" stroke-width="1" opacity="0.5607843137254902" d="M 145.8 106 Q 147 106.5 146.3 107 Q 145 106.5 145.8 106 Z " /><path fill="rgb(229,228,228)" stroke="rgb(229,228,228)" stroke-width="1" opacity="0.5607843137254902" d="M 147.8 107.5 L 150.5 110.3 L 150.3 110.5 L 147.5 107.8 L 147.8 107.5 Z " /><path fill="rgb(229,228,228)" stroke="rgb(229,228,228)" stroke-width="1" opacity="0.5607843137254902" d="M 105.8 110.5 L 106 110.8 L 104.3 112.5 L 104 112.3 L 105.8 110.5 Z " /><path fill="rgb(229,228,228)" stroke="rgb(229,228,228)" stroke-width="1" opacity="0.5607843137254902" d="M 151.3 111.5 Q 152.5 112 151.8 112.5 Q 150.5 112 151.3 111.5 Z " /><path fill="rgb(229,228,228)" stroke="rgb(229,228,228)" stroke-width="1" opacity="0.5607843137254902" d="M 103.8 113 Q 104.5 113.5 103.3 114 Q 102.5 113.5 103.8 113 Z " /><path fill="rgb(229,228,228)" stroke="rgb(229,228,228)" stroke-width="1" opacity="0.5607843137254902" d="M 152.8 113.5 Q 154 114 153.3 114.5 Q 152 114 152.8 113.5 Z " /><path fill="rgb(229,228,228)" stroke="rgb(229,228,228)" stroke-width="1" opacity="0.5607843137254902" d="M 102.3 115.5 L 102 116.3 L 101.3 118 L 101 117.3 L 102.3 115.5 Z " /><path fill="rgb(229,228,228)" stroke="rgb(229,228,228)" stroke-width="1" opacity="0.5607843137254902" d="M 70.8 117 L 72 117.3 L 70.8 117.5 L 70.8 117 Z " /><path fill="rgb(229,228,228)" stroke="rgb(229,228,228)" stroke-width="1" opacity="0.5607843137254902" d="M 184.3 117 L 185.5 117.3 L 184.3 117.5 L 184.3 117 Z " /><path fill="rgb(229,228,228)" stroke="rgb(229,228,228)" stroke-width="1" opacity="0.5607843137254902" d="M 68.8 117.5 L 70 117.8 L 68.8 118 L 68.8 117.5 Z " /><path fill="rgb(229,228,228)" stroke="rgb(229,228,228)" stroke-width="1" opacity="0.5607843137254902" d="M 65.3 118.5 L 66 118.8 L 64.8 119.5 Q 64 119 65.3 118.5 Z " /><path fill="rgb(229,228,228)" stroke="rgb(229,228,228)" stroke-width="1" opacity="0.5607843137254902" d="M 191.8 119 Q 193 119.5 192.3 120 Q 191 119.5 191.8 119 Z " /><path fill="rgb(229,228,228)" stroke="rgb(229,228,228)" stroke-width="1" opacity="0.5607843137254902" d="M 63.8 120 Q 64.5 120.5 63.3 121 Q 62.5 120.5 63.8 120 Z " /><path fill="rgb(229,228,228)" stroke="rgb(229,228,228)" stroke-width="1" opacity="0.5607843137254902" d="M 62.8 121.5 L 63 140.8 L 62.5 140.8 L 62.8 121.5 Z " /><path fill="rgb(229,228,228)" stroke="rgb(229,228,228)" stroke-width="1" opacity="0.5607843137254902" d="M 99.3 122.5 L 99.5 123.8 L 99 123.8 L 99.3 122.5 Z " /><path fill="rgb(229,228,228)" stroke="rgb(229,228,228)" stroke-width="1" opacity="0.5607843137254902" d="M 193.3 124 L 193.5 141.3 L 193 141.3 L 193.3 124 Z " /><path fill="rgb(229,228,228)" stroke="rgb(229,228,228)" stroke-width="1" opacity="0.5607843137254902" d="M 98.8 125 L 99 126.8 L 98.5 126.8 L 98.8 125 Z " /><path fill="rgb(229,228,228)" stroke="rgb(229,228,228)" stroke-width="1" opacity="0.5607843137254902" d="M 157.3 125 L 157.5 126.3 L 157 126.3 L 157.3 125 Z " /><path fill="rgb(229,228,228)" stroke="rgb(229,228,228)" stroke-width="1" opacity="0.5607843137254902" d="M 98.8 133 L 99 134.8 L 98.5 134.8 L 98.8 133 Z " /><path fill="rgb(229,228,228)" stroke="rgb(229,228,228)" stroke-width="1" opacity="0.5607843137254902" d="M 157.3 133.5 L 157.5 135.3 L 157 135.3 L 157.3 133.5 Z " /><path fill="rgb(229,228,228)" stroke="rgb(229,228,228)" stroke-width="1" opacity="0.5607843137254902" d="M 63.8 142.5 L 65 143.8 L 64.8 144 L 63.5 142.8 L 63.8 142.5 Z " /><path fill="rgb(229,228,228)" stroke="rgb(229,228,228)" stroke-width="1" opacity="0.5607843137254902" d="M 192.3 143 Q 193 143.5 191.8 144 Q 191 143.5 192.3 143 Z " /><path fill="rgb(229,228,228)" stroke="rgb(229,228,228)" stroke-width="1" opacity="0.5607843137254902" d="M 66.8 144.5 L 68 144.8 L 66.8 145 L 66.8 144.5 Z " /><path fill="rgb(229,228,228)" stroke="rgb(229,228,228)" stroke-width="1" opacity="0.5607843137254902" d="M 102.3 144.5 L 103.5 146.3 Q 103 147 102.5 145.8 L 102.3 144.5 Z " /><path fill="rgb(229,228,228)" stroke="rgb(229,228,228)" stroke-width="1" opacity="0.5607843137254902" d="M 153.8 144.5 L 153.5 145.3 L 152.8 146.5 L 153 145.8 L 153.8 144.5 Z " /><path fill="rgb(229,228,228)" stroke="rgb(229,228,228)" stroke-width="1" opacity="0.5607843137254902" d="M 186.3 145 L 187.5 145.3 L 186.3 145.5 L 186.3 145 Z " /><path fill="rgb(229,228,228)" stroke="rgb(229,228,228)" stroke-width="1" opacity="0.5607843137254902" d="M 70.8 145.5 L 72 145.8 L 70.8 146 L 70.8 145.5 Z " /><path fill="rgb(229,228,228)" stroke="rgb(229,228,228)" stroke-width="1" opacity="0.5607843137254902" d="M 184.3 145.5 L 185.5 145.8 L 184.3 146 L 184.3 145.5 Z " /><path fill="rgb(229,228,228)" stroke="rgb(229,228,228)" stroke-width="1" opacity="0.5607843137254902" d="M 179.8 146.5 L 181 146.8 L 179.8 147 L 179.8 146.5 Z " /><path fill="rgb(229,228,228)" stroke="rgb(229,228,228)" stroke-width="1" opacity="0.5607843137254902" d="M 103.8 147 L 105 148.3 L 104.8 148.5 L 103.5 147.3 L 103.8 147 Z " /><path fill="rgb(229,228,228)" stroke="rgb(229,228,228)" stroke-width="1" opacity="0.5607843137254902" d="M 152.3 147 L 152.5 147.3 L 151.3 148.5 L 151 148.3 L 152.3 147 Z " /><path fill="rgb(229,228,228)" stroke="rgb(229,228,228)" stroke-width="1" opacity="0.5607843137254902" d="M 105.8 149.5 L 108.5 152.3 L 108.3 152.5 L 105.5 149.8 L 105.8 149.5 Z " /><path fill="rgb(229,228,228)" stroke="rgb(229,228,228)" stroke-width="1" opacity="0.5607843137254902" d="M 149.8 150 L 150 150.3 L 147.8 152.5 L 147.5 152.3 L 149.8 150 Z " /><path fill="rgb(229,228,228)" stroke="rgb(229,228,228)" stroke-width="1" opacity="0.5607843137254902" d="M 109.8 153 L 111 154.3 L 110.8 154.5 L 109.5 153.3 L 109.8 153 Z " /><path fill="rgb(229,228,228)" stroke="rgb(229,228,228)" stroke-width="1" opacity="0.5607843137254902" d="M 146.3 153 Q 147 153.5 145.8 154 Q 145 153.5 146.3 153 Z " /><path fill="rgb(229,228,228)" stroke="rgb(229,228,228)" stroke-width="1" opacity="0.5607843137254902" d="M 79.8 154.5 Q 80.5 155 79.3 155.5 Q 78.5 155 79.8 154.5 Z " /><path fill="rgb(229,228,228)" stroke="rgb(229,228,228)" stroke-width="1" opacity="0.5607843137254902" d="M 111.8 154.5 Q 113 155 112.3 155.5 Q 111 155 111.8 154.5 Z " /><path fill="rgb(229,228,228)" stroke="rgb(229,228,228)" stroke-width="1" opacity="0.5607843137254902" d="M 176.3 154.5 Q 177.5 155 176.8 155.5 Q 175.5 155 176.3 154.5 Z " /><path fill="rgb(229,228,228)" stroke="rgb(229,228,228)" stroke-width="1" opacity="0.5607843137254902" d="M 78.8 156 Q 79.5 156.5 78.3 157 Q 77.5 156.5 78.8 156 Z " /><path fill="rgb(229,228,228)" stroke="rgb(229,228,228)" stroke-width="1" opacity="0.5607843137254902" d="M 177.3 156 Q 178.5 156.5 177.8 157 Q 176.5 156.5 177.3 156 Z " /><path fill="rgb(229,228,228)" stroke="rgb(229,228,228)" stroke-width="1" opacity="0.5607843137254902" d="M 77.8 157.5 Q 78.5 158 77.3 158.5 Q 76.5 158 77.8 157.5 Z " /><path fill="rgb(229,228,228)" stroke="rgb(229,228,228)" stroke-width="1" opacity="0.5607843137254902" d="M 178.3 157.5 Q 179.5 158 178.8 158.5 Q 177.5 158 178.3 157.5 Z " /><path fill="rgb(229,228,228)" stroke="rgb(229,228,228)" stroke-width="1" opacity="0.5607843137254902" d="M 76.8 159 Q 77.5 159.5 76.3 160 Q 75.5 159.5 76.8 159 Z " /><path fill="rgb(229,228,228)" stroke="rgb(229,228,228)" stroke-width="1" opacity="0.5607843137254902" d="M 123.3 159 L 125 159.3 L 123.3 159.5 L 123.3 159 Z " /><path fill="rgb(229,228,228)" stroke="rgb(229,228,228)" stroke-width="1" opacity="0.5607843137254902" d="M 131.3 159 L 133 159.3 L 131.3 159.5 L 131.3 159 Z " /><path fill="rgb(229,228,228)" stroke="rgb(229,228,228)" stroke-width="1" opacity="0.5607843137254902" d="M 180.3 160.5 L 181.5 161.8 L 181.3 162 L 180 160.8 L 180.3 160.5 Z " /><path fill="rgb(229,228,228)" stroke="rgb(229,228,228)" stroke-width="1" opacity="0.5607843137254902" d="M 75.3 161 Q 76 161.5 74.8 162 Q 74 161.5 75.3 161 Z " /><path fill="rgb(229,228,228)" stroke="rgb(229,228,228)" stroke-width="1" opacity="0.5607843137254902" d="M 74.3 162.5 L 74 163.3 L 73.3 164.5 L 73.5 163.8 L 74.3 162.5 Z " /><path fill="rgb(229,228,228)" stroke="rgb(229,228,228)" stroke-width="1" opacity="0.5607843137254902" d="M 181.8 162.5 L 183 164.3 Q 182.5 165 182 163.8 L 181.8 162.5 Z " /><path fill="rgb(229,228,228)" stroke="rgb(229,228,228)" stroke-width="1" opacity="0.5607843137254902" d="M 183.3 165 L 183.5 167.8 L 183 167.8 L 183.3 165 Z " /><path fill="rgb(229,228,228)" stroke="rgb(229,228,228)" stroke-width="1" opacity="0.5607843137254902" d="M 182.8 168.5 L 183 169.3 L 168.8 183.5 L 168.5 183.3 L 182.8 168.5 Z " /><path fill="rgb(229,228,228)" stroke="rgb(229,228,228)" stroke-width="1" opacity="0.5607843137254902" d="M 73.8 169.5 L 87.8 183.5 L 89.5 184.3 L 88.8 184.5 L 73.5 169.8 L 73.8 169.5 Z " /><path fill="rgb(229,228,228)" stroke="rgb(229,228,228)" stroke-width="1" opacity="0.5607843137254902" d="M 153.3 177 L 154.5 178.3 L 154.3 178.5 L 153 177.3 L 153.3 177 Z " /><path fill="rgb(229,228,228)" stroke="rgb(229,228,228)" stroke-width="1" opacity="0.5607843137254902" d="M 102.3 177.5 Q 103 178 101.8 178.5 Q 101 178 102.3 177.5 Z " /><path fill="rgb(229,228,228)" stroke="rgb(229,228,228)" stroke-width="1" opacity="0.5607843137254902" d="M 100.8 178.5 Q 101.5 179 100.3 179.5 Q 99.5 179 100.8 178.5 Z " /><path fill="rgb(229,228,228)" stroke="rgb(229,228,228)" stroke-width="1" opacity="0.5607843137254902" d="M 155.3 178.5 Q 156.5 179 155.8 179.5 Q 154.5 179 155.3 178.5 Z " /><path fill="rgb(229,228,228)" stroke="rgb(229,228,228)" stroke-width="1" opacity="0.5607843137254902" d="M 99.3 179.5 Q 100 180 98.8 180.5 Q 98 180 99.3 179.5 Z " /><path fill="rgb(229,228,228)" stroke="rgb(229,228,228)" stroke-width="1" opacity="0.5607843137254902" d="M 156.8 179.5 Q 158 180 157.3 180.5 Q 156 180 156.8 179.5 Z " /><path fill="rgb(229,228,228)" stroke="rgb(229,228,228)" stroke-width="1" opacity="0.5607843137254902" d="M 97.8 180.5 Q 98.5 181 97.3 181.5 Q 96.5 181 97.8 180.5 Z " /><path fill="rgb(229,228,228)" stroke="rgb(229,228,228)" stroke-width="1" opacity="0.5607843137254902" d="M 96.3 181.5 Q 97 182 95.8 182.5 Q 95 182 96.3 181.5 Z " /><path fill="rgb(229,228,228)" stroke="rgb(229,228,228)" stroke-width="1" opacity="0.5607843137254902" d="M 112.3 182 L 112.5 183.3 L 112 183.3 L 112.3 182 Z " /><path fill="rgb(229,228,228)" stroke="rgb(229,228,228)" stroke-width="1" opacity="0.5607843137254902" d="M 94.8 182.5 Q 95.5 183 94.3 183.5 Q 93.5 183 94.8 182.5 Z " /><path fill="rgb(229,228,228)" stroke="rgb(229,228,228)" stroke-width="1" opacity="0.5607843137254902" d="M 161.3 182.5 L 163 183.8 L 162.3 183.5 Q 160.3 183.2 161.3 182.5 Z " /><path fill="rgb(229,228,228)" stroke="rgb(229,228,228)" stroke-width="1" opacity="0.5607843137254902" d="M 143.3 183.5 L 143.5 184.8 L 143 184.8 L 143.3 183.5 Z " /><path fill="rgb(229,228,228)" stroke="rgb(229,228,228)" stroke-width="1" opacity="0.5607843137254902" d="M 112.8 185 L 113 186.3 L 112.5 186.3 L 112.8 185 Z " /><path fill="rgb(229,228,228)" stroke="rgb(229,228,228)" stroke-width="1" opacity="0.5607843137254902" d="M 142.8 186.5 L 143 187.8 L 142.5 187.8 L 142.8 186.5 Z " /><path fill="rgb(229,228,228)" stroke="rgb(229,228,228)" stroke-width="1" opacity="0.5607843137254902" d="M 113.3 187.5 L 113.5 189.3 L 113 189.3 L 113.3 187.5 Z " /><path fill="rgb(229,228,228)" stroke="rgb(229,228,228)" stroke-width="1" opacity="0.5607843137254902" d="M 142.3 189.5 L 142.5 190.8 L 142 190.8 L 142.3 189.5 Z " /><path fill="rgb(229,228,228)" stroke="rgb(229,228,228)" stroke-width="1" opacity="0.5607843137254902" d="M 113.8 190.5 L 114 191.8 L 113.5 191.8 L 113.8 190.5 Z " /><path fill="rgb(229,228,228)" stroke="rgb(229,228,228)" stroke-width="1" opacity="0.5607843137254902" d="M 141.3 193.5 Q 142 194 140.8 194.5 Q 140 194 141.3 193.5 Z " /><path fill="rgb(229,228,228)" stroke="rgb(229,228,228)" stroke-width="1" opacity="0.5607843137254902" d="M 114.8 194 L 116 195.3 L 115.8 195.5 L 114.5 194.3 L 114.8 194 Z " /><path fill="rgb(229,228,228)" stroke="rgb(229,228,228)" stroke-width="1" opacity="0.5607843137254902" d="M 139.8 195 Q 140.5 195.5 139.3 196 L 138.5 195.8 L 139.8 195 Z " /><path fill="rgb(229,228,228)" stroke="rgb(229,228,228)" stroke-width="1" opacity="0.5607843137254902" d="M 118.3 196 L 137.5 196.3 L 118.3 196.5 L 118.3 196 Z " /><path fill="rgb(254,254,254)" stroke="rgb(254,254,254)" stroke-width="1" opacity="0.19607843137254902" d="M 117.8 62.5 L 118 62.8 L 116.8 64 L 116.5 63.8 L 117.8 62.5 Z " /><path fill="rgb(254,254,254)" stroke="rgb(254,254,254)" stroke-width="1" opacity="0.19607843137254902" d="M 131.3 63 L 133 63.3 L 131.3 63.5 L 131.3 63 Z " /><path fill="rgb(254,254,254)" stroke="rgb(254,254,254)" stroke-width="1" opacity="0.19607843137254902" d="M 138.8 63.5 L 141.3 64 L 142 64.8 L 141.3 64.5 Q 138.8 64.8 138.8 63.5 Z " /><path fill="rgb(254,254,254)" stroke="rgb(254,254,254)" stroke-width="1" opacity="0.19607843137254902" d="M 114.3 64 L 115.5 64.8 Q 115 66 114.5 65.3 L 114.3 64 Z " /><path fill="rgb(254,254,254)" stroke="rgb(254,254,254)" stroke-width="1" opacity="0.19607843137254902" d="M 142.3 67.5 Q 143.5 68 142.8 68.5 Q 141.4 68.8 142.3 67.5 Z " /><path fill="rgb(254,254,254)" stroke="rgb(254,254,254)" stroke-width="1" opacity="0.19607843137254902" d="M 113.3 68 L 113.5 69.5 L 112.5 69.3 L 113.3 68 Z " /><path fill="rgb(254,254,254)" stroke="rgb(254,254,254)" stroke-width="1" opacity="0.19607843137254902" d="M 113.3 70 L 113.5 70.8 Q 113 72 112.5 71.3 L 113.3 70 Z " /><path fill="rgb(254,254,254)" stroke="rgb(254,254,254)" stroke-width="1" opacity="0.19607843137254902" d="M 142.8 70.5 L 143.5 71.8 Q 143 72.5 142.5 71.3 L 142.8 70.5 Z " /><path fill="rgb(254,254,254)" stroke="rgb(254,254,254)" stroke-width="1" opacity="0.19607843137254902" d="M 143.3 73.5 Q 144.8 74.3 143.3 75 L 143.3 73.5 Z " /><path fill="rgb(254,254,254)" stroke="rgb(254,254,254)" stroke-width="1" opacity="0.19607843137254902" d="M 93.3 76 L 93.5 77.3 L 92.8 77 L 92 76.8 L 93.3 76 Z " /><path fill="rgb(254,254,254)" stroke="rgb(254,254,254)" stroke-width="1" opacity="0.19607843137254902" d="M 143.8 76 L 144 77.3 L 143.5 77.3 L 143.8 76 Z " /><path fill="rgb(254,254,254)" stroke="rgb(254,254,254)" stroke-width="1" opacity="0.19607843137254902" d="M 168.3 77 L 169.5 77.8 L 168.8 78 Q 167.5 77.5 168.3 77 Z " /><path fill="rgb(254,254,254)" stroke="rgb(254,254,254)" stroke-width="1" opacity="0.19607843137254902" d="M 159.3 78 L 160.3 78.5 L 161.3 78 L 161.3 78.5 L 159.3 79.5 L 159.3 78 Z " /><path fill="rgb(254,254,254)" stroke="rgb(254,254,254)" stroke-width="1" opacity="0.19607843137254902" d="M 95.8 78.5 Q 97 79 96.3 79.5 Q 95 79 95.8 78.5 Z " /><path fill="rgb(254,254,254)" stroke="rgb(254,254,254)" stroke-width="1" opacity="0.19607843137254902" d="M 97.3 79.5 Q 98.5 80 97.8 80.5 Q 96.5 80 97.3 79.5 Z " /><path fill="rgb(254,254,254)" stroke="rgb(254,254,254)" stroke-width="1" opacity="0.19607843137254902" d="M 146.8 80 L 148 80.8 Q 147.5 82 147 81.3 L 146.8 80.5 L 146 80.8 L 146.8 80 Z " /><path fill="rgb(254,254,254)" stroke="rgb(254,254,254)" stroke-width="1" opacity="0.19607843137254902" d="M 157.8 80 L 158.5 80.3 L 156.8 81.5 L 156.5 81.3 L 157.8 80 Z " /><path fill="rgb(254,254,254)" stroke="rgb(254,254,254)" stroke-width="1" opacity="0.19607843137254902" d="M 99.8 80.5 L 101 82.3 L 100.8 82.5 L 99.8 81.5 L 99 81.3 L 99.8 80.5 Z " /><path fill="rgb(254,254,254)" stroke="rgb(254,254,254)" stroke-width="1" opacity="0.19607843137254902" d="M 173.8 81.5 Q 175 82 174.3 82.5 Q 173 82 173.8 81.5 Z " /><path fill="rgb(254,254,254)" stroke="rgb(254,254,254)" stroke-width="1" opacity="0.19607843137254902" d="M 103.8 82 L 103.8 83.5 L 102.5 82.8 L 103.8 82 Z " /><path fill="rgb(254,254,254)" stroke="rgb(254,254,254)" stroke-width="1" opacity="0.19607843137254902" d="M 105.3 82 Q 106 82.5 104.8 83 Q 104 82.5 105.3 82 Z " /><path fill="rgb(254,254,254)" stroke="rgb(254,254,254)" stroke-width="1" opacity="0.19607843137254902" d="M 154.8 82 Q 155.5 82.5 154.3 83 Q 153.5 82.5 154.8 82 Z " /><path fill="rgb(254,254,254)" stroke="rgb(254,254,254)" stroke-width="1" opacity="0.19607843137254902" d="M 178.3 87 Q 179.5 87.5 178.8 88 Q 177.5 87.5 178.3 87 Z " /><path fill="rgb(254,254,254)" stroke="rgb(254,254,254)" stroke-width="1" opacity="0.19607843137254902" d="M 179.8 88.5 L 183 91.8 L 182.8 92 L 179.5 88.8 L 179.8 88.5 Z " /><path fill="rgb(254,254,254)" stroke="rgb(254,254,254)" stroke-width="1" opacity="0.19607843137254902" d="M 75.3 89.5 L 75.5 89.8 L 73.8 91.5 L 74 90.8 Q 73.6 89.6 74.8 90 L 75.3 89.5 Z " /><path fill="rgb(254,254,254)" stroke="rgb(254,254,254)" stroke-width="1" opacity="0.19607843137254902" d="M 72.3 95.5 L 72.5 96.8 L 72 96.8 L 72.3 95.5 Z " /><path fill="rgb(254,254,254)" stroke="rgb(254,254,254)" stroke-width="1" opacity="0.19607843137254902" d="M 183.8 97 L 184 97.8 L 183.5 98.3 L 183.8 99 Q 182.4 98.4 183.5 97.8 L 183.8 97 Z " /><path fill="rgb(254,254,254)" stroke="rgb(254,254,254)" stroke-width="1" opacity="0.19607843137254902" d="M 72.8 97.5 Q 74 98 73.3 98.5 Q 71.9 98.8 72.8 97.5 Z " /><path fill="rgb(254,254,254)" stroke="rgb(254,254,254)" stroke-width="1" opacity="0.19607843137254902" d="M 73 99 Q 74.3 98.4 74 99.8 L 75.5 101.8 L 74.8 101.5 L 74 101.5 L 74 100 Q 72.5 100.5 73 99 Z " /><path fill="rgb(254,254,254)" stroke="rgb(254,254,254)" stroke-width="1" opacity="0.19607843137254902" d="M 125.8 100.5 L 129.8 100.5 L 130.5 101.3 L 129.8 101 L 129.3 101.5 L 128.8 101 Q 127.1 100.4 127.5 101.8 L 127 101.8 Q 127.4 100.4 125.8 101 L 125 101.3 L 125.8 100.5 Z " /><path fill="rgb(254,254,254)" stroke="rgb(254,254,254)" stroke-width="1" opacity="0.19607843137254902" d="M 122.3 101 Q 123.4 100.6 123 101.8 L 121.5 101.8 L 122.3 101 Z " /><path fill="rgb(254,254,254)" stroke="rgb(254,254,254)" stroke-width="1" opacity="0.19607843137254902" d="M 132.3 101 Q 134.3 100.7 135 101.8 L 134.3 102 Q 133.9 101.1 132.3 101.5 L 132.3 101 Z " /><path fill="rgb(254,254,254)" stroke="rgb(254,254,254)" stroke-width="1" opacity="0.19607843137254902" d="M 117.3 102.5 L 118 102.8 L 117.3 104 Q 115.8 103.3 117.3 102.5 Z " /><path fill="rgb(254,254,254)" stroke="rgb(254,254,254)" stroke-width="1" opacity="0.19607843137254902" d="M 138.8 102.5 L 140 103 Q 140.6 104.3 139.3 104 L 138 103.3 L 138.8 102.5 Z " /><path fill="rgb(254,254,254)" stroke="rgb(254,254,254)" stroke-width="1" opacity="0.19607843137254902" d="M 180.3 102.5 Q 181 103 179.8 103.5 Q 179 103 180.3 102.5 Z " /><path fill="rgb(254,254,254)" stroke="rgb(254,254,254)" stroke-width="1" opacity="0.19607843137254902" d="M 142.3 104 L 143.3 105.5 Q 143.9 104.4 144.5 105.8 L 143.8 105.5 L 143.3 106 L 142.5 105.3 L 142.3 104 Z " /><path fill="rgb(254,254,254)" stroke="rgb(254,254,254)" stroke-width="1" opacity="0.19607843137254902" d="M 179.3 104 L 179.5 105 L 178.3 105.5 L 178 105.3 L 179.3 104 Z " /><path fill="rgb(254,254,254)" stroke="rgb(254,254,254)" stroke-width="1" opacity="0.19607843137254902" d="M 112.3 105 L 112.5 106 L 111.5 105.8 L 112.3 105 Z " /><path fill="rgb(254,254,254)" stroke="rgb(254,254,254)" stroke-width="1" opacity="0.19607843137254902" d="M 78.3 106 L 79.5 106.8 L 78.8 107 Q 77.5 106.5 78.3 106 Z " /><path fill="rgb(254,254,254)" stroke="rgb(254,254,254)" stroke-width="1" opacity="0.19607843137254902" d="M 110.8 106 Q 111.5 106.5 110.3 107 Q 109.5 106.5 110.8 106 Z " /><path fill="rgb(254,254,254)" stroke="rgb(254,254,254)" stroke-width="1" opacity="0.19607843137254902" d="M 145.3 106 Q 146.5 106.5 145.8 107 Q 144.4 107.3 145.3 106 Z " /><path fill="rgb(254,254,254)" stroke="rgb(254,254,254)" stroke-width="1" opacity="0.19607843137254902" d="M 177.3 106.5 Q 178.5 107 177.8 107.5 L 177.3 107 L 176.5 107.3 L 177.3 106.5 Z " /><path fill="rgb(254,254,254)" stroke="rgb(254,254,254)" stroke-width="1" opacity="0.19607843137254902" d="M 146.8 107 L 148 108.3 L 147.8 108.5 L 146.5 108 L 146.8 107 Z " /><path fill="rgb(254,254,254)" stroke="rgb(254,254,254)" stroke-width="1" opacity="0.19607843137254902" d="M 108.8 107.5 L 109.5 107.8 L 107.5 109.3 L 107.8 110 L 106.3 110.5 L 106 110.3 L 108.8 107.5 Z " /><path fill="rgb(254,254,254)" stroke="rgb(254,254,254)" stroke-width="1" opacity="0.19607843137254902" d="M 176.8 108.5 L 177.3 109 L 178 108.8 L 177.5 109.3 L 177.8 110 Q 176.6 110.4 177 109.3 L 176.8 108.5 Z " /><path fill="rgb(254,254,254)" stroke="rgb(254,254,254)" stroke-width="1" opacity="0.19607843137254902" d="M 79.3 109 L 79 109.8 L 78.8 110.5 L 78.5 109.8 L 79.3 109 Z " /><path fill="rgb(254,254,254)" stroke="rgb(254,254,254)" stroke-width="1" opacity="0.19607843137254902" d="M 148.3 109 Q 149.4 108.6 149 109.8 L 148.8 110 Q 147.5 109.5 148.3 109 Z " /><path fill="rgb(254,254,254)" stroke="rgb(254,254,254)" stroke-width="1" opacity="0.19607843137254902" d="M 149.8 110 L 151 111.8 Q 150.5 112.5 150 111.3 L 149.8 110 Z " /><path fill="rgb(254,254,254)" stroke="rgb(254,254,254)" stroke-width="1" opacity="0.19607843137254902" d="M 105.3 111.5 L 105.5 111.8 L 104.3 113 L 104 112.8 L 105.3 111.5 Z " /><path fill="rgb(254,254,254)" stroke="rgb(254,254,254)" stroke-width="1" opacity="0.19607843137254902" d="M 77.8 112.5 Q 78.5 113 77.3 113.5 Q 76.5 113 77.8 112.5 Z " /><path fill="rgb(254,254,254)" stroke="rgb(254,254,254)" stroke-width="1" opacity="0.19607843137254902" d="M 151.8 112.5 L 154 115.8 L 152.8 116 L 152 115.3 Q 153 114.8 152 114.3 L 151.8 112.5 Z " /><path fill="rgb(254,254,254)" stroke="rgb(254,254,254)" stroke-width="1" opacity="0.19607843137254902" d="M 103 114 L 104 114.3 L 102.8 115.5 L 102.5 115.3 L 103 114 Z " /><path fill="rgb(254,254,254)" stroke="rgb(254,254,254)" stroke-width="1" opacity="0.19607843137254902" d="M 179.3 115 Q 180.5 115.5 179.8 116 Q 178.5 115.5 179.3 115 Z " /><path fill="rgb(254,254,254)" stroke="rgb(254,254,254)" stroke-width="1" opacity="0.19607843137254902" d="M 72.8 116 L 73 117 L 71.5 116.8 L 72.8 116 Z " /><path fill="rgb(254,254,254)" stroke="rgb(254,254,254)" stroke-width="1" opacity="0.19607843137254902" d="M 73.8 116 L 75 116.3 L 73.8 116.5 L 73.8 116 Z " /><path fill="rgb(254,254,254)" stroke="rgb(254,254,254)" stroke-width="1" opacity="0.19607843137254902" d="M 183.3 116 L 186.5 117.3 L 185.8 117.5 L 185.3 117 L 183 117 L 183.3 116 Z " /><path fill="rgb(254,254,254)" stroke="rgb(254,254,254)" stroke-width="1" opacity="0.19607843137254902" d="M 187.3 116 Q 188.3 116.3 188 117.8 Q 187.5 118.5 187 117.3 L 187.5 116.8 L 187.3 116 Z " /><path fill="rgb(254,254,254)" stroke="rgb(254,254,254)" stroke-width="1" opacity="0.19607843137254902" d="M 70.3 116.5 L 71 116.8 Q 70.7 117.8 69.3 117.5 L 69.3 117 L 70.3 116.5 Z " /><path fill="rgb(254,254,254)" stroke="rgb(254,254,254)" stroke-width="1" opacity="0.19607843137254902" d="M 64.8 118.5 L 65 118.8 L 63.3 120.5 L 63 120.3 L 64.8 118.5 Z " /><path fill="rgb(254,254,254)" stroke="rgb(254,254,254)" stroke-width="1" opacity="0.19607843137254902" d="M 154.8 118.5 Q 156.1 118.1 155.5 119.8 L 155.8 120.5 L 154 119.3 L 154.8 118.5 Z " /><path fill="rgb(254,254,254)" stroke="rgb(254,254,254)" stroke-width="1" opacity="0.19607843137254902" d="M 99.8 123 L 100 123.8 L 99.3 126 L 99 124.3 L 99.8 123 Z " /><path fill="rgb(254,254,254)" stroke="rgb(254,254,254)" stroke-width="1" opacity="0.19607843137254902" d="M 156.3 123.5 L 157 123.8 L 157 126.3 Q 157.9 126.6 157.5 128.3 L 157 128.3 Q 156 127 156.5 124.3 L 156.3 123.5 Z " /><path fill="rgb(254,254,254)" stroke="rgb(254,254,254)" stroke-width="1" opacity="0.19607843137254902" d="M 99.3 126.5 L 99.5 128.3 Q 99 129.5 98.5 128.8 Q 98.1 126.9 99.3 126.5 Z " /><path fill="rgb(254,254,254)" stroke="rgb(254,254,254)" stroke-width="1" opacity="0.19607843137254902" d="M 193.8 126.5 L 194 127.8 L 193.5 127.8 L 193.8 126.5 Z " /><path fill="rgb(254,254,254)" stroke="rgb(254,254,254)" stroke-width="1" opacity="0.19607843137254902" d="M 98.5 130 L 99.5 130.3 Q 98.5 130.8 99.5 131.3 L 100 132.8 L 99.3 134.5 L 98.5 132.8 L 98.5 130 Z " /><path fill="rgb(254,254,254)" stroke="rgb(254,254,254)" stroke-width="1" opacity="0.19607843137254902" d="M 193.8 130.5 L 194 131.8 L 193.5 131.8 L 193.8 130.5 Z " /><path fill="rgb(254,254,254)" stroke="rgb(254,254,254)" stroke-width="1" opacity="0.19607843137254902" d="M 157.3 131 L 157.5 133.5 L 156.5 133.3 L 157 132.3 Q 155.9 131.6 157.3 131 Z " /><path fill="rgb(254,254,254)" stroke="rgb(254,254,254)" stroke-width="1" opacity="0.19607843137254902" d="M 156.8 134.5 L 157 136.3 Q 156.5 137.5 156 136.8 L 156.8 134.5 Z " /><path fill="rgb(254,254,254)" stroke="rgb(254,254,254)" stroke-width="1" opacity="0.19607843137254902" d="M 193.8 134.5 L 194 135.8 L 193.5 135.8 L 193.8 134.5 Z " /><path fill="rgb(254,254,254)" stroke="rgb(254,254,254)" stroke-width="1" opacity="0.19607843137254902" d="M 99.8 137 L 100 138.3 L 99.5 138.3 L 99.8 137 Z " /><path fill="rgb(254,254,254)" stroke="rgb(254,254,254)" stroke-width="1" opacity="0.19607843137254902" d="M 100.3 139.5 L 101.3 141 L 101.8 140 L 102 140.8 L 101.5 141.8 L 102 143.3 L 101.5 143.3 L 100 139.8 L 100.3 139.5 Z " /><path fill="rgb(254,254,254)" stroke="rgb(254,254,254)" stroke-width="1" opacity="0.19607843137254902" d="M 154.8 140.5 Q 156 141 155.3 141.5 L 154 141.3 L 154.8 140.5 Z " /><path fill="rgb(254,254,254)" stroke="rgb(254,254,254)" stroke-width="1" opacity="0.19607843137254902" d="M 193.8 141 Q 194.5 141.5 193.3 142 Q 192.5 141.5 193.8 141 Z " /><path fill="rgb(254,254,254)" stroke="rgb(254,254,254)" stroke-width="1" opacity="0.19607843137254902" d="M 154 142 L 155 142.3 L 154.3 143.5 L 154 142 Z " /><path fill="rgb(254,254,254)" stroke="rgb(254,254,254)" stroke-width="1" opacity="0.19607843137254902" d="M 63 143 L 64.5 143.8 L 63 143.8 L 63 143 Z " /><path fill="rgb(254,254,254)" stroke="rgb(254,254,254)" stroke-width="1" opacity="0.19607843137254902" d="M 65.3 144 L 67 145.3 L 66.3 145.5 L 65 144.3 L 65.3 144 Z " /><path fill="rgb(254,254,254)" stroke="rgb(254,254,254)" stroke-width="1" opacity="0.19607843137254902" d="M 153.3 144 L 154 144.3 L 152.3 145 L 152.3 144.5 L 153.3 144 Z " /><path fill="rgb(254,254,254)" stroke="rgb(254,254,254)" stroke-width="1" opacity="0.19607843137254902" d="M 189.8 144.5 Q 190.9 144.1 190.5 145.3 L 190.3 145.5 Q 189 145 189.8 144.5 Z " /><path fill="rgb(254,254,254)" stroke="rgb(254,254,254)" stroke-width="1" opacity="0.19607843137254902" d="M 67.8 145 L 69.5 145.8 L 68.3 146 Q 67 145.5 67.8 145 Z " /><path fill="rgb(254,254,254)" stroke="rgb(254,254,254)" stroke-width="1" opacity="0.19607843137254902" d="M 103.3 145 Q 104.7 144.6 104 146.8 L 104.3 147.5 L 103.5 146.8 L 103.3 145 Z " /><path fill="rgb(254,254,254)" stroke="rgb(254,254,254)" stroke-width="1" opacity="0.19607843137254902" d="M 72.8 146 Q 73.8 146.3 73.5 147.8 L 73 147.8 L 72.8 146 Z " /><path fill="rgb(254,254,254)" stroke="rgb(254,254,254)" stroke-width="1" opacity="0.19607843137254902" d="M 183.3 146 Q 184.5 146.5 183.8 147 Q 182.4 147.3 183.3 146 Z " /><path fill="rgb(254,254,254)" stroke="rgb(254,254,254)" stroke-width="1" opacity="0.19607843137254902" d="M 74.5 146.5 L 75.5 146.8 Q 75 148 74.5 147.3 L 74.5 146.5 Z " /><path fill="rgb(254,254,254)" stroke="rgb(254,254,254)" stroke-width="1" opacity="0.19607843137254902" d="M 151.8 146.5 L 152.5 146.8 L 148.8 151 L 148.5 150.8 L 150.5 148.8 L 151.8 146.5 Z " /><path fill="rgb(254,254,254)" stroke="rgb(254,254,254)" stroke-width="1" opacity="0.19607843137254902" d="M 181.3 146.5 Q 182 147 180.8 147.5 Q 180 147 181.3 146.5 Z " /><path fill="rgb(254,254,254)" stroke="rgb(254,254,254)" stroke-width="1" opacity="0.19607843137254902" d="M 76.3 147 Q 78.1 146.5 77.5 148 Q 76.1 148.2 76.3 147 Z " /><path fill="rgb(254,254,254)" stroke="rgb(254,254,254)" stroke-width="1" opacity="0.19607843137254902" d="M 105.3 148.5 Q 106.4 148.1 106 149.3 Q 106.6 150.7 108 150.5 L 107.8 151.5 L 105 148.8 L 105.3 148.5 Z " /><path fill="rgb(254,254,254)" stroke="rgb(254,254,254)" stroke-width="1" opacity="0.19607843137254902" d="M 78.8 151 L 80 153.3 Q 79.5 154 79 152.8 L 78.8 151 Z " /><path fill="rgb(254,254,254)" stroke="rgb(254,254,254)" stroke-width="1" opacity="0.19607843137254902" d="M 147.8 151.5 L 148 151.8 L 146.8 153 L 146.5 152.8 L 147.8 151.5 Z " /><path fill="rgb(254,254,254)" stroke="rgb(254,254,254)" stroke-width="1" opacity="0.19607843137254902" d="M 108.8 152 Q 109.9 151.6 109.5 152.8 L 109.3 153 Q 108 152.5 108.8 152 Z " /><path fill="rgb(254,254,254)" stroke="rgb(254,254,254)" stroke-width="1" opacity="0.19607843137254902" d="M 145.3 153.5 Q 146 154 144.8 154.5 L 142.3 156 L 142.3 154.5 L 143.3 155 L 145.3 153.5 Z " /><path fill="rgb(254,254,254)" stroke="rgb(254,254,254)" stroke-width="1" opacity="0.19607843137254902" d="M 176.3 154 Q 177.4 153.6 177 154.8 L 177.5 154.8 L 177.8 154 L 178 155.3 Q 177.5 156.5 177 155.8 L 176 154.3 L 176.3 154 Z " /><path fill="rgb(254,254,254)" stroke="rgb(254,254,254)" stroke-width="1" opacity="0.19607843137254902" d="M 112.8 154.5 L 114 155.8 L 113.8 156 L 112.5 155.5 L 112.8 154.5 Z " /><path fill="rgb(254,254,254)" stroke="rgb(254,254,254)" stroke-width="1" opacity="0.19607843137254902" d="M 139.8 156 Q 141 156.5 140.3 157 Q 139 156.5 139.8 156 Z " /><path fill="rgb(254,254,254)" stroke="rgb(254,254,254)" stroke-width="1" opacity="0.19607843137254902" d="M 117.3 156.5 Q 118 157 116.8 157.5 Q 116 157 117.3 156.5 Z " /><path fill="rgb(254,254,254)" stroke="rgb(254,254,254)" stroke-width="1" opacity="0.19607843137254902" d="M 77.8 157 Q 78.5 157.5 77.3 158 Q 76.5 157.5 77.8 157 Z " /><path fill="rgb(254,254,254)" stroke="rgb(254,254,254)" stroke-width="1" opacity="0.19607843137254902" d="M 178.3 157 Q 179.5 157.5 178.8 158 Q 177.5 157.5 178.3 157 Z " /><path fill="rgb(254,254,254)" stroke="rgb(254,254,254)" stroke-width="1" opacity="0.19607843137254902" d="M 121.3 158 L 122.5 158.8 L 121.8 159 Q 120.5 158.5 121.3 158 Z " /><path fill="rgb(254,254,254)" stroke="rgb(254,254,254)" stroke-width="1" opacity="0.19607843137254902" d="M 76 158.5 L 77 158.8 Q 76.5 160 76 159.3 L 76 158.5 Z " /><path fill="rgb(254,254,254)" stroke="rgb(254,254,254)" stroke-width="1" opacity="0.19607843137254902" d="M 179.3 158.5 Q 180.4 158.1 180 159.3 L 179.8 159.5 Q 178.5 159 179.3 158.5 Z " /><path fill="rgb(254,254,254)" stroke="rgb(254,254,254)" stroke-width="1" opacity="0.19607843137254902" d="M 125.3 159 L 127 159.3 L 125.3 159.5 L 125.3 159 Z " /><path fill="rgb(254,254,254)" stroke="rgb(254,254,254)" stroke-width="1" opacity="0.19607843137254902" d="M 129.3 159 L 131 159.3 L 129.3 159.5 L 129.3 159 Z " /><path fill="rgb(254,254,254)" stroke="rgb(254,254,254)" stroke-width="1" opacity="0.19607843137254902" d="M 75.8 160 Q 76.5 160.5 75.3 161 Q 74.5 160.5 75.8 160 Z " /><path fill="rgb(254,254,254)" stroke="rgb(254,254,254)" stroke-width="1" opacity="0.19607843137254902" d="M 180.3 160 L 181.3 161 L 182 160.8 L 181.3 161.5 L 180 160.3 L 180.3 160 Z " /><path fill="rgb(254,254,254)" stroke="rgb(254,254,254)" stroke-width="1" opacity="0.19607843137254902" d="M 73.3 163.5 L 73 164.3 L 72.8 165 L 72.5 164.3 L 73.3 163.5 Z " /><path fill="rgb(254,254,254)" stroke="rgb(254,254,254)" stroke-width="1" opacity="0.19607843137254902" d="M 72.3 168 Q 73.4 167.6 73 168.8 L 73.5 169.8 Q 73 170.5 72.5 169.3 L 72.3 168 Z " /><path fill="rgb(254,254,254)" stroke="rgb(254,254,254)" stroke-width="1" opacity="0.19607843137254902" d="M 74.3 170.5 L 76 172.3 L 75.8 172.5 Q 75.2 171.3 74 171.5 L 74.3 170.5 Z " /><path fill="rgb(254,254,254)" stroke="rgb(254,254,254)" stroke-width="1" opacity="0.19607843137254902" d="M 76.8 173 L 86.5 182.8 L 86.3 183 L 84.8 181.5 L 84 181.8 Q 84.3 180.3 83.3 180 L 82 179.3 L 81.3 178 Q 80.1 178.4 80.5 177.3 L 76.5 173.3 L 76.8 173 Z " /><path fill="rgb(254,254,254)" stroke="rgb(254,254,254)" stroke-width="1" opacity="0.19607843137254902" d="M 103.8 177 L 105 177.8 L 104.3 178 Q 103.8 177 103.3 178 L 102.5 177.8 L 103.8 177 Z " /><path fill="rgb(254,254,254)" stroke="rgb(254,254,254)" stroke-width="1" opacity="0.19607843137254902" d="M 151.8 177 Q 153.3 176.8 153.5 177.8 L 152.8 178 L 151.8 177.5 L 150.8 178 L 150.8 177.5 L 151.8 177 Z " /><path fill="rgb(254,254,254)" stroke="rgb(254,254,254)" stroke-width="1" opacity="0.19607843137254902" d="M 174.8 177.5 L 175 177.8 L 173.8 179 L 173.5 178.8 L 174.8 177.5 Z " /><path fill="rgb(254,254,254)" stroke="rgb(254,254,254)" stroke-width="1" opacity="0.19607843137254902" d="M 149.8 178 L 150 179 L 148.5 178.8 L 149.8 178 Z " /><path fill="rgb(254,254,254)" stroke="rgb(254,254,254)" stroke-width="1" opacity="0.19607843137254902" d="M 101.3 178.5 L 101.5 179.8 L 101 179.8 L 101.3 178.5 Z " /><path fill="rgb(254,254,254)" stroke="rgb(254,254,254)" stroke-width="1" opacity="0.19607843137254902" d="M 154.3 178.5 L 155 178.5 L 155 180 L 154 179.8 L 154.5 179.3 L 154.3 178.5 Z " /><path fill="rgb(254,254,254)" stroke="rgb(254,254,254)" stroke-width="1" opacity="0.19607843137254902" d="M 107.5 179 L 108.5 179.3 Q 108 180.5 107.5 179.8 L 107.5 179 Z " /><path fill="rgb(254,254,254)" stroke="rgb(254,254,254)" stroke-width="1" opacity="0.19607843137254902" d="M 110.8 180 L 112 180.5 L 111.8 182 L 110.5 180.3 L 110.8 180 Z " /><path fill="rgb(254,254,254)" stroke="rgb(254,254,254)" stroke-width="1" opacity="0.19607843137254902" d="M 144.8 180 Q 145.5 180.5 144.3 181 Q 143.5 180.5 144.8 180 Z " /><path fill="rgb(254,254,254)" stroke="rgb(254,254,254)" stroke-width="1" opacity="0.19607843137254902" d="M 98.3 180.5 L 99 180.8 L 96.8 182 L 96.8 181.5 L 98.3 180.5 Z " /><path fill="rgb(254,254,254)" stroke="rgb(254,254,254)" stroke-width="1" opacity="0.19607843137254902" d="M 157.8 180.5 L 159.5 181.8 L 158 182 L 157.8 180.5 Z " /><path fill="rgb(254,254,254)" stroke="rgb(254,254,254)" stroke-width="1" opacity="0.19607843137254902" d="M 160.3 182 L 161 183.3 Q 160.5 184.5 160 183.8 L 160.3 182 Z " /><path fill="rgb(254,254,254)" stroke="rgb(254,254,254)" stroke-width="1" opacity="0.19607843137254902" d="M 112.3 183.5 L 113 187.8 L 112.5 187.8 L 112 186.3 L 112.3 183.5 Z " /><path fill="rgb(254,254,254)" stroke="rgb(254,254,254)" stroke-width="1" opacity="0.19607843137254902" d="M 163.3 184 L 164.5 184.5 L 164.3 185.5 L 163 184.3 L 163.3 184 Z " /><path fill="rgb(254,254,254)" stroke="rgb(254,254,254)" stroke-width="1" opacity="0.19607843137254902" d="M 167.3 184 L 167.5 184.3 L 166.3 185.5 L 166 185.3 L 167.3 184 Z " /><path fill="rgb(254,254,254)" stroke="rgb(254,254,254)" stroke-width="1" opacity="0.19607843137254902" d="M 143 185 L 144 185.3 Q 143.5 186.5 143 185.8 L 143 185 Z " /><path fill="rgb(254,254,254)" stroke="rgb(254,254,254)" stroke-width="1" opacity="0.19607843137254902" d="M 143.3 187 L 143.5 188.3 Q 143 189.5 142.5 188.8 L 143.3 187 Z " /><path fill="rgb(254,254,254)" stroke="rgb(254,254,254)" stroke-width="1" opacity="0.19607843137254902" d="M 112.8 188.5 Q 113.8 189.2 113.5 191.3 L 113 191.3 L 112.5 189.8 L 112.8 188.5 Z " /><path fill="rgb(254,254,254)" stroke="rgb(254,254,254)" stroke-width="1" opacity="0.19607843137254902" d="M 141.8 193 L 142 194.8 L 141.3 194.5 L 140.3 195.5 L 140 195.3 L 141.8 193 Z " /><path fill="rgb(254,254,254)" stroke="rgb(254,254,254)" stroke-width="1" opacity="0.19607843137254902" d="M 114.3 193.5 L 115 195.3 L 114.5 195.3 L 114.3 193.5 Z " /><path fill="rgb(254,254,254)" stroke="rgb(254,254,254)" stroke-width="1" opacity="0.19607843137254902" d="M 137.8 196 L 138.5 196.3 Q 138.3 197.3 136.8 197 L 136.8 196.5 L 137.8 196 Z " /><path fill="rgb(253,253,253)" stroke="rgb(253,253,253)" stroke-width="1" opacity="0.9921568627450981" d="M 139.8 64.5 L 141.5 66.3 L 141.3 66.5 L 139.5 64.8 L 139.8 64.5 Z " /><path fill="rgb(253,253,253)" stroke="rgb(253,253,253)" stroke-width="1" opacity="0.9921568627450981" d="M 115.3 65.5 L 116 65.8 L 114.8 66.5 Q 114 66 115.3 65.5 Z " /><path fill="rgb(253,253,253)" stroke="rgb(253,253,253)" stroke-width="1" opacity="0.9921568627450981" d="M 141.8 67 L 142 68.3 L 141.5 68.3 L 141.8 67 Z " /><path fill="rgb(253,253,253)" stroke="rgb(253,253,253)" stroke-width="1" opacity="0.9921568627450981" d="M 113.8 69 L 114 70.8 L 113.5 70.8 L 113.8 69 Z " /><path fill="rgb(253,253,253)" stroke="rgb(253,253,253)" stroke-width="1" opacity="0.9921568627450981" d="M 142.3 70 L 142.5 71.8 L 142 71.8 L 142.3 70 Z " /><path fill="rgb(253,253,253)" stroke="rgb(253,253,253)" stroke-width="1" opacity="0.9921568627450981" d="M 113.3 72.5 L 113.5 73.8 L 113 73.8 L 113.3 72.5 Z " /><path fill="rgb(253,253,253)" stroke="rgb(253,253,253)" stroke-width="1" opacity="0.9921568627450981" d="M 142.8 73 L 143 74.8 L 142.5 74.8 L 142.8 73 Z " /><path fill="rgb(253,253,253)" stroke="rgb(253,253,253)" stroke-width="1" opacity="0.9921568627450981" d="M 112.8 75 L 113 76.3 L 112.5 76.3 L 112.8 75 Z " /><path fill="rgb(253,253,253)" stroke="rgb(253,253,253)" stroke-width="1" opacity="0.9921568627450981" d="M 143.3 76.5 L 143.5 78 L 142.5 77.8 L 143.3 76.5 Z " /><path fill="rgb(253,253,253)" stroke="rgb(253,253,253)" stroke-width="1" opacity="0.9921568627450981" d="M 91.8 77 L 93.5 77.8 L 92.8 78 L 91.5 77.3 L 91.8 77 Z " /><path fill="rgb(253,253,253)" stroke="rgb(253,253,253)" stroke-width="1" opacity="0.9921568627450981" d="M 163.5 77 L 164.5 77.3 Q 164 78.5 163.5 77.8 L 163.5 77 Z " /><path fill="rgb(253,253,253)" stroke="rgb(253,253,253)" stroke-width="1" opacity="0.9921568627450981" d="M 166.8 77 L 168.3 77.5 L 181 90.3 L 180.8 90.5 L 168.3 78 L 166.8 77.5 L 166.8 77 Z " /><path fill="rgb(253,253,253)" stroke="rgb(253,253,253)" stroke-width="1" opacity="0.9921568627450981" d="M 162.8 77.5 Q 163.5 78 162.3 78.5 Q 161.5 78 162.8 77.5 Z " /><path fill="rgb(253,253,253)" stroke="rgb(253,253,253)" stroke-width="1" opacity="0.9921568627450981" d="M 87.3 78 L 87.5 78.3 L 85.8 80 L 85.5 79.8 L 87.3 78 Z " /><path fill="rgb(253,253,253)" stroke="rgb(253,253,253)" stroke-width="1" opacity="0.9921568627450981" d="M 94.3 78 Q 95.5 78.5 94.8 79 Q 93.5 78.5 94.3 78 Z " /><path fill="rgb(253,253,253)" stroke="rgb(253,253,253)" stroke-width="1" opacity="0.9921568627450981" d="M 112.3 78 L 112.5 79.3 L 112 79.3 L 112.3 78 Z " /><path fill="rgb(253,253,253)" stroke="rgb(253,253,253)" stroke-width="1" opacity="0.9921568627450981" d="M 96.3 79.5 Q 97.5 80 96.8 80.5 Q 95.5 80 96.3 79.5 Z " /><path fill="rgb(253,253,253)" stroke="rgb(253,253,253)" stroke-width="1" opacity="0.9921568627450981" d="M 159.8 79.5 Q 160.5 80 159.3 80.5 Q 158.5 80 159.8 79.5 Z " /><path fill="rgb(253,253,253)" stroke="rgb(253,253,253)" stroke-width="1" opacity="0.9921568627450981" d="M 84.8 80.5 L 85 80.8 L 75.3 90.5 L 75 90.3 L 84.8 80.5 Z " /><path fill="rgb(253,253,253)" stroke="rgb(253,253,253)" stroke-width="1" opacity="0.9921568627450981" d="M 97.8 80.5 L 99.5 81.8 L 98.8 82 L 97.5 80.8 L 97.8 80.5 Z " /><path fill="rgb(253,253,253)" stroke="rgb(253,253,253)" stroke-width="1" opacity="0.9921568627450981" d="M 158.3 80.5 L 158.5 80.8 L 157.3 82 L 156.5 81.8 L 158.3 80.5 Z " /><path fill="rgb(253,253,253)" stroke="rgb(253,253,253)" stroke-width="1" opacity="0.9921568627450981" d="M 109.8 81 L 110.5 81.3 Q 110.1 82.4 108.3 82 L 108.3 81.5 L 109.8 81 Z " /><path fill="rgb(253,253,253)" stroke="rgb(253,253,253)" stroke-width="1" opacity="0.9921568627450981" d="M 145.8 81 L 147.5 81.8 L 146.8 82 L 145.5 81.3 L 145.8 81 Z " /><path fill="rgb(253,253,253)" stroke="rgb(253,253,253)" stroke-width="1" opacity="0.9921568627450981" d="M 155.8 82 Q 156.5 82.5 155.3 83 Q 154.5 82.5 155.8 82 Z " /><path fill="rgb(253,253,253)" stroke="rgb(253,253,253)" stroke-width="1" opacity="0.9921568627450981" d="M 100.8 82.5 L 102.5 83.8 L 101.8 83.5 Q 99.8 83.2 100.8 82.5 Z " /><path fill="rgb(253,253,253)" stroke="rgb(253,253,253)" stroke-width="1" opacity="0.9921568627450981" d="M 150.8 83 L 152 83.8 L 150.5 84 L 150.8 83 Z " /><path fill="rgb(253,253,253)" stroke="rgb(253,253,253)" stroke-width="1" opacity="0.9921568627450981" d="M 154.3 83 Q 155 83.5 153.8 84 Q 153 83.5 154.3 83 Z " /><path fill="rgb(253,253,253)" stroke="rgb(253,253,253)" stroke-width="1" opacity="0.9921568627450981" d="M 73.8 92 Q 74.5 92.5 73.3 93 Q 72.5 92.5 73.8 92 Z " /><path fill="rgb(253,253,253)" stroke="rgb(253,253,253)" stroke-width="1" opacity="0.9921568627450981" d="M 182.3 92 Q 183.5 92.5 182.8 93 Q 181.5 92.5 182.3 92 Z " /><path fill="rgb(253,253,253)" stroke="rgb(253,253,253)" stroke-width="1" opacity="0.9921568627450981" d="M 72.8 93.5 L 73 94.8 L 72.5 94.8 L 72.8 93.5 Z " /><path fill="rgb(253,253,253)" stroke="rgb(253,253,253)" stroke-width="1" opacity="0.9921568627450981" d="M 183.8 94.5 L 184 96.3 L 183.5 96.3 L 183.8 94.5 Z " /><path fill="rgb(253,253,253)" stroke="rgb(253,253,253)" stroke-width="1" opacity="0.9921568627450981" d="M 74.3 99 Q 75.5 99.5 74.8 100 Q 73.5 99.5 74.3 99 Z " /><path fill="rgb(253,253,253)" stroke="rgb(253,253,253)" stroke-width="1" opacity="0.9921568627450981" d="M 181.8 99.5 Q 182.5 100 181.3 100.5 Q 180.5 100 181.8 99.5 Z " /><path fill="rgb(253,253,253)" stroke="rgb(253,253,253)" stroke-width="1" opacity="0.9921568627450981" d="M 125.3 100 L 130 100.3 L 125.3 100.5 L 125.3 100 Z " /><path fill="rgb(253,253,253)" stroke="rgb(253,253,253)" stroke-width="1" opacity="0.9921568627450981" d="M 122.3 100.5 L 123.5 100.8 L 122.3 101 L 122.3 100.5 Z " /><path fill="rgb(253,253,253)" stroke="rgb(253,253,253)" stroke-width="1" opacity="0.9921568627450981" d="M 132.8 100.5 L 134 100.8 L 132.8 101 L 132.8 100.5 Z " /><path fill="rgb(253,253,253)" stroke="rgb(253,253,253)" stroke-width="1" opacity="0.9921568627450981" d="M 75.8 101 L 77.5 103.3 Q 77 104 76.5 102.8 L 75.5 101.3 L 75.8 101 Z " /><path fill="rgb(253,253,253)" stroke="rgb(253,253,253)" stroke-width="1" opacity="0.9921568627450981" d="M 180.8 101 Q 181.5 101.5 180.3 102 Q 179.5 101.5 180.8 101 Z " /><path fill="rgb(253,253,253)" stroke="rgb(253,253,253)" stroke-width="1" opacity="0.9921568627450981" d="M 116.8 102 L 117.5 102.3 L 115.8 103 L 115.8 102.5 L 116.8 102 Z " /><path fill="rgb(253,253,253)" stroke="rgb(253,253,253)" stroke-width="1" opacity="0.9921568627450981" d="M 179.3 103 Q 180 103.5 178.8 104 Q 178 103.5 179.3 103 Z " /><path fill="rgb(253,253,253)" stroke="rgb(253,253,253)" stroke-width="1" opacity="0.9921568627450981" d="M 112.8 104 Q 113.5 104.5 112.3 105 Q 111.5 104.5 112.8 104 Z " /><path fill="rgb(253,253,253)" stroke="rgb(253,253,253)" stroke-width="1" opacity="0.9921568627450981" d="M 143.3 104 Q 144.5 104.5 143.8 105 Q 142.5 104.5 143.3 104 Z " /><path fill="rgb(253,253,253)" stroke="rgb(253,253,253)" stroke-width="1" opacity="0.9921568627450981" d="M 78.3 104.5 Q 79.5 105 78.8 105.5 Q 77.5 105 78.3 104.5 Z " /><path fill="rgb(253,253,253)" stroke="rgb(253,253,253)" stroke-width="1" opacity="0.9921568627450981" d="M 111.3 105 Q 112 105.5 110.8 106 Q 110 105.5 111.3 105 Z " /><path fill="rgb(253,253,253)" stroke="rgb(253,253,253)" stroke-width="1" opacity="0.9921568627450981" d="M 144.8 105 Q 146 105.5 145.3 106 Q 144 105.5 144.8 105 Z " /><path fill="rgb(253,253,253)" stroke="rgb(253,253,253)" stroke-width="1" opacity="0.9921568627450981" d="M 177.8 105 Q 178.5 105.5 177.3 106 Q 176.5 105.5 177.8 105 Z " /><path fill="rgb(253,253,253)" stroke="rgb(253,253,253)" stroke-width="1" opacity="0.9921568627450981" d="M 79.3 106 Q 80.5 106.5 79.8 107 Q 78.5 106.5 79.3 106 Z " /><path fill="rgb(253,253,253)" stroke="rgb(253,253,253)" stroke-width="1" opacity="0.9921568627450981" d="M 146.3 106 L 147.5 107.3 L 147.3 107.5 L 146 106.3 L 146.3 106 Z " /><path fill="rgb(253,253,253)" stroke="rgb(253,253,253)" stroke-width="1" opacity="0.9921568627450981" d="M 109.3 106.5 L 109.5 106.8 L 104.3 112 L 104 111.8 L 109.3 106.5 Z " /><path fill="rgb(253,253,253)" stroke="rgb(253,253,253)" stroke-width="1" opacity="0.9921568627450981" d="M 176.8 106.5 Q 177.5 107 176.3 107.5 Q 175.5 107 176.8 106.5 Z " /><path fill="rgb(253,253,253)" stroke="rgb(253,253,253)" stroke-width="1" opacity="0.9921568627450981" d="M 176.8 109.5 L 177.5 111.3 Q 177 112 176.5 110.8 L 176.8 109.5 Z " /><path fill="rgb(253,253,253)" stroke="rgb(253,253,253)" stroke-width="1" opacity="0.9921568627450981" d="M 150.8 110.5 L 152 111 L 151.8 112 L 150.5 110.8 L 150.8 110.5 Z " /><path fill="rgb(253,253,253)" stroke="rgb(253,253,253)" stroke-width="1" opacity="0.9921568627450981" d="M 103.8 112.5 Q 104.5 113 103.3 113.5 Q 102.5 113 103.8 112.5 Z " /><path fill="rgb(253,253,253)" stroke="rgb(253,253,253)" stroke-width="1" opacity="0.9921568627450981" d="M 152.3 112.5 L 153.5 113.8 L 153.3 114 L 152 112.8 L 152.3 112.5 Z " /><path fill="rgb(253,253,253)" stroke="rgb(253,253,253)" stroke-width="1" opacity="0.9921568627450981" d="M 102.8 114 L 102.5 114.8 L 101.8 116 L 102 115.3 L 102.8 114 Z " /><path fill="rgb(253,253,253)" stroke="rgb(253,253,253)" stroke-width="1" opacity="0.9921568627450981" d="M 178.8 115 L 179 116 L 180 116.3 L 179.3 116.5 Q 178.1 116.1 178.8 115 Z " /><path fill="rgb(253,253,253)" stroke="rgb(253,253,253)" stroke-width="1" opacity="0.9921568627450981" d="M 77.3 115.5 Q 78 116 76.8 116.5 L 76 116.3 L 77.3 115.5 Z " /><path fill="rgb(253,253,253)" stroke="rgb(253,253,253)" stroke-width="1" opacity="0.9921568627450981" d="M 101.3 116.5 L 101 117.3 Q 101.6 118.9 100.3 118.5 L 100.5 117.8 L 101.3 116.5 Z " /><path fill="rgb(253,253,253)" stroke="rgb(253,253,253)" stroke-width="1" opacity="0.9921568627450981" d="M 72.3 117 Q 73.4 116.6 73 117.8 L 71.5 117.8 L 72.3 117 Z " /><path fill="rgb(253,253,253)" stroke="rgb(253,253,253)" stroke-width="1" opacity="0.9921568627450981" d="M 183.3 117 Q 184.4 116.6 184 117.8 L 183.8 118 Q 182.5 117.5 183.3 117 Z " /><path fill="rgb(253,253,253)" stroke="rgb(253,253,253)" stroke-width="1" opacity="0.9921568627450981" d="M 155.3 117.5 Q 156.3 117.8 156 119.3 L 155.5 119.3 L 155.3 117.5 Z " /><path fill="rgb(253,253,253)" stroke="rgb(253,253,253)" stroke-width="1" opacity="0.9921568627450981" d="M 185.3 117.5 L 186.5 117.8 L 185.3 118 L 185.3 117.5 Z " /><path fill="rgb(253,253,253)" stroke="rgb(253,253,253)" stroke-width="1" opacity="0.9921568627450981" d="M 191.3 119 L 193 121.3 Q 192.5 122 192 120.8 L 191 119.3 L 191.3 119 Z " /><path fill="rgb(253,253,253)" stroke="rgb(253,253,253)" stroke-width="1" opacity="0.9921568627450981" d="M 63 121 L 64 121.3 Q 63.5 122.5 63 121.8 L 63 121 Z " /><path fill="rgb(253,253,253)" stroke="rgb(253,253,253)" stroke-width="1" opacity="0.9921568627450981" d="M 193.3 122.5 L 193.5 123.8 L 193 123.8 L 193.3 122.5 Z " /><path fill="rgb(253,253,253)" stroke="rgb(253,253,253)" stroke-width="1" opacity="0.9921568627450981" d="M 157 123 L 158 123.3 L 157.3 125 L 157 123 Z " /><path fill="rgb(253,253,253)" stroke="rgb(253,253,253)" stroke-width="1" opacity="0.9921568627450981" d="M 98.8 123.5 L 99 124.8 L 98.5 124.8 L 98.8 123.5 Z " /><path fill="rgb(253,253,253)" stroke="rgb(253,253,253)" stroke-width="1" opacity="0.9921568627450981" d="M 157.8 126.5 L 158 133.8 L 157.5 133.8 L 157.8 126.5 Z " /><path fill="rgb(253,253,253)" stroke="rgb(253,253,253)" stroke-width="1" opacity="0.9921568627450981" d="M 98.3 127 L 98.5 132.8 L 98 132.8 L 98.3 127 Z " /><path fill="rgb(253,253,253)" stroke="rgb(253,253,253)" stroke-width="1" opacity="0.9921568627450981" d="M 192.8 132.5 L 193 133.8 L 192.5 133.8 L 192.8 132.5 Z " /><path fill="rgb(253,253,253)" stroke="rgb(253,253,253)" stroke-width="1" opacity="0.9921568627450981" d="M 98.8 135 L 99 136.8 L 98.5 136.8 L 98.8 135 Z " /><path fill="rgb(253,253,253)" stroke="rgb(253,253,253)" stroke-width="1" opacity="0.9921568627450981" d="M 98.3 137.5 Q 99.9 136.9 99.5 138.3 L 98.8 138 Q 97.6 137.9 98.3 137.5 Z " /><path fill="rgb(253,253,253)" stroke="rgb(253,253,253)" stroke-width="1" opacity="0.9921568627450981" d="M 100.3 141.5 Q 101.5 142 100.8 142.5 Q 99.4 142.8 100.3 141.5 Z " /><path fill="rgb(253,253,253)" stroke="rgb(253,253,253)" stroke-width="1" opacity="0.9921568627450981" d="M 155.3 142 L 155.5 142.8 L 154.3 144.5 L 154.5 143.8 L 155.3 142 Z " /><path fill="rgb(253,253,253)" stroke="rgb(253,253,253)" stroke-width="1" opacity="0.9921568627450981" d="M 192.3 142.5 L 192.5 142.8 L 191.3 144 L 190.5 143.8 L 192.3 142.5 Z " /><path fill="rgb(253,253,253)" stroke="rgb(253,253,253)" stroke-width="1" opacity="0.9921568627450981" d="M 64.8 143 Q 66 143.5 65.3 144 Q 64 143.5 64.8 143 Z " /><path fill="rgb(253,253,253)" stroke="rgb(253,253,253)" stroke-width="1" opacity="0.9921568627450981" d="M 188.8 144 L 190 144.3 L 187.3 145 L 187.3 144.5 L 188.8 144 Z " /><path fill="rgb(253,253,253)" stroke="rgb(253,253,253)" stroke-width="1" opacity="0.9921568627450981" d="M 69.8 145 L 71 145.3 L 69.8 145.5 L 69.8 145 Z " /><path fill="rgb(253,253,253)" stroke="rgb(253,253,253)" stroke-width="1" opacity="0.9921568627450981" d="M 153.8 145 L 154 145.8 L 152.8 147 L 152.5 146.8 L 153.8 145 Z " /><path fill="rgb(253,253,253)" stroke="rgb(253,253,253)" stroke-width="1" opacity="0.9921568627450981" d="M 74.3 146 L 75.5 146.3 L 74.3 146.5 L 74.3 146 Z " /><path fill="rgb(253,253,253)" stroke="rgb(253,253,253)" stroke-width="1" opacity="0.9921568627450981" d="M 77.3 146 L 78 147.3 L 77.3 147 L 76.5 146.8 L 77.3 146 Z " /><path fill="rgb(253,253,253)" stroke="rgb(253,253,253)" stroke-width="1" opacity="0.9921568627450981" d="M 179.8 146 Q 180.5 146.5 179.3 147 Q 178.1 146.6 178.5 147.8 L 178 147.8 L 178.8 146.5 L 179.8 146 Z " /><path fill="rgb(253,253,253)" stroke="rgb(253,253,253)" stroke-width="1" opacity="0.9921568627450981" d="M 180.8 146 L 182 146.3 L 180.8 146.5 L 180.8 146 Z " /><path fill="rgb(253,253,253)" stroke="rgb(253,253,253)" stroke-width="1" opacity="0.9921568627450981" d="M 152.3 147.5 L 152.5 147.8 L 150.3 150 L 150 149.8 L 152.3 147.5 Z " /><path fill="rgb(253,253,253)" stroke="rgb(253,253,253)" stroke-width="1" opacity="0.9921568627450981" d="M 104.3 148 L 105.5 149.3 L 105.3 149.5 L 104 148.3 L 104.3 148 Z " /><path fill="rgb(253,253,253)" stroke="rgb(253,253,253)" stroke-width="1" opacity="0.9921568627450981" d="M 78.8 149.5 Q 79.8 149.8 79.5 151.3 L 79 151.3 L 78.8 149.5 Z " /><path fill="rgb(253,253,253)" stroke="rgb(253,253,253)" stroke-width="1" opacity="0.9921568627450981" d="M 108.8 152.5 L 112 155.3 L 111.3 155 L 108.5 152.8 L 108.8 152.5 Z " /><path fill="rgb(253,253,253)" stroke="rgb(253,253,253)" stroke-width="1" opacity="0.9921568627450981" d="M 147.3 152.5 L 147.3 154 L 146 153.8 L 147.3 152.5 Z " /><path fill="rgb(253,253,253)" stroke="rgb(253,253,253)" stroke-width="1" opacity="0.9921568627450981" d="M 80.3 153 L 80.5 154.3 L 80 154.3 L 80.3 153 Z " /><path fill="rgb(253,253,253)" stroke="rgb(253,253,253)" stroke-width="1" opacity="0.9921568627450981" d="M 145.3 154 L 145.5 154.3 L 144.3 155.5 L 143.3 156 Q 142.5 155.5 143.8 155 L 145.3 154 Z " /><path fill="rgb(253,253,253)" stroke="rgb(253,253,253)" stroke-width="1" opacity="0.9921568627450981" d="M 79.8 155 Q 80.5 155.5 79.3 156 Q 78.5 155.5 79.8 155 Z " /><path fill="rgb(253,253,253)" stroke="rgb(253,253,253)" stroke-width="1" opacity="0.9921568627450981" d="M 176.3 155 Q 177.5 155.5 176.8 156 Q 175.5 155.5 176.3 155 Z " /><path fill="rgb(253,253,253)" stroke="rgb(253,253,253)" stroke-width="1" opacity="0.9921568627450981" d="M 78.8 156.5 Q 79.5 157 78.3 157.5 Q 77.5 157 78.8 156.5 Z " /><path fill="rgb(253,253,253)" stroke="rgb(253,253,253)" stroke-width="1" opacity="0.9921568627450981" d="M 141.3 156.5 Q 142 157 140.8 157.5 L 138.8 158 L 138.8 157.5 L 139.8 157.5 L 141.3 156.5 Z " /><path fill="rgb(253,253,253)" stroke="rgb(253,253,253)" stroke-width="1" opacity="0.9921568627450981" d="M 177.3 156.5 Q 178.5 157 177.8 157.5 Q 176.5 157 177.3 156.5 Z " /><path fill="rgb(253,253,253)" stroke="rgb(253,253,253)" stroke-width="1" opacity="0.9921568627450981" d="M 115.8 157 L 117 157.8 L 116.3 158 Q 115 157.5 115.8 157 Z " /><path fill="rgb(253,253,253)" stroke="rgb(253,253,253)" stroke-width="1" opacity="0.9921568627450981" d="M 77.8 158 Q 78.5 158.5 77.3 159 Q 76.5 158.5 77.8 158 Z " /><path fill="rgb(253,253,253)" stroke="rgb(253,253,253)" stroke-width="1" opacity="0.9921568627450981" d="M 178.8 158.5 L 180 160.3 L 179.3 160 L 178.5 159.8 L 179 159.3 L 178.8 158.5 Z " /><path fill="rgb(253,253,253)" stroke="rgb(253,253,253)" stroke-width="1" opacity="0.9921568627450981" d="M 121.8 159 L 123 159.3 L 121.8 159.5 L 121.8 159 Z " /><path fill="rgb(253,253,253)" stroke="rgb(253,253,253)" stroke-width="1" opacity="0.9921568627450981" d="M 133.3 159 L 134.5 159.3 L 132.8 160 Q 132 159.5 133.3 159 Z " /><path fill="rgb(253,253,253)" stroke="rgb(253,253,253)" stroke-width="1" opacity="0.9921568627450981" d="M 76.8 159.5 L 77 159.8 L 75.8 161 L 75.5 160.8 L 76.8 159.5 Z " /><path fill="rgb(253,253,253)" stroke="rgb(253,253,253)" stroke-width="1" opacity="0.9921568627450981" d="M 124.8 159.5 L 131 159.8 L 124.8 160 L 124.8 159.5 Z " /><path fill="rgb(253,253,253)" stroke="rgb(253,253,253)" stroke-width="1" opacity="0.9921568627450981" d="M 75.3 161.5 Q 76 162 74.8 162.5 Q 74 162 75.3 161.5 Z " /><path fill="rgb(253,253,253)" stroke="rgb(253,253,253)" stroke-width="1" opacity="0.9921568627450981" d="M 180.8 161.5 Q 182 162 181.3 162.5 Q 180 162 180.8 161.5 Z " /><path fill="rgb(253,253,253)" stroke="rgb(253,253,253)" stroke-width="1" opacity="0.9921568627450981" d="M 73.8 164 Q 74.5 164.5 73.3 165 Q 72.5 164.5 73.8 164 Z " /><path fill="rgb(253,253,253)" stroke="rgb(253,253,253)" stroke-width="1" opacity="0.9921568627450981" d="M 182.8 164.5 L 183 165.8 L 182.5 165.8 L 182.8 164.5 Z " /><path fill="rgb(253,253,253)" stroke="rgb(253,253,253)" stroke-width="1" opacity="0.9921568627450981" d="M 73.8 169 Q 75 169.5 74.3 170 Q 73 169.5 73.8 169 Z " /><path fill="rgb(253,253,253)" stroke="rgb(253,253,253)" stroke-width="1" opacity="0.9921568627450981" d="M 182.3 169 L 182.5 169.3 L 179.8 172 L 179.5 171.8 L 182.3 169 Z " /><path fill="rgb(253,253,253)" stroke="rgb(253,253,253)" stroke-width="1" opacity="0.9921568627450981" d="M 178.8 172.5 Q 179.5 173 178.3 173.5 Q 177.5 173 178.8 172.5 Z " /><path fill="rgb(253,253,253)" stroke="rgb(253,253,253)" stroke-width="1" opacity="0.9921568627450981" d="M 78.8 174 Q 80 174.5 79.3 175 Q 78 174.5 78.8 174 Z " /><path fill="rgb(253,253,253)" stroke="rgb(253,253,253)" stroke-width="1" opacity="0.9921568627450981" d="M 176.8 174 L 177.5 174.3 L 176.3 175 Q 175.5 174.5 176.8 174 Z " /><path fill="rgb(253,253,253)" stroke="rgb(253,253,253)" stroke-width="1" opacity="0.9921568627450981" d="M 174.3 176 L 175 176.8 L 173.8 178 L 174 177.3 L 174.3 176 Z " /><path fill="rgb(253,253,253)" stroke="rgb(253,253,253)" stroke-width="1" opacity="0.9921568627450981" d="M 103.8 176.5 L 105 177.3 L 104.3 177 Q 103.1 176.9 103.8 176.5 Z " /><path fill="rgb(253,253,253)" stroke="rgb(253,253,253)" stroke-width="1" opacity="0.9921568627450981" d="M 151.8 176.5 L 153 176.8 L 151.8 177 L 151.8 176.5 Z " /><path fill="rgb(253,253,253)" stroke="rgb(253,253,253)" stroke-width="1" opacity="0.9921568627450981" d="M 153.8 177 Q 154.3 178.4 156 178 L 156.5 179.3 L 156.3 179.5 L 155.3 178.5 L 153.5 177.3 L 153.8 177 Z " /><path fill="rgb(253,253,253)" stroke="rgb(253,253,253)" stroke-width="1" opacity="0.9921568627450981" d="M 105.8 177.5 L 107.8 178 L 108.5 178.8 L 107.8 178.5 L 105.8 178 L 105.8 177.5 Z " /><path fill="rgb(253,253,253)" stroke="rgb(253,253,253)" stroke-width="1" opacity="0.9921568627450981" d="M 100.8 178 L 101.5 178.3 L 99.8 179.5 L 99.5 179.3 L 100.8 178 Z " /><path fill="rgb(253,253,253)" stroke="rgb(253,253,253)" stroke-width="1" opacity="0.9921568627450981" d="M 147.3 178 Q 148.5 178.5 147.8 179 Q 146.4 179.3 147.3 178 Z " /><path fill="rgb(253,253,253)" stroke="rgb(253,253,253)" stroke-width="1" opacity="0.9921568627450981" d="M 109.3 178.5 Q 110.5 179 109.8 179.5 Q 108.4 179.8 109.3 178.5 Z " /><path fill="rgb(253,253,253)" stroke="rgb(253,253,253)" stroke-width="1" opacity="0.9921568627450981" d="M 98.8 179.5 Q 99.5 180 98.3 180.5 Q 97.5 180 98.8 179.5 Z " /><path fill="rgb(253,253,253)" stroke="rgb(253,253,253)" stroke-width="1" opacity="0.9921568627450981" d="M 157.3 179.5 Q 158.5 180 157.8 180.5 Q 156.5 180 157.3 179.5 Z " /><path fill="rgb(253,253,253)" stroke="rgb(253,253,253)" stroke-width="1" opacity="0.9921568627450981" d="M 111.8 180 Q 112.8 180.3 112.5 181.8 L 112 181.8 L 111.8 180 Z " /><path fill="rgb(253,253,253)" stroke="rgb(253,253,253)" stroke-width="1" opacity="0.9921568627450981" d="M 171.3 180 Q 172 180.5 170.8 181 Q 170 180.5 171.3 180 Z " /><path fill="rgb(253,253,253)" stroke="rgb(253,253,253)" stroke-width="1" opacity="0.9921568627450981" d="M 85.3 180.5 Q 86.5 181 85.8 181.5 Q 84.5 181 85.3 180.5 Z " /><path fill="rgb(253,253,253)" stroke="rgb(253,253,253)" stroke-width="1" opacity="0.9921568627450981" d="M 97.3 180.5 Q 98 181 96.8 181.5 Q 96 181 97.3 180.5 Z " /><path fill="rgb(253,253,253)" stroke="rgb(253,253,253)" stroke-width="1" opacity="0.9921568627450981" d="M 158.8 180.5 Q 160 181 159.3 181.5 Q 158 181 158.8 180.5 Z " /><path fill="rgb(253,253,253)" stroke="rgb(253,253,253)" stroke-width="1" opacity="0.9921568627450981" d="M 160.3 181.5 Q 160.7 182.4 162 182 L 161.8 183 L 160 181.8 L 160.3 181.5 Z " /><path fill="rgb(253,253,253)" stroke="rgb(253,253,253)" stroke-width="1" opacity="0.9921568627450981" d="M 169.8 181.5 L 170 181.8 L 168.3 183.5 L 167.3 184 Q 166.5 183.5 167.8 183 L 169.8 181.5 Z " /><path fill="rgb(253,253,253)" stroke="rgb(253,253,253)" stroke-width="1" opacity="0.9921568627450981" d="M 86.8 182 L 88 183.3 L 87.8 183.5 L 86.5 182.3 L 86.8 182 Z " /><path fill="rgb(253,253,253)" stroke="rgb(253,253,253)" stroke-width="1" opacity="0.9921568627450981" d="M 143.3 182 L 143.5 183.3 L 143 183.3 L 143.3 182 Z " /><path fill="rgb(253,253,253)" stroke="rgb(253,253,253)" stroke-width="1" opacity="0.9921568627450981" d="M 94.3 182.5 Q 95 183 93.8 183.5 Q 93 183 94.3 182.5 Z " /><path fill="rgb(253,253,253)" stroke="rgb(253,253,253)" stroke-width="1" opacity="0.9921568627450981" d="M 112.8 183 L 113 184.8 L 112.5 184.8 L 112.8 183 Z " /><path fill="rgb(253,253,253)" stroke="rgb(253,253,253)" stroke-width="1" opacity="0.9921568627450981" d="M 162.8 183 L 164 183.8 L 163.3 184 Q 162 183.5 162.8 183 Z " /><path fill="rgb(253,253,253)" stroke="rgb(253,253,253)" stroke-width="1" opacity="0.9921568627450981" d="M 89.8 184 L 91.5 184.3 L 89.8 184.5 L 89.8 184 Z " /><path fill="rgb(253,253,253)" stroke="rgb(253,253,253)" stroke-width="1" opacity="0.9921568627450981" d="M 164.8 184 L 166 184.3 L 164.8 184.5 L 164.8 184 Z " /><path fill="rgb(253,253,253)" stroke="rgb(253,253,253)" stroke-width="1" opacity="0.9921568627450981" d="M 142.8 184.5 L 143 186.3 L 142.5 186.3 L 142.8 184.5 Z " /><path fill="rgb(253,253,253)" stroke="rgb(253,253,253)" stroke-width="1" opacity="0.9921568627450981" d="M 113.3 186 L 113.5 187.3 L 113 187.3 L 113.3 186 Z " /><path fill="rgb(253,253,253)" stroke="rgb(253,253,253)" stroke-width="1" opacity="0.9921568627450981" d="M 142.3 188 L 142.5 189.3 L 142 189.3 L 142.3 188 Z " /><path fill="rgb(253,253,253)" stroke="rgb(253,253,253)" stroke-width="1" opacity="0.9921568627450981" d="M 113.8 189 L 114 190.3 L 113.5 190.3 L 113.8 189 Z " /><path fill="rgb(253,253,253)" stroke="rgb(253,253,253)" stroke-width="1" opacity="0.9921568627450981" d="M 141.8 191 L 142 192.3 L 141.5 192.3 L 141.8 191 Z " /><path fill="rgb(253,253,253)" stroke="rgb(253,253,253)" stroke-width="1" opacity="0.9921568627450981" d="M 114.8 193.5 L 116.5 195.3 L 116.3 195.5 L 114.5 193.8 L 114.8 193.5 Z " /><path fill="rgb(254,254,254)" stroke="rgb(254,254,254)" stroke-width="1" opacity="0.996078431372549" d="M 117.8 64 L 137.8 64 L 139.3 64.5 L 141.5 66.8 L 143 77.3 L 142.8 78 L 143.5 78 L 143.5 80.5 L 144.3 80.5 L 146.8 82 L 148.3 82 L 150.5 83 L 150.8 84 L 153.8 84 L 163.3 77.5 Q 164 78.7 164.8 77 L 166.3 77 L 168.3 78 L 182 91.8 L 183.5 94.3 L 183.5 96.8 L 176 107.3 L 176 108.8 Q 176.9 109.1 176.5 110.8 L 177.5 111.8 L 178.5 115.8 L 179.3 116.5 L 182.8 117 L 183.8 118 L 184.8 117.5 L 185.3 118 L 187.3 118 L 187.8 118.5 L 190.8 119 L 192 120.3 L 193 121.8 L 193 126.3 L 192.5 127.3 L 193 127.8 L 193 132.3 L 192.5 133.8 L 193 134.3 L 192.5 134.8 L 193 136.3 L 193 140.8 L 192.5 142.3 L 191.3 143.5 L 186.8 145 L 183.3 145.5 L 182.8 146 L 180.8 146 L 180.3 146.5 Q 179.8 145.5 179.3 146.5 L 178 147.3 L 178 148.3 L 176.5 150.8 L 175.5 154.3 L 179 159.3 L 178.8 160 L 180.5 161.3 L 182.5 164.3 Q 182.1 165.9 183 166.3 L 182.5 167.8 L 182.5 168.8 L 179.5 171.8 L 179.5 172.5 L 178 173.3 Q 178.4 174.6 176.8 174 L 176 174.8 L 176.3 175.5 L 175.5 175.5 Q 176.1 176.8 174.8 176.5 L 174 176.3 L 173.5 178.5 L 172 178.8 Q 173.1 179.4 171.8 180 L 170.5 180.8 Q 170.9 181.9 169.8 181.5 L 166.8 184 L 164.3 184 L 162 183 Q 162.6 181.5 160.8 182 L 156 178.8 Q 156.4 177.4 154.8 178 Q 153.9 176.6 151.8 176.5 L 147.8 178.5 L 147 178.3 Q 147.4 179.4 146.3 179 L 143.5 180 Q 144 181.7 143 182.3 L 143 184.3 L 142.5 184.8 L 142 190.8 L 141.5 191.3 L 141.5 192.8 L 141 194 Q 139.7 193.4 140 194.8 L 139 194.8 Q 139.4 196.1 137.8 195.5 L 137.3 196 L 127.8 196 L 127.3 195.5 L 125.8 196 L 118.8 196 Q 118.4 195.1 116.8 195.5 L 114.5 193.3 L 114 191.8 L 114 189.3 L 113.5 188.8 L 113.5 186.3 L 113 185.8 L 113 183.3 L 112.5 182.8 L 112.5 180.8 L 111.8 180 L 109.3 178.5 Q 108.5 179.7 107.8 178 L 105.3 177.5 L 103.8 176.5 L 101.8 178 L 100.8 178 L 93.3 183.5 Q 92 184.5 89.3 184 L 86.8 182 L 86 182 L 85.3 180.5 L 84 179.8 Q 84.4 178.6 83.3 179 Q 81.8 178.4 82 177 L 81.3 177 L 79.5 175.3 L 78.8 174 L 78 174 L 78 173 L 77 173 L 77 172 L 76 172 Q 76.6 170.7 75.3 171 L 73.5 168.8 L 73.8 168 L 73 167.8 L 73 165.3 L 80 155.3 L 80.5 153.3 Q 79.2 152.6 79.5 150.3 L 78 148.3 L 78 146.8 L 77.3 146 L 75.8 146.5 L 75.3 146 L 73.3 146 L 70.8 145 L 68.8 145 L 64 143 L 63 140.8 L 63 122.3 Q 64.8 121.5 63.5 120.8 L 64.8 119.5 L 66.8 118.5 L 70.8 118 L 71.3 117.5 L 71.8 118 L 72.3 117.5 L 73 117.8 Q 72.6 116.2 74.8 117 Q 75.1 116.1 76.8 116.5 L 77.5 115.8 L 78 113.3 L 80.5 107.8 L 77.5 103.8 L 77 102.3 L 74 98.8 L 72.5 95.3 L 74 91.8 L 85 80.8 L 85 80 L 85.8 80 L 89.3 77 L 91.3 77 L 92.8 78 L 93.8 78 L 101.3 83.5 Q 102.2 84.3 104.3 84 L 107.8 82 L 109.8 82 L 112 80.3 L 112.5 79.3 L 113 74.3 L 113.5 73.8 L 114 68.3 L 115.3 66 L 116 65.8 Q 114.9 65.1 116.3 64.5 L 117.8 64 Z M 124 100 L 124 101 L 120 101 L 116 103 Q 115 104 115 103 L 115 104 L 113 104 L 109 107 Q 104 111 101 118 Q 100 118 101 119 L 99 122 Q 99 123 99 124 L 99 127 L 98 127 L 98 133 L 99 133 L 99 137 L 99 137 L 98 138 L 99 138 L 100 139 L 100 141 Q 101 141 100 142 Q 100 143 101 143 L 102 145 L 104 148 L 107 151 L 107 152 L 108 152 L 111 155 L 115 157 L 116 158 L 118 158 L 122 160 L 124 160 L 125 160 L 131 160 L 131 160 L 133 160 L 138 158 L 140 158 L 144 156 L 146 154 L 147 154 L 147 153 L 148 152 Q 150 152 149 151 L 150 151 L 150 150 L 154 146 L 154 145 L 156 143 L 157 138 L 157 137 L 158 136 L 158 134 L 158 134 L 158 127 L 158 126 Q 157 124 158 123 L 157 123 L 157 122 L 156 120 L 156 118 L 155 117 L 154 114 L 152 112 L 152 111 L 151 111 L 146 106 L 139 102 L 134 101 L 134 101 L 125 100 Q 125 101 124 100 Z " /></svg>