<?xml version="1.0" encoding="UTF-8"?>
<svg version="1.1" xmlns="http://www.w3.org/2000/svg" width="500" height="500">
<path d="M0 0 C1.28249634 -0.00902847 2.56499268 -0.01805695 3.88635254 -0.02735901 C6.59613545 -0.0437772 9.30579598 -0.05153479 12.015625 -0.05444336 C14.76211441 -0.05873323 17.50765812 -0.07946935 20.25390625 -0.1159668 C42.40877952 -0.40520122 62.42198602 1.18888843 80.65625 15.37109375 C80.65625 16.03109375 80.65625 16.69109375 80.65625 17.37109375 C81.213125 17.59796875 81.77 17.82484375 82.34375 18.05859375 C94.4384284 24.92314095 102.8728074 41.52420422 106.65625 54.37109375 C107.10677734 55.87929687 107.10677734 55.87929687 107.56640625 57.41796875 C110.80295393 70.48458916 109.92898655 84.00979991 109.65625 97.37109375 C111.07393677 97.60505859 111.07393677 97.60505859 112.52026367 97.84375 C125.46511441 100.02054078 138.12984021 106.57559216 148.65625 114.37109375 C148.65625 115.03109375 148.65625 115.69109375 148.65625 116.37109375 C149.24019531 116.64179688 149.82414063 116.9125 150.42578125 117.19140625 C163.28007184 123.98999777 172.87903151 139.85733993 177.6484375 153.1328125 C178.13671431 154.77634217 178.60094492 156.42730417 179.03515625 158.0859375 C179.66017165 160.38552247 180.45995826 162.53457801 181.34375 164.74609375 C182.65625 168.37109375 182.65625 168.37109375 182.65625 172.37109375 C183.4915625 172.71140625 183.4915625 172.71140625 184.34375 173.05859375 C189.12731152 175.77358812 192.39261581 179.39884053 194.15234375 184.66796875 C195.96495242 194.39141992 196.16481237 205.64698355 190.51953125 214.06640625 C187.97392198 217.39095589 185.40309804 219.5671959 181.65625 221.37109375 C179.00934838 221.65590014 176.60133789 221.78105886 173.95814514 221.7587738 C173.19039857 221.76415934 172.422652 221.76954488 171.63164037 221.77509362 C169.06293828 221.78938386 166.49475074 221.78226697 163.92602539 221.77514648 C162.08282558 221.7808495 160.2396293 221.78781349 158.3964386 221.79594421 C153.39230831 221.8138983 148.38835317 221.812703 143.38420033 221.80700183 C139.20666534 221.80391324 135.02916415 221.80999876 130.85163397 221.81604058 C120.99651974 221.83009158 111.14149219 221.82851971 101.28637695 221.81713867 C91.1189941 221.80565649 80.95187498 221.81973355 70.78452688 221.84653515 C62.05487397 221.86868543 53.32530389 221.87533105 44.59562486 221.86945873 C39.38189818 221.8660864 34.16834058 221.86852266 28.95463753 221.88570976 C24.05192303 221.90116607 19.14959953 221.8972379 14.24690056 221.87840462 C12.44819082 221.87471511 10.6494522 221.87783773 8.85076904 221.88829041 C6.39384069 221.90147761 3.93821105 221.88997395 1.4813385 221.87229919 C0.41542255 221.8867067 0.41542255 221.8867067 -0.67202705 221.90140527 C-6.57248498 221.81415921 -10.06679613 219.59076576 -14.20703125 215.5546875 C-14.68527344 214.97847656 -15.16351563 214.40226563 -15.65625 213.80859375 C-16.14738281 213.22980469 -16.63851562 212.65101563 -17.14453125 212.0546875 C-20.52778236 207.30491151 -19.56750108 201.12008456 -19.59375 195.55859375 C-19.614375 194.47771484 -19.635 193.39683594 -19.65625 192.28320312 C-19.68475692 186.47848227 -19.59261515 182.27004042 -16.34375 177.37109375 C-15.68375 177.37109375 -15.02375 177.37109375 -14.34375 177.37109375 C-14.34375 176.71109375 -14.34375 176.05109375 -14.34375 175.37109375 C-13.35375 174.71109375 -12.36375 174.05109375 -11.34375 173.37109375 C-10.40347603 171.38557343 -10.40347603 171.38557343 -9.765625 169.0390625 C-9.49564697 168.16427246 -9.22566895 167.28948242 -8.94750977 166.38818359 C-8.66576904 165.45441895 -8.38402832 164.5206543 -8.09375 163.55859375 C-3.85455953 150.24250862 2.11724075 139.49036884 10.65625 128.37109375 C11.45289063 127.22833984 11.45289063 127.22833984 12.265625 126.0625 C12.95398438 125.22525391 12.95398438 125.22525391 13.65625 124.37109375 C14.31625 124.37109375 14.97625 124.37109375 15.65625 124.37109375 C15.65625 123.71109375 15.65625 123.05109375 15.65625 122.37109375 C16.31625 122.37109375 16.97625 122.37109375 17.65625 122.37109375 C17.65625 121.71109375 17.65625 121.05109375 17.65625 120.37109375 C19.74266217 118.5312029 21.83085356 116.81537645 24.03125 115.12109375 C24.67030273 114.62601318 25.30935547 114.13093262 25.96777344 113.62084961 C44.60584624 99.37109375 44.60584624 99.37109375 54.65625 99.37109375 C54.63668091 95.3866741 54.58452187 91.40406895 54.50366211 87.42041016 C54.46938033 85.40809354 54.46004225 83.39540156 54.45117188 81.3828125 C54.28296969 73.94453788 53.97912626 67.95584621 48.65625 62.37109375 C46.0036282 60.52633701 46.0036282 60.52633701 43.65625 59.37109375 C43.65625 58.71109375 43.65625 58.05109375 43.65625 57.37109375 C36.02770398 55.42843892 27.79050718 56.02818503 19.97460938 55.96606445 C17.93602552 55.94449128 15.89753413 55.91039652 13.859375 55.86352539 C10.90062647 55.79621578 7.94378312 55.76901792 4.984375 55.75 C3.63391083 55.70825401 3.63391083 55.70825401 2.25616455 55.66566467 C-4.68031685 55.68793689 -9.10857228 57.8529824 -14.34375 62.37109375 C-19.14005514 67.57338606 -20.469922 72.39541961 -20.46679783 79.32796192 C-20.46878888 80.30630113 -20.47077993 81.28464035 -20.47283131 82.2926262 C-20.46991847 83.35974562 -20.46700563 84.42686504 -20.46400452 85.52632141 C-20.46528615 87.23557093 -20.46528615 87.23557093 -20.46659368 88.97935075 C-20.46824357 92.80566703 -20.46273509 96.63193969 -20.45727539 100.45825195 C-20.4564368 103.19787117 -20.45710746 105.93748953 -20.4577179 108.67710876 C-20.45824217 114.57948065 -20.45510544 120.48184148 -20.44948006 126.38421059 C-20.441352 134.91803821 -20.4387485 143.45186049 -20.43749207 151.98569157 C-20.4353036 165.83136577 -20.42864908 179.67703408 -20.41918945 193.52270508 C-20.41001003 206.97224905 -20.40293178 220.42179142 -20.39868164 233.87133789 C-20.39841892 234.70040904 -20.39815619 235.5294802 -20.39788551 236.38367472 C-20.39658047 240.54289335 -20.39531676 244.70211198 -20.39407361 248.86133063 C-20.38370739 283.36458924 -20.36609466 317.86784086 -20.34375 352.37109375 C-20.17359375 351.68402344 -20.0034375 350.99695313 -19.828125 350.2890625 C-19.58578125 349.38800781 -19.3434375 348.48695313 -19.09375 347.55859375 C-18.86171875 346.66527344 -18.6296875 345.77195312 -18.390625 344.8515625 C-17.1594356 341.93437867 -16.07556914 340.92418352 -13.34375 339.37109375 C-9.77705664 338.98894803 -7.28861236 338.97325697 -3.96875 340.37109375 C-1.12306219 343.87347875 -1.14471853 348.37290069 -1.578125 352.72412109 C-1.98997012 355.18969388 -2.49002868 357.61828266 -3.03125 360.05859375 C-3.19302734 360.88681641 -3.35480469 361.71503906 -3.52148438 362.56835938 C-4.55296932 367.39354549 -5.65004477 370.86485101 -9.34375 374.37109375 C-13.25647241 375.33211329 -15.51027698 375.64891809 -19.34375 374.37109375 C-19.34375 373.71109375 -19.34375 373.05109375 -19.34375 372.37109375 C-20.00375 372.37109375 -20.66375 372.37109375 -21.34375 372.37109375 C-21.33851318 373.13776367 -21.33327637 373.90443359 -21.32788086 374.69433594 C-21.30708636 378.16991353 -21.29408191 381.64547802 -21.28125 385.12109375 C-21.27287109 386.32765625 -21.26449219 387.53421875 -21.25585938 388.77734375 C-21.25263672 389.9375 -21.24941406 391.09765625 -21.24609375 392.29296875 C-21.24085693 393.3612793 -21.23562012 394.42958984 -21.23022461 395.53027344 C-21.33062785 398.04272961 -21.43154068 400.03484431 -22.34375 402.37109375 C-29.0727528 406.85709561 -38.26041706 405.55728269 -46.10424805 405.55639648 C-48.27217201 405.55858459 -50.43958748 405.57678831 -52.60742188 405.59570312 C-66.46794641 405.65652901 -66.46794641 405.65652901 -72.34375 403.37109375 C-75.37459865 400.25380685 -75.71871421 397.98109346 -75.71848011 393.70625114 C-75.72568665 392.54448321 -75.7328932 391.38271528 -75.74031812 390.18574226 C-75.73294383 388.90852904 -75.72556955 387.63131582 -75.7179718 386.31539917 C-75.72071173 384.94551221 -75.72476324 383.57562735 -75.73001546 382.20574772 C-75.74062183 378.43728495 -75.73246066 374.66905869 -75.72126496 370.90060616 C-75.71243648 366.83772364 -75.72086274 362.77487253 -75.72712708 358.71199036 C-75.73662656 350.74949007 -75.73000431 342.78708026 -75.71786413 334.82458667 C-75.70425099 325.55060931 -75.70588152 316.27665357 -75.70799746 307.00266875 C-75.71118931 290.4503283 -75.69951057 273.89803083 -75.67993164 257.34570312 C-75.66094518 241.29002573 -75.65383904 225.23439876 -75.65942383 209.17871094 C-75.66548623 191.69822309 -75.66529466 174.21775744 -75.653938 156.73727143 C-75.65273072 154.87175441 -75.65152473 153.00623739 -75.65032005 151.14072037 C-75.64971651 150.22285872 -75.64911298 149.30499707 -75.64849115 148.35932144 C-75.64461578 141.89833693 -75.64500423 135.43736069 -75.6469059 128.97637558 C-75.64903159 121.09540297 -75.64377598 113.21447446 -75.62929235 105.33351426 C-75.62206433 101.31409916 -75.61795761 97.29474818 -75.62253571 93.27532768 C-75.62662952 89.59133811 -75.62139745 85.9074806 -75.60890963 82.223511 C-75.60462179 80.26864587 -75.61005314 78.31376676 -75.61589891 76.35890567 C-75.55551657 64.16880454 -73.20622302 52.59218534 -68.34375 41.37109375 C-67.68375 41.37109375 -67.02375 41.37109375 -66.34375 41.37109375 C-66.199375 40.77296875 -66.055 40.17484375 -65.90625 39.55859375 C-65.4565061 37.80958971 -64.91482659 36.08432352 -64.34375 34.37109375 C-63.68375 34.37109375 -63.02375 34.37109375 -62.34375 34.37109375 C-62.158125 33.71109375 -61.9725 33.05109375 -61.78125 32.37109375 C-59.7071641 28.04256664 -56.5990692 24.85945593 -53.34375 21.37109375 C-52.580625 20.54609375 -51.8175 19.72109375 -51.03125 18.87109375 C-49.34375 17.37109375 -49.34375 17.37109375 -47.34375 17.37109375 C-47.34375 16.71109375 -47.34375 16.05109375 -47.34375 15.37109375 C-33.12074432 4.82605026 -17.54505778 0.07706245 0 0 Z " fill="#32285A" transform="translate(172.34375,47.62890625)"/>
<path d="M0 0 C1.6021637 -0.01210762 1.6021637 -0.01210762 3.23669434 -0.02445984 C5.49599606 -0.03826293 7.7553183 -0.04900188 10.01464844 -0.05688477 C12.30312297 -0.06836919 14.59157147 -0.08876432 16.87988281 -0.1184082 C38.90642445 -0.40337141 56.00723492 2.07867713 72.71484375 17.84765625 C86.21791187 32.16980129 89.1810164 47.68828496 89.03125 66.80078125 C89.02673828 67.90486328 89.02222656 69.00894531 89.01757812 70.14648438 C89.00590155 72.84377383 88.98797028 75.541035 88.96875 78.23828125 C82.69875 78.23828125 76.42875 78.23828125 69.96875 78.23828125 C69.93007813 75.27214844 69.93007813 75.27214844 69.890625 72.24609375 C69.84884842 70.29651997 69.8069289 68.34694673 69.76123047 66.39746094 C69.71966573 64.40713123 69.69750456 62.41642639 69.67578125 60.42578125 C69.34159912 47.19216893 65.79933692 37.68729296 56.125 28.484375 C47.52047855 21.44912078 37.7932455 19.61775369 26.94140625 19.63671875 C25.83123642 19.6281485 24.72106659 19.61957825 23.57725525 19.61074829 C21.24529735 19.59933716 18.91326831 19.59820507 16.58129883 19.60693359 C13.04318245 19.61325991 9.50840808 19.56623032 5.97070312 19.515625 C-10.48976484 19.28041148 -10.48976484 19.28041148 -25.03125 26.23828125 C-26.124375 26.96015625 -27.2175 27.68203125 -28.34375 28.42578125 C-38.77936736 39.34677616 -41.48571306 50.35309265 -41.42997742 65.03846741 C-41.43542366 66.42804857 -41.44217804 67.81762512 -41.45011932 69.20719427 C-41.46807989 73.00644188 -41.46759556 76.80549338 -41.46398985 80.6047734 C-41.46336446 84.70897991 -41.48000053 88.8131215 -41.49450684 92.91729736 C-41.51727061 100.02169848 -41.52917411 107.12605064 -41.53363609 114.23048592 C-41.54010311 124.50220841 -41.56305021 134.77384248 -41.58997939 145.0455293 C-41.6332277 161.71189966 -41.66320563 178.3782663 -41.68481445 195.04467773 C-41.70583 211.23154533 -41.73311013 227.41838243 -41.76879883 243.60522461 C-41.77099765 244.60350362 -41.77319648 245.60178262 -41.77546193 246.63031251 C-41.78653173 251.6385409 -41.79772451 256.64676901 -41.80897844 261.65499699 C-41.90213585 303.18273164 -41.97374666 344.7104829 -42.03125 386.23828125 C-39.72125 386.23828125 -37.41125 386.23828125 -35.03125 386.23828125 C-35.03125 386.56828125 -35.03125 386.89828125 -35.03125 387.23828125 C-45.59125 387.23828125 -56.15125 387.23828125 -67.03125 387.23828125 C-67.03125 386.90828125 -67.03125 386.57828125 -67.03125 386.23828125 C-64.72125 386.23828125 -62.41125 386.23828125 -60.03125 386.23828125 C-60.03352832 385.17288918 -60.03352832 385.17288918 -60.03585267 384.08597404 C-60.12541616 341.9655121 -60.1940221 299.84506123 -60.23551132 257.72452318 C-60.24051399 252.66408625 -60.24569129 247.60364952 -60.25097656 242.54321289 C-60.2520258 241.53579513 -60.25307505 240.52837738 -60.25415608 239.49043181 C-60.27154882 223.1906044 -60.30308028 206.89083357 -60.33986118 190.59103969 C-60.37730209 173.85888684 -60.39949251 157.12676356 -60.40760398 140.39457053 C-60.41308521 130.07462272 -60.43038081 119.75483487 -60.46291587 109.43493631 C-60.48410264 102.35274311 -60.49044063 95.27063229 -60.48525551 88.18840972 C-60.4827002 84.1057774 -60.48654434 80.02342406 -60.5080719 75.94084167 C-60.52767657 72.19537497 -60.52843103 68.45037231 -60.51484558 64.7048833 C-60.51238105 62.72417737 -60.52950786 60.74347612 -60.54757524 58.76285106 C-60.47630419 47.99485511 -58.23155725 37.96241481 -52.53125 28.73828125 C-51.9640625 27.79984375 -51.396875 26.86140625 -50.8125 25.89453125 C-49.00756423 23.20296037 -47.17853129 20.6671732 -45.03125 18.23828125 C-44.37125 18.23828125 -43.71125 18.23828125 -43.03125 18.23828125 C-42.70125 17.24828125 -42.37125 16.25828125 -42.03125 15.23828125 C-40.1225529 13.65805761 -38.25966673 12.25165206 -36.21875 10.86328125 C-35.63923584 10.46625 -35.05972168 10.06921875 -34.46264648 9.66015625 C-23.38897344 2.30075578 -13.08933347 0.09490556 0 0 Z " fill="#3862B7" transform="translate(175.03125,65.76171875)"/>
<path d="M0 0 C2.12642132 0.00315169 4.25143623 -0.02032717 6.37768555 -0.0456543 C14.42831642 -0.08324305 21.67100486 0.62796188 29.32885742 3.31567383 C30.38717773 3.66887695 31.44549805 4.02208008 32.53588867 4.38598633 C52.30721548 12.38937199 67.41781594 25.51412859 76.55932617 44.92895508 C78.6760259 49.96471364 79.52774198 53.70786576 80.32885742 59.31567383 C29.17885742 59.31567383 -21.97114258 59.31567383 -74.67114258 59.31567383 C-71.15449271 46.42129099 -71.15449271 46.42129099 -68.04614258 40.81567383 C-67.70059326 40.18330811 -67.35504395 39.55094238 -66.99902344 38.89941406 C-55.88629599 19.20127675 -39.18962257 8.12236102 -18.19458008 1.16333008 C-12.24312436 -0.24438624 -6.08157157 -0.01881976 0 0 Z " fill="#378BCE" transform="translate(255.671142578125,160.684326171875)"/>
<path d="M0 0 C0.71477052 -0.00155999 1.42954104 -0.00311998 2.16597128 -0.00472724 C4.57897044 -0.0087397 6.99190751 -0.00554667 9.40490723 -0.00241089 C11.1275486 -0.00376482 12.85018967 -0.00554471 14.5728302 -0.00772095 C19.26484443 -0.01229624 23.95683677 -0.01050533 28.64885139 -0.00734186 C33.54780259 -0.00481875 38.44675186 -0.00715566 43.34570312 -0.00872803 C51.57426288 -0.01054987 59.80281367 -0.00814304 68.03137207 -0.00338745 C77.55906883 0.0020552 87.0867442 0.00029255 96.61444044 -0.00521386 C104.77916634 -0.00974458 112.94388579 -0.01039574 121.10861254 -0.00777519 C125.99186078 -0.00621219 130.87509895 -0.00601927 135.75834656 -0.00931168 C140.34815159 -0.0121898 144.93792891 -0.01021579 149.52773094 -0.00441742 C151.21727134 -0.0030895 152.90681404 -0.00348447 154.59635353 -0.00568008 C156.89279962 -0.00839036 159.18915545 -0.00501199 161.4855957 0 C162.77388527 0.00037703 164.06217484 0.00075405 165.38950348 0.0011425 C168.24279785 0.12698364 168.24279785 0.12698364 169.24279785 1.12698364 C169.34172725 3.29179161 169.37250886 5.45992149 169.36779785 7.62698364 C169.37037598 8.81292114 169.3729541 9.99885864 169.37561035 11.22073364 C169.24279785 14.12698364 169.24279785 14.12698364 168.24279785 15.12698364 C165.99218727 15.22624413 163.73839401 15.25330799 161.4855957 15.25396729 C160.77082518 15.25552728 160.05605466 15.25708727 159.31962442 15.25869453 C156.90662526 15.26270698 154.49368819 15.25951395 152.08068848 15.25637817 C150.35804711 15.25773211 148.63540603 15.25951199 146.9127655 15.26168823 C142.22075128 15.26626352 137.52875894 15.26447262 132.83674431 15.26130915 C127.93779311 15.25878604 123.03884385 15.26112295 118.13989258 15.26269531 C109.91133282 15.26451715 101.68278203 15.26211032 93.45422363 15.25735474 C83.92652687 15.25191209 74.3988515 15.25367474 64.87115526 15.25918114 C56.70642936 15.26371186 48.54170992 15.26436302 40.37698317 15.26174247 C35.49373492 15.26017947 30.61049675 15.25998656 25.72724915 15.26327896 C21.13744411 15.26615708 16.54766679 15.26418308 11.95786476 15.2583847 C10.26832437 15.25705679 8.57878166 15.25745175 6.88924217 15.25964737 C4.59279608 15.26235765 2.29644025 15.25897928 0 15.25396729 C-1.28828957 15.25359026 -2.57657913 15.25321323 -3.90390778 15.25282478 C-6.75720215 15.12698364 -6.75720215 15.12698364 -7.75720215 14.12698364 C-7.85613154 11.96217568 -7.88691315 9.79404579 -7.88220215 7.62698364 C-7.88478027 6.44104614 -7.8873584 5.25510864 -7.89001465 4.03323364 C-7.64393858 -1.35148967 -4.76983179 0.00139592 0 0 Z " fill="#A83936" transform="translate(178.7572021484375,235.87301635742188)"/>
<path d="M0 0 C0.33 0 0.66 0 1 0 C1.33 91.74 1.66 183.48 2 278 C2.99 274.7 3.98 271.4 5 268 C9.4327196 264.6754603 10.67260396 264.42920757 16 265 C18.375 266 18.375 266 20 268 C21.27008465 274.3223551 20.69896198 279.436086 19.3125 285.6875 C19.15072266 286.51572266 18.98894531 287.34394531 18.82226562 288.19726562 C17.79078068 293.02245174 16.69370523 296.49375726 13 300 C9.08727759 300.96101954 6.83347302 301.27782434 3 300 C3 299.34 3 298.68 3 298 C2.34 298 1.68 298 1 298 C1 306.58 1 315.16 1 324 C0.67 324 0.34 324 0 324 C0 217.08 0 110.16 0 0 Z " fill="#3F98A7" transform="translate(150,122)"/>
<path d="M0 0 C2.37871656 1.66166662 3.79789081 2.93160803 4.35058594 5.85327148 C4.46860577 8.12410881 4.4507857 10.35236161 4.375 12.625 C4.35848389 13.42953613 4.34196777 14.23407227 4.32495117 15.06298828 C3.89471985 29.72633618 3.89471985 29.72633618 -0.1875 34.625 C-3.83003017 36.40579253 -5.991846 36.64416761 -10 36 C-12.875 33.5625 -12.875 33.5625 -15 31 C-15.33 30.67 -15.66 30.34 -16 30 C-16.44480797 21.40037919 -16.5288749 9.55446779 -12 2 C-11.34 2 -10.68 2 -10 2 C-10 1.34 -10 0.68 -10 0 C-6.39985902 -1.24620265 -3.65974239 -0.99118023 0 0 Z " fill="#0BA0AD" transform="translate(228,285)"/>
<path d="M0 0 C3.37807372 0.06517184 4.34036724 0.16152543 7.125 2.25 C10.70829873 7.32633986 9.92597908 12.70720093 10 18.75 C10.03738281 19.89984375 10.07476562 21.0496875 10.11328125 22.234375 C10.20202364 30.69448311 10.20202364 30.69448311 7.31640625 34.09765625 C3.85973348 35.73819616 1.47650915 36.44257034 -2.375 36.375 C-7.90259572 32.89466195 -7.90259572 32.89466195 -9.0234375 29.2890625 C-9.52324406 25.14622146 -9.59945748 21.04481567 -9.625 16.875 C-9.645625 16.03324219 -9.66625 15.19148438 -9.6875 14.32421875 C-9.71797119 9.48691681 -9.49633891 6.31455396 -6.375 2.375 C-3.98213116 -0.01786884 -3.28052906 0.05449384 0 0 Z " fill="#119FAC" transform="translate(259.375,284.625)"/>
<path d="M0 0 C2.7179391 1.52992734 3.51729491 3.22109717 4.83203125 6.03125 C5.89062205 10.98454922 6.35666912 15.99344483 6.83203125 21.03125 C6.97898437 22.52978516 6.97898437 22.52978516 7.12890625 24.05859375 C7.36614446 28.4409106 7.24068635 30.4120756 4.76953125 34.15625 C1.08070228 36.51082169 -0.86034958 36.64662417 -5.16796875 36.03125 C-7.98046875 34.90625 -7.98046875 34.90625 -10.16796875 33.03125 C-12.27902017 27.99900198 -12.84942323 22.90734957 -13.41796875 17.53125 C-13.52109375 16.70238281 -13.62421875 15.87351562 -13.73046875 15.01953125 C-14.25217963 10.19370558 -14.32292343 6.53580042 -12.16796875 2.03125 C-7.900557 -1.22011134 -4.95476264 -1.17272488 0 0 Z " fill="#0B9FAB" transform="translate(301.16796875,284.96875)"/>
<path d="M0 0 C2.69166606 2.11488047 2.91251672 4.03938283 3.75 7.375 C4.0844596 11.2528244 4.12012458 15.10941708 4.125 19 C4.14949219 20.03640625 4.17398437 21.0728125 4.19921875 22.140625 C4.20501953 23.63722656 4.20501953 23.63722656 4.2109375 25.1640625 C4.21915527 26.06850098 4.22737305 26.97293945 4.23583984 27.90478516 C3.60050605 31.13509036 2.25789107 32.31623108 -0.25 34.375 C-4.1138702 35.78074204 -7.343615 35.74937641 -11.125 34.1875 C-13.87964111 31.83795317 -15.06926562 29.8088261 -15.5246582 26.19604492 C-15.55306288 23.65103864 -15.57172838 21.1076875 -15.5625 18.5625 C-15.57861328 17.68529297 -15.59472656 16.80808594 -15.61132812 15.90429688 C-15.61552643 10.29116658 -14.92648555 6.33437029 -12.25 1.375 C-8.63905272 -1.48885474 -4.29768103 -1.19380029 0 0 Z " fill="#0FA0AD" transform="translate(265.25,387.625)"/>
<path d="M0 0 C2.94832717 1.27314128 4.5366088 2.17367304 6.1171875 4.9921875 C7.38649017 9.31680279 7.36846712 13.4526782 7.375 17.9375 C7.39949219 18.81857422 7.42398437 19.69964844 7.44921875 20.60742188 C7.47454496 26.24250366 6.8340476 29.577696 3 34 C0 36 0 36 -3.4375 35.875 C-7.29499863 34.9275442 -8.62192733 34.10978733 -11 31 C-12.47410198 26.57769405 -12.22495829 22.25771583 -12.25 17.625 C-12.270625 16.67882812 -12.29125 15.73265625 -12.3125 14.7578125 C-12.36201971 5.9433035 -12.36201971 5.9433035 -9 2 C-5.4913604 -0.33909307 -4.12910567 -0.41291057 0 0 Z " fill="#1BA5B1" transform="translate(262,336)"/>
<path d="M0 0 C4.06110836 0.86406561 5.40227772 2.36175781 7.9375 5.625 C8.20075017 8.63876061 8.20520358 10.92906613 7.875 13.875 C7.80700195 14.63135742 7.73900391 15.38771484 7.66894531 16.16699219 C7.46006596 18.32541213 7.20905264 20.47367033 6.9375 22.625 C6.82019531 23.594375 6.70289063 24.56375 6.58203125 25.5625 C5.71374491 30.65186152 4.07818175 33.54356242 -0.0625 36.625 C-3.11954077 37.77139029 -4.54949244 37.77157359 -7.6875 36.875 C-10.04941672 35.63188594 -11.38090406 34.67340299 -13.0625 32.625 C-14.46426392 26.53806118 -12.70294763 19.81389663 -11.4375 13.8125 C-11.29755615 13.08337402 -11.1576123 12.35424805 -11.01342773 11.60302734 C-9.57558757 5.37453588 -6.62066515 1.35115615 0 0 Z " fill="#13A1AD" transform="translate(186.0625,283.375)"/>
<path d="M0 0 C2.72265625 1.8515625 2.72265625 1.8515625 5 5 C5.57385515 8.64466336 5.33265948 12.14465907 5.0625 15.8125 C5.02576172 16.77220703 4.98902344 17.73191406 4.95117188 18.72070312 C4.58187237 25.08568879 3.33682921 29.54836821 0 35 C-2.98997825 36.49498913 -5.70042775 36.11577446 -9 36 C-9.99 35.67 -10.98 35.34 -12 35 C-12 34.34 -12 33.68 -12 33 C-12.66 33 -13.32 33 -14 33 C-15.51097205 22.49293279 -16.01822804 11.25561967 -10 2 C-6.24952518 -0.50031654 -4.44143734 -0.53603554 0 0 Z " fill="#089FAC" transform="translate(215,387)"/>
<path d="M0 0 C3.68701195 3.51010986 4.47247219 8.48532901 5.6875 13.25 C5.91244141 14.07113281 6.13738281 14.89226562 6.36914062 15.73828125 C9.61541984 28.19057418 9.61541984 28.19057418 6.5625 33.5 C2.75652912 35.72788539 -0.69822562 35.78430141 -5 35 C-11.39461217 30.57296081 -12.12507387 21.922433 -13.46875 14.76171875 C-14.11766686 10.16681483 -13.87484395 6.53328227 -13 2 C-12.34 2 -11.68 2 -11 2 C-11 1.34 -11 0.68 -11 0 C-7.15783458 -1.38317955 -3.92585641 -0.9279297 0 0 Z " fill="#089EAB" transform="translate(339,285)"/>
<path d="M0 0 C2.75 1.375 2.75 1.375 5 4 C6.00694598 7.29446455 6.49850821 10.5985774 7 14 C7.26296875 14.92619141 7.26296875 14.92619141 7.53125 15.87109375 C8.20768494 18.94323579 8.21035647 21.92075055 8.25 25.0625 C8.27578125 26.29097656 8.3015625 27.51945312 8.328125 28.78515625 C8 32 8 32 6.73046875 33.8828125 C3.68600754 35.84831116 0.56066705 35.97837652 -3 36 C-5.3125 35.5 -5.3125 35.5 -7 34 C-11.76216497 25.94095159 -12.37580728 15.17411893 -12 6 C-10.6875 3.125 -10.6875 3.125 -9 1 C-5.66660588 -0.11113137 -3.49519344 -0.34951934 0 0 Z " fill="#059EAC" transform="translate(312,387)"/>
<path d="M0 0 C0.72464648 -0.00326884 1.44929295 -0.00653768 2.19589841 -0.00990558 C4.63051518 -0.01720403 7.06453472 -0.00301276 9.49911499 0.01104736 C11.24175621 0.01025675 12.98439726 0.0081603 14.72703552 0.00485229 C19.46446105 -0.00028954 24.20167001 0.01326837 28.93906069 0.0303793 C33.88871014 0.04538989 38.83835649 0.04424063 43.7880249 0.04504395 C52.09882313 0.04873845 60.40953887 0.06371644 68.7203064 0.08624268 C79.40216926 0.11513593 90.08396572 0.12546721 100.76586342 0.12992477 C109.93305895 0.13389885 119.10023992 0.14640061 128.26742506 0.16027164 C131.22249919 0.16437751 134.17757281 0.1672996 137.13264847 0.17006683 C141.76681188 0.17494682 146.40093467 0.18512811 151.03507805 0.19950485 C152.74074245 0.20404149 154.44641233 0.20686972 156.15208244 0.20791245 C158.4703261 0.20964826 160.78846677 0.21750474 163.10668945 0.22705078 C165.05735038 0.23151278 165.05735038 0.23151278 167.04741859 0.23606491 C169.92636108 0.36749268 169.92636108 0.36749268 170.92636108 1.36749268 C170.99895054 3.55388721 171.01009891 5.74249657 170.98886108 7.92999268 C170.97983765 9.12753174 170.97081421 10.3250708 170.96151733 11.55889893 C170.94411499 12.94915283 170.94411499 12.94915283 170.92636108 14.36749268 C170.59636108 14.36749268 170.26636108 14.36749268 169.92636108 14.36749268 C169.59636108 10.40749268 169.26636108 6.44749268 168.92636108 2.36749268 C111.17636108 2.36749268 53.42636108 2.36749268 -6.07363892 2.36749268 C-6.07363892 6.65749268 -6.07363892 10.94749268 -6.07363892 15.36749268 C52.00636108 15.36749268 110.08636108 15.36749268 169.92636108 15.36749268 C169.92636108 16.35749268 169.92636108 17.34749268 169.92636108 18.36749268 C147.03064535 18.43750918 124.13494722 18.49044472 101.23914623 18.52292919 C90.60872511 18.5384118 79.97837043 18.55952789 69.34799194 18.59381104 C60.08480308 18.62367078 50.82166233 18.64305753 41.55842668 18.64975816 C36.65156845 18.65367624 31.74484787 18.66291308 26.83803368 18.68468285 C22.2227504 18.70499395 17.60766191 18.71133741 12.99233818 18.70681572 C11.2955647 18.70764334 9.59878494 18.71364095 7.90205002 18.7251091 C5.59071323 18.73996943 3.28011814 18.73647041 0.96876526 18.72825623 C-0.97391346 18.73240429 -0.97391346 18.73240429 -2.9558382 18.73663616 C-6.07363892 18.36749268 -6.07363892 18.36749268 -7.97521496 17.0207262 C-9.6212136 14.5433402 -9.71081027 12.30791961 -9.94863892 9.36749268 C-10.04918579 8.31561768 -10.14973267 7.26374268 -10.25332642 6.17999268 C-10.07363892 3.36749268 -10.07363892 3.36749268 -9.00451088 1.71467972 C-6.05707567 -0.34177281 -3.56371643 -0.00401662 0 0 Z " fill="#451F45" transform="translate(178.07363891601563,234.63250732421875)"/>
<path d="M0 0 C0.71477052 -0.00155999 1.42954104 -0.00311998 2.16597128 -0.00472724 C4.57897044 -0.0087397 6.99190751 -0.00554667 9.40490723 -0.00241089 C11.1275486 -0.00376482 12.85018967 -0.00554471 14.5728302 -0.00772095 C19.26484443 -0.01229624 23.95683677 -0.01050533 28.64885139 -0.00734186 C33.54780259 -0.00481875 38.44675186 -0.00715566 43.34570312 -0.00872803 C51.57426288 -0.01054987 59.80281367 -0.00814304 68.03137207 -0.00338745 C77.55906883 0.0020552 87.0867442 0.00029255 96.61444044 -0.00521386 C104.77916634 -0.00974458 112.94388579 -0.01039574 121.10861254 -0.00777519 C125.99186078 -0.00621219 130.87509895 -0.00601927 135.75834656 -0.00931168 C140.34815159 -0.0121898 144.93792891 -0.01021579 149.52773094 -0.00441742 C151.21727134 -0.0030895 152.90681404 -0.00348447 154.59635353 -0.00568008 C156.89279962 -0.00839036 159.18915545 -0.00501199 161.4855957 0 C162.77388527 0.00037703 164.06217484 0.00075405 165.38950348 0.0011425 C168.24279785 0.12698364 168.24279785 0.12698364 169.24279785 1.12698364 C169.34172725 3.29179161 169.37250886 5.45992149 169.36779785 7.62698364 C169.37037598 8.81292114 169.3729541 9.99885864 169.37561035 11.22073364 C169.24279785 14.12698364 169.24279785 14.12698364 168.24279785 15.12698364 C165.99218727 15.22624413 163.73839401 15.25330799 161.4855957 15.25396729 C160.77082518 15.25552728 160.05605466 15.25708727 159.31962442 15.25869453 C156.90662526 15.26270698 154.49368819 15.25951395 152.08068848 15.25637817 C150.35804711 15.25773211 148.63540603 15.25951199 146.9127655 15.26168823 C142.22075128 15.26626352 137.52875894 15.26447262 132.83674431 15.26130915 C127.93779311 15.25878604 123.03884385 15.26112295 118.13989258 15.26269531 C109.91133282 15.26451715 101.68278203 15.26211032 93.45422363 15.25735474 C83.92652687 15.25191209 74.3988515 15.25367474 64.87115526 15.25918114 C56.70642936 15.26371186 48.54170992 15.26436302 40.37698317 15.26174247 C35.49373492 15.26017947 30.61049675 15.25998656 25.72724915 15.26327896 C21.13744411 15.26615708 16.54766679 15.26418308 11.95786476 15.2583847 C10.26832437 15.25705679 8.57878166 15.25745175 6.88924217 15.25964737 C4.59279608 15.26235765 2.29644025 15.25897928 0 15.25396729 C-1.28828957 15.25359026 -2.57657913 15.25321323 -3.90390778 15.25282478 C-6.75720215 15.12698364 -6.75720215 15.12698364 -7.75720215 14.12698364 C-7.85613154 11.96217568 -7.88691315 9.79404579 -7.88220215 7.62698364 C-7.88478027 6.44104614 -7.8873584 5.25510864 -7.89001465 4.03323364 C-7.64393858 -1.35148967 -4.76983179 0.00139592 0 0 Z M-5.19913673 2.92741966 C-7.13572076 5.18047401 -7.13572076 5.18047401 -6.56970215 8.81448364 C-6.10300657 11.95394646 -6.10300657 11.95394646 -4.75720215 13.12698364 C-2.52961958 13.22401496 -0.29889289 13.24885037 1.93080139 13.24723816 C2.99176487 13.2485198 2.99176487 13.2485198 4.07416195 13.24982733 C6.46186067 13.25148419 8.84949029 13.24595742 11.23718262 13.24050903 C12.94174193 13.24022718 14.64630136 13.24038486 16.3508606 13.24095154 C20.99322585 13.24123959 25.6355655 13.23534171 30.27792478 13.22837758 C35.12395681 13.22214523 39.96998936 13.22154034 44.81602478 13.22035217 C53.99935749 13.21723851 63.18267835 13.20902464 72.36600584 13.19900268 C82.81806556 13.18784264 93.27012583 13.18233137 103.72219002 13.17730725 C125.22906592 13.16684206 146.73593114 13.14924193 168.24279785 13.12698364 C168.29675263 11.50234522 168.3355698 9.87719823 168.36779785 8.25198364 C168.39100098 7.34706177 168.4142041 6.44213989 168.43811035 5.50979614 C168.48604621 2.9389137 168.48604621 2.9389137 166.24279785 1.12698364 C163.22611475 0.81521798 163.22611475 0.81521798 159.61331177 0.85955811 C158.57980136 0.85276144 158.57980136 0.85276144 157.52541196 0.84582746 C155.20539132 0.83311785 152.88560346 0.83480801 150.56555176 0.8364563 C148.90674027 0.8304751 147.24793158 0.82367051 145.58912659 0.81610107 C141.07464281 0.79839155 136.56023478 0.7937436 132.04571962 0.7924695 C128.28071581 0.79057344 124.51572977 0.78321923 120.75073278 0.77612531 C111.86949796 0.7598247 102.98830372 0.75495786 94.10705566 0.75637817 C84.93773824 0.75757984 75.76865612 0.73647683 66.59939826 0.70489085 C58.73438107 0.67876056 50.86944087 0.66800952 43.00438058 0.66928899 C38.30373587 0.66979961 33.60330011 0.66406154 28.90269852 0.64293289 C24.48182919 0.62360521 20.06136931 0.62338829 15.64048576 0.63796616 C14.01670041 0.64006223 12.39288979 0.635306 10.76914787 0.62324524 C8.55436398 0.60785833 6.34100342 0.61705544 4.12625122 0.63250732 C2.88627192 0.63141779 1.64629261 0.63032825 0.36873817 0.6292057 C-2.8319443 0.89343185 -2.8319443 0.89343185 -5.19913673 2.92741966 Z " fill="#923D4A" transform="translate(178.7572021484375,235.87301635742188)"/>
<path d="M0 0 C2.94028537 1.50987627 3.79011716 2.47489083 5.01953125 5.55078125 C6.19574573 9.68861943 6.84747534 13.73760074 7.375 18 C7.49488281 18.78117187 7.61476563 19.56234375 7.73828125 20.3671875 C8.26798454 24.67737593 8.24620693 26.5306353 6.1640625 30.5 C4 33 4 33 2 34 C-4.91004367 34.45065502 -4.91004367 34.45065502 -8 32 C-12.52843252 24.33649882 -13.53696691 13.76629704 -13 5 C-9.05710796 -0.91433805 -6.89106326 -1.42573723 0 0 Z " fill="#099FAC" transform="translate(306,337)"/>
<path d="M0 0 C2.58613948 0.92885917 3.72915447 1.55041466 5.16015625 3.92578125 C12.57518248 23.53868613 12.57518248 23.53868613 10 32 C8.4052226 34.39216609 7.34235181 34.88287964 4.625 35.8125 C0.90484287 36.07822551 -1.57834864 35.09921497 -4.515625 32.828125 C-9.70508247 26.43689843 -11.38838749 14.11452429 -11 6 C-8.57032171 0.2150517 -6.0353168 -0.36211901 0 0 Z " fill="#129FAC" transform="translate(360,387)"/>
<path d="M0 0 C0.66 0.33 1.32 0.66 2 1 C2 1.66 2 2.32 2 3 C2.66 3 3.32 3 4 3 C5.35844301 7.32591562 6.68795961 11.65979036 8 16 C8.24621094 16.79148437 8.49242187 17.58296875 8.74609375 18.3984375 C10.03919186 22.91090399 10.16107718 26.44500493 9 31 C6.76377862 33.9168105 4.84017284 34.88797696 1.1875 35.375 C-2 35 -2 35 -4.6875 33 C-10.45212203 25.52157143 -13.08924561 14.33639096 -12 5 C-8.58107197 0.02701377 -5.88972799 -0.66676166 0 0 Z " fill="#059FAC" transform="translate(349,336)"/>
<path d="M0 0 C2.65383666 2.06461893 3.85794438 3.21147094 4.4609375 6.55859375 C3.86947368 26.37263158 3.86947368 26.37263158 -0.3125 32.25 C-3.10085295 34.06567169 -4.6824149 34.91706037 -8 35 C-11.81263347 33.93600927 -12.75011007 33.3748349 -15 30 C-15.73668797 21.15974439 -16.05176852 10.10353703 -12 2 C-11.34 2 -10.68 2 -10 2 C-10 1.34 -10 0.68 -10 0 C-6.19426871 -1.2685771 -3.89430952 -0.88817586 0 0 Z " fill="#0FA1AD" transform="translate(222,337)"/>
<path d="M0 0 C3.10701375 2.3475215 4.71867416 3.91821664 5.70703125 7.71875 C6.5383377 17.02938221 3.70758441 26.68258409 -2 34 C-4.98594424 35.49297212 -7.70853624 35.11755228 -11 35 C-11.66 34.67 -12.32 34.34 -13 34 C-13 33.34 -13 32.68 -13 32 C-13.66 32 -14.32 32 -15 32 C-16.10493502 26.56031992 -15.73163132 22.37091354 -14.25 17 C-14.07984375 16.32710938 -13.9096875 15.65421875 -13.734375 14.9609375 C-9.45873445 -1.32422282 -9.45873445 -1.32422282 0 0 Z " fill="#09A0AD" transform="translate(177,336)"/>
<path d="M0 0 C0.75 1.625 0.75 1.625 1 4 C-0.8125 7.25 -0.8125 7.25 -3 10 C-3.66 10 -4.32 10 -5 10 C-5.33 12.31 -5.66 14.62 -6 17 C-6.66 17 -7.32 17 -8 17 C-7.6596875 17.8971875 -7.6596875 17.8971875 -7.3125 18.8125 C-7.209375 19.534375 -7.10625 20.25625 -7 21 C-8.375 22.5 -8.375 22.5 -10 24 C-10.33 25.32 -10.66 26.64 -11 28 C38.17 28 87.34 28 138 28 C137.67 24.7 137.34 21.4 137 18 C139 21 139 21 141 30 C89.85 30 38.7 30 -14 30 C-10.53863262 17.3083196 -10.53863262 17.3083196 -7 11.0625 C-6.48566406 10.11407227 -6.48566406 10.11407227 -5.9609375 9.14648438 C-4.18306792 5.9130689 -2.30956451 2.87973825 0 0 Z " fill="#3B74B5" transform="translate(195,190)"/>
<path d="M0 0 C4.06874335 0.84765487 5.50268796 2.34281847 8 5.625 C9.28843868 10.45664505 8.73006162 14.57261211 7.6875 19.375 C7.55666016 20.04660156 7.42582031 20.71820313 7.29101562 21.41015625 C6.26417312 26.36082688 6.26417312 26.36082688 4 28.625 C4.33 22.355 4.66 16.085 5 9.625 C1.67576157 8.51692052 0.32809422 8.85697826 -3 9.625 C-3.66 9.625 -4.32 9.625 -5 9.625 C-5.99 10.285 -6.98 10.945 -8 11.625 C-8.46707789 7.60813013 -8.32150834 6.05998188 -5.875 2.75 C-3 0.625 -3 0.625 0 0 Z " fill="#0D95A5" transform="translate(174,335.375)"/>
<path d="M0 0 C0.33 0 0.66 0 1 0 C1 2.64 1 5.28 1 8 C1.66 8 2.32 8 3 8 C3 10.31 3 12.62 3 15 C4.36125 14.6596875 4.36125 14.6596875 5.75 14.3125 C9 14 9 14 11.375 15.4375 C11.91125 15.953125 12.4475 16.46875 13 17 C13.66 16.67 14.32 16.34 15 16 C15.66 16.33 16.32 16.66 17 17 C17.33 14.03 17.66 11.06 18 8 C20.1987704 12.39754081 20.39493426 13.44321476 19 18 C16.46079437 21.33724168 15.13781667 22.83745476 10.9375 23.4375 C6.17995444 22.72892938 6.17995444 22.72892938 4 21 C0.36256299 13.85984588 -0.1536355 7.83541059 0 0 Z " fill="#2DA8B1" transform="translate(294,348)"/>
<path d="M0 0 C2.16190519 0.00312866 4.32239785 -0.02019888 6.48413086 -0.0456543 C14.59921167 -0.08307874 21.91294814 0.5963078 29.63061523 3.31567383 C30.68893555 3.66887695 31.74725586 4.02208008 32.83764648 4.38598633 C38.66316516 6.74414231 43.96705772 9.57207042 49.25561523 12.94067383 C49.85994385 13.32497559 50.46427246 13.70927734 51.08691406 14.10522461 C53.96634758 16.00124616 55.69147378 17.40696165 57.63061523 20.31567383 C54.81811523 20.06567383 54.81811523 20.06567383 51.63061523 19.31567383 C50.58436115 18.01831876 49.583603 16.68300411 48.63061523 15.31567383 C46.96669478 14.64218222 45.30029496 13.97475793 43.63061523 13.31567383 C43.13561523 11.83067383 43.13561523 11.83067383 42.63061523 10.31567383 C40.52477085 9.51003744 40.52477085 9.51003744 38.06811523 9.12817383 C36.82868164 8.8903418 36.82868164 8.8903418 35.56420898 8.64770508 C34.92612305 8.53813477 34.28803711 8.42856445 33.63061523 8.31567383 C33.63061523 7.65567383 33.63061523 6.99567383 33.63061523 6.31567383 C32.97061523 6.19192383 32.31061523 6.06817383 31.63061523 5.94067383 C29.4244184 5.48104949 27.23782227 4.9247144 25.06811523 4.31567383 C15.26157076 1.85521375 4.91932932 2.17935975 -5.11938477 2.25317383 C-6.30532227 2.25768555 -7.49125977 2.26219727 -8.71313477 2.2668457 C-11.59860704 2.27848067 -14.4839669 2.29482543 -17.36938477 2.31567383 C-12.18404877 -0.941064 -5.90721588 -0.01786256 0 0 Z " fill="#4583C1" transform="translate(255.369384765625,160.684326171875)"/>
<path d="M0 0 C4.61709842 3.78222583 4.43408715 9.39117489 5 15 C5.76869824 27.88232219 5.76869824 27.88232219 3.7265625 30.8515625 C0.71271739 32.85624681 -2.44240048 33.00717258 -6 33 C-8.4375 32.25 -8.4375 32.25 -10 31 C-10.33 30.01 -10.66 29.02 -11 28 C-8 28 -8 28 -6.3125 29.5 C-5.879375 29.995 -5.44625 30.49 -5 31 C-4.34 29.68 -3.68 28.36 -3 27 C-2.01 27 -1.02 27 0 27 C0 25.35 0 23.7 0 22 C0.66 22.66 1.32 23.32 2 24 C2 17.4 2 10.8 2 4 C1.34 4 0.68 4 0 4 C0 2.68 0 1.36 0 0 Z " fill="#3DAAB3" transform="translate(315,390)"/>
<path d="M0 0 C0.66 0.66 1.32 1.32 2 2 C-2.455 2.495 -2.455 2.495 -7 3 C-9.62770779 9.04372791 -10.42279354 13.81964526 -10.25 20.375 C-10.24484375 21.18066406 -10.2396875 21.98632812 -10.234375 22.81640625 C-10.27136427 27.04354653 -10.27136427 27.04354653 -9 31 C-8.01 31.33 -7.02 31.66 -6 32 C-5.67 32.66 -5.34 33.32 -5 34 C-2.98330173 35.13350534 -2.98330173 35.13350534 -1 36 C-8.45155855 35.38921651 -8.45155855 35.38921651 -10.9375 33.625 C-13.80541691 29.23877414 -13.22109128 24.2801171 -13.25 19.25 C-13.270625 18.36828125 -13.29125 17.4865625 -13.3125 16.578125 C-13.34611307 10.93112913 -12.70197062 6.98774528 -10 2 C-6.9150935 -0.44664998 -3.83944423 -0.33386472 0 0 Z " fill="#52B2BB" transform="translate(263,387)"/>
<path d="M0 0 C4.07706246 -0.39971201 6.28541682 -0.48183323 9.734375 1.84375 C13.06078029 6.47777668 12.46987694 10.28171573 12.0625 15.8125 C12.02576172 16.77220703 11.98902344 17.73191406 11.95117188 18.72070312 C11.58113005 25.09848279 10.22883243 29.48815475 7 35 C6.34 34.67 5.68 34.34 5 34 C5.33 33.01 5.66 32.02 6 31 C6.66 31 7.32 31 8 31 C8.02897435 26.72918086 8.04678996 22.45838691 8.0625 18.1875 C8.07087891 16.97255859 8.07925781 15.75761719 8.08789062 14.50585938 C8.09111328 13.34248047 8.09433594 12.17910156 8.09765625 10.98046875 C8.10289307 9.90692139 8.10812988 8.83337402 8.11352539 7.72729492 C8.12194588 4.90500635 8.12194588 4.90500635 7 2 C4.69 1.67 2.38 1.34 0 1 C0 0.67 0 0.34 0 0 Z " fill="#42A4AC" transform="translate(208,387)"/>
<path d="M0 0 C0.66 0.33 1.32 0.66 2 1 C2 1.66 2 2.32 2 3 C2.66 3 3.32 3 4 3 C4.52955234 4.78910903 5.0483937 6.58139148 5.5625 8.375 C5.85253906 9.37273437 6.14257812 10.37046875 6.44140625 11.3984375 C7 14 7 14 6 16 C3.28087913 13.28087913 3.3242533 10.80574504 2.7578125 7.09375 C2.17721033 4.86474957 2.17721033 4.86474957 0.1796875 3.71875 C-2.25061072 2.79122495 -2.25061072 2.79122495 -6 3 C-6.99 4.485 -6.99 4.485 -8 6 C-8.66 6 -9.32 6 -10 6 C-9.67 11.28 -9.34 16.56 -9 22 C-9.33 22 -9.66 22 -10 22 C-11.49022868 16.25197511 -12.69283781 10.93860981 -12 5 C-8.58107197 0.02701377 -5.88972799 -0.66676166 0 0 Z " fill="#5BADB7" transform="translate(349,336)"/>
<path d="M0 0 C0.33 0 0.66 0 1 0 C1.11138159 5.45769811 0.91657981 10.61509359 0 16 C1.32 16.33 2.64 16.66 4 17 C4 17.66 4 18.32 4 19 C5.32 18.34 6.64 17.68 8 17 C8 17.66 8 18.32 8 19 C8.598125 18.649375 9.19625 18.29875 9.8125 17.9375 C12 17 12 17 15 18 C12.96601893 20.3353116 11.50425372 21.81898585 8.5625 22.875 C4.81365268 23.0578706 2.30156418 22.02689356 -0.62890625 19.71484375 C-3.27962988 16.39955123 -2.36243009 12.03426285 -2 8 C-1.4842655 5.25382399 -0.79551147 2.68485121 0 0 Z " fill="#3FA9B1" transform="translate(175,298)"/>
<path d="M0 0 C1.33333333 0 2.66666667 0 4 0 C4.43465198 22.16725088 4.43465198 22.16725088 2 28 C1.01 28.66 0.02 29.32 -1 30 C-1.33 29.01 -1.66 28.02 -2 27 C-1.34 27 -0.68 27 0 27 C0.24798276 24.04213336 0.47411854 21.08538702 0.6875 18.125 C0.76033203 17.28324219 0.83316406 16.44148438 0.90820312 15.57421875 C0.96298828 14.76855469 1.01777344 13.96289062 1.07421875 13.1328125 C1.13182373 12.38918457 1.18942871 11.64555664 1.2487793 10.87939453 C1.16668213 10.25919434 1.08458496 9.63899414 1 9 C0.01 8.34 -0.98 7.68 -2 7 C-2.3125 4.5 -2.3125 4.5 -2 2 C-1.34 1.34 -0.68 0.68 0 0 Z " fill="#189AA7" transform="translate(228,289)"/>
<path d="M0 0 C4.06177243 4.06177243 4.89369651 11.69340212 5.07421875 17.30859375 C4.79455833 19.85843877 4.17276331 21.74085503 2.75 23.875 C0.43139165 25.36553394 -1.24506837 25.80321917 -4 26 C-7.39535851 25.02989757 -9.92511972 23.9048324 -12 21 C-12.6875 17.8125 -12.6875 17.8125 -13 15 C-11 16.8125 -11 16.8125 -9 19 C-9 19.99 -9 20.98 -9 22 C-6.03 22 -3.06 22 0 22 C0.33 21.34 0.66 20.68 1 20 C1.66 20 2.32 20 3 20 C2.690625 18.9275 2.38125 17.855 2.0625 16.75 C0.66570282 11.24206217 0.35811202 5.65440039 0 0 Z " fill="#49A8B3" transform="translate(366,397)"/>
<path d="M0 0 C1.875 1.5 1.875 1.5 3 3 C-0.41099168 3 -3.63088314 2.50854594 -7 2 C-8.27132649 5.81397948 -8.14512624 9.40342217 -8.125 13.375 C-8.12886719 14.13039063 -8.13273437 14.88578125 -8.13671875 15.6640625 C-8.13112001 18.86653952 -8.06368571 21.71302117 -7.3671875 24.8515625 C-7 27 -7 27 -9 30 C-9.50763865 27.31374546 -10.00627197 24.62631617 -10.5 21.9375 C-10.64308594 21.18533203 -10.78617187 20.43316406 -10.93359375 19.65820312 C-13.01332721 8.21966912 -13.01332721 8.21966912 -10.6875 3.125 C-7.79880046 -0.51262164 -4.38546593 -0.36545549 0 0 Z " fill="#379FA8" transform="translate(312,387)"/>
<path d="M0 0 C0.33 0 0.66 0 1 0 C2.61928087 5.42935351 3.43721901 9.36167929 2 15 C-0.23622138 17.9168105 -2.15982716 18.88797696 -5.8125 19.375 C-9 19 -9 19 -11.75 16.875 C-14.3987537 13.49048139 -16 10.36285873 -16 6 C-15.34 6 -14.68 6 -14 6 C-13.67 7.65 -13.34 9.3 -13 11 C-12.34 11 -11.68 11 -11 11 C-10.690625 12.2065625 -10.690625 12.2065625 -10.375 13.4375 C-9.92125 14.283125 -9.4675 15.12875 -9 16 C-5.94727535 16.89830839 -5.94727535 16.89830839 -3 17 C-3 16.34 -3 15.68 -3 15 C-2.01 15 -1.02 15 0 15 C0 10.05 0 5.1 0 0 Z " fill="#41A6B0" transform="translate(356,352)"/>
<path d="M0 0 C0.66 0.33 1.32 0.66 2 1 C2 1.99 2 2.98 2 4 C1.34 4 0.68 4 0 4 C0.309375 4.928125 0.309375 4.928125 0.625 5.875 C0.74875 6.57625 0.8725 7.2775 1 8 C0.34 8.66 -0.32 9.32 -1 10 C-1 9.01 -1 8.02 -1 7 C-1.66 7 -2.32 7 -3 7 C-2.67 15.25 -2.34 23.5 -2 32 C-3.32 31.34 -4.64 30.68 -6 30 C-6.30477655 21.31386828 -6.58381862 9.64611761 -2 2 C-1.34 2 -0.68 2 0 2 C0 1.34 0 0.68 0 0 Z " fill="#4CACB6" transform="translate(218,285)"/>
<path d="M0 0 C-3.8503105 2.56687367 -5.58569763 1.83288724 -10 1 C-11.25497481 8.54496906 -10.73242963 14.58921144 -8.69140625 21.95703125 C-7.983413 25.07300153 -7.88102626 27.81626274 -8 31 C-12.9307821 23.60382684 -13.94608048 13.73496153 -14 5 C-13.67 4.01 -13.34 3.02 -13 2 C-12.34 2 -11.68 2 -11 2 C-11 1.34 -11 0.68 -11 0 C-7.18243176 -1.37432457 -3.92744671 -0.67975039 0 0 Z " fill="#61B2BB" transform="translate(339,285)"/>
<path d="M0 0 C0.33 0.66 0.66 1.32 1 2 C0.21625 2.2475 -0.5675 2.495 -1.375 2.75 C-4.47567332 4.2265111 -4.59204172 5.00808866 -6 8 C-10.44444444 12 -10.44444444 12 -13 12 C-13.268125 12.70125 -13.53625 13.4025 -13.8125 14.125 C-16.03128672 19.49679942 -18.78353508 24.17530262 -22 29 C-22.66 29 -23.32 29 -24 29 C-22.60261669 24.00283576 -20.45709525 20.30083419 -17.5 16.125 C-17.09652344 15.53203125 -16.69304687 14.9390625 -16.27734375 14.328125 C-15.24141143 12.84431436 -14.12637712 11.4163772 -13 10 C-12.34 10 -11.68 10 -11 10 C-10.67 9.01 -10.34 8.02 -10 7 C-7.71484375 5.17578125 -7.71484375 5.17578125 -4.9375 3.3125 C-4.01839844 2.68988281 -3.09929687 2.06726563 -2.15234375 1.42578125 C-1.44207031 0.95527344 -0.73179687 0.48476562 0 0 Z " fill="#3F5DA9" transform="translate(143,74)"/>
<path d="M0 0 C0.33 0.66 0.66 1.32 1 2 C-6.42857143 1 -6.42857143 1 -10 0 C-10.33 1.32 -10.66 2.64 -11 4 C-11.66 4 -12.32 4 -13 4 C-13.33 7.63 -13.66 11.26 -14 15 C-13.34 15 -12.68 15 -12 15 C-12.33 18.63 -12.66 22.26 -13 26 C-13.33 26 -13.66 26 -14 26 C-14.39133344 22.95964022 -14.76347797 19.91892624 -15.125 16.875 C-15.23714844 16.0190625 -15.34929687 15.163125 -15.46484375 14.28125 C-16.03391923 9.34926251 -16.237504 5.60409476 -14 1 C-8.93073816 -2.86229473 -5.64182981 -2.00810892 0 0 Z " fill="#4DADB8" transform="translate(303,286)"/>
<path d="M0 0 C2.375 1 2.375 1 4 3 C5.56683071 9.37923933 4.56342774 14.69460547 3 21 C1 19 1 19 0.8125 16.4375 C1 14 1 14 2 13 C2.07205511 11.31391034 2.08386068 9.62499341 2.0625 7.9375 C2.04896484 6.55884766 2.04896484 6.55884766 2.03515625 5.15234375 C2.02355469 4.44207031 2.01195312 3.73179687 2 3 C-2.82360189 2.80705592 -6.49646738 3.24252386 -11 5 C-8.50445891 -0.52584099 -5.93878191 -0.40957117 0 0 Z " fill="#469DA6" transform="translate(166,387)"/>
<path d="M0 0 C2.83834482 2.1639863 3.89042268 3.26914945 4.42578125 6.83984375 C4.38839844 7.86207031 4.35101563 8.88429688 4.3125 9.9375 C4.28800781 10.95714844 4.26351562 11.97679687 4.23828125 13.02734375 C4.01915669 15.7610124 3.60521781 18.32818479 3 21 C2.67 21 2.34 21 2 21 C1.93941406 19.78441406 1.87882813 18.56882812 1.81640625 17.31640625 C1.73201668 15.73175772 1.6473679 14.14712298 1.5625 12.5625 C1.52318359 11.76005859 1.48386719 10.95761719 1.44335938 10.13085938 C1.5945704 6.24760439 1.5945704 6.24760439 0 3 C-6.08468557 2.76623077 -6.08468557 2.76623077 -12 4 C-12 3.34 -12 2.68 -12 2 C-11.34 2 -10.68 2 -10 2 C-10 1.34 -10 0.68 -10 0 C-6.19426871 -1.2685771 -3.89430952 -0.88817586 0 0 Z " fill="#4DA5AE" transform="translate(222,337)"/>
<path d="M0 0 C2.475 0.99 2.475 0.99 5 2 C5 2.66 5 3.32 5 4 C7.64 3.67 10.28 3.34 13 3 C13.33 2.01 13.66 1.02 14 0 C14.66 0 15.32 0 16 0 C14.63016497 3.16115776 14.0109362 3.9927092 11 6 C8.26009592 5.96856707 5.71582146 5.44521663 3 5 C3 4.34 3 3.68 3 3 C2.34 3 1.68 3 1 3 C1 11.58 1 20.16 1 29 C0.67 29 0.34 29 0 29 C0 19.43 0 9.86 0 0 Z " fill="#6FA1AD" transform="translate(150,417)"/>
<path d="M0 0 C0 2.57167634 -0.03098432 5.13967092 -0.0703125 7.7109375 C-0.08892675 9.59895458 -0.10714031 11.48697564 -0.125 13.375 C-0.14175781 14.32117188 -0.15851563 15.26734375 -0.17578125 16.2421875 C-0.20920299 21.00144327 -0.13480757 24.64633731 2 29 C2 29.99 2 30.98 2 32 C-1.79538485 29.67379638 -1.79538485 29.67379638 -2.61328125 26.98046875 C-3.15386551 22.81414762 -3.22428769 18.69753453 -3.25 14.5 C-3.270625 13.65824219 -3.29125 12.81648438 -3.3125 11.94921875 C-3.34299974 7.10738516 -3.09465165 3.97418423 0 0 Z " fill="#59B5BB" transform="translate(253,287)"/>
<path d="M0 0 C0.75 1.625 0.75 1.625 1 4 C-0.8125 7.25 -0.8125 7.25 -3 10 C-3.66 10 -4.32 10 -5 10 C-5.33 12.31 -5.66 14.62 -6 17 C-6.66 17 -7.32 17 -8 17 C-7.6596875 17.8971875 -7.6596875 17.8971875 -7.3125 18.8125 C-7.209375 19.534375 -7.10625 20.25625 -7 21 C-8.375 22.5 -8.375 22.5 -10 24 C-10.71447643 26.10332891 -10.71447643 26.10332891 -11 28 C-11.66 28 -12.32 28 -13 28 C-11.58122882 17.89125537 -6.37788488 7.9373677 0 0 Z " fill="#417FBE" transform="translate(195,190)"/>
<path d="M0 0 C5.65611463 -0.56561146 9.22642128 1.28608722 14 4 C14 4.66 14 5.32 14 6 C14.9075 5.896875 15.815 5.79375 16.75 5.6875 C20 6 20 6 22.3125 8.375 C24 11 24 11 25 13 C25.99 13.33 26.98 13.66 28 14 C27.67 15.32 27.34 16.64 27 18 C26.42894531 17.43152344 25.85789063 16.86304687 25.26953125 16.27734375 C18.68088342 10.00293985 12.14511885 5.98426545 4 2 C2.66666667 1.33333333 1.33333333 0.66666667 0 0 Z " fill="#272967" transform="translate(222,68)"/>
<path d="M0 0 C0.66 0.33 1.32 0.66 2 1 C0.47298956 4.05402088 -1.95157912 4.65869481 -5 6 C-5.99 6 -6.98 6 -8 6 C-8 6.99 -8 7.98 -8 9 C-8.59167969 9.30292969 -9.18335938 9.60585937 -9.79296875 9.91796875 C-14.61889957 12.47657808 -18.37448622 14.90667799 -22 19 C-22.66 18.67 -23.32 18.34 -24 18 C-19.64127186 13.22615489 -14.99174214 9.36910153 -9.75 5.625 C-9.13560059 5.18430176 -8.52120117 4.74360352 -7.88818359 4.28955078 C-5.27702309 2.45392573 -3.04507358 1.01502453 0 0 Z " fill="#4281BF" transform="translate(222,168)"/>
<path d="M0 0 C0.66 0.33 1.32 0.66 2 1 C1.625 2.9375 1.625 2.9375 1 5 C0.01 5.495 0.01 5.495 -1 6 C-1.45688229 8.39489934 -1.79725285 10.70779115 -2.0625 13.125 C-2.21847656 14.42695313 -2.37445313 15.72890625 -2.53515625 17.0703125 C-2.68855469 18.36710937 -2.84195313 19.66390625 -3 21 C-3.31930341 23.33563505 -3.65770937 25.66757716 -4 28 C-4.66 28 -5.32 28 -6 28 C-5.51488423 5.51488423 -5.51488423 5.51488423 0 0 Z " fill="#4BABB3" transform="translate(206,388)"/>
<path d="M0 0 C0.33 0 0.66 0 1 0 C1 4.95 1 9.9 1 15 C3.165625 15.2475 3.165625 15.2475 5.375 15.5 C6.18710938 15.5928125 6.99921875 15.685625 7.8359375 15.78125 C9.96912825 16.03352351 9.96912825 16.03352351 12 16 C12.33 15.01 12.66 14.02 13 13 C13 14.32 13 15.64 13 17 C9.33134759 19.44576827 7.32799657 19.23607254 3 19 C2.34 18.67 1.68 18.34 1 18 C1 17.34 1 16.68 1 16 C0.34 16 -0.32 16 -1 16 C-2.24327778 10.15659442 -1.57300962 5.73303505 0 0 Z " fill="#55AFB7" transform="translate(163,352)"/>
<path d="M0 0 C3 0.75 3 0.75 6 2.75 C5.67 4.07 5.34 5.39 5 6.75 C4.01 6.75 3.02 6.75 2 6.75 C0.66018514 7.0562434 -0.67511887 7.38451555 -2 7.75 C-2.28875 7.13125 -2.5775 6.5125 -2.875 5.875 C-3.93720042 3.61674235 -3.93720042 3.61674235 -6 1.75 C-3 -0.25 -3 -0.25 0 0 Z " fill="#0C8D9E" transform="translate(225,284.25)"/>
<path d="M0 0 C5.02254631 -0.2954439 7.89542386 0.01485372 12 3 C11.67 3.99 11.34 4.98 11 6 C9.56260487 6.02712066 8.12506137 6.04645067 6.6875 6.0625 C5.48673828 6.07990234 5.48673828 6.07990234 4.26171875 6.09765625 C2 6 2 6 -1 5 C-0.67 3.35 -0.34 1.7 0 0 Z " fill="#0894A0" transform="translate(255,338)"/>
<path d="M0 0 C4.26082561 6.39123841 5.96806504 15.39377469 5 23 C3 25 3 25 1 26 C1.33 24.68 1.66 23.36 2 22 C2.66 22 3.32 22 4 22 C3.42547254 18.06924356 3.42547254 18.06924356 1 15 C-0.21336193 10.02521609 -0.10168225 5.08411245 0 0 Z " fill="#48AAAF" transform="translate(342,293)"/>
<path d="M0 0 C2.8453918 4.2680877 2.63487857 7.9874122 2 13 C0.92002977 15.92531066 -0.39986491 18.29977204 -2 21 C-2.66 20.67 -3.32 20.34 -4 20 C-3.505 18.515 -3.505 18.515 -3 17 C-2.34 17 -1.68 17 -1 17 C-1.01160156 16.19175781 -1.02320313 15.38351562 -1.03515625 14.55078125 C-1.04869141 12.94783203 -1.04869141 12.94783203 -1.0625 11.3125 C-1.07410156 10.25675781 -1.08570313 9.20101563 -1.09765625 8.11328125 C-1.00865425 5.27589738 -0.64939838 2.7561081 0 0 Z " fill="#50B1BB" transform="translate(217,401)"/>
<path d="M0 0 C2.50169772 3.75254658 1.99806302 4.90314734 1.25 9.25 C1.05148438 10.40371094 0.85296875 11.55742187 0.6484375 12.74609375 C-0.05074934 16.25466384 -0.89326163 19.60073216 -2 23 C-2.33 23 -2.66 23 -3 23 C-2.67 16.4 -2.34 9.8 -2 3 C-1.34 3 -0.68 3 0 3 C0 2.01 0 1.02 0 0 Z " fill="#52ACB5" transform="translate(181,341)"/>
<path d="M0 0 C0.66 0.99 1.32 1.98 2 3 C-1.3125 4.125 -1.3125 4.125 -5 5 C-5.99 4.34 -6.98 3.68 -8 3 C-9.32 3.99 -10.64 4.98 -12 6 C-11.67 4.35 -11.34 2.7 -11 1 C-7.04340734 -0.31886422 -4.17660573 -0.26518132 0 0 Z " fill="#0294A3" transform="translate(222,339)"/>
<path d="M0 0 C1.65 0 3.3 0 5 0 C5 0.99 5 1.98 5 3 C6.0725 2.690625 7.145 2.38125 8.25 2.0625 C10.82866222 1.33187904 13.39512102 0.62517096 16 0 C14.25 3.875 14.25 3.875 12 5 C7.04312447 5.37410381 3.96549128 5.12432647 0 2 C0 1.34 0 0.68 0 0 Z " fill="#57AEB5" transform="translate(291,316)"/>
<path d="M0 0 C0.66 0.33 1.32 0.66 2 1 C1.67 1.99 1.34 2.98 1 4 C-0.36125 3.9690625 -0.36125 3.9690625 -1.75 3.9375 C-4.42672588 3.9889755 -6.46988052 4.2215017 -9 5 C-9 5.66 -9 6.32 -9 7 C-9.66 7 -10.32 7 -11 7 C-8.89359794 0.84282475 -6.43600718 -0.41080897 0 0 Z " fill="#3F9BA6" transform="translate(177,336)"/>
<path d="M0 0 C0.33 0.66 0.66 1.32 1 2 C-4.78132118 11.77904328 -4.78132118 11.77904328 -11 14 C-11 13.34 -11 12.68 -11 12 C-10.34 12 -9.68 12 -9 12 C-8.71125 11.401875 -8.4225 10.80375 -8.125 10.1875 C-7 8 -7 8 -5 5 C-4.34 5 -3.68 5 -3 5 C-3 4.34 -3 3.68 -3 3 C-2.34 3 -1.68 3 -1 3 C-0.67 2.01 -0.34 1.02 0 0 Z " fill="#5F5975" transform="translate(365,254)"/>
<path d="M0 0 C0.66 0.66 1.32 1.32 2 2 C1.81498877 4.77516842 0.99419415 6.00725731 -0.75 8.1875 C-3.28257407 10.22762911 -4.76659072 10.83418414 -8 11 C-8.99 10.34 -9.98 9.68 -11 9 C-8.36 8.34 -5.72 7.68 -3 7 C-2.67 5.68 -2.34 4.36 -2 3 C-1.34 3 -0.68 3 0 3 C0 2.01 0 1.02 0 0 Z " fill="#4FAEB7" transform="translate(222,361)"/>
<path d="M0 0 C0.33 0 0.66 0 1 0 C1.25665567 6.70156481 1.29723273 13.61197316 -1 20 C-1.99 20.66 -2.98 21.32 -4 22 C-4.33 21.01 -4.66 20.02 -5 19 C-4.34 19 -3.68 19 -3 19 C-2.67 15.37 -2.34 11.74 -2 8 C-1.67 8 -1.34 8 -1 8 C-0.67 5.36 -0.34 2.72 0 0 Z " fill="#5FB9C0" transform="translate(231,297)"/>
<path d="M0 0 C0.66 0.33 1.32 0.66 2 1 C1.236875 1.825 0.47375 2.65 -0.3125 3.5 C-3.29705636 7.04416068 -4.56553511 10.62110717 -6 15 C-6.33 15 -6.66 15 -7 15 C-7.66964286 7.23214286 -7.66964286 7.23214286 -4.625 3.5625 C-2 1 -2 1 0 0 Z " fill="#1D98A4" transform="translate(183,286)"/>
<path d="M0 0 C1 2 1 2 0.4375 4.4375 C-1.45746203 7.8154758 -3.45507899 8.5968021 -7 10 C-7.66 10 -8.32 10 -9 10 C-8.62669176 7.27425729 -8.20805399 6.19177915 -6.15234375 4.296875 C-5.42144531 3.78640625 -4.69054687 3.2759375 -3.9375 2.75 C-3.20402344 2.22921875 -2.47054687 1.7084375 -1.71484375 1.171875 C-1.14894531 0.78515625 -0.58304688 0.3984375 0 0 Z " fill="#554E70" transform="translate(203,158)"/>
<path d="M0 0 C0.66 0.33 1.32 0.66 2 1 C1.56429687 1.3403125 1.12859375 1.680625 0.6796875 2.03125 C-3.52194661 5.45076175 -6.68099486 8.98808562 -9.73828125 13.4609375 C-10.15464844 13.96882813 -10.57101563 14.47671875 -11 15 C-11.66 15 -12.32 15 -13 15 C-12.1875 12.5625 -12.1875 12.5625 -11 10 C-10.01 9.67 -9.02 9.34 -8 9 C-6.79117904 6.99983534 -6.79117904 6.99983534 -6 5 C-5.34 5 -4.68 5 -4 5 C-3.896875 4.360625 -3.79375 3.72125 -3.6875 3.0625 C-3.460625 2.381875 -3.23375 1.70125 -3 1 C-2.01 0.67 -1.02 0.34 0 0 Z " fill="#252C6A" transform="translate(135,78)"/>
<path d="M0 0 C2.875 1.5 2.875 1.5 5 3 C4.67 3.66 4.34 4.32 4 5 C3.34 5 2.68 5 2 5 C2 4.34 2 3.68 2 3 C-0.97 2.67 -3.94 2.34 -7 2 C-7.33 3.65 -7.66 5.3 -8 7 C-8.99 6.67 -9.98 6.34 -11 6 C-8.65391401 0.58595541 -5.78421931 -0.57842193 0 0 Z " fill="#60AAB5" transform="translate(262,336)"/>
<path d="M0 0 C0.33 0.66 0.66 1.32 1 2 C-6.42857143 1 -6.42857143 1 -10 0 C-10.103125 0.639375 -10.20625 1.27875 -10.3125 1.9375 C-10.539375 2.618125 -10.76625 3.29875 -11 4 C-11.99 4.33 -12.98 4.66 -14 5 C-14 3.68 -14 2.36 -14 1 C-8.56215669 -2.53459815 -5.84769621 -2.0813834 0 0 Z " fill="#4EA1AA" transform="translate(303,286)"/>
<path d="M0 0 C2.62986812 2.62986812 2.821272 4.76228325 3.625 8.375 C3.88539063 9.51710938 4.14578125 10.65921875 4.4140625 11.8359375 C5 15 5 15 5 19 C4.34 19 3.68 19 3 19 C0.86608597 12.74051886 0.41044485 6.57791873 0 0 Z " fill="#5BB3BA" transform="translate(366,397)"/>
<path d="M0 0 C2.19597689 4.39195377 2.23618039 5.43564164 1 10 C-0.4375 12.375 -0.4375 12.375 -2 14 C-2.66 14 -3.32 14 -4 14 C-3.67 12.35 -3.34 10.7 -3 9 C-2.34 9 -1.68 9 -1 9 C-0.67 6.03 -0.34 3.06 0 0 Z " fill="#4BACB1" transform="translate(312,356)"/>
<path d="M0 0 C3.375 0.875 3.375 0.875 5.375 2.875 C3.065 2.545 0.755 2.215 -1.625 1.875 C-2.285 3.525 -2.945 5.175 -3.625 6.875 C-4.945 6.875 -6.265 6.875 -7.625 6.875 C-7.625 3.875 -7.625 3.875 -6.0625 1.625 C-3.625 -0.125 -3.625 -0.125 0 0 Z " fill="#0794A2" transform="translate(346.625,338.125)"/>
<path d="M0 0 C0.66 0.66 1.32 1.32 2 2 C1.37351562 2.02578125 0.74703125 2.0515625 0.1015625 2.078125 C-0.71570313 2.13484375 -1.53296875 2.1915625 -2.375 2.25 C-3.18710937 2.29640625 -3.99921875 2.3428125 -4.8359375 2.390625 C-7.16904501 2.77498032 -7.16904501 2.77498032 -8.1015625 4.921875 C-8.39804688 5.60765625 -8.69453125 6.2934375 -9 7 C-9.99 7.66 -10.98 8.32 -12 9 C-11.45276317 5.62537285 -10.9451 3.91765 -9 1 C-5.75778445 -0.08073852 -3.39597063 -0.21676408 0 0 Z " fill="#52A2AA" transform="translate(263,387)"/>
<path d="M0 0 C-1 2 -1 2 -3.375 2.875 C-7.61485124 4.6920791 -9.11836476 7.94724717 -11 12 C-11.35671933 8.16526716 -11.29771416 6.44657125 -9.125 3.1875 C-6.01246274 -0.01658248 -4.3473048 -0.11440276 0 0 Z " fill="#62AEB7" transform="translate(304,336)"/>
<path d="M0 0 C0.99 0.33 1.98 0.66 3 1 C3 1.99 3 2.98 3 4 C2.34 4 1.68 4 1 4 C0.34 5.32 -0.32 6.64 -1 8 C-1.99 8 -2.98 8 -4 8 C-4 8.66 -4 9.32 -4 10 C-4.99 10.33 -5.98 10.66 -7 11 C-6.67 9.68 -6.34 8.36 -6 7 C-5.34 7 -4.68 7 -4 7 C-4 6.34 -4 5.68 -4 5 C-3.01 4.34 -2.02 3.68 -1 3 C-0.67 2.01 -0.34 1.02 0 0 Z " fill="#6A6281" transform="translate(162,218)"/>
<path d="M0 0 C0.99 0 1.98 0 3 0 C3 0.66 3 1.32 3 2 C3.99 1.67 4.98 1.34 6 1 C6 2.32 6 3.64 6 5 C6.66 5.66 7.32 6.32 8 7 C5.69 7 3.38 7 1 7 C0.67 4.69 0.34 2.38 0 0 Z " fill="#25A8B6" transform="translate(205,416)"/>
<path d="M0 0 C3 0 3 0 6 1 C6 2.98 6 4.96 6 7 C5.01 7 4.02 7 3 7 C2.34 6.01 1.68 5.02 1 4 C0.01 4.495 0.01 4.495 -1 5 C-0.67 3.35 -0.34 1.7 0 0 Z " fill="#05A0B0" transform="translate(360,399)"/>
<path d="M0 0 C0.33 0 0.66 0 1 0 C2.6263447 5.4530381 3.36198157 9.3250768 2 15 C1.34 15.66 0.68 16.32 0 17 C0 11.39 0 5.78 0 0 Z " fill="#60B9BF" transform="translate(356,352)"/>
<path d="M0 0 C1.32 0.99 2.64 1.98 4 3 C3.67 3.66 3.34 4.32 3 5 C2.34 5 1.68 5 1 5 C-0.62514468 6.45833358 -0.62514468 6.45833358 -2 8 C-2.99 7.34 -3.98 6.68 -5 6 C-3.625 4 -3.625 4 -2 2 C-1.34 2 -0.68 2 0 2 C0 1.34 0 0.68 0 0 Z " fill="#4B416D" transform="translate(261,72)"/>
<path d="M0 0 C-4.5 4 -4.5 4 -9 4 C-9 3.01 -9 2.02 -9 1 C-3.375 -1.125 -3.375 -1.125 0 0 Z " fill="#2A2B61" transform="translate(218,170)"/>
<path d="M0 0 C0.33 0 0.66 0 1 0 C0.6875 3.375 0.6875 3.375 0 7 C-0.99 7.66 -1.98 8.32 -3 9 C-4.19232613 11.05003955 -4.19232613 11.05003955 -5 13 C-6 10 -6 10 -4.8203125 7.51953125 C-4.26085937 6.62621094 -3.70140625 5.73289063 -3.125 4.8125 C-2.57070312 3.91144531 -2.01640625 3.01039063 -1.4453125 2.08203125 C-0.96835938 1.39496094 -0.49140625 0.70789063 0 0 Z " fill="#645E7C" transform="translate(178,182)"/>
<path d="M0 0 C0.66 0.99 1.32 1.98 2 3 C1.33333333 4.33333333 0.66666667 5.66666667 0 7 C-0.33 7.70125 -0.66 8.4025 -1 9.125 C-2 11 -2 11 -4 13 C-4 11.02 -4 9.04 -4 7 C-3.34 7 -2.68 7 -2 7 C-1.855625 6.030625 -1.71125 5.06125 -1.5625 4.0625 C-1 1 -1 1 0 0 Z " fill="#2B214F" transform="translate(109,83)"/>
<path d="M0 0 C1.4540625 0.0309375 1.4540625 0.0309375 2.9375 0.0625 C3.2675 0.7225 3.5975 1.3825 3.9375 2.0625 C5.95419827 3.19600534 5.95419827 3.19600534 7.9375 4.0625 C6.50094146 4.14381463 5.0630517 4.20183559 3.625 4.25 C2.42423828 4.30220703 2.42423828 4.30220703 1.19921875 4.35546875 C-1.54101584 4.00051608 -2.35421079 3.16883718 -4.0625 1.0625 C-3.0625 0.0625 -3.0625 0.0625 0 0 Z " fill="#3CA8B3" transform="translate(335.0625,315.9375)"/>
<path d="M0 0 C-0.99 0 -1.98 0 -3 0 C-3 0.66 -3 1.32 -3 2 C-6.82320557 3.42258812 -9.91281305 4.24042276 -14 4 C-9.89239426 0.52433361 -5.34448487 -2.0555711 0 0 Z " fill="#4780BF" transform="translate(238,164)"/>
<path d="M0 0 C2 2 2 2 2 5 C1.01 4.67 0.02 4.34 -1 4 C-1 3.34 -1 2.68 -1 2 C-3.64 1.67 -6.28 1.34 -9 1 C-5.66429909 -1.10025613 -3.74952434 -1.18406032 0 0 Z " fill="#3C98A4" transform="translate(308,338)"/>
<path d="M0 0 C2.97 0 5.94 0 9 0 C9 0.33 9 0.66 9 1 C6.36 1 3.72 1 1 1 C0.67 2.65 0.34 4.3 0 6 C-0.66 6 -1.32 6 -2 6 C-2.33 6.99 -2.66 7.98 -3 9 C-2.41321669 5.47930015 -1.64350079 3.28700157 0 0 Z " fill="#3E9AA5" transform="translate(255,285)"/>
<path d="M0 0 C2.63005705 3.94508558 2.43648973 7.41685786 2 12 C0 14 0 14 -2 15 C-1.67 13.68 -1.34 12.36 -1 11 C-0.34 11 0.32 11 1 11 C0.34414811 7.39007621 0.34414811 7.39007621 -1 4 C-0.5625 1.875 -0.5625 1.875 0 0 Z " fill="#7BC6CC" transform="translate(345,304)"/>
<path d="M0 0 C2.02045442 0.60183749 4.02111039 1.27306096 6 2 C6.33 2.66 6.66 3.32 7 4 C9.01669827 5.13350534 9.01669827 5.13350534 11 6 C3.54062751 5.38857603 3.54062751 5.38857603 1 3.5625 C0 2 0 2 0 0 Z " fill="#64B7BD" transform="translate(251,417)"/>
<path d="M0 0 C0 0.99 0 1.98 0 3 C-0.66 3 -1.32 3 -2 3 C-2.33 4.32 -2.66 5.64 -3 7 C-3.99 6.67 -4.98 6.34 -6 6 C-6 4.68 -6 3.36 -6 2 C-2.25 0 -2.25 0 0 0 Z " fill="#0F99A3" transform="translate(216,415)"/>
<path d="M0 0 C2.97 0 5.94 0 9 0 C9.33 0.99 9.66 1.98 10 3 C8.9275 2.79375 7.855 2.5875 6.75 2.375 C3.12380904 2.0123809 1.91708924 2.01637931 -1 4 C-0.67 2.68 -0.34 1.36 0 0 Z " fill="#0B8D99" transform="translate(256,389)"/>
<path d="M0 0 C0.99 0 1.98 0 3 0 C2 3 2 3 0 4 C-3 4.1875 -3 4.1875 -6 4 C-6.66 3.34 -7.32 2.68 -8 2 C-5.36 2 -2.72 2 0 2 C0 1.34 0 0.68 0 0 Z " fill="#4DABB2" transform="translate(353,367)"/>
<path d="M0 0 C0.66 0 1.32 0 2 0 C2.52992692 1.45505358 3.0486789 2.91418127 3.5625 4.375 C3.85253906 5.18710937 4.14257812 5.99921875 4.44140625 6.8359375 C5 9 5 9 4 11 C1.6870518 8.6870518 1.50419025 7.52095125 0.875 4.375 C0.70742188 3.55773437 0.53984375 2.74046875 0.3671875 1.8984375 C0.24601562 1.27195312 0.12484375 0.64546875 0 0 Z " fill="#4BA9B2" transform="translate(351,341)"/>
<path d="M0 0 C2.97 1.98 2.97 1.98 6 4 C5.01 4.495 5.01 4.495 4 5 C3.67 5.99 3.34 6.98 3 8 C0.4345406 5.4345406 0.45953913 3.52313332 0 0 Z " fill="#5B5274" transform="translate(313,157)"/>
<path d="M0 0 C-1.65 0.33 -3.3 0.66 -5 1 C-5.12375 1.639375 -5.2475 2.27875 -5.375 2.9375 C-5.58125 3.618125 -5.7875 4.29875 -6 5 C-6.99 5.495 -6.99 5.495 -8 6 C-8.33 5.34 -8.66 4.68 -9 4 C-9.66 3.67 -10.32 3.34 -11 3 C-3.53658537 -1.76829268 -3.53658537 -1.76829268 0 0 Z " fill="#6C6584" transform="translate(224,149)"/>
<path d="M0 0 C0.99 0 1.98 0 3 0 C5.27678571 8.03571429 5.27678571 8.03571429 4 12 C3.3291288 10.3767313 2.66342971 8.75132422 2 7.125 C1.62875 6.22007813 1.2575 5.31515625 0.875 4.3828125 C0 2 0 2 0 0 Z " fill="#435EAA" transform="translate(241,106)"/>
<path d="M0 0 C2.83374881 3.20336822 3.5205537 5.78087253 4 10 C3.01 10 2.02 10 1 10 C-0.1577506 6.52674819 -0.06866652 3.63932552 0 0 Z " fill="#615A77" transform="translate(274,91)"/>
<path d="M0 0 C0 0.99 0 1.98 0 3 C-1.32267727 4.01405257 -2.65724831 5.01268258 -4 6 C-4.350625 6.70125 -4.70125 7.4025 -5.0625 8.125 C-5.5265625 9.053125 -5.5265625 9.053125 -6 10 C-6.99 10.33 -7.98 10.66 -9 11 C-7.44095325 7.17324889 -4.96833913 4.81992217 -2 2 C-1.34 1.34 -0.68 0.68 0 0 Z " fill="#262B6A" transform="translate(149,92)"/>
<path d="M0 0 C1.32 0 2.64 0 4 0 C7.125 6.625 7.125 6.625 6 10 C4.02 6.7 2.04 3.4 0 0 Z " fill="#292865" transform="translate(250,86)"/>
<path d="M0 0 C3.33717549 1.3809002 5.22301036 2.8201238 7 6 C6.6875 8.25 6.6875 8.25 6 10 C3.78286492 6.74820188 1.65167557 3.5786304 0 0 Z " fill="#22336E" transform="translate(319,185)"/>
<path d="M0 0 C1.5625 1.1875 1.5625 1.1875 3 3 C2.6875 5.6875 2.6875 5.6875 2 8 C1.34 8 0.68 8 0 8 C-0.66 5.69 -1.32 3.38 -2 1 C-1.34 0.67 -0.68 0.34 0 0 Z " fill="#4B4565" transform="translate(227,114)"/>
<path d="M0 0 C0.99 0.66 1.98 1.32 3 2 C1.25 4.0625 1.25 4.0625 -1 6 C-3.25 5.75 -3.25 5.75 -5 5 C-3.35 3.35 -1.7 1.7 0 0 Z " fill="#4D466C" transform="translate(121,67)"/>
<path d="M0 0 C3.0625 0.3125 3.0625 0.3125 4.9375 1.8125 C5.30875 2.3075 5.68 2.8025 6.0625 3.3125 C2.32088897 3.3125 -1.22703557 2.79911829 -4.9375 2.3125 C-2.9375 0.3125 -2.9375 0.3125 0 0 Z " fill="#40999F" transform="translate(308.9375,386.6875)"/>
<path d="M0 0 C2 1.1875 2 1.1875 4 3 C4.25 5.6875 4.25 5.6875 4 8 C2.68 7.67 1.36 7.34 0 7 C0 4.69 0 2.38 0 0 Z " fill="#04A2B5" transform="translate(292,307)"/>
<path d="M0 0 C2.25245881 2.68841859 3.88213958 4.64641875 5 8 C4.01 8 3.02 8 2 8 C2 7.34 2 6.68 2 6 C1.34 6 0.68 6 0 6 C0 4.02 0 2.04 0 0 Z " fill="#5F5879" transform="translate(339,182)"/>
<path d="M0 0 C1.9375 0.8125 1.9375 0.8125 4 2 C4.33 2.99 4.66 3.98 5 5 C4.01 5.33 3.02 5.66 2 6 C1.01 4.68 0.02 3.36 -1 2 C-0.67 1.34 -0.34 0.68 0 0 Z " fill="#4E4869" transform="translate(333,176)"/>
<path d="M0 0 C0.66 0.33 1.32 0.66 2 1 C1.67 1.99 1.34 2.98 1 4 C0.34 4 -0.32 4 -1 4 C-1 4.66 -1 5.32 -1 6 C-2.65 5.67 -4.3 5.34 -6 5 C-4.06745228 2.9754262 -2.36841312 1.57894208 0 0 Z " fill="#776E90" transform="translate(210,153)"/>
<path d="M0 0 C0.33 0 0.66 0 1 0 C2.125 5.75 2.125 5.75 1 8 C0.34 8 -0.32 8 -1 8 C-1 10.31 -1 12.62 -1 15 C-1.33 15 -1.66 15 -2 15 C-2.19392201 9.47322267 -1.7479503 5.24385089 0 0 Z " fill="#7D7691" transform="translate(100,99)"/>
<path d="M0 0 C0.66 0.33 1.32 0.66 2 1 C1.67 1.99 1.34 2.98 1 4 C0.34 4 -0.32 4 -1 4 C-1.33 6.64 -1.66 9.28 -2 12 C-2.33 12 -2.66 12 -3 12 C-3.2954439 6.97745369 -2.98514628 4.10457614 0 0 Z " fill="#77BDC7" transform="translate(303,388)"/>
<path d="M0 0 C-0.5775 0.268125 -1.155 0.53625 -1.75 0.8125 C-4.0325868 2.01719859 -5.9737942 3.40798115 -8 5 C-7.67 3.35 -7.34 1.7 -7 0 C-3.86650268 -1.04449911 -3.01031744 -0.93423645 0 0 Z " fill="#0A919C" transform="translate(218,340)"/>
<path d="M0 0 C1.2380014 3.57644848 0.74926071 6.33694766 0 10 C-2 8 -2 8 -2.25 5 C-2 2 -2 2 0 0 Z " fill="#3F9DA6" transform="translate(327,288)"/>
<path d="M0 0 C7.57142857 4 7.57142857 4 10 8 C7.33333333 6.66666667 4.66666667 5.33333333 2 4 C2 3.34 2 2.68 2 2 C1.34 2 0.68 2 0 2 C0 1.34 0 0.68 0 0 Z " fill="#262D6C" transform="translate(224,89)"/>
<path d="M0 0 C0.66 0 1.32 0 2 0 C0.52307692 4.67692308 0.52307692 4.67692308 -2.125 6.3125 C-3.053125 6.6528125 -3.053125 6.6528125 -4 7 C-4 6.01 -4 5.02 -4 4 C-3.01 4 -2.02 4 -1 4 C-0.67 2.68 -0.34 1.36 0 0 Z " fill="#46A6B0" transform="translate(266,364)"/>
<path d="M0 0 C3.73487777 0.4979837 5.81237635 0.87491756 9 3 C8.67 3.66 8.34 4.32 8 5 C5.525 4.01 5.525 4.01 3 3 C3 2.34 3 1.68 3 1 C2.01 0.67 1.02 0.34 0 0 Z " fill="#5CA7B2" transform="translate(222,284)"/>
<path d="M0 0 C2.79872437 2.52788007 4.45773019 4.20411134 5 8 C4.34 8 3.68 8 3 8 C3 7.01 3 6.02 3 5 C1.68 4.67 0.36 4.34 -1 4 C-0.67 2.68 -0.34 1.36 0 0 Z " fill="#4385C4" transform="translate(325,195)"/>
<path d="M0 0 C2.475 0.495 2.475 0.495 5 1 C5.33 2.32 5.66 3.64 6 5 C3.5625 4.1875 3.5625 4.1875 1 3 C0.67 2.01 0.34 1.02 0 0 Z " fill="#21336C" transform="translate(304,172)"/>
<path d="M0 0 C3 0 3 0 4.4375 1.375 C4.953125 1.91125 5.46875 2.4475 6 3 C8.09989652 4.17574711 8.09989652 4.17574711 10 5 C4.5388601 4.64766839 4.5388601 4.64766839 2 4 C0.5 1.9375 0.5 1.9375 0 0 Z " fill="#78BDC2" transform="translate(304,418)"/>
<path d="M0 0 C0.66 0 1.32 0 2 0 C1.67 2.64 1.34 5.28 1 8 C-1 6 -1 6 -1.1875 3.4375 C-1 1 -1 1 0 0 Z " fill="#42ACB4" transform="translate(168,400)"/>
<path d="M0 0 C0.66 0.33 1.32 0.66 2 1 C2 1.99 2 2.98 2 4 C1.01 4 0.02 4 -1 4 C-1 4.66 -1 5.32 -1 6 C-1.66 6 -2.32 6 -3 6 C-1.125 1.125 -1.125 1.125 0 0 Z " fill="#4FACB2" transform="translate(169,337)"/>
<path d="M0 0 C1.37562854 1.28965176 2.70766393 2.62689293 4 4 C4 4.66 4 5.32 4 6 C1.5625 5.1875 1.5625 5.1875 -1 4 C-1.33 3.01 -1.66 2.02 -2 1 C-1.34 0.67 -0.68 0.34 0 0 Z " fill="#282A67" transform="translate(235,98)"/>
<path d="M0 0 C1.65 0 3.3 0 5 0 C2.63707344 2.52588702 1.33537489 3.88820837 -2 5 C-2 4.01 -2 3.02 -2 2 C-1.34 2 -0.68 2 0 2 C0 1.34 0 0.68 0 0 Z " fill="#252A68" transform="translate(139,73)"/>
</svg>
