<?xml version="1.0" encoding="UTF-8"?>
<svg version="1.1" xmlns="http://www.w3.org/2000/svg" width="500" height="500">
<path d="M0 0 C1.44981612 0.81171665 2.89234793 1.63743475 4.3125 2.5 C4.3125 3.16 4.3125 3.82 4.3125 4.5 C4.9725 4.5 5.6325 4.5 6.3125 4.5 C7.78515625 6.51171875 7.78515625 6.51171875 9.375 9.1875 C9.90222656 10.05761719 10.42945313 10.92773438 10.97265625 11.82421875 C13.36378968 16.59951438 13.47151693 21.26699688 13.62890625 26.55078125 C13.64968735 27.20958786 13.67046844 27.86839447 13.69187927 28.54716492 C13.75685489 30.63551185 13.81601575 32.72397612 13.875 34.8125 C13.91823479 36.2350378 13.9618506 37.65756406 14.00585938 39.08007812 C14.11248216 42.55326297 14.21389348 46.02657726 14.3125 49.5 C14.9725 49.5 15.6325 49.5 16.3125 49.5 C16.56 48.9121875 16.8075 48.324375 17.0625 47.71875 C21.08485607 40.57906798 29.80053844 36.81328617 37.3125 34.5 C52.69979476 30.58797591 71.74252331 33.70534077 85.3125 41.5 C98.58125819 49.90114309 107.0184928 59.85442371 110.734375 75.21484375 C111.23448031 78.05665838 111.57103182 80.8359507 111.84863281 83.70532227 C111.98002655 85.05304466 111.98002655 85.05304466 112.11407471 86.42799377 C112.21229523 87.45363686 112.21229523 87.45363686 112.3125 88.5 C113.06088072 88.49815641 113.80926144 88.49631283 114.58032036 88.49441338 C132.81808248 88.4501806 151.05583385 88.41711731 169.29363823 88.39637566 C178.11342169 88.38607769 186.93316926 88.37204572 195.75292969 88.34912109 C203.44321026 88.32914184 211.13346484 88.31627281 218.82377064 88.31182301 C222.89301277 88.3092233 226.96218055 88.30314385 231.03139877 88.28853989 C234.86776365 88.2748842 238.70402412 88.27079338 242.540411 88.27378464 C243.94236635 88.27323803 245.34432548 88.2693084 246.74625969 88.26158905 C266.87665688 88.15625854 266.87665688 88.15625854 273.9375 93.125 C274.58976562 93.57101563 275.24203125 94.01703125 275.9140625 94.4765625 C276.37554687 94.81429687 276.83703125 95.15203125 277.3125 95.5 C277.34988281 94.22125 277.38726562 92.9425 277.42578125 91.625 C277.49148742 89.9166396 277.55793311 88.20830753 277.625 86.5 C277.64755859 85.66082031 277.67011719 84.82164062 277.69335938 83.95703125 C278.05810431 75.40210465 280.15314566 68.65935434 286.3125 62.5 C288.625 61.625 288.625 61.625 290.3125 61.5 C290.3125 60.84 290.3125 60.18 290.3125 59.5 C296.85390906 56.59270709 304.26916277 56.28246848 311.1015625 58.33984375 C318.014799 61.44140151 322.14906673 65.9304458 325.3684721 72.73040009 C326.45998179 75.93268377 326.56698199 78.49421061 326.57319641 81.87609863 C326.58028122 83.16311172 326.58736603 84.45012482 326.59466553 85.77613831 C326.59237191 87.19516027 326.58986224 88.61418189 326.5871582 90.03320312 C326.59150716 91.53320062 326.59669092 93.03319589 326.60264587 94.53318787 C326.61602597 98.60130466 326.61661576 102.66932849 326.61408257 106.737463 C326.6130124 110.13469391 326.6178973 113.53190605 326.622688 116.92913294 C326.6337793 124.94316673 326.63422241 132.95715365 326.62817383 140.97119141 C326.62213052 149.23790844 326.63445493 157.50445542 326.6557439 165.77114344 C326.67335559 172.87106235 326.67936203 179.97092711 326.67610615 187.07086706 C326.6742928 191.31035837 326.67693487 195.54972831 326.69082069 199.78919983 C326.70338778 203.77505894 326.7014657 207.76065265 326.68840981 211.74650764 C326.68604219 213.20861462 326.68878537 214.67074022 326.69703293 216.13282585 C326.70748512 218.12982663 326.69760559 220.1269029 326.6867218 222.12390137 C326.68697341 223.7996587 326.68697341 223.7996587 326.68723011 225.50926971 C326.26161958 228.90607787 325.33827795 230.76367389 323.3125 233.5 C316.43249123 238.19854257 310.73911705 237.71735881 302.5625 237.75 C301.28632813 237.770625 300.01015625 237.79125 298.6953125 237.8125 C296.84292969 237.82023437 296.84292969 237.82023437 294.953125 237.828125 C293.82422852 237.8374707 292.69533203 237.84681641 291.53222656 237.85644531 C287.77771148 237.44079533 285.50200126 236.5160988 282.3125 234.5 C278.3125 229.5 278.3125 229.5 278.3125 200.5 C190.8625 200.5 103.4125 200.5 13.3125 200.5 C13.3125 209.74 13.3125 218.98 13.3125 228.5 C8.15404663 236.23768006 8.15404663 236.23768006 2.3125 237.5 C-2.17467425 237.93681765 -6.61936144 237.96427581 -11.125 237.9375 C-12.31416016 237.95748047 -13.50332031 237.97746094 -14.72851562 237.99804688 C-27.82204945 237.99077673 -27.82204945 237.99077673 -32.6875 233.5 C-35.78702765 228.4780996 -36.1165779 224.57116456 -36.06845093 218.8598938 C-36.0731309 218.00286578 -36.07781087 217.14583776 -36.08263266 216.2628392 C-36.09457588 213.39788662 -36.08512796 210.53341297 -36.07568359 207.66845703 C-36.07974965 205.61161012 -36.08509172 203.55476539 -36.09161377 201.4979248 C-36.10529078 195.9152219 -36.0999866 190.33268531 -36.09047651 184.7499795 C-36.08287992 178.9054078 -36.08992572 173.06085033 -36.09463501 167.21627808 C-36.10009341 157.39920497 -36.09289959 147.58219955 -36.07861328 137.76513672 C-36.06229574 126.42141193 -36.06756848 115.07784897 -36.0840925 103.73412812 C-36.09771576 93.99127352 -36.09962262 84.24846758 -36.09177649 74.50560653 C-36.08710345 68.68824161 -36.08646487 62.8709527 -36.09638596 57.05359268 C-36.10506518 51.5821197 -36.09901605 46.11085485 -36.08170319 40.6394043 C-36.07774309 38.63351664 -36.0788642 36.62761142 -36.08549118 34.6217308 C-36.09371579 31.8789435 -36.08337391 29.13681883 -36.06845093 26.39407349 C-36.07514309 25.60436979 -36.08183526 24.8146661 -36.08873022 24.00103199 C-36.00834936 16.35937106 -33.81490529 9.77505839 -28.5390625 4.109375 C-20.00338411 -3.30982225 -10.16801523 -5.01947155 0 0 Z " fill="#30255E" transform="translate(104.6875,132.5)"/>
<path d="M0 0 C0.83643779 -0.00384115 1.67287559 -0.00768229 2.53465998 -0.01163983 C3.91308497 -0.01034011 3.91308497 -0.01034011 5.31935692 -0.00901413 C6.29562267 -0.01198525 7.27188842 -0.01495637 8.27773798 -0.01801753 C11.56411099 -0.0267209 14.85044764 -0.02821418 18.13683128 -0.02970505 C20.48717388 -0.03433213 22.83751572 -0.03935664 25.18785667 -0.04475021 C32.25234044 -0.0592595 39.31681642 -0.06526068 46.38131243 -0.07014573 C49.70944051 -0.07272357 53.03756708 -0.07654128 56.36569405 -0.08026505 C67.43187941 -0.09245936 78.49806283 -0.10275739 89.56425476 -0.10614014 C90.27261204 -0.1063597 90.98096932 -0.10657927 91.71079197 -0.10680549 C92.77585809 -0.10713291 92.77585809 -0.10713291 93.86244071 -0.10746694 C95.30123496 -0.1079104 96.74002922 -0.10835696 98.17882347 -0.10880661 C98.89251372 -0.10902804 99.60620396 -0.10924947 100.34152119 -0.10947761 C111.89742886 -0.11342285 123.45327337 -0.13086775 135.00915666 -0.15416613 C146.87781785 -0.17790155 158.74644739 -0.19034303 170.61513269 -0.19150805 C177.27709495 -0.19242374 183.93898609 -0.19846881 190.60093117 -0.21632767 C196.8701321 -0.232806 203.13917708 -0.23496487 209.40839195 -0.22618866 C211.70735021 -0.22541811 214.00631684 -0.22976328 216.30525398 -0.23964691 C219.44848663 -0.25236584 222.5911669 -0.24648947 225.73439598 -0.23606491 C226.63996164 -0.24412132 227.5455273 -0.25217772 228.47853434 -0.26047826 C235.80494732 -0.20381729 241.93705495 1.24612988 248.15782738 5.19392776 C259.95292596 17.79323762 255.90782738 28.09572006 255.90782738 46.13142776 C168.12782738 46.13142776 80.34782738 46.13142776 -10.09217262 46.13142776 C-11.67740003 42.96097295 -11.2974697 39.5369893 -11.33045387 36.05330276 C-11.33852562 35.24910904 -11.34659737 34.44491531 -11.35491371 33.61635208 C-11.3687556 31.91160106 -11.37947729 30.20682232 -11.38733864 28.50203323 C-11.40451472 25.90530033 -11.44839346 23.30985301 -11.49256325 20.71345901 C-11.50269368 19.05591628 -11.51120869 17.39836273 -11.51795387 15.74080276 C-11.53546196 14.96871475 -11.55297005 14.19662674 -11.57100868 13.40114212 C-11.55034644 8.21815523 -10.58018978 5.20623258 -7.09217262 1.13142776 C-4.37010162 0.22407076 -2.79654871 0.00482112 0 0 Z " fill="#1393DD" transform="translate(127.09217262268066,237.86857223510742)"/>
<path d="M0 0 C3.76488015 1.18524005 4.47109947 1.72996993 6.375 5.0625 C6.75417423 7.75839138 6.75417423 7.75839138 6.76026917 10.90074158 C6.76991699 12.09382431 6.77956482 13.28690704 6.789505 14.5161438 C6.78492783 15.82171234 6.78035065 17.12728088 6.77563477 18.47241211 C6.78137815 19.86389252 6.78846128 21.25536795 6.79678345 22.64683533 C6.8118931 25.64140883 6.81767113 28.63580409 6.81625557 31.63041496 C6.81422193 36.36630538 6.83378848 41.10195614 6.85643005 45.83778381 C6.89741149 55.03680979 6.91601016 64.23581693 6.93260193 73.43491364 C6.95495426 85.14067743 6.98850576 96.84638589 7.03980106 108.55205923 C7.059716 113.25900615 7.06930226 117.9658278 7.07075322 122.6728152 C7.07350551 125.60228617 7.08433998 128.53168811 7.09726334 131.46113014 C7.10357702 133.46518607 7.09994845 135.46926561 7.09602356 137.47332764 C7.10626556 139.26718147 7.10626556 139.26718147 7.11671448 141.09727478 C7.11834878 142.13462737 7.11998308 143.17197996 7.12166691 144.24076748 C7.38791822 147.20638867 8.22120441 149.33836026 9.375 152.0625 C46.25118525 152.13112778 83.1273609 152.18400928 120.00359707 152.21569599 C124.35461169 152.21944823 128.70562619 152.22333118 133.05664062 152.22729492 C134.35598419 152.22847532 134.35598419 152.22847532 135.68157712 152.22967956 C149.71772332 152.24274271 163.75383276 152.26640154 177.78995714 152.29395839 C192.18633214 152.32198732 206.58268785 152.33867093 220.97908902 152.34476548 C229.86644197 152.34888715 238.75369101 152.36191715 247.64101198 152.3862494 C253.73076425 152.40207561 259.82046259 152.40690745 265.91023394 152.40300413 C269.42666351 152.40107771 272.94291119 152.40408433 276.45930862 152.42011642 C280.26776059 152.43735372 284.07597363 152.43148332 287.88446045 152.42326355 C289.00118409 152.43200207 290.11790773 152.4407406 291.26847148 152.44974393 C292.79569485 152.44078421 292.79569485 152.44078421 294.35377121 152.43164349 C295.23320349 152.43278265 296.11263578 152.43392181 297.01871753 152.43509549 C299.92372628 151.97573072 301.29118351 151.1212489 303.375 149.0625 C303.77554562 146.27124227 303.91887035 143.86788032 303.88916016 141.07446289 C303.89628525 140.26115005 303.90341034 139.44783722 303.91075134 138.60987854 C303.93006964 135.91805908 303.92174561 133.22702228 303.9140625 130.53515625 C303.92396509 128.66571398 303.93590466 126.79628149 303.94979858 124.92686462 C303.98221376 120.00135155 303.99255724 115.0760609 303.99664307 110.15045166 C304.00538729 102.26968362 304.04086266 94.38909885 304.0888176 86.50848198 C304.10141816 83.75420719 304.10064315 81.00016269 304.09854126 78.24586487 C304.10512179 76.55721865 304.11212809 74.86857402 304.11962891 73.17993164 C304.11344292 72.03037994 304.11344292 72.03037994 304.10713196 70.85760498 C304.15824145 64.13567945 304.15824145 64.13567945 306.375 61.0625 C309.33367018 59.96585005 312.23963255 59.81144745 315.375 60.0625 C317.92651968 61.91235177 318.98476715 63.2820343 320.375 66.0625 C320.46857525 67.9123854 320.49691127 69.76570058 320.49525452 71.61795044 C320.49731651 73.38904678 320.49731651 73.38904678 320.49942017 75.19592285 C320.49582489 76.49783569 320.49222961 77.79974854 320.48852539 79.14111328 C320.48824343 80.52070107 320.48840142 81.90028901 320.4889679 83.27987671 C320.48925553 87.03171781 320.4833642 90.78352712 320.47639394 94.53536081 C320.47015484 98.45381924 320.46955616 102.37227834 320.46836853 106.29074097 C320.46525686 113.71386816 320.45704567 121.13698067 320.44701904 128.56010139 C320.43585282 137.0098036 320.43034617 145.45950651 320.42532361 153.90921426 C320.41486293 171.29365158 320.3970659 188.67807368 320.375 206.0625 C315.095 206.0625 309.815 206.0625 304.375 206.0625 C304.36082031 203.88269531 304.34664063 201.70289063 304.33203125 199.45703125 C304.30137721 197.33537535 304.26229792 195.21402937 304.22241211 193.0925293 C304.19928007 191.62324053 304.1848476 190.15378708 304.17944336 188.68432617 C304.17011721 186.56585655 304.12905873 184.44995935 304.08203125 182.33203125 C304.0663208 181.05948486 304.05061035 179.78693848 304.03442383 178.47583008 C303.16280522 173.96413078 302.08952233 172.78247086 298.375 170.0625 C294.54787323 169.31198897 290.7677382 169.38559572 286.87809753 169.42326355 C285.70184588 169.41490787 284.52559423 169.4065522 283.31369859 169.39794332 C280.0524386 169.37979262 276.79208783 169.38399901 273.53083384 169.3976289 C270.0127624 169.40689056 266.49483723 169.38734873 262.97680664 169.37130737 C256.88285692 169.34746162 250.78910947 169.34186003 244.69511986 169.34865379 C235.88428415 169.35845 227.07367285 169.34072552 218.26287345 169.31628648 C203.96796863 169.27738312 189.67312795 169.26073313 175.37817383 169.25805664 C161.49207265 169.25540909 147.60604643 169.24229411 133.7199707 169.21508789 C132.86401659 169.21341451 132.00806248 169.21174113 131.12617036 169.21001705 C126.83209473 169.20155757 122.53801954 169.19289216 118.24394453 169.18412435 C82.62097327 169.11165444 46.99804077 169.07529073 11.375 169.0625 C11.375 169.7225 11.375 170.3825 11.375 171.0625 C10.72756836 171.61583008 10.08013672 172.16916016 9.41308594 172.73925781 C6.61807074 175.92533407 6.83441129 178.03841118 6.765625 182.234375 C6.74908875 182.9167926 6.73255249 183.59921021 6.71551514 184.30230713 C6.66710161 186.47246354 6.64568135 188.64191972 6.625 190.8125 C6.59683438 192.28779552 6.56690611 193.76305851 6.53515625 195.23828125 C6.4580365 198.84667396 6.41746625 202.45286895 6.375 206.0625 C1.425 206.0625 -3.525 206.0625 -8.625 206.0625 C-8.74173672 179.94176432 -8.82994091 153.82106767 -8.88406086 127.70012379 C-8.90985621 115.57204793 -8.94503238 103.44413402 -9.00219727 91.31616211 C-9.05199122 80.74696248 -9.08428132 70.17788013 -9.09544247 59.60856646 C-9.10196797 54.01074025 -9.11733273 48.41324958 -9.15365028 42.81553078 C-9.18754621 37.5484715 -9.19806581 32.28188653 -9.19053841 27.01472855 C-9.19191581 25.08012122 -9.20188626 23.14549831 -9.22102737 21.21098518 C-9.24586568 18.57157489 -9.23993944 15.93396078 -9.22627258 13.29450989 C-9.24083679 12.52699349 -9.255401 11.75947709 -9.27040654 10.96870261 C-9.21507534 7.02187014 -8.74550292 5.21948084 -6.31398296 2.05190563 C-3.625 0.0625 -3.625 0.0625 0 0 Z " fill="#9C2C2A" transform="translate(94.625,146.9375)"/>
<path d="M0 0 C0.79470703 0.00563965 1.58941406 0.0112793 2.40820312 0.01708984 C15.55742359 0.28593018 25.93035289 4.15869411 35.75 13 C41.30561732 18.90424918 43.47397033 25.49454015 43.41210938 33.50634766 C43.40407288 34.85655502 43.40407288 34.85655502 43.39587402 36.23403931 C43.3889856 36.91993134 43.38209717 37.60582336 43.375 38.3125 C35.52797684 38.38870035 27.68104948 38.44116329 19.83374023 38.47729492 C17.16526928 38.49066361 14.49728282 38.51281605 11.82885742 38.53881836 C7.98870748 38.57529585 4.14888562 38.59224859 0.30859375 38.60546875 C-1.47461021 38.62869453 -1.47461021 38.62869453 -3.2938385 38.65238953 C-10.18135433 38.65378219 -15.88237879 38.52413147 -21.33203125 33.84765625 C-25.52663119 28.25979696 -27.64424124 24.48639027 -26.625 17.3125 C-24.65179914 10.75597816 -20.28328492 6.03770537 -14.625 2.3125 C-9.71700806 0.18993452 -5.25723728 -0.03895074 0 0 Z " fill="#FB9C25" transform="translate(155.625,182.6875)"/>
<path d="M0 0 C2.22663635 2.21000678 2.94023778 3.5750965 3.37917423 6.69589138 C3.38118556 7.73286695 3.38319689 8.76984251 3.38526917 9.83824158 C3.39491699 11.03132431 3.40456482 12.22440704 3.414505 13.4536438 C3.40992783 14.75921234 3.40535065 16.06478088 3.40063477 17.40991211 C3.40637815 18.80139252 3.41346128 20.19286795 3.42178345 21.58433533 C3.4368931 24.57890883 3.44267113 27.57330409 3.44125557 30.56791496 C3.43922193 35.30380538 3.45878848 40.03945614 3.48143005 44.77528381 C3.52241149 53.97430979 3.54101016 63.17331693 3.55760193 72.37241364 C3.57995426 84.07817743 3.61350576 95.78388589 3.66480106 107.48955923 C3.684716 112.19650615 3.69430226 116.9033278 3.69575322 121.6103152 C3.69850551 124.53978617 3.70933998 127.46918811 3.72226334 130.39863014 C3.72857702 132.40268607 3.72494845 134.40676561 3.72102356 136.41082764 C3.73126556 138.20468147 3.73126556 138.20468147 3.74171448 140.03477478 C3.74334878 141.07212737 3.74498308 142.10947996 3.74666691 143.17826748 C4.01291822 146.14388867 4.84620441 148.27586026 6 151 C42.85916346 151.06863868 79.71831731 151.12151483 116.57753174 151.15319599 C120.92725759 151.15694819 125.27698332 151.16083115 129.62670898 151.16479492 C130.92565908 151.16597532 130.92565908 151.16597532 132.2508506 151.16717956 C146.27985473 151.18024011 160.30882206 151.20389753 174.33780434 151.23145839 C188.72853411 151.25949453 203.11924457 151.27617246 217.51000053 151.28226548 C226.39274421 151.28638565 235.27538385 151.29940755 244.15809552 151.3237494 C250.24598614 151.33958448 256.33382283 151.34440542 262.42173257 151.34050413 C265.93626084 151.3385791 269.45060709 151.34156861 272.96510315 151.35761642 C276.77320524 151.37487818 280.58106891 151.36897666 284.38920593 151.36076355 C285.50301673 151.36950207 286.61682753 151.3782406 287.76439017 151.38724393 C294.88436977 151.41776619 294.88436977 151.41776619 301 148 C299.25 151.875 299.25 151.875 297 153 C295.41240864 153.09451213 293.82085558 153.12554743 292.23045349 153.12584114 C291.21752007 153.12844889 290.20458666 153.13105664 289.16095829 153.13374341 C288.03977321 153.13151268 286.91858812 153.12928196 285.76342773 153.12698364 C284.57889983 153.12854363 283.39437193 153.13010362 282.17394924 153.13171089 C278.87585279 153.13502054 275.5778129 153.13381426 272.27971983 153.13072467 C268.72685261 153.12847013 265.17399049 153.13195045 261.62112427 153.13470459 C254.65702356 153.13916069 247.69293361 153.13818653 240.72883248 153.13529195 C235.07100095 153.13303729 229.41317243 153.13272567 223.75534058 153.13381577 C222.54933108 153.13404561 222.54933108 153.13404561 221.31895775 153.13428011 C219.68584227 153.13459982 218.0527268 153.13492403 216.41961133 153.1352527 C201.09124465 153.13810702 185.76288393 153.13482121 170.43451822 153.12945233 C157.27047009 153.12498434 144.10643078 153.12576028 130.94238281 153.13037109 C115.67038484 153.13571769 100.3983921 153.13783234 85.12639332 153.13475883 C83.49914869 153.13444027 81.87190406 153.1341259 80.24465942 153.13381577 C79.44393885 153.13366149 78.64321827 153.13350721 77.81823343 153.13334826 C72.16453675 153.13248337 66.51084338 153.1339454 60.85714722 153.13629532 C53.97100621 153.13909446 47.0848766 153.13835262 40.19873691 153.13301457 C36.68260619 153.13037912 33.16649452 153.12936988 29.65036392 153.13266373 C25.84575584 153.13617401 22.04117922 153.13199421 18.23657227 153.12698364 C17.11538718 153.12921436 15.9942021 153.13144509 14.83904171 153.13374341 C13.31964159 153.12983178 13.31964159 153.12983178 11.76954651 153.12584114 C10.45088514 153.12559761 10.45088514 153.12559761 9.10558414 153.12534916 C7 153 7 153 5 152 C5 151.34 5 150.68 5 150 C4.01 149.67 3.02 149.34 2 149 C0.95012857 145.85038572 0.86503027 143.62059984 0.84851074 140.31324768 C0.84016708 139.12850861 0.83182343 137.94376953 0.82322693 136.72312927 C0.81904251 135.42174515 0.81485809 134.12036102 0.81054688 132.77954102 C0.80260423 131.39644112 0.79421625 130.01334372 0.78541565 128.63024902 C0.76735738 125.65098863 0.75234216 122.67173375 0.73963928 119.69244576 C0.71942129 114.98217876 0.69176813 110.27197356 0.66296387 105.56175232 C0.60286536 95.5620305 0.55102961 85.56227159 0.5 75.5625 C0.44491615 64.77097025 0.38841749 53.97945923 0.32245111 43.18798965 C0.2941071 38.50505776 0.27050903 33.82213307 0.25052643 29.13915837 C0.23713423 26.22613611 0.21972197 23.31314794 0.20121574 20.40015411 C0.18976521 18.40425206 0.18320068 16.40832385 0.17677307 14.41239929 C0.16842941 13.22484039 0.16008575 12.03728149 0.15148926 10.81373596 C0.14633553 9.7815371 0.14118179 8.74933825 0.13587189 7.68586063 C0.01507966 5.29808864 -0.31617178 3.2815674 -1 1 C-3.3431213 1.25561323 -5.67843403 1.59270772 -8 2 C-8.33 2.66 -8.66 3.32 -9 4 C-9.66 4 -10.32 4 -11 4 C-8.42407961 -1.70382372 -5.97292422 -1.36224587 0 0 Z " fill="#8C3543" transform="translate(98,148)"/>
<path d="M0 0 C0.66 0.33 1.32 0.66 2 1 C1.34 1.66 0.68 2.32 0 3 C-0.99 3 -1.98 3 -3 3 C-5.74873708 16.74368542 -4.62133114 30.98925218 -5 45 C82.45 45 169.9 45 260 45 C260 45.33 260 45.66 260 46 C172.22 46 84.44 46 -6 46 C-7.58522741 42.82954519 -7.20529707 39.40556153 -7.23828125 35.921875 C-7.246353 35.11768127 -7.25442474 34.31348755 -7.26274109 33.48492432 C-7.27658298 31.7801733 -7.28730467 30.07539455 -7.29516602 28.37060547 C-7.3123421 25.77387256 -7.35622084 23.17842524 -7.40039062 20.58203125 C-7.41052105 18.92448852 -7.41903606 17.26693497 -7.42578125 15.609375 C-7.44328934 14.83728699 -7.46079742 14.06519897 -7.47883606 13.26971436 C-7.45817382 8.08672747 -6.48801716 5.07480482 -3 1 C-2.01 0.67 -1.02 0.34 0 0 Z " fill="#2574BA" transform="translate(123,238)"/>
<path d="M0 0 C30.16657815 -0.06847456 60.33315363 -0.12154801 90.49979236 -0.15319599 C94.06325689 -0.156948 97.62672125 -0.16083097 101.19018555 -0.16479492 C102.25429383 -0.16597532 102.25429383 -0.16597532 103.33989925 -0.16717956 C114.81839414 -0.18022461 126.29684384 -0.20387347 137.77531194 -0.23145839 C149.55799188 -0.2595377 161.34064819 -0.2761816 173.12336022 -0.28226548 C179.73954517 -0.28600829 186.35564614 -0.29536541 192.97179985 -0.31719017 C199.20073378 -0.3375709 205.42952322 -0.34383051 211.65848732 -0.33932304 C213.94293376 -0.34014752 216.22738509 -0.34610359 218.51180267 -0.35761642 C221.63548126 -0.37258508 224.7586173 -0.36893738 227.88230896 -0.36076355 C228.78213908 -0.36950207 229.6819692 -0.3782406 230.6090669 -0.38724393 C238.17459592 -0.33388887 245.94304445 1.01016481 251.66235352 6.39135742 C258.22016009 14.27772127 258.65716953 22.21972796 258.3125 32.125 C258.28994141 33.36765625 258.26738281 34.6103125 258.24414062 35.890625 C258.18573703 38.92761215 258.09607686 41.96397115 258 45 C253.38 45 248.76 45 244 45 C244 44.67 244 44.34 244 44 C248.29 44 252.58 44 257 44 C256.91237771 40.35309994 256.80539818 36.70844567 256.6875 33.0625 C256.66494141 32.04091797 256.64238281 31.01933594 256.61914062 29.96679688 C256.39040407 23.45820219 255.40080867 18.04579688 253 12 C252.67 11.01 252.34 10.02 252 9 C251.01 9 250.02 9 249 9 C248.67 8.01 248.34 7.02 248 6 C246.00480364 5.01059939 246.00480364 5.01059939 243.625 4.375 C242.83351563 4.13523438 242.04203125 3.89546875 241.2265625 3.6484375 C240.12441406 3.32746094 240.12441406 3.32746094 239 3 C238.01 2.67 237.02 2.34 236 2 C234.65082755 1.90655801 233.29755214 1.86635696 231.94515705 1.8613348 C231.11710255 1.85586036 230.28904805 1.85038591 229.43590099 1.84474558 C228.52637571 1.84376747 227.61685044 1.84278936 226.67976379 1.84178162 C225.71348216 1.83684364 224.74720053 1.83190566 223.75163764 1.82681805 C220.49954731 1.81140613 217.24747679 1.80307242 213.99536133 1.79467773 C211.66982345 1.78510212 209.34428733 1.77509222 207.01875305 1.76467896 C200.69269735 1.73758958 194.36663416 1.71660186 188.04055238 1.69667697 C182.10302943 1.677053 176.16552642 1.65289723 170.22802039 1.62875474 C158.46656099 1.58107958 146.70508965 1.53781519 134.94360352 1.49731445 C123.5174873 1.45795914 112.09138168 1.41653283 100.6652832 1.37231445 C99.96114042 1.36959018 99.25699763 1.36686591 98.53151719 1.36405908 C94.99908814 1.3503796 91.46665925 1.33665933 87.93423045 1.32291877 C58.62284274 1.20895519 29.31143101 1.10221889 0 1 C0 0.67 0 0.34 0 0 Z " fill="#3697DC" transform="translate(125,238)"/>
<path d="M0 0 C1.52946189 -0.00597315 1.52946189 -0.00597315 3.08982199 -0.01206696 C4.77511314 -0.00332844 4.77511314 -0.00332844 6.49445057 0.00558662 C7.68532758 0.00387777 8.87620459 0.00216892 10.10316879 0.00040829 C13.41433649 -0.00232217 16.72526919 0.00395019 20.03640854 0.01396441 C23.60489633 0.02258416 27.17337657 0.0196798 30.74187183 0.01815987 C36.92640059 0.01711008 43.11088722 0.02339646 49.29540539 0.03463554 C58.23722497 0.05087489 67.17902413 0.05609694 76.12085686 0.05861153 C90.62762723 0.06299109 105.13437514 0.07630728 119.64113331 0.09521675 C133.73488216 0.11356879 147.82862492 0.1277286 161.92238331 0.13623238 C162.79081085 0.13675782 163.65923839 0.13728327 164.55398192 0.13782464 C168.91053472 0.14043467 173.26708755 0.1429621 177.62364042 0.14544845 C213.77784337 0.16618909 249.93202077 0.20142173 286.08620167 0.24609566 C286.41620167 1.56609566 286.74620167 2.88609566 287.08620167 4.24609566 C286.52879819 3.92149349 285.97139471 3.59689132 285.39710021 3.26245272 C282.76949764 2.10680595 280.9736583 1.99187434 278.11182499 1.98438263 C277.10412627 1.97691714 276.09642754 1.96945164 275.05819249 1.96175992 C273.4006163 1.96466203 273.4006163 1.96466203 271.70955372 1.96762276 C270.53415649 1.96183035 269.35875926 1.95603795 268.14774394 1.95007002 C264.88449652 1.93599157 261.62137419 1.93083855 258.35810113 1.92942142 C254.83936783 1.92572992 251.32068189 1.9105757 247.8019762 1.89680672 C241.7053397 1.87452219 235.60872001 1.85951609 229.51205158 1.84943962 C220.6972758 1.83486021 211.88255861 1.80932547 203.06781718 1.78110833 C188.76683194 1.73562692 174.46583827 1.69901769 160.16481495 1.66797066 C146.27189624 1.63779064 132.37899817 1.6034429 118.48610401 1.56347847 C117.62988717 1.56101692 116.77367034 1.55855537 115.89150754 1.55601923 C111.59616142 1.54364474 107.30081556 1.53118818 103.0054698 1.51869082 C67.36574206 1.41510282 31.72599029 1.32590623 -3.91379833 1.24609566 C-3.91379833 1.90609566 -3.91379833 2.56609566 -3.91379833 3.24609566 C-5.54006237 4.62842009 -7.20629854 5.96547081 -8.91379833 7.24609566 C-8.60129833 4.87109566 -8.60129833 4.87109566 -7.91379833 2.24609566 C-4.65479443 0.07342639 -3.7656397 -0.00323926 0 0 Z " fill="#923541" transform="translate(109.91379833221436,314.75390434265137)"/>
<path d="M0 0 C-1.75 1.5625 -1.75 1.5625 -4 3 C-5.32 2.67 -6.64 2.34 -8 2 C-8.33 30.38 -8.66 58.76 -9 88 C-9.99 88.495 -9.99 88.495 -11 89 C-11.04632061 78.11686126 -11.08186784 67.23374593 -11.10362434 56.35052872 C-11.11406585 51.29712698 -11.12823181 46.24379264 -11.15087891 41.19042969 C-11.17259411 36.31454556 -11.18456586 31.4387263 -11.18975449 26.56279755 C-11.19345261 24.70164722 -11.20067403 22.84050049 -11.21146011 20.97937775 C-11.22595741 18.37451986 -11.22797868 15.76993074 -11.22705078 13.16503906 C-11.23424133 12.39395813 -11.24143188 11.6228772 -11.24884033 10.82843018 C-11.22225137 3.93984314 -11.22225137 3.93984314 -9 1 C-5.8035914 -0.06546953 -3.34252724 -0.07427838 0 0 Z " fill="#853343" transform="translate(410,207)"/>
<path d="M0 0 C0.33 0 0.66 0 1 0 C1.00238835 0.71691356 1.00477671 1.43382711 1.00723743 2.17246532 C1.06637098 19.61579002 1.14191044 37.05896634 1.23571491 54.50213909 C1.28068235 62.93752989 1.32009481 71.37287838 1.34643555 79.80834961 C1.36940798 87.16062763 1.40279748 94.51277187 1.44870156 101.8649438 C1.47264407 105.75795625 1.49136606 109.65083612 1.49761391 113.54392052 C1.50366019 117.20885513 1.5236431 120.87345047 1.55427551 124.53825951 C1.56725062 126.52323842 1.56548455 128.50829656 1.5632782 130.49331665 C1.57581635 131.67817154 1.58835449 132.86302643 1.60127258 134.08378601 C1.60588155 135.11158519 1.61049051 136.13938437 1.61523914 137.19832897 C2.05874459 140.42775403 3.23237491 142.29749295 5 145 C5 145.66 5 146.32 5 147 C4.34 147 3.68 147 3 147 C0.20996835 143.29930473 -0.37290875 140.58659951 -0.36076355 136.00785828 C-0.36488754 134.80617508 -0.36901154 133.60449188 -0.3732605 132.36639404 C-0.35708176 130.40165131 -0.35708176 130.40165131 -0.34057617 128.3972168 C-0.33972953 126.99748249 -0.34020577 125.59774684 -0.34190369 124.19801331 C-0.34276361 120.40492478 -0.32513848 116.61212149 -0.30418181 112.81909919 C-0.28541448 108.85262486 -0.28366453 104.88614383 -0.28010559 100.91963196 C-0.27078528 93.41155042 -0.24617172 85.90360009 -0.21605712 78.3955763 C-0.18251265 69.84666934 -0.16602699 61.29775608 -0.15097082 52.74879968 C-0.11962213 35.16579059 -0.06686194 17.58290917 0 0 Z " fill="#461338" transform="translate(101,152)"/>
<path d="M0 0 C2 1 2 1 3.125 3.375 C4.30174636 8.25009205 4.36598622 13.00386255 4 18 C2.30798878 19.69201122 0.17414536 19.13617181 -2.14306641 19.14526367 C-3.79080551 19.15483345 -3.79080551 19.15483345 -5.47183228 19.16459656 C-6.66964325 19.16570938 -7.86745422 19.1668222 -9.1015625 19.16796875 C-10.32652435 19.17129715 -11.55148621 19.17462555 -12.81356812 19.17805481 C-15.41460798 19.18313121 -18.0156544 19.18546292 -20.61669922 19.18530273 C-24.58699154 19.18518178 -28.5570971 19.20559999 -32.52734375 19.22460938 C-35.05208238 19.22754519 -37.57682234 19.22952873 -40.1015625 19.23046875 C-41.88006088 19.24124702 -41.88006088 19.24124702 -43.69448853 19.25224304 C-49.52021115 19.23620268 -54.50936097 19.00885533 -60 17 C-60 16.34 -60 15.68 -60 15 C-58.69511124 15.24114784 -58.69511124 15.24114784 -57.36386108 15.48716736 C-54.25028198 15.96184362 -51.32327953 16.15551367 -48.17822266 16.20532227 C-46.49715927 16.2352401 -46.49715927 16.2352401 -44.78213501 16.26576233 C-43.58817108 16.28247482 -42.39420715 16.29918732 -41.1640625 16.31640625 C-39.92957367 16.33718735 -38.69508484 16.35796844 -37.42318726 16.37937927 C-33.49051329 16.44461836 -29.55777411 16.50364052 -25.625 16.5625 C-22.95441143 16.60520612 -20.28384851 16.64932464 -17.61328125 16.69335938 C-11.07558719 16.8002735 -4.53782772 16.90161306 2 17 C1.34 11.39 0.68 5.78 0 0 Z " fill="#573434" transform="translate(197,204)"/>
<path d="M0 0 C0.79470703 0.00563965 1.58941406 0.0112793 2.40820312 0.01708984 C13.30968581 0.23997441 22.56346568 2.66228542 31.375 9.3125 C34 12.1875 34 12.1875 35.375 14.3125 C32.9 13.8175 32.9 13.8175 30.375 13.3125 C29.88 11.8275 29.88 11.8275 29.375 10.3125 C24.42573216 6.63772173 19.48746492 4.70265734 13.375 4.3125 C13.375 3.6525 13.375 2.9925 13.375 2.3125 C9.72831493 2.39436159 6.08318413 2.50711028 2.4375 2.625 C1.41591797 2.64755859 0.39433594 2.67011719 -0.65820312 2.69335938 C-7.13630364 2.92102425 -12.61521236 3.85330288 -18.625 6.3125 C-13.44423625 0.33469567 -7.4548735 -0.05523297 0 0 Z " fill="#DD9B4D" transform="translate(155.625,182.6875)"/>
<path d="M0 0 C0.66 0.33 1.32 0.66 2 1 C1.34 1.66 0.68 2.32 0 3 C-0.99 3 -1.98 3 -3 3 C-4.10190125 7.50563891 -4.21801233 11.96907895 -4.31640625 16.58203125 C-4.33718735 17.39621017 -4.35796844 18.2103891 -4.37937927 19.04924011 C-4.44449463 21.63691179 -4.50358208 24.22468053 -4.5625 26.8125 C-4.60572142 28.57227545 -4.64933685 30.33204128 -4.69335938 32.09179688 C-4.8001368 36.39443309 -4.90151018 40.69716643 -5 45 C-5.66 44.67 -6.32 44.34 -7 44 C-7.09920549 38.84055127 -7.17162646 33.68166311 -7.21972656 28.52148438 C-7.2397871 26.76780521 -7.26704251 25.01419247 -7.30175781 23.26074219 C-7.35052302 20.73355682 -7.37302392 18.20725909 -7.390625 15.6796875 C-7.41127014 14.90132538 -7.43191528 14.12296326 -7.45318604 13.3210144 C-7.45531223 8.11106456 -6.51437403 5.09428542 -3 1 C-2.01 0.67 -1.02 0.34 0 0 Z " fill="#3677B7" transform="translate(123,238)"/>
<path d="M0 0 C7.66099069 0.80350354 12.96197197 1.98231322 18 8 C23.33055407 15.80689413 23.63394977 22.88702802 23.3125 32.125 C23.28994141 33.36765625 23.26738281 34.6103125 23.24414062 35.890625 C23.18573703 38.92761215 23.09607686 41.96397115 23 45 C18.38 45 13.76 45 9 45 C9 44.67 9 44.34 9 44 C13.29 44 17.58 44 22 44 C21.91237771 40.35309994 21.80539818 36.70844567 21.6875 33.0625 C21.66494141 32.04091797 21.64238281 31.01933594 21.61914062 29.96679688 C21.39040407 23.45820219 20.40080867 18.04579688 18 12 C17.67 11.01 17.34 10.02 17 9 C16.01 9 15.02 9 14 9 C13.67 8.01 13.34 7.02 13 6 C11.03696127 5.04643935 11.03696127 5.04643935 8.6875 4.4375 C5.60133064 3.53460417 2.84114634 2.51484461 0 1 C0 0.67 0 0.34 0 0 Z " fill="#298ACE" transform="translate(360,238)"/>
<path d="M0 0 C0.33 0 0.66 0 1 0 C1.98108975 4.17957323 2.24295967 8.29189602 2.38671875 12.56640625 C2.41224319 13.2823143 2.43776764 13.99822235 2.46406555 14.73582458 C2.51585787 16.24266976 2.56530913 17.74959703 2.61254883 19.2565918 C2.68738451 21.55894688 2.77803283 23.86034816 2.86914062 26.16210938 C2.91764075 27.63017648 2.96519889 29.09827506 3.01171875 30.56640625 C3.04077805 31.25191055 3.06983734 31.93741486 3.09977722 32.64369202 C3.19597082 36.30113556 3.02078208 38.89501625 1 42 C-1.53008438 37.10850353 -1.9762965 34.44188079 -1 29 C-0.85825987 26.69204589 -0.75517941 24.38150654 -0.68359375 22.0703125 C-0.64169922 20.78125 -0.59980469 19.4921875 -0.55664062 18.1640625 C-0.51683972 16.81771091 -0.47712727 15.47135671 -0.4375 14.125 C-0.39424817 12.75519667 -0.35063188 11.38540479 -0.30664062 10.015625 C-0.20084478 6.67717843 -0.09875628 3.338661 0 0 Z " fill="#A19CB7" transform="translate(116,147)"/>
<path d="M0 0 C0.66 0 1.32 0 2 0 C1.34 1.65 0.68 3.3 0 5 C0.99 5 1.98 5 3 5 C3 5.66 3 6.32 3 7 C2.23300781 6.7834375 1.46601563 6.566875 0.67578125 6.34375 C-10.26161947 3.59987247 -20.78921228 3.68707363 -32 4 C-30.13807717 2.00732416 -28.61007042 1.07153231 -25.88867188 0.75244141 C-23.33688446 0.70486397 -20.80115255 0.73901776 -18.25 0.8125 C-17.36183594 0.82603516 -16.47367188 0.83957031 -15.55859375 0.85351562 C-13.37177422 0.88878691 -11.18620034 0.93807248 -9 1 C-9 1.33 -9 1.66 -9 2 C-6.03 2 -3.06 2 0 2 C0 1.34 0 0.68 0 0 Z " fill="#361C31" transform="translate(176,180)"/>
<path d="M0 0 C0.33 0 0.66 0 1 0 C1.33 10.56 1.66 21.12 2 32 C1.34 32 0.68 32 0 32 C0 32.66 0 33.32 0 34 C-6.93 33.505 -6.93 33.505 -14 33 C-14 32.34 -14 31.68 -14 31 C-9.38 31 -4.76 31 0 31 C0 20.77 0 10.54 0 0 Z " fill="#45173F" transform="translate(101,322)"/>
<path d="M0 0 C0.99 0.33 1.98 0.66 3 1 C2.84152588 1.52110352 2.68305176 2.04220703 2.51977539 2.57910156 C1.86021098 5.65107932 1.78002727 8.59339747 1.68359375 11.734375 C1.64169922 13.02988281 1.59980469 14.32539063 1.55664062 15.66015625 C1.51683329 17.02343476 1.47712094 18.38671606 1.4375 19.75 C1.39427726 21.12891875 1.35066179 22.50782526 1.30664062 23.88671875 C1.20056101 27.25769306 1.09977635 30.62883323 1 34 C-3.29 34 -7.58 34 -12 34 C-12 33.67 -12 33.34 -12 33 C-8.04 33 -4.08 33 0 33 C-0.03552979 32.03586182 -0.07105957 31.07172363 -0.10766602 30.07836914 C-0.23768547 26.51343688 -0.36096787 22.94829841 -0.48217773 19.38305664 C-0.5356662 17.8377441 -0.59100068 16.29249433 -0.64819336 14.74731445 C-0.72991433 12.53089949 -0.8050717 10.31434616 -0.87890625 8.09765625 C-0.90594131 7.4028566 -0.93297638 6.70805695 -0.96083069 5.99220276 C-1.01301108 4.32890224 -1.01185107 2.66407661 -1 1 C-0.67 0.67 -0.34 0.34 0 0 Z " fill="#962E34" transform="translate(99,318)"/>
<path d="M0 0 C2 2 2 2 2.22705078 4.61376953 C2.21134033 6.2319458 2.21134033 6.2319458 2.1953125 7.8828125 C2.18564453 9.63271484 2.18564453 9.63271484 2.17578125 11.41796875 C2.15902344 12.64128906 2.14226562 13.86460937 2.125 15.125 C2.11597656 16.35605469 2.10695313 17.58710938 2.09765625 18.85546875 C2.07402548 21.90383815 2.04108054 24.95182382 2 28 C1.67 28 1.34 28 1 28 C0.97494385 27.32420898 0.9498877 26.64841797 0.92407227 25.95214844 C0.80789258 22.8845832 0.68526563 19.81730842 0.5625 16.75 C0.52318359 15.68652344 0.48386719 14.62304688 0.44335938 13.52734375 C0.40146484 12.50253906 0.35957031 11.47773438 0.31640625 10.421875 C0.27974854 9.47924805 0.24309082 8.53662109 0.20532227 7.56542969 C0.02060772 5.25748623 -0.35861612 3.21859476 -1 1 C-3.3431213 1.25561323 -5.67843403 1.59270772 -8 2 C-8.33 2.66 -8.66 3.32 -9 4 C-9.66 4 -10.32 4 -11 4 C-8.39347803 -1.77158435 -6.01224405 -1.18097651 0 0 Z " fill="#8A323E" transform="translate(98,148)"/>
<path d="M0 0 C6.16618181 -0.40214229 11.17745757 1.03181664 17 3 C16.01 3.66 15.02 4.32 14 5 C14 4.34 14 3.68 14 3 C13.34 3 12.68 3 12 3 C11.67 4.32 11.34 5.64 11 7 C9.35 6.67 7.7 6.34 6 6 C5.67 5.01 5.34 4.02 5 3 C5.33 2.34 5.66 1.68 6 1 C4.02 1.33 2.04 1.66 0 2 C0 1.34 0 0.68 0 0 Z " fill="#584F7A" transform="translate(164,167)"/>
<path d="M0 0 C-0.99 0.495 -0.99 0.495 -2 1 C-1.67 2.65 -1.34 4.3 -1 6 C-3.31 6 -5.62 6 -8 6 C-8.33 4.35 -8.66 2.7 -9 1 C-5.8035914 -0.06546953 -3.34252724 -0.07427838 0 0 Z " fill="#3F3566" transform="translate(145,168)"/>
<path d="M0 0 C0.33 0 0.66 0 1 0 C1 9.24 1 18.48 1 28 C0.01 27.01 -0.98 26.02 -2 25 C-1.70727539 23.12402344 -1.70727539 23.12402344 -1 21 C-0.85701869 19.3413488 -0.75458775 17.6789131 -0.68359375 16.015625 C-0.64169922 15.08105469 -0.59980469 14.14648438 -0.55664062 13.18359375 C-0.51732422 12.21550781 -0.47800781 11.24742187 -0.4375 10.25 C-0.39431641 9.26644531 -0.35113281 8.28289062 -0.30664062 7.26953125 C-0.20077948 4.84648725 -0.09869829 2.4233446 0 0 Z " fill="#211845" transform="translate(116,332)"/>
<path d="M0 0 C2.1875 0.125 2.1875 0.125 5 1 C6.7143618 2.95927063 8.38405168 4.95880212 10 7 C10.99 7.33 11.98 7.66 13 8 C13.33 10.31 13.66 12.62 14 15 C13.484375 14.319375 12.96875 13.63875 12.4375 12.9375 C9.49780706 9.39479312 6.2860782 6.2174594 3 3 C1.9988604 2.0011409 0.9984814 1.0015163 0 0 Z " fill="#3F2230" transform="translate(183,189)"/>
<path d="M0 0 C0.66 0.33 1.32 0.66 2 1 C1.67 1.99 1.34 2.98 1 4 C0.34 4 -0.32 4 -1 4 C-1.061875 4.78375 -1.12375 5.5675 -1.1875 6.375 C-1.455625 7.24125 -1.72375 8.1075 -2 9 C-4.5625 10.3125 -4.5625 10.3125 -7 11 C-5.5140084 6.40693504 -3.14985318 3.56430755 0 0 Z " fill="#5B547B" transform="translate(78,135)"/>
<path d="M0 0 C0.66 0.33 1.32 0.66 2 1 C1.2884375 1.804375 1.2884375 1.804375 0.5625 2.625 C-1.28186076 5.42842836 -1.62456847 7.69620258 -2 11 C-2.99 11.33 -3.98 11.66 -5 12 C-5.66 12.66 -6.32 13.32 -7 14 C-6.69723124 7.94462479 -3.72245962 4.48516542 0 0 Z " fill="#686284" transform="translate(391,195)"/>
<path d="M0 0 C0.66 0 1.32 0 2 0 C3.39300182 1.95890881 4.72245446 3.9639118 6 6 C6.99 7.485 6.99 7.485 8 9 C5.625 9.625 5.625 9.625 3 10 C1 8 1 8 0.9375 5.5625 C0.958125 4.716875 0.97875 3.87125 1 3 C0.67 2.01 0.34 1.02 0 0 Z " fill="#382143" transform="translate(129,210)"/>
<path d="M0 0 C0.99 0.33 1.98 0.66 3 1 C3.75 3.125 3.75 3.125 4 6 C2.1875 9.125 2.1875 9.125 0 12 C-0.66 12.99 -1.32 13.98 -2 15 C-1.55121237 11.73026158 -1.09903405 8.48416647 -0.4375 5.25 C0.09543483 2.89121566 0.09543483 2.89121566 0 0 Z " fill="#352040" transform="translate(131,185)"/>
<path d="M0 0 C0.66 0 1.32 0 2 0 C2.33 1.65 2.66 3.3 3 5 C2.01 5 1.02 5 0 5 C0 5.66 0 6.32 0 7 C-0.99 6.67 -1.98 6.34 -3 6 C-2.42655063 3.13275314 -2.1385485 2.1385485 0 0 Z " fill="#F39C39" transform="translate(136,189)"/>
<path d="M0 0 C2.92879371 0.62759865 5.36095629 1.58622659 8 3 C7.01 3.99 6.02 4.98 5 6 C3.0625 5.25 3.0625 5.25 1 4 C0.25 1.875 0.25 1.875 0 0 Z " fill="#655C84" transform="translate(371,223)"/>
<path d="M0 0 C0.66 0.33 1.32 0.66 2 1 C1.8125 3.3125 1.8125 3.3125 1 6 C-1.5625 7.8125 -1.5625 7.8125 -4 9 C-4 8.01 -4 7.02 -4 6 C-3.01 6 -2.02 6 -1 6 C-0.67 4.02 -0.34 2.04 0 0 Z " fill="#5E567C" transform="translate(115,359)"/>
<path d="M0 0 C0.66 0 1.32 0 2 0 C1.34 1.65 0.68 3.3 0 5 C0.99 5 1.98 5 3 5 C3 5.66 3 6.32 3 7 C1.35 6.67 -0.3 6.34 -2 6 C-2 5.34 -2 4.68 -2 4 C-2.66 3.67 -3.32 3.34 -4 3 C-2.68 2.67 -1.36 2.34 0 2 C0 1.34 0 0.68 0 0 Z " fill="#361F45" transform="translate(176,180)"/>
<path d="M0 0 C3.87132028 0.57352893 6.08172796 2.48704352 9 5 C7.35 5.33 5.7 5.66 4 6 C3.71125 5.195625 3.4225 4.39125 3.125 3.5625 C2.26737432 0.8673532 2.26737432 0.8673532 0 0 Z " fill="#7D7796" transform="translate(186,173)"/>
<path d="M0 0 C-1.75 1.5625 -1.75 1.5625 -4 3 C-6.25 2.6875 -6.25 2.6875 -8 2 C-8 2.99 -8 3.98 -8 5 C-8.66 5 -9.32 5 -10 5 C-9.6875 3.0625 -9.6875 3.0625 -9 1 C-5.8035914 -0.06546953 -3.34252724 -0.07427838 0 0 Z " fill="#8A3241" transform="translate(410,207)"/>
<path d="M0 0 C0.66 0.33 1.32 0.66 2 1 C1.67 2.65 1.34 4.3 1 6 C-0.32 6.33 -1.64 6.66 -3 7 C-2.625 4.0625 -2.625 4.0625 -2 1 C-1.34 0.67 -0.68 0.34 0 0 Z " fill="#271C54" transform="translate(398,192)"/>
<path d="M0 0 C0.33 0 0.66 0 1 0 C1.66 3.96 2.32 7.92 3 12 C2.01 12.495 2.01 12.495 1 13 C-0.6290678 8.20862412 -1.20577428 4.94367454 0 0 Z " fill="#372E5C" transform="translate(115,176)"/>
<path d="M0 0 C0.99 0 1.98 0 3 0 C5.1875 2.5 5.1875 2.5 7 5 C4.03 4.505 4.03 4.505 1 4 C0.67 2.68 0.34 1.36 0 0 Z " fill="#5D567C" transform="translate(387,364)"/>
<path d="M0 0 C2.64 0.33 5.28 0.66 8 1 C8.33 2.65 8.66 4.3 9 6 C6.03 4.35 3.06 2.7 0 1 C0 0.67 0 0.34 0 0 Z " fill="#172969" transform="translate(368,239)"/>
<path d="M0 0 C1.32 1.65 2.64 3.3 4 5 C3.67 5.66 3.34 6.32 3 7 C2.01 6.67 1.02 6.34 0 6 C-0.75 4.0625 -0.75 4.0625 -1 2 C-0.67 1.34 -0.34 0.68 0 0 Z " fill="#666081" transform="translate(425,198)"/>
</svg>
