<?xml version="1.0" encoding="UTF-8"?>
<svg version="1.1" xmlns="http://www.w3.org/2000/svg" width="500" height="500">
<path d="M0 0 C1.13695312 0.02835937 2.27390625 0.05671875 3.4453125 0.0859375 C29.08677215 1.22918729 54.39087052 10.229034 74 27 C74.91265625 27.72058594 75.8253125 28.44117187 76.765625 29.18359375 C82.10713567 33.41824058 86.88372574 37.54871787 91 43 C91 43.66 91 44.32 91 45 C91.66 45 92.32 45 93 45 C93 45.66 93 46.32 93 47 C93.66 47 94.32 47 95 47 C96.81654085 49.44346151 98.4872396 51.87673395 100.125 54.4375 C100.61564941 55.20376709 101.10629883 55.97003418 101.61181641 56.75952148 C113.22384207 75.2831066 120.85786411 95.77922109 121.6875 117.75 C121.72512451 118.71518555 121.76274902 119.68037109 121.80151367 120.67480469 C122.69958271 147.72093434 114.9227844 171.37579643 101.7265625 194.80859375 C99.91924561 198.14926772 98.44617832 201.49102131 97 205 C96.34 205 95.68 205 95 205 C94.82984375 205.84111328 94.82984375 205.84111328 94.65625 206.69921875 C88.94610531 226.71871414 71.48672011 247.73071032 60.171875 265.0390625 C58.85003196 267.09121663 58.85003196 267.09121663 58 270 C57.34 270 56.68 270 56 270 C55.87818359 270.77537109 55.87818359 270.77537109 55.75390625 271.56640625 C54.68842745 275.00574973 52.81617876 277.89462968 50.9375 280.9375 C50.52902832 281.60789307 50.12055664 282.27828613 49.69970703 282.96899414 C48.47126657 284.98231129 47.23599569 286.99131525 46 289 C45.39027344 290.0003125 44.78054688 291.000625 44.15234375 292.03125 C40.93087231 297.29888681 37.66495175 302.53664967 34.375 307.76171875 C33.71838379 308.80658447 33.06176758 309.8514502 32.38525391 310.92797852 C31.07791915 313.00710757 29.76784379 315.08451676 28.45458984 317.15991211 C24.3781517 323.64525144 20.58499667 330.23055566 17 337 C16.34 337 15.68 337 15 337 C14.87778076 337.57886963 14.75556152 338.15773926 14.62963867 338.75415039 C13.53667982 342.65261046 11.34611692 345.96105414 9.3125 349.4375 C8.89033203 350.18837891 8.46816406 350.93925781 8.03320312 351.71289062 C5.24211809 356.49941202 2.58034897 359.83708335 -2 363 C-7.09451698 363.71501993 -9.91271976 363.03733669 -14 360 C-15.59279014 357.71804932 -16.96664374 355.54145831 -18.3125 353.125 C-19.10083603 351.76129853 -19.8899114 350.39802422 -20.6796875 349.03515625 C-21.06995117 348.35340332 -21.46021484 347.67165039 -21.86230469 346.96923828 C-23.50055769 344.13358405 -25.21539338 341.34785059 -26.9375 338.5625 C-27.59234375 337.50160156 -28.2471875 336.44070313 -28.921875 335.34765625 C-31.58121949 331.06371222 -34.25421703 326.78841133 -36.93066406 322.51513672 C-40.53740801 316.75227631 -44.11380593 310.97089838 -47.6875 305.1875 C-51.62572783 298.81507393 -55.57970673 292.45641441 -59.6328125 286.15625 C-60.30957031 285.08890625 -60.30957031 285.08890625 -61 284 C-61.55429688 283.1440625 -62.10859375 282.288125 -62.6796875 281.40625 C-64 279 -64 279 -64 276 C-64.66 276 -65.32 276 -66 276 C-66.29132813 275.46632813 -66.58265625 274.93265625 -66.8828125 274.3828125 C-70.11838265 268.50180764 -73.50913112 262.73263539 -77 257 C-77.58523437 256.03449219 -78.17046875 255.06898438 -78.7734375 254.07421875 C-82.6447401 247.73002285 -86.62730757 241.47435802 -90.6875 235.25 C-93.93186678 230.2710647 -97.0852873 225.30259973 -99.8828125 220.0546875 C-101.69520878 216.72139924 -103.69177782 213.49975192 -105.66796875 210.26171875 C-109 204.60410557 -109 204.60410557 -109 201 C-109.66 201 -110.32 201 -111 201 C-111.51949219 199.88882813 -112.03898437 198.77765625 -112.57421875 197.6328125 C-113.27844472 196.13011407 -113.98288657 194.62751679 -114.6875 193.125 C-115.05472168 192.34068604 -115.42194336 191.55637207 -115.80029297 190.74829102 C-117.67018764 186.7695204 -119.58126259 182.83065224 -121.625 178.9375 C-123.69030657 174.82084163 -125.4538242 170.60178249 -127.125 166.3125 C-127.60195312 165.09175781 -128.07890625 163.87101563 -128.5703125 162.61328125 C-132.66527597 150.33408621 -133.57875539 138.20771495 -133.5 125.375 C-133.49790527 124.58796692 -133.49581055 123.80093384 -133.49365234 122.99005127 C-133.36744982 99.92478756 -127.75160247 79.349206 -115.12890625 59.84765625 C-113.83932833 57.89261194 -113.83932833 57.89261194 -113 55 C-112.34 55 -111.68 55 -111 55 C-110.71125 54.236875 -110.4225 53.47375 -110.125 52.6875 C-109 50 -109 50 -107 47 C-106.34 47 -105.68 47 -105 47 C-105 46.34 -105 45.68 -105 45 C-104.34 45 -103.68 45 -103 45 C-102.74734375 44.42378906 -102.4946875 43.84757812 -102.234375 43.25390625 C-94.49512088 29.12242009 -75.80438615 19.1591425 -62 12 C-61.35305176 11.65388672 -60.70610352 11.30777344 -60.03955078 10.95117188 C-55.35699795 8.50490806 -50.70749446 6.79461331 -45.625 5.375 C-44.87750488 5.16262695 -44.13000977 4.95025391 -43.35986328 4.73144531 C-29.06149884 0.72951645 -14.84906653 -0.41562273 0 0 Z " fill="#194893" transform="translate(256,66)"/>
<path d="M0 0 C1.26457031 -0.01224609 2.52914062 -0.02449219 3.83203125 -0.03710938 C14.37193766 -0.05339141 24.57774201 0.11259632 33.8125 5.625 C38.74094185 8.49736086 38.74094185 8.49736086 43.9375 10.8125 C46.5577647 11.98894537 48.0177916 12.91879875 50.125 14.75 C52.82978589 17.04318804 54.77492807 17.91444529 58 19.1875 C60.49308264 21.36894731 62.53093906 23.82171517 64.625 26.375 C66.69169295 29.19786127 66.69169295 29.19786127 69 30.1875 C69.94113988 31.83449479 70.8772236 33.48468899 71.78125 35.15234375 C73.52102372 38.05754281 75.65581428 40.60359526 77.828125 43.1953125 C79.28327612 45.6690694 79.21485255 47.36511878 79 50.1875 C79.66 50.1875 80.32 50.1875 81 50.1875 C81.433125 51.8271875 81.433125 51.8271875 81.875 53.5 C82.81893204 57.22763845 82.81893204 57.22763845 85 60.1875 C85.68732888 64.82372783 85.80507303 69.50811286 86 74.1875 C86.06574219 75.45722656 86.13148438 76.72695312 86.19921875 78.03515625 C86.57613763 91.01936168 84.29251381 103.30874679 79 115.1875 C78.30859478 117.96638613 78.30859478 117.96638613 78 120.1875 C77.34 120.1875 76.68 120.1875 76 120.1875 C75.34 122.1675 74.68 124.1475 74 126.1875 C73.34 126.1875 72.68 126.1875 72 126.1875 C72 127.5075 72 128.8275 72 130.1875 C70.1875 132.1875 70.1875 132.1875 68 134.1875 C67.484375 134.909375 66.96875 135.63125 66.4375 136.375 C65 138.1875 65 138.1875 62 139.1875 C60.66471476 140.75231485 60.66471476 140.75231485 59.5 142.625 C57.74022333 145.32670842 56.8009287 146.3202142 54 148.1875 C53.01 148.1875 52.02 148.1875 51 148.1875 C51 149.1775 51 150.1675 51 151.1875 C49.02 151.5175 47.04 151.8475 45 152.1875 C45 153.1775 45 154.1675 45 155.1875 C43.02 155.8475 41.04 156.5075 39 157.1875 C39 157.8475 39 158.5075 39 159.1875 C38.21625 159.435 37.4325 159.6825 36.625 159.9375 C32.95766562 161.20209806 29.41920753 162.65933061 25.85546875 164.1875 C18.08739237 166.90792073 10.75967759 167.50242814 2.5625 167.4375 C1.58990234 167.44523438 0.61730469 167.45296875 -0.38476562 167.4609375 C-6.82100391 167.4437398 -12.74757215 166.69163176 -19 165.1875 C-20.0209375 164.95289063 -21.041875 164.71828125 -22.09375 164.4765625 C-22.8878125 164.25742187 -23.681875 164.03828125 -24.5 163.8125 C-25.72203125 163.49152344 -25.72203125 163.49152344 -26.96875 163.1640625 C-29.50372525 161.9453244 -30.02277675 160.76864402 -31 158.1875 C-32.03125 158.249375 -33.0625 158.31125 -34.125 158.375 C-38.23468973 158.17614405 -40.48882496 157.24282197 -44 155.1875 C-44 154.1975 -44 153.2075 -44 152.1875 C-44.680625 151.98125 -45.36125 151.775 -46.0625 151.5625 C-49.28632986 150.05347326 -51.4695393 148.25811126 -54.09765625 145.89453125 C-55.41180926 144.71530154 -56.75543957 143.56840127 -58.12109375 142.44921875 C-62.33866907 138.95907844 -64.61971424 136.18610009 -67 131.1875 C-69.07690578 130.22705898 -69.07690578 130.22705898 -71 130.1875 C-71 129.1975 -71 128.2075 -71 127.1875 C-71.66 127.1875 -72.32 127.1875 -73 127.1875 C-73.268125 126.1975 -73.53625 125.2075 -73.8125 124.1875 C-75.34086689 118.83821589 -77.37427873 113.69965973 -79.5 108.5625 C-87.00626523 88.14863583 -85.23729972 66.46079172 -76.3515625 46.80859375 C-73.73243792 41.7293088 -71.08147891 36.84200888 -66.5625 33.25 C-63.86367035 31.07777125 -62.51097398 29.0731662 -60.625 26.1875 C-57.50562652 21.54930493 -54.98641235 19.58481363 -50 17.1875 C-48.9826127 16.20519502 -47.97403883 15.21280403 -47 14.1875 C-46.34 14.1875 -45.68 14.1875 -45 14.1875 C-45 13.5275 -45 12.8675 -45 12.1875 C-36.2290751 7.4345407 -27.53701039 4.06465097 -18 1.1875 C-17.10474609 0.91486328 -17.10474609 0.91486328 -16.19140625 0.63671875 C-10.92621559 -0.44259841 -5.35222261 0.0026628 0 0 Z " fill="#2E2862" transform="translate(249,109.8125)"/>
<path d="M0 0 C1.13695312 0.02835937 2.27390625 0.05671875 3.4453125 0.0859375 C29.08677215 1.22918729 54.39087052 10.229034 74 27 C74.91265625 27.72058594 75.8253125 28.44117187 76.765625 29.18359375 C82.10713567 33.41824058 86.88372574 37.54871787 91 43 C91 43.66 91 44.32 91 45 C91.66 45 92.32 45 93 45 C93 45.66 93 46.32 93 47 C93.66 47 94.32 47 95 47 C96.81654085 49.44346151 98.4872396 51.87673395 100.125 54.4375 C100.61564941 55.20376709 101.10629883 55.97003418 101.61181641 56.75952148 C113.22384207 75.2831066 120.85786411 95.77922109 121.6875 117.75 C121.72512451 118.71518555 121.76274902 119.68037109 121.80151367 120.67480469 C122.69958271 147.72093434 114.9227844 171.37579643 101.7265625 194.80859375 C99.91924561 198.14926772 98.44617832 201.49102131 97 205 C96.34 205 95.68 205 95 205 C94.82984375 205.84111328 94.82984375 205.84111328 94.65625 206.69921875 C88.94610531 226.71871414 71.48672011 247.73071032 60.171875 265.0390625 C58.85003196 267.09121663 58.85003196 267.09121663 58 270 C57.34 270 56.68 270 56 270 C55.87818359 270.77537109 55.87818359 270.77537109 55.75390625 271.56640625 C54.68842745 275.00574973 52.81617876 277.89462968 50.9375 280.9375 C50.52902832 281.60789307 50.12055664 282.27828613 49.69970703 282.96899414 C48.47126657 284.98231129 47.23599569 286.99131525 46 289 C45.39027344 290.0003125 44.78054688 291.000625 44.15234375 292.03125 C40.93087231 297.29888681 37.66495175 302.53664967 34.375 307.76171875 C33.71838379 308.80658447 33.06176758 309.8514502 32.38525391 310.92797852 C31.07791915 313.00710757 29.76784379 315.08451676 28.45458984 317.15991211 C24.3781517 323.64525144 20.58499667 330.23055566 17 337 C16.34 337 15.68 337 15 337 C14.87778076 337.57886963 14.75556152 338.15773926 14.62963867 338.75415039 C13.53667982 342.65261046 11.34611692 345.96105414 9.3125 349.4375 C8.89033203 350.18837891 8.46816406 350.93925781 8.03320312 351.71289062 C5.24211809 356.49941202 2.58034897 359.83708335 -2 363 C-7.09451698 363.71501993 -9.91271976 363.03733669 -14 360 C-15.59279014 357.71804932 -16.96664374 355.54145831 -18.3125 353.125 C-19.10083603 351.76129853 -19.8899114 350.39802422 -20.6796875 349.03515625 C-21.06995117 348.35340332 -21.46021484 347.67165039 -21.86230469 346.96923828 C-23.50055769 344.13358405 -25.21539338 341.34785059 -26.9375 338.5625 C-27.59234375 337.50160156 -28.2471875 336.44070313 -28.921875 335.34765625 C-31.58121949 331.06371222 -34.25421703 326.78841133 -36.93066406 322.51513672 C-40.53740801 316.75227631 -44.11380593 310.97089838 -47.6875 305.1875 C-51.62572783 298.81507393 -55.57970673 292.45641441 -59.6328125 286.15625 C-60.30957031 285.08890625 -60.30957031 285.08890625 -61 284 C-61.55429688 283.1440625 -62.10859375 282.288125 -62.6796875 281.40625 C-64 279 -64 279 -64 276 C-64.66 276 -65.32 276 -66 276 C-66.29132813 275.46632813 -66.58265625 274.93265625 -66.8828125 274.3828125 C-70.11838265 268.50180764 -73.50913112 262.73263539 -77 257 C-77.58523437 256.03449219 -78.17046875 255.06898438 -78.7734375 254.07421875 C-82.6447401 247.73002285 -86.62730757 241.47435802 -90.6875 235.25 C-93.93186678 230.2710647 -97.0852873 225.30259973 -99.8828125 220.0546875 C-101.69520878 216.72139924 -103.69177782 213.49975192 -105.66796875 210.26171875 C-109 204.60410557 -109 204.60410557 -109 201 C-109.66 201 -110.32 201 -111 201 C-111.51949219 199.88882813 -112.03898437 198.77765625 -112.57421875 197.6328125 C-113.27844472 196.13011407 -113.98288657 194.62751679 -114.6875 193.125 C-115.05472168 192.34068604 -115.42194336 191.55637207 -115.80029297 190.74829102 C-117.67018764 186.7695204 -119.58126259 182.83065224 -121.625 178.9375 C-123.69030657 174.82084163 -125.4538242 170.60178249 -127.125 166.3125 C-127.60195312 165.09175781 -128.07890625 163.87101563 -128.5703125 162.61328125 C-132.66527597 150.33408621 -133.57875539 138.20771495 -133.5 125.375 C-133.49790527 124.58796692 -133.49581055 123.80093384 -133.49365234 122.99005127 C-133.36744982 99.92478756 -127.75160247 79.349206 -115.12890625 59.84765625 C-113.83932833 57.89261194 -113.83932833 57.89261194 -113 55 C-112.34 55 -111.68 55 -111 55 C-110.71125 54.236875 -110.4225 53.47375 -110.125 52.6875 C-109 50 -109 50 -107 47 C-106.34 47 -105.68 47 -105 47 C-105 46.34 -105 45.68 -105 45 C-104.34 45 -103.68 45 -103 45 C-102.74734375 44.42378906 -102.4946875 43.84757812 -102.234375 43.25390625 C-94.49512088 29.12242009 -75.80438615 19.1591425 -62 12 C-61.35305176 11.65388672 -60.70610352 11.30777344 -60.03955078 10.95117188 C-55.35699795 8.50490806 -50.70749446 6.79461331 -45.625 5.375 C-44.87750488 5.16262695 -44.13000977 4.95025391 -43.35986328 4.73144531 C-29.06149884 0.72951645 -14.84906653 -0.41562273 0 0 Z M-50 28 C-50 28.66 -50 29.32 -50 30 C-50.67546875 30.10957031 -51.3509375 30.21914062 -52.046875 30.33203125 C-52.93890625 30.49058594 -53.8309375 30.64914063 -54.75 30.8125 C-55.63171875 30.96332031 -56.5134375 31.11414063 -57.421875 31.26953125 C-60.22215024 32.06294257 -61.87345147 33.02747718 -64 35 C-64 35.66 -64 36.32 -64 37 C-66.33214148 38.20628008 -68.49642139 39.1654738 -71 40 C-71.2475 40.61875 -71.495 41.2375 -71.75 41.875 C-73.37208689 44.63254772 -75.17848959 44.86821228 -78.06640625 45.9609375 C-81.21442865 47.65260206 -83.14042341 50.27984889 -85.37109375 53.01953125 C-87 55 -87 55 -89.6875 57.5625 C-91.94053553 59.93732124 -93.42867052 62.30404636 -94.96484375 65.18359375 C-96.03637863 67.0638342 -97.250477 68.71816239 -98.5625 70.4375 C-100.81530301 73.49829922 -101.98273656 76.46290465 -103.1875 80.04296875 C-104.04961191 82.11949792 -105.09749853 83.56354727 -106.5 85.3125 C-109.84790086 89.76631406 -110.86702145 94.6183519 -112 100 C-112.20625 100.8971875 -112.4125 101.794375 -112.625 102.71875 C-115.7807097 119.0232501 -115.37459887 136.98584342 -111 153 C-110.34 153 -109.68 153 -109 153 C-109.020625 154.093125 -109.04125 155.18625 -109.0625 156.3125 C-109.18544452 159.94384191 -109.18544452 159.94384191 -108 163 C-107.34 163.33 -106.68 163.66 -106 164 C-104.59898691 166.80202618 -103.99430855 169.05805281 -103.6875 172.1875 C-102.63452175 178.026743 -100.01139334 183.36097287 -96.41015625 188.0859375 C-95 190 -95 190 -93.8125 193.4375 C-91.77798318 199.15101355 -88.38932873 204.05335049 -85.15869141 209.15136719 C-83.07966623 212.4683454 -81.07311636 215.82877388 -79.0625 219.1875 C-78.47831299 220.15925171 -78.47831299 220.15925171 -77.88232422 221.15063477 C-75.12727886 225.74544227 -75.12727886 225.74544227 -74 228 C-73.34 228 -72.68 228 -72 228 C-71.67 228.99 -71.34 229.98 -71 231 C-70.34 231 -69.68 231 -69 231 C-68.71125 231.94875 -68.4225 232.8975 -68.125 233.875 C-67.23174891 237.05211578 -67.23174891 237.05211578 -65 239 C-64.32414738 240.62204629 -63.64984721 242.24476116 -62.984375 243.87109375 C-61.40032901 247.2969075 -59.37785599 250.44663177 -57.40625 253.66015625 C-55.77827279 256.36892943 -54.41305523 259.17388954 -53 262 C-51.04391542 265.36000114 -49.01910591 268.67760812 -47 272 C-46.04089558 273.60370577 -45.08255907 275.20787104 -44.125 276.8125 C-43.08437724 278.54229509 -42.04260789 280.27140069 -41 282 C-40.32324219 283.12664062 -39.64648438 284.25328125 -38.94921875 285.4140625 C-38.2373612 286.58877326 -37.52512511 287.76325472 -36.8125 288.9375 C-36.15894531 290.01902344 -35.50539063 291.10054688 -34.83203125 292.21484375 C-33.3285931 294.50045441 -31.91637174 296.10578285 -30 298 C-29.525625 299.134375 -29.05125 300.26875 -28.5625 301.4375 C-27.28541095 304.96065023 -27.28541095 304.96065023 -25.0625 306.875 C-21.97599119 310.05503938 -20.63597644 313.92746289 -19 318 C-18.01 318 -17.02 318 -16 318 C-15.67 320.64 -15.34 323.28 -15 326 C-14.34 326 -13.68 326 -13 326 C-12.01 328.97 -11.02 331.94 -10 335 C-8.02 334.67 -6.04 334.34 -4 334 C-3.896875 333.21625 -3.79375 332.4325 -3.6875 331.625 C-3 329 -3 329 0 327 C1.00805555 324.82102508 1.00805555 324.82102508 1.6875 322.375 C1.93886719 321.55773437 2.19023437 320.74046875 2.44921875 319.8984375 C2.63097656 319.27195312 2.81273437 318.64546875 3 318 C4.32 318 5.64 318 7 318 C9.69941991 316.23499468 10.04791758 314.83069123 10.9375 311.6875 C12.0761503 307.73571365 13.65164263 305.35479624 16 302 C16.8495744 300.53010143 17.68191575 299.05015474 18.5 297.5625 C18.9228125 296.79421875 19.345625 296.0259375 19.78125 295.234375 C20.53563276 293.85133994 21.28637386 292.46630326 22.03125 291.078125 C23.68567334 288.06280504 25.4341599 285.39512476 27.6875 282.8125 C29.89192501 280.13144255 30.2604207 279.16962558 31 276 C32.33333333 274.66666667 33.66666667 273.33333333 35 272 C35.70211894 270.34795544 36.36971413 268.68076231 37 267 C37.99601149 265.66368458 38.99646163 264.3306722 40 263 C40.83870037 261.57762727 41.65096362 260.1393688 42.4375 258.6875 C44.58184324 254.7647643 46.77423296 250.87714259 49 247 C49.598125 245.906875 50.19625 244.81375 50.8125 243.6875 C52.48980913 240.7341204 54.39305034 238.0073058 56.375 235.25 C59.4669405 230.89886838 62.0425663 226.4214582 64.54296875 221.7109375 C66.87174838 217.37803385 69.4331128 213.19481804 72 209 C72.67675781 207.88625 73.35351562 206.7725 74.05078125 205.625 C74.76269543 204.45813474 75.47493208 203.29146616 76.1875 202.125 C76.84105469 201.05507813 77.49460937 199.98515625 78.16796875 198.8828125 C80 196 80 196 81.73828125 193.8671875 C83.37325972 191.82320744 83.37325972 191.82320744 83 188 C83.66 188 84.32 188 85 188 C85.59748047 186.60587891 85.59748047 186.60587891 86.20703125 185.18359375 C87.26953125 182.70442708 88.33203125 180.22526042 89.39453125 177.74609375 C89.65854736 177.12726318 89.92256348 176.50843262 90.19458008 175.87084961 C90.7305299 174.62593192 91.27463148 173.38449141 91.8269043 172.14672852 C93.30250593 168.81319591 94.4725174 165.63741299 95.1875 162.0625 C95.34605469 161.29035156 95.50460937 160.51820313 95.66796875 159.72265625 C95.77753906 159.15417969 95.88710938 158.58570313 96 158 C96.66 158 97.32 158 98 158 C99.38078394 152.93712557 100.30747649 148.11241829 100.75390625 142.8828125 C101 141 101 141 102 139 C103.02590625 123.72602471 103.03914888 108.55145527 98 94 C97.59007812 92.66001953 97.59007812 92.66001953 97.171875 91.29296875 C95.74803624 86.72608167 93.95040263 82.36518685 92 78 C91.34 78 90.68 78 90 78 C89.84144531 77.35933594 89.68289063 76.71867187 89.51953125 76.05859375 C87.90171883 70.06106813 86.04048935 65.74757499 82 61 C81.01 60.67 80.02 60.34 79 60 C77.48193617 58.28009622 76.03157131 56.49972072 74.625 54.6875 C71.6778179 50.89464881 68.81867253 47.90976535 65 45 C63.7934375 43.7625 63.7934375 43.7625 62.5625 42.5 C57.96226802 37.83460304 57.96226802 37.83460304 52 36 C51.67 35.01 51.34 34.02 51 33 C49.15080417 32.26669821 47.296234 31.53774942 45.3984375 30.94140625 C43 30 43 30 39.765625 28.06640625 C35.80910011 25.75569831 31.78802143 24.53337664 27.375 23.375 C26.18161011 23.05752808 26.18161011 23.05752808 24.96411133 22.73364258 C0.79448029 16.46274809 -27.41640359 16.22163099 -50 28 Z " fill="#332C65" transform="translate(256,66)"/>
<path d="M0 0 C0 0.66 0 1.32 0 2 C0.56847656 2.09796875 1.13695312 2.1959375 1.72265625 2.296875 C7.94894562 4.21922849 13.72771777 10.17645554 18 15 C18 15.66 18 16.32 18 17 C18.66 17 19.32 17 20 17 C28.02061125 30.33523958 33.17351592 41.81634097 33.25 57.5625 C33.2809375 59.11420898 33.2809375 59.11420898 33.3125 60.69726562 C33.36499661 71.17690193 30.92839822 80.04880344 26.125 89.3125 C25.79886719 89.97572266 25.47273438 90.63894531 25.13671875 91.32226562 C22.89618269 95.73795246 20.29169064 99.30114902 17 103 C13.49221789 98.79066147 10 93.5744558 10 88 C9.34 88 8.68 88 8 88 C6.84375 86.6796875 6.84375 86.6796875 5.5 84.875 C-0.07035045 78.16340702 -7.87684256 74.70771915 -16 72 C-15.62488281 71.5153125 -15.24976563 71.030625 -14.86328125 70.53125 C-7.01708263 60.25411326 -1.8004308 52.16388128 -3.39453125 38.7734375 C-5.24487582 30.29766559 -10.09893238 23.12085409 -16.8125 17.75 C-24.40298343 13.58267576 -32.48196964 13.13393232 -41 14 C-44.51222365 15.02672146 -47.70887763 16.417974 -51 18 C-51.99 18.33 -52.98 18.66 -54 19 C-54 19.66 -54 20.32 -54 21 C-54.721875 21.474375 -55.44375 21.94875 -56.1875 22.4375 C-61.50310763 27.28060917 -64.46262136 35.05787842 -65.23828125 42.19140625 C-65.5470024 52.05423464 -62.84094324 59.32847834 -56.25 66.6875 C-54.84909967 68.14036921 -53.43783387 69.58367219 -52 71 C-54.69819597 73.14754373 -57.26990947 74.7065297 -60.4375 76.0625 C-61.21867187 76.39894531 -61.99984375 76.73539062 -62.8046875 77.08203125 C-65.19329466 78.08082606 -67.58548573 79.06534932 -70 80 C-70 80.66 -70 81.32 -70 82 C-70.70125 82.515625 -71.4025 83.03125 -72.125 83.5625 C-78.24256995 88.74913539 -81.54084094 95.48590288 -84 103 C-93.54843246 94.57491254 -100.26061234 80.23822447 -101.17700195 67.54907227 C-101.72086497 43.29624853 -101.72086497 43.29624853 -97 33 C-96.51402344 31.91847656 -96.02804688 30.83695313 -95.52734375 29.72265625 C-87.15559097 12.76144553 -73.0171069 1.32868835 -55.49609375 -5.33203125 C-36.79274634 -11.04189891 -17.39033829 -8.69516915 0 0 Z " fill="#FAB345" transform="translate(284,134)"/>
<path d="M0 0 C8.94473616 4.48937328 14.78216805 11.57569603 18.0546875 21.03125 C20.06834651 31.74911248 18.45437689 39.63696108 12.65234375 48.7890625 C10.67512497 51.56393677 8.60553864 53.780499 6.0546875 56.03125 C7.0446875 56.69125 8.0346875 57.35125 9.0546875 58.03125 C9.0546875 58.69125 9.0546875 59.35125 9.0546875 60.03125 C9.951875 60.216875 9.951875 60.216875 10.8671875 60.40625 C13.0546875 61.03125 13.0546875 61.03125 16.0546875 63.03125 C13.5796875 63.52625 13.5796875 63.52625 11.0546875 64.03125 C11.0546875 64.69125 11.0546875 65.35125 11.0546875 66.03125 C10.3946875 66.03125 9.7346875 66.03125 9.0546875 66.03125 C8.3946875 68.01125 7.7346875 69.99125 7.0546875 72.03125 C6.46300781 71.8146875 5.87132812 71.598125 5.26171875 71.375 C4.47152344 71.0965625 3.68132812 70.818125 2.8671875 70.53125 C2.08988281 70.2528125 1.31257813 69.974375 0.51171875 69.6875 C-2.07754029 68.9959332 -4.27788488 68.91754083 -6.9453125 69.03125 C-6.19507813 69.16660156 -5.44484375 69.30195313 -4.671875 69.44140625 C5.86055641 71.65666575 13.80977686 76.11042106 19.9375 85.12890625 C23.07652294 90.47402573 23.26263269 95.0008395 23.0546875 101.03125 C16.88814109 104.53393904 10.85846635 107.95155242 4.0546875 110.03125 C3.41789062 110.23621094 2.78109375 110.44117188 2.125 110.65234375 C-15.64139827 115.51296214 -33.06806256 110.08989738 -48.9453125 102.03125 C-49.41797539 94.70497525 -48.04397452 89.65740673 -44.9453125 83.03125 C-44.2853125 83.03125 -43.6253125 83.03125 -42.9453125 83.03125 C-42.7184375 82.45375 -42.4915625 81.87625 -42.2578125 81.28125 C-40.61493227 78.4648839 -38.54998023 76.95047886 -35.9453125 75.03125 C-37.1209375 75.340625 -37.1209375 75.340625 -38.3203125 75.65625 C-39.1865625 75.78 -40.0528125 75.90375 -40.9453125 76.03125 C-42.9453125 74.03125 -42.9453125 74.03125 -43.9453125 72.03125 C-43.9453125 71.04125 -43.9453125 70.05125 -43.9453125 69.03125 C-43.4503125 68.556875 -42.9553125 68.0825 -42.4453125 67.59375 C-40.48362461 65.91131936 -40.48362461 65.91131936 -40.9453125 62.03125 C-39.8315625 61.78375 -38.7178125 61.53625 -37.5703125 61.28125 C-33.88993762 60.45050542 -33.88993762 60.45050542 -32.71875 57.953125 C-32.46351563 57.31890625 -32.20828125 56.6846875 -31.9453125 56.03125 C-32.39261719 55.64195312 -32.83992188 55.25265625 -33.30078125 54.8515625 C-39.69228378 48.93703777 -44.22787166 41.62935351 -45.18359375 32.83984375 C-45.46775613 23.76160339 -42.74229942 15.09632781 -36.9453125 8.03125 C-34.6953125 6.65625 -34.6953125 6.65625 -32.9453125 6.03125 C-32.9453125 5.37125 -32.9453125 4.71125 -32.9453125 4.03125 C-31.3424072 3.21626438 -29.73793972 2.40435073 -28.1328125 1.59375 C-27.23949219 1.14128906 -26.34617188 0.68882812 -25.42578125 0.22265625 C-17.69897125 -3.48864619 -7.92585784 -3.1355042 0 0 Z " fill="#2F2762" transform="translate(262.9453125,148.96875)"/>
<path d="M0 0 C7.21880684 4.73328952 13.41947769 10.81193041 15.234375 19.5234375 C15.37140333 22.21506538 15.32744547 24.82439401 15.234375 27.5234375 C9.06782859 31.02612654 3.03815385 34.44373992 -3.765625 36.5234375 C-4.40242188 36.72839844 -5.03921875 36.93335938 -5.6953125 37.14453125 C-23.46171077 42.00514964 -40.88837506 36.58208488 -56.765625 28.5234375 C-57.23828789 21.19716275 -55.86428702 16.14959423 -52.765625 9.5234375 C-52.105625 9.5234375 -51.445625 9.5234375 -50.765625 9.5234375 C-50.5078125 8.92660156 -50.25 8.32976562 -49.984375 7.71484375 C-46.96373242 2.28349604 -41.28332509 -0.54851395 -35.515625 -2.2890625 C-33.9371361 -2.70379286 -32.35391226 -3.10110004 -30.765625 -3.4765625 C-29.79882812 -3.75306641 -29.79882812 -3.75306641 -28.8125 -4.03515625 C-19.33964816 -6.0779659 -8.50654874 -4.54163195 0 0 Z " fill="#2087B7" transform="translate(270.765625,222.4765625)"/>
<path d="M0 0 C8.94473616 4.48937328 14.78216805 11.57569603 18.0546875 21.03125 C20.0682076 31.74837312 18.45163994 39.6934357 12.65234375 48.85546875 C10.76302227 51.42845668 8.7343162 53.2973726 6.0546875 55.03125 C5.5596875 53.05125 5.5596875 53.05125 5.0546875 51.03125 C4.3946875 51.69125 3.7346875 52.35125 3.0546875 53.03125 C1.7346875 53.03125 0.4146875 53.03125 -0.9453125 53.03125 C-2.15159258 50.69910852 -3.1107863 48.53482861 -3.9453125 46.03125 C-3.1821875 45.66 -2.4190625 45.28875 -1.6328125 44.90625 C1.89559161 42.44457271 2.8324364 41.20128315 4.0546875 37.03125 C3.76679455 29.95987947 2.95152109 23.34781218 -1.9453125 18.03125 C-7.38793693 14.13695838 -12.46240732 14.24837543 -18.9453125 15.03125 C-23.82518243 17.2969039 -26.61236704 20.18590173 -28.9453125 25.03125 C-29.61534443 30.32450225 -29.40475525 34.29379881 -26.9453125 39.03125 C-27.3203125 41.28125 -27.3203125 41.28125 -27.9453125 43.03125 C-28.6053125 43.03125 -29.2653125 43.03125 -29.9453125 43.03125 C-29.6153125 44.35125 -29.2853125 45.67125 -28.9453125 47.03125 C-28.2853125 47.03125 -27.6253125 47.03125 -26.9453125 47.03125 C-27.2578125 49.40625 -27.2578125 49.40625 -27.9453125 52.03125 C-28.9353125 52.69125 -29.9253125 53.35125 -30.9453125 54.03125 C-30.6153125 55.35125 -30.2853125 56.67125 -29.9453125 58.03125 C-30.9353125 57.70125 -31.9253125 57.37125 -32.9453125 57.03125 C-32.9453125 56.37125 -32.9453125 55.71125 -32.9453125 55.03125 C-34.16188403 53.6877062 -35.41951492 52.38118807 -36.6953125 51.09375 C-42.77342841 44.36902601 -45.7423171 36.69263896 -45.3359375 27.578125 C-44.24849704 20.48801322 -41.50339562 13.5864138 -36.9453125 8.03125 C-34.6953125 6.65625 -34.6953125 6.65625 -32.9453125 6.03125 C-32.9453125 5.37125 -32.9453125 4.71125 -32.9453125 4.03125 C-31.3424072 3.21626438 -29.73793972 2.40435073 -28.1328125 1.59375 C-27.23949219 1.14128906 -26.34617188 0.68882812 -25.42578125 0.22265625 C-17.69897125 -3.48864619 -7.92585784 -3.1355042 0 0 Z " fill="#302860" transform="translate(262.9453125,148.96875)"/>
<path d="M0 0 C4.61874057 2.24048797 8.1645481 5.12016875 10 10 C10.89472302 17.37626301 10.58002834 23.05834162 6 29 C1.60076026 33.07734415 -1.8223495 34.37025957 -7.875 34.28125 C-12.69310312 33.64355988 -16.04663894 31.0306606 -19.3125 27.5 C-23.0010258 22.03551733 -24.13624455 17.5902184 -23 11 C-18.1291736 1.30721836 -10.48910008 -1.69616754 0 0 Z " fill="#2393C7" transform="translate(256,163)"/>
<path d="M0 0 C0.81710449 0.00161133 1.63420898 0.00322266 2.47607422 0.00488281 C13.9736205 0.23211585 24.65882389 3.23566194 34.9375 8.375 C34.9375 9.035 34.9375 9.695 34.9375 10.375 C35.535625 10.478125 36.13375 10.58125 36.75 10.6875 C39.21993264 11.46376455 40.26001235 12.44588921 41.9375 14.375 C36.1875 12.5 36.1875 12.5 33.9375 11.375 C33.9375 10.715 33.9375 10.055 33.9375 9.375 C32.865 9.58125 31.7925 9.7875 30.6875 10 C27.06814181 10.36193582 25.79589454 10.46382678 22.9375 8.375 C22.4425 7.385 22.4425 7.385 21.9375 6.375 C20.9475 6.045 19.9575 5.715 18.9375 5.375 C18.9375 4.715 18.9375 4.055 18.9375 3.375 C7.0575 3.375 -4.8225 3.375 -17.0625 3.375 C-17.0625 4.035 -17.0625 4.695 -17.0625 5.375 C-21.72916667 6.70833333 -26.39583333 8.04166667 -31.0625 9.375 C-31.0625 10.035 -31.0625 10.695 -31.0625 11.375 C-33.36618736 12.44152192 -35.70268187 13.43921005 -38.0625 14.375 C-38.7225 14.045 -39.3825 13.715 -40.0625 13.375 C-27.2068263 5.51139203 -15.25810204 -0.03200777 0 0 Z " fill="#E8AF5B" transform="translate(249.0625,125.625)"/>
<path d="M0 0 C0 4.61920611 -2.05481468 7.84138574 -4.9375 11.375 C-8.00981338 15.28521703 -9.9034008 19.68075571 -12.01953125 24.15625 C-13 26 -13 26 -14.5625 27.4375 C-16.44586215 29.48463277 -16.5045876 31.31061842 -17 34 C-17.99 34.495 -17.99 34.495 -19 35 C-19.60059194 30.07514612 -18.44386255 27.77509106 -15.4296875 23.91796875 C-12.47022289 19.94775802 -10.30648989 15.43911231 -7.97265625 11.08203125 C-5.69395098 6.93643491 -3.10500181 3.53625206 0 0 Z M-21 35 C-20.34 35.33 -19.68 35.66 -19 36 C-19.93307421 37.44037669 -20.87165077 38.87718985 -21.8125 40.3125 C-22.33457031 41.11300781 -22.85664063 41.91351563 -23.39453125 42.73828125 C-24.8110499 44.73381482 -26.25998924 46.29812646 -28 48 C-30.11131163 50.87551705 -30.11131163 50.87551705 -31 54.0625 C-32 57 -32 57 -34 59 C-35.5 57.625 -35.5 57.625 -37 56 C-37 55.34 -37 54.68 -37 54 C-35.68 54 -34.36 54 -33 54 C-33.061875 53.21625 -33.12375 52.4325 -33.1875 51.625 C-33.125625 50.75875 -33.06375 49.8925 -33 49 C-32.01 48.34 -31.02 47.68 -30 47 C-28.93097061 44.69747517 -27.92824183 42.3627974 -27 40 C-26.67 39.34 -26.34 38.68 -26 38 C-24.68 38 -23.36 38 -22 38 C-21.67 37.01 -21.34 36.02 -21 35 Z " fill="#262D6F" transform="translate(285,346)"/>
<path d="M0 0 C0 0.33 0 0.66 0 1 C-1.46373047 0.98259766 -1.46373047 0.98259766 -2.95703125 0.96484375 C-4.22933594 0.95582031 -5.50164062 0.94679687 -6.8125 0.9375 C-8.07707031 0.92589844 -9.34164062 0.91429687 -10.64453125 0.90234375 C-13.99605237 0.83840884 -13.99605237 0.83840884 -17 2 C-18.89661145 1.96909226 -20.79276182 1.90226352 -22.6875 1.8125 C-28.62750087 1.74762135 -32.02005148 2.80531604 -37 6 C-37.33 6.66 -37.66 7.32 -38 8 C-39.2684375 8.556875 -39.2684375 8.556875 -40.5625 9.125 C-43.18007786 10.69762099 -43.18007786 10.69762099 -43.328125 12.97265625 C-43.31393072 14.98469572 -43.16437411 16.99463583 -43 19 C-45.31 19.33 -47.62 19.66 -50 20 C-49.1875 16.5625 -49.1875 16.5625 -48 13 C-47.01 12.67 -46.02 12.34 -45 12 C-44.31460651 10.67619564 -43.64987492 9.34159786 -43 8 C-37.83087618 2.81820676 -31.99496552 0.65357178 -25 -1 C-24.35933594 -1.185625 -23.71867187 -1.37125 -23.05859375 -1.5625 C-15.3752441 -3.19539404 -7.47555599 -1.9934816 0 0 Z " fill="#2F7CAE" transform="translate(265,220)"/>
<path d="M0 0 C0.33 0 0.66 0 1 0 C2.92893681 10.56140648 2.92893681 10.56140648 0.0625 14.9375 C-3.78512205 19.32273499 -8.06400622 21.72227086 -13.890625 22.2734375 C-21.26020408 22.36989796 -21.26020408 22.36989796 -24 21 C-24 21.99 -24 22.98 -24 24 C-26.64 24.66 -29.28 25.32 -32 26 C-31.34 24.02 -30.68 22.04 -30 20 C-30.66 20 -31.32 20 -32 20 C-32.33 18.68 -32.66 17.36 -33 16 C-31.68 15.34 -30.36 14.68 -29 14 C-27.53515625 15.26953125 -26.0703125 16.5390625 -24.60546875 17.80859375 C-20.87003354 20.58063205 -16.45030318 20.57264931 -12 20 C-7.12852244 18.36962646 -4.07481328 15.66256029 -1.7109375 11.015625 C-0.44662723 7.43109698 -0.17128208 3.77676977 0 0 Z " fill="#2E2863" transform="translate(266,176)"/>
<path d="M0 0 C0.75 1.6875 0.75 1.6875 1 4 C-0.28062485 5.7074998 -1.62631655 7.36643049 -3 9 C-4.06488852 11.08244867 -5.03441881 13.18588329 -5.97265625 15.328125 C-7 17 -7 17 -10 18 C-9.938125 18.763125 -9.87625 19.52625 -9.8125 20.3125 C-10.03701008 23.53047788 -10.66574212 23.93507957 -13 26 C-13.309375 26.61875 -13.61875 27.2375 -13.9375 27.875 C-15 30 -15 30 -17.0625 32.5 C-19.08667957 34.74746146 -19.08667957 34.74746146 -19.4375 36.9375 C-20.35479733 40.30092353 -22.70781143 42.4139411 -25 45 C-26 42 -26 42 -24.5 38.9375 C-22.67780649 35.94030584 -20.66529617 33.10188064 -18.625 30.25 C-15.54094239 25.90996158 -12.96945622 21.44526507 -10.4765625 16.74609375 C-7.34782454 10.92730331 -4.04166757 5.23389989 0 0 Z " fill="#242C6D" transform="translate(330,271)"/>
<path d="M0 0 C0.703125 1.68359375 0.703125 1.68359375 1 4 C-0.328125 6.41015625 -0.328125 6.41015625 -2.25 9.0625 C-11.03351386 22.24650192 -11.32730553 38.9294984 -11.125 54.3125 C-11.11493218 55.65038379 -11.10581316 56.98827507 -11.09765625 58.32617188 C-11.07437244 61.55097962 -11.0416741 64.77538654 -11 68 C-11.66 68 -12.32 68 -13 68 C-13.02465392 63.46102295 -13.04283789 58.92208457 -13.05493164 54.38305664 C-13.0599714 52.83780234 -13.0668032 51.29255284 -13.07543945 49.74731445 C-13.08752076 47.53074971 -13.09323173 45.31424782 -13.09765625 43.09765625 C-13.10281754 42.4028566 -13.10797882 41.70805695 -13.11329651 40.99220276 C-13.11349277 39.3277067 -13.06189129 37.66334501 -13 36 C-12.505 35.505 -12.505 35.505 -12 35 C-11.89107049 33.27225692 -11.81398908 31.54249052 -11.75 29.8125 C-11.21594476 22.2904677 -8.78649977 15.950826 -6 9 C-5.34 9 -4.68 9 -4 9 C-4 7.68 -4 6.36 -4 5 C-3.34 4.67 -2.68 4.34 -2 4 C-0.86649466 1.98330173 -0.86649466 1.98330173 0 0 Z " fill="#253071" transform="translate(154,140)"/>
<path d="M0 0 C1.19140625 1.6015625 1.19140625 1.6015625 2 4 C-0.68560078 10.99883839 -4.85956557 17.54802409 -10 23 C-11.5625 21.1875 -11.5625 21.1875 -13 19 C-12.505 17.515 -12.505 17.515 -12 16 C-12 16.66 -12 17.32 -12 18 C-10.68 18 -9.36 18 -8 18 C-8 16.68 -8 15.36 -8 14 C-8.99 14 -9.98 14 -11 14 C-11 13.01 -11 12.02 -11 11 C-10.01 11 -9.02 11 -8 11 C-5.60028446 9.06176821 -5.00203321 8.00609963 -4 5 C-2.68 5 -1.36 5 0 5 C0 3.35 0 1.7 0 0 Z " fill="#EEAF52" transform="translate(311,214)"/>
<path d="M0 0 C1.1725131 0.95117134 2.33787015 1.91117009 3.5 2.875 C4.47453125 3.67550781 4.47453125 3.67550781 5.46875 4.4921875 C5.9740625 4.98976562 6.479375 5.48734375 7 6 C7 6.66 7 7.32 7 8 C7.66 8 8.32 8 9 8 C11.31 12.62 13.62 17.24 16 22 C17.65 20.35 19.3 18.7 21 17 C19.92598892 19.91517292 19.22189824 21.77810176 17 24 C14.9375 23.8125 14.9375 23.8125 13 23 C12.67 22.01 12.34 21.02 12 20 C11.67 20.66 11.34 21.32 11 22 C9.68 21.34 8.36 20.68 7 20 C7.33 19.01 7.66 18.02 8 17 C8.34227417 15.66893378 8.67751743 14.33599921 9 13 C8.01 12.34 7.02 11.68 6 11 C6 9.68 6 8.36 6 7 C4.35 7.33 2.7 7.66 1 8 C1.33 6.35 1.66 4.7 2 3 C1.34 3 0.68 3 0 3 C0 2.01 0 1.02 0 0 Z " fill="#3E2E4C" transform="translate(285,214)"/>
<path d="M0 0 C1.65 0.33 3.3 0.66 5 1 C4.68546875 1.54527344 4.3709375 2.09054688 4.046875 2.65234375 C1.02540181 7.97632512 -1.61469992 13.36322942 -4 19 C-6.96404505 16.19195732 -9.44499019 13.81684226 -11 10 C-9.35 10 -7.7 10 -6 10 C-5.67 8.68 -5.34 7.36 -5 6 C-4.01 6.33 -3.02 6.66 -2 7 C-1.34 4.69 -0.68 2.38 0 0 Z " fill="#EFB152" transform="translate(204,218)"/>
<path d="M0 0 C0.495 1.485 0.495 1.485 1 3 C0.01 3.33 -0.98 3.66 -2 4 C-2.33 4.99 -2.66 5.98 -3 7 C-10.45118144 12.86765194 -18.9007732 17.60231256 -27.72265625 21.0703125 C-29.92832889 21.79919413 -29.92832889 21.79919413 -31 23 C-32.51928038 23.07179964 -34.04167482 23.08392007 -35.5625 23.0625 C-36.38878906 23.05347656 -37.21507812 23.04445313 -38.06640625 23.03515625 C-39.02353516 23.01775391 -39.02353516 23.01775391 -40 23 C-40 22.67 -40 22.34 -40 22 C-39.09636719 21.73445313 -38.19273437 21.46890625 -37.26171875 21.1953125 C-36.08222656 20.84210938 -34.90273438 20.48890625 -33.6875 20.125 C-32.51574219 19.77695312 -31.34398437 19.42890625 -30.13671875 19.0703125 C-26.89088275 18.11234547 -26.89088275 18.11234547 -24 16 C-21.3125 15.875 -21.3125 15.875 -19 16 C-19 15.34 -19 14.68 -19 14 C-17.02 13.34 -15.04 12.68 -13 12 C-13 11.01 -13 10.02 -13 9 C-11.02 8.67 -9.04 8.34 -7 8 C-7 7.01 -7 6.02 -7 5 C-6.030625 4.54625 -5.06125 4.0925 -4.0625 3.625 C-0.92920418 2.34213779 -0.92920418 2.34213779 0 0 Z " fill="#224287" transform="translate(307,253)"/>
<path d="M0 0 C1.17691406 -0.01224609 2.35382813 -0.02449219 3.56640625 -0.03710938 C11.27366541 -0.05011375 17.53768556 0.35860391 24.375 4.1875 C20.80459068 5.37763644 19.88395831 4.87147105 16.375 3.75 C-1.08862765 -0.81123769 -19.0684304 2.25619886 -34.625 11.1875 C-34.625 10.1975 -34.625 9.2075 -34.625 8.1875 C-33.635 8.1875 -32.645 8.1875 -31.625 8.1875 C-31.625 7.5275 -31.625 6.8675 -31.625 6.1875 C-29.975 6.1875 -28.325 6.1875 -26.625 6.1875 C-26.625 5.5275 -26.625 4.8675 -26.625 4.1875 C-25.69816406 3.98253906 -24.77132812 3.77757812 -23.81640625 3.56640625 C-22.61886719 3.29699219 -21.42132813 3.02757813 -20.1875 2.75 C-18.39505859 2.34974609 -18.39505859 2.34974609 -16.56640625 1.94140625 C-10.85377388 0.47721229 -6.30727313 0.00338736 0 0 Z " fill="#47323F" transform="translate(249.625,124.8125)"/>
<path d="M0 0 C0.66 0 1.32 0 2 0 C2.433125 1.6396875 2.433125 1.6396875 2.875 3.3125 C3.81893204 7.04013845 3.81893204 7.04013845 6 10 C7.39934897 19.43900486 9.67620169 35.51866515 5 44 C4.98541748 43.08710205 4.97083496 42.1742041 4.95581055 41.23364258 C4.89459205 37.83201389 4.82041127 34.43117319 4.73754883 31.0300293 C4.70438741 29.56073578 4.67632822 28.09131756 4.65356445 26.62182617 C4.61985481 24.50385632 4.56753567 22.38702005 4.51171875 20.26953125 C4.48553467 18.99698486 4.45935059 17.72443848 4.43237305 16.41333008 C3.93881292 12.51696412 2.79936666 9.79936666 0 7 C-0.04092937 4.66702567 -0.04241723 2.33294775 0 0 Z " fill="#232C6D" transform="translate(328,160)"/>
<path d="M0 0 C4.29547348 1.92555708 6.6308176 4.54183263 9.5625 8.125 C11.67912299 11.00332155 11.67912299 11.00332155 14 12 C14.93969695 13.64446965 15.87448002 15.29205441 16.77734375 16.95703125 C18.5532377 19.92441954 20.72638205 22.5404141 22.92578125 25.203125 C23.45751953 26.09257812 23.45751953 26.09257812 24 27 C23.67 27.99 23.34 28.98 23 30 C20 26.25 20 26.25 20 24 C19.34 24 18.68 24 18 24 C16.88671875 22.4609375 16.88671875 22.4609375 15.6875 20.375 C12.54018345 15.17229305 9.37974701 10.80847661 4.25 7.4375 C1.61946763 5.68000766 1.10727872 5.32183617 0.0625 2.1875 C0.0315625 1.1046875 0.0315625 1.1046875 0 0 Z " fill="#22397B" transform="translate(304,128)"/>
<path d="M0 0 C1.23593906 3.70781718 0.56984348 4.52981968 -1 8 C-2.65597328 11.93293655 -3.87703417 15.88245861 -5 20 C-5.18232178 20.61004883 -5.36464355 21.22009766 -5.55249023 21.84863281 C-6.11621313 24.55868527 -6.11177856 27.09140142 -6.09765625 29.859375 C-6.09443359 30.97441406 -6.09121094 32.08945313 -6.08789062 33.23828125 C-6.07951172 34.39714844 -6.07113281 35.55601562 -6.0625 36.75 C-6.05798828 37.92433594 -6.05347656 39.09867188 -6.04882812 40.30859375 C-6.03705094 43.20578072 -6.02060326 46.10286454 -6 49 C-8.87125412 44.08449887 -8.38344457 39.11565189 -8.375 33.5625 C-8.37338867 32.48097656 -8.37177734 31.39945313 -8.37011719 30.28515625 C-8.19603994 18.92576228 -5.47203396 9.966919 0 0 Z " fill="#DDAC69" transform="translate(191,159)"/>
<path d="M0 0 C0.86560547 0.00902344 1.73121094 0.01804687 2.62304688 0.02734375 C4.72798779 0.05060277 6.83278342 0.08645992 8.9375 0.125 C8.9375 0.455 8.9375 0.785 8.9375 1.125 C7.00583984 1.21587891 7.00583984 1.21587891 5.03515625 1.30859375 C3.35675841 1.39298247 1.67837364 1.4776313 0 1.5625 C-1.27520508 1.62147461 -1.27520508 1.62147461 -2.57617188 1.68164062 C-3.38505859 1.72353516 -4.19394531 1.76542969 -5.02734375 1.80859375 C-6.15064087 1.86358032 -6.15064087 1.86358032 -7.29663086 1.91967773 C-9.08711326 1.94271063 -9.08711326 1.94271063 -10.0625 3.125 C-12.73308851 3.26615161 -15.38682238 3.16747107 -18.0625 3.125 C-18.0625 3.785 -18.0625 4.445 -18.0625 5.125 C-22.72916667 6.45833333 -27.39583333 7.79166667 -32.0625 9.125 C-32.0625 9.785 -32.0625 10.445 -32.0625 11.125 C-34.36618736 12.19152192 -36.70268187 13.18921005 -39.0625 14.125 C-39.7225 13.795 -40.3825 13.465 -41.0625 13.125 C-27.67213559 4.93433036 -15.83724409 -0.3194479 0 0 Z " fill="#D7A763" transform="translate(250.0625,125.875)"/>
<path d="M0 0 C3.63246246 3.63246246 3.93309602 8.69850305 4.078125 13.6875 C3.71926485 20.70520956 1.53810449 25.98130564 -2 32 C-2.66 30.68 -3.32 29.36 -4 28 C-3.01 28 -2.02 28 -1 28 C-1 26.68 -1 25.36 -1 24 C-0.34 24 0.32 24 1 24 C1 17.07 1 10.14 1 3 C0.34 2.67 -0.32 2.34 -1 2 C-0.67 1.34 -0.34 0.68 0 0 Z " fill="#3D2B42" transform="translate(278,165)"/>
<path d="M0 0 C0.99 0.33 1.98 0.66 3 1 C1.58795618 3.39866418 0.17057624 5.79389584 -1.25 8.1875 C-1.64574219 8.86103516 -2.04148437 9.53457031 -2.44921875 10.22851562 C-4.72886027 14.0590608 -7.10994932 17.58629335 -10 21 C-10.20086443 17.28400809 -10.1519437 16.22791555 -8 13 C-7.34 13 -6.68 13 -6 13 C-6.23589844 12.26394531 -6.47179687 11.52789062 -6.71484375 10.76953125 C-7 8 -7 8 -5.56640625 5.76171875 C-4.90511719 5.07722656 -4.24382812 4.39273437 -3.5625 3.6875 C-2.57443359 2.64142578 -2.57443359 2.64142578 -1.56640625 1.57421875 C-1.04949219 1.05472656 -0.53257812 0.53523438 0 0 Z " fill="#58527A" transform="translate(308,339)"/>
<path d="M0 0 C0 0.99 0 1.98 0 3 C0.556875 3.12375 1.11375 3.2475 1.6875 3.375 C4 4 4 4 6.4375 5.1875 C9.68240255 6.21637154 11.03846305 5.52307615 14 4 C13.95875 5.0725 13.9175 6.145 13.875 7.25 C13.9925745 10.77723487 14.34847907 12.061073 16 15 C15.49210937 14.60167969 14.98421875 14.20335937 14.4609375 13.79296875 C10.46096502 10.71433825 6.63120857 8.08404386 2 6 C2 5.34 2 4.68 2 4 C1.4225 3.87625 0.845 3.7525 0.25 3.625 C-2.02335767 2.99351176 -3.9253529 2.11141809 -6 1 C-3 0 -3 0 0 0 Z " fill="#392952" transform="translate(282,130)"/>
<path d="M0 0 C1.32 0 2.64 0 4 0 C4.2475 1.093125 4.495 2.18625 4.75 3.3125 C5.60416712 6.996048 5.60416712 6.996048 7.9375 8.4140625 C10.49923422 10.38388086 11.13444232 12.05669181 12.25 15.0625 C12.58515625 15.94035156 12.9203125 16.81820313 13.265625 17.72265625 C14 20 14 20 14 22 C13.34 22 12.68 22 12 22 C3.55353075 7.40318907 3.55353075 7.40318907 0 0 Z " fill="#233C81" transform="translate(170,272)"/>
<path d="M0 0 C0.33 0 0.66 0 1 0 C2.92893681 10.56140648 2.92893681 10.56140648 0.0625 14.9375 C-3.78512205 19.32273499 -8.06400622 21.72227086 -13.890625 22.2734375 C-21.26020408 22.36989796 -21.26020408 22.36989796 -24 21 C-23.67 20.34 -23.34 19.68 -23 19 C-22.01 19.33 -21.02 19.66 -20 20 C-14.7021141 20.44149049 -11.04672154 20.26366978 -6.5390625 17.3203125 C-2.23122806 13.62475909 -0.88106061 9.48621015 -0.25 4.0625 C-0.15060827 2.70941719 -0.06146645 1.35533527 0 0 Z " fill="#1C2F6A" transform="translate(266,176)"/>
<path d="M0 0 C1.32 0.33 2.64 0.66 4 1 C3.34 1 2.68 1 2 1 C1.731875 1.61875 1.46375 2.2375 1.1875 2.875 C0 5 0 5 -3 7 C-3.99 7 -4.98 7 -6 7 C-6.25523437 7.56203125 -6.51046875 8.1240625 -6.7734375 8.703125 C-8.15692781 11.29386482 -9.79938583 13.45107845 -11.625 15.75 C-12.25664062 16.54921875 -12.88828125 17.3484375 -13.5390625 18.171875 C-14.02117187 18.77515625 -14.50328125 19.3784375 -15 20 C-15.33 19.34 -15.66 18.68 -16 18 C-12.75 11.5 -12.75 11.5 -9 9 C-8.67 8.01 -8.34 7.02 -8 6 C-7.401875 5.87625 -6.80375 5.7525 -6.1875 5.625 C-2.99895456 4.71398702 -1.88378299 2.62384059 0 0 Z " fill="#223E81" transform="translate(198,124)"/>
<path d="M0 0 C0.33 0 0.66 0 1 0 C1.258085 3.64437715 1.47609116 7.29014117 1.6875 10.9375 C1.76033203 11.95908203 1.83316406 12.98066406 1.90820312 14.03320312 C2.27091334 20.71133828 1.61484738 25.84434931 -1 32 C-1.391875 33.010625 -1.78375 34.02125 -2.1875 35.0625 C-2.455625 35.701875 -2.72375 36.34125 -3 37 C-3.66 36.67 -4.32 36.34 -5 36 C-4.79503906 35.32453125 -4.59007812 34.6490625 -4.37890625 33.953125 C-4.10949219 33.06109375 -3.84007812 32.1690625 -3.5625 31.25 C-3.29566406 30.36828125 -3.02882813 29.4865625 -2.75390625 28.578125 C-1.58000776 24.5637571 -0.85440382 20.99392255 -0.68359375 16.796875 C-0.64169922 15.8171875 -0.59980469 14.8375 -0.55664062 13.828125 C-0.51732422 12.81234375 -0.47800781 11.7965625 -0.4375 10.75 C-0.39431641 9.71875 -0.35113281 8.6875 -0.30664062 7.625 C-0.20074318 5.0834613 -0.09866557 2.54182804 0 0 Z " fill="#5E443F" transform="translate(317,182)"/>
<path d="M0 0 C0.33 0 0.66 0 1 0 C1.33 3.63 1.66 7.26 2 11 C2.66 11 3.32 11 4 11 C4.33 14.3 4.66 17.6 5 21 C5.99 21.33 6.98 21.66 8 22 C9.45007937 24.68264684 10.11784055 26.27331661 9.625 29.3125 C9.315625 30.1478125 9.315625 30.1478125 9 31 C8.54625 29.865625 8.0925 28.73125 7.625 27.5625 C6.42904194 23.95278308 6.42904194 23.95278308 4 23 C1.13456376 15.38672414 -0.56002039 8.1202957 0 0 Z " fill="#243477" transform="translate(143,208)"/>
<path d="M0 0 C7.38979034 3.41067247 13.04819773 8.55079437 19 14 C17.16796875 14.640625 17.16796875 14.640625 15 15 C11.96830161 12.46183391 10.25830363 10.77491089 9 7 C6.62374655 5.81608777 6.62374655 5.81608777 4 5 C3.01 4.67 2.02 4.34 1 4 C0.3125 1.9375 0.3125 1.9375 0 0 Z " fill="#544F77" transform="translate(319,86)"/>
<path d="M0 0 C1 3 1 3 0 6 C-0.66 6 -1.32 6 -2 6 C-2.0825 6.804375 -2.165 7.60875 -2.25 8.4375 C-3.20196675 12.95934205 -5.01580179 16.84702701 -7 21 C-7.99 20.67 -8.98 20.34 -10 20 C-10.6875 17.9375 -10.6875 17.9375 -11 16 C-9.68 16 -8.36 16 -7 16 C-7.061875 15.21625 -7.12375 14.4325 -7.1875 13.625 C-7.125625 12.75875 -7.06375 11.8925 -7 11 C-6.01 10.34 -5.02 9.68 -4 9 C-2.93097061 6.69747517 -1.92824183 4.3627974 -1 2 C-0.67 1.34 -0.34 0.68 0 0 Z " fill="#233F85" transform="translate(259,384)"/>
<path d="M0 0 C0.73828125 1.66015625 0.73828125 1.66015625 1 4 C-0.58203125 6.62109375 -0.58203125 6.62109375 -2.8125 9.4375 C-5.5429108 12.91212897 -7.40142328 15.8986742 -9 20 C-9.66 20.33 -10.32 20.66 -11 21 C-9.89389594 16.57558374 -8.76055736 13.5744809 -6 10 C-5.09976227 8.45190333 -4.22449292 6.88901293 -3.375 5.3125 C-1.09964413 1.09964413 -1.09964413 1.09964413 0 0 Z M-12 21 C-12 21.99 -12 22.98 -12 24 C-12.99 24.33 -13.98 24.66 -15 25 C-14.67 24.01 -14.34 23.02 -14 22 C-13.34 21.67 -12.68 21.34 -12 21 Z " fill="#242B6C" transform="translate(301,319)"/>
<path d="M0 0 C1.875 0.6875 1.875 0.6875 4 2 C4.28875 2.825 4.5775 3.65 4.875 4.5 C5.81055406 7.33821938 5.81055406 7.33821938 9.125 8.3125 C10.07375 8.539375 11.0225 8.76625 12 9 C11.79375 9.78375 11.5875 10.5675 11.375 11.375 C11.25125 12.24125 11.1275 13.1075 11 14 C11.66 14.66 12.32 15.32 13 16 C12.01 16.33 11.02 16.66 10 17 C8.32972219 14.35642999 6.6643902 11.70978008 5 9.0625 C4.52304688 8.30775391 4.04609375 7.55300781 3.5546875 6.77539062 C3.10351562 6.05673828 2.65234375 5.33808594 2.1875 4.59765625 C1.76855469 3.93258057 1.34960938 3.26750488 0.91796875 2.58227539 C0 1 0 1 0 0 Z " fill="#433D68" transform="translate(171,309)"/>
<path d="M0 0 C0.66 0 1.32 0 2 0 C0.72488358 4.78168657 -0.94781173 7.4496756 -4.5 10.875 C-5.2940625 11.65617188 -6.088125 12.43734375 -6.90625 13.2421875 C-9 15 -9 15 -11 15 C-11.0825 15.61875 -11.165 16.2375 -11.25 16.875 C-12 19 -12 19 -14.0625 20.25 C-14.701875 20.4975 -15.34125 20.745 -16 21 C-14.90941594 18.32311185 -13.79721545 16.80067594 -11.7109375 14.75 C-7.99229156 10.97777127 -5.07103053 6.74434337 -1.98828125 2.44921875 C-1.33214844 1.64097656 -0.67601562 0.83273438 0 0 Z " fill="#292A6A" transform="translate(192,131)"/>
<path d="M0 0 C0 0.66 0 1.32 0 2 C-1.98 2.66 -3.96 3.32 -6 4 C-6 4.66 -6 5.32 -6 6 C-11.14089313 7.85072153 -13.95531271 8.21474076 -19 6 C-15.85471518 3.90314345 -13.58922097 3.28498324 -9.9375 2.4375 C-6.71409398 1.68341835 -3.22712923 0 0 0 Z " fill="#22306B" transform="translate(277,255)"/>
<path d="M0 0 C-0.33 0.66 -0.66 1.32 -1 2 C-2.5778125 2.2165625 -2.5778125 2.2165625 -4.1875 2.4375 C-8.08603753 3.01269406 -10.54044418 4.19501436 -14 6 C-16.875 6.6875 -16.875 6.6875 -19 7 C-19.33 6.01 -19.66 5.02 -20 4 C-6.3667426 -0.59225513 -6.3667426 -0.59225513 0 0 Z " fill="#204388" transform="translate(232,87)"/>
<path d="M0 0 C1.52907246 3.05814492 0.22587012 4.9990066 -0.8125 8.1875 C-1.18503906 9.35023438 -1.55757813 10.51296875 -1.94140625 11.7109375 C-2.29074219 12.79632813 -2.64007813 13.88171875 -3 15 C-3.68932827 17.32789546 -4.34739926 19.66151402 -5 22 C-5.66 22 -6.32 22 -7 22 C-7.66 23.32 -8.32 24.64 -9 26 C-9 24.35 -9 22.7 -9 21 C-8.01 20.67 -7.02 20.34 -6 20 C-5.9175 18.906875 -5.835 17.81375 -5.75 16.6875 C-5.13116041 11.60937517 -3.71834129 3.71834129 0 0 Z " fill="#232D6E" transform="translate(332,208)"/>
<path d="M0 0 C3.08814656 1.60977852 5.52892265 3.55799415 8 6 C6.68 6.33 5.36 6.66 4 7 C3.34 6.01 2.68 5.02 2 4 C-2.16879572 1.7929905 -6.37404105 1.4704365 -11 1 C-11 1.66 -11 2.32 -11 3 C-12.98 3.33 -14.96 3.66 -17 4 C-12.14032461 -1.08056973 -6.79642928 -0.94065293 0 0 Z " fill="#3387BB" transform="translate(256,163)"/>
<path d="M0 0 C1.98 0 3.96 0 6 0 C5.34 1.98 4.68 3.96 4 6 C3.34 6 2.68 6 2 6 C1.67 6.99 1.34 7.98 1 9 C-1 7.625 -1 7.625 -3 6 C-3 5.34 -3 4.68 -3 4 C-2.34 4 -1.68 4 -1 4 C-0.67 2.68 -0.34 1.36 0 0 Z " fill="#494271" transform="translate(349,265)"/>
<path d="M0 0 C2.22717968 2.22717968 2.87909391 3.8920142 4 6.8125 C4.33 7.66457031 4.66 8.51664063 5 9.39453125 C5.33 10.25433594 5.66 11.11414063 6 12 C6.66427992 13.66761938 7.33024138 15.33457344 8 17 C7.01 16.67 6.02 16.34 5 16 C4.67 16.66 4.34 17.32 4 18 C3.01 14.7 2.02 11.4 1 8 C0.67 8 0.34 8 0 8 C0 5.36 0 2.72 0 0 Z " fill="#412F48" transform="translate(185,212)"/>
<path d="M0 0 C5.09347399 -0.37269322 8.53080247 0.51711249 13 3 C14.66528185 4.91922513 15.75509283 6.75916709 17 9 C16.67 9.66 16.34 10.32 16 11 C15.43152344 10.52949219 14.86304688 10.05898437 14.27734375 9.57421875 C9.67348582 5.86192597 5.56746941 3.01376553 0 1 C0 0.67 0 0.34 0 0 Z " fill="#E9AF57" transform="translate(273,207)"/>
<path d="M0 0 C1.98974803 3.30040118 2.18869828 5.60343095 1.9765625 9.421875 C1.925 10.44667969 1.8734375 11.47148437 1.8203125 12.52734375 C1.75585938 13.59082031 1.69140625 14.65429688 1.625 15.75 C1.56828125 16.82894531 1.5115625 17.90789062 1.453125 19.01953125 C1.31184116 21.68037699 1.16044734 24.34025231 1 27 C0.67 27 0.34 27 0 27 C-0.74440282 17.87247617 -1.25610227 9.12123495 0 0 Z " fill="#575177" transform="translate(376,182)"/>
<path d="M0 0 C2 0 2 0 3.4375 1.125 C6.20834678 4.45001613 8 7.64184371 8 12 C8.66 12 9.32 12 10 12 C9.67 12.99 9.34 13.98 9 15 C0 4.89320388 0 4.89320388 0 0 Z " fill="#223D83" transform="translate(217,349)"/>
<path d="M0 0 C0.33 0 0.66 0 1 0 C1.06058594 1.2065625 1.12117187 2.413125 1.18359375 3.65625 C1.26807818 5.27084124 1.35272211 6.88542414 1.4375 8.5 C1.47681641 9.29148438 1.51613281 10.08296875 1.55664062 10.8984375 C1.82705218 15.97385441 2.3127142 20.96375445 3 26 C-0.48597076 22.51402924 -1.128874 18.47808147 -1.1875 13.6875 C-1.08573879 9.08476238 -0.57968029 4.56498229 0 0 Z " fill="#51383F" transform="translate(182,186)"/>
<path d="M0 0 C3.3 0 6.6 0 10 0 C8 4 8 4 5 6 C4.67 4.68 4.34 3.36 4 2 C3.34 2.66 2.68 3.32 2 4 C0.68 4 -0.64 4 -2 4 C-1.34 2.68 -0.68 1.36 0 0 Z " fill="#2F265B" transform="translate(264,198)"/>
<path d="M0 0 C18.03541568 -0.55335934 18.03541568 -0.55335934 25 3 C25.66 3.33 26.32 3.66 27 4 C26.67 4.66 26.34 5.32 26 6 C25.46375 5.80664062 24.9275 5.61328125 24.375 5.4140625 C16.3806127 2.75803251 8.33573608 1.87907887 0 1 C0 0.67 0 0.34 0 0 Z " fill="#1C3069" transform="translate(244,217)"/>
<path d="M0 0 C6.75876828 1.84330044 12.22218086 8.3332713 16 14 C15.67 14.99 15.34 15.98 15 17 C14.33613281 16.19175781 13.67226563 15.38351563 12.98828125 14.55078125 C12.09648876 13.47124297 11.20455406 12.39182215 10.3125 11.3125 C9.65991211 10.51682617 9.65991211 10.51682617 8.99414062 9.70507812 C6.15612944 6.2784424 3.19212461 3.10009939 0 0 Z " fill="#253679" transform="translate(320,110)"/>
<path d="M0 0 C2.0625 0.4375 2.0625 0.4375 4 1 C4 2.98 4 4.96 4 7 C1.69 7.33 -0.62 7.66 -3 8 C-1.125 1.125 -1.125 1.125 0 0 Z " fill="#2480AF" transform="translate(218,232)"/>
<path d="M0 0 C-0.66 1.32 -1.32 2.64 -2 4 C-3.98 4 -5.96 4 -8 4 C-8.33 4.99 -8.66 5.98 -9 7 C-9.99 7 -10.98 7 -12 7 C-12.33 7.66 -12.66 8.32 -13 9 C-13.99 9 -14.98 9 -16 9 C-16 8.34 -16 7.68 -16 7 C-3.73664122 0 -3.73664122 0 0 0 Z " fill="#422E45" transform="translate(230,207)"/>
<path d="M0 0 C0.99 0.33 1.98 0.66 3 1 C3 2.98 3 4.96 3 7 C3.66 7 4.32 7 5 7 C5 13.27 5 19.54 5 26 C4.67 26 4.34 26 4 26 C3.96261719 25.04480469 3.92523438 24.08960938 3.88671875 23.10546875 C3.47557754 15.01969164 2.55985512 7.74396422 0 0 Z " fill="#3E2B40" transform="translate(314,171)"/>
<path d="M0 0 C0 0.66 0 1.32 0 2 C-2.5614657 4.29648649 -3.47967572 5 -7 5 C-7.66 6.65 -8.32 8.3 -9 10 C-10.32 9.67 -11.64 9.34 -13 9 C-12.360625 8.7525 -11.72125 8.505 -11.0625 8.25 C-8.81523431 7.21635115 -8.81523431 7.21635115 -8.5 5.0625 C-8.335 4.381875 -8.17 3.70125 -8 3 C-5.07304769 0.17397708 -4.24894725 0 0 0 Z " fill="#23377A" transform="translate(192,101)"/>
<path d="M0 0 C0.66 0 1.32 0 2 0 C2 1.32 2 2.64 2 4 C2.99 4.33 3.98 4.66 5 5 C5.94921875 6.70703125 5.94921875 6.70703125 6.6875 8.8125 C6.93886719 9.49957031 7.19023437 10.18664062 7.44921875 10.89453125 C8 13 8 13 8 17 C7.34 16.67 6.68 16.34 6 16 C6 15.01 6 14.02 6 13 C5.34 13 4.68 13 4 13 C3.566875 11.453125 3.566875 11.453125 3.125 9.875 C2.17691202 6.54992003 1.11743406 3.27248547 0 0 Z " fill="#23367A" transform="translate(172,224)"/>
<path d="M0 0 C0.66 0 1.32 0 2 0 C2.433125 1.6396875 2.433125 1.6396875 2.875 3.3125 C3.81893204 7.04013845 3.81893204 7.04013845 6 10 C6.1953125 12.26171875 6.1953125 12.26171875 6.125 14.6875 C6.10695313 15.49574219 6.08890625 16.30398437 6.0703125 17.13671875 C6.03550781 18.05904297 6.03550781 18.05904297 6 19 C5.67 19 5.34 19 5 19 C4.89042969 18.38511719 4.78085937 17.77023438 4.66796875 17.13671875 C4.43013672 15.92435547 4.43013672 15.92435547 4.1875 14.6875 C3.96126953 13.48673828 3.96126953 13.48673828 3.73046875 12.26171875 C3.16691482 9.92964322 3.16691482 9.92964322 1.4375 8.4375 C0 7 0 7 -0.1875 3.3125 C-0.125625 2.219375 -0.06375 1.12625 0 0 Z " fill="#25377C" transform="translate(328,160)"/>
<path d="M0 0 C0.33 0 0.66 0 1 0 C1.37553578 6.6344655 0.53393486 12.80593702 -2 19 C-2.99 19.66 -3.98 20.32 -5 21 C-4.80664062 20.23816406 -4.61328125 19.47632813 -4.4140625 18.69140625 C-2.8473236 12.47874359 -1.35673835 6.26186932 0 0 Z " fill="#254086" transform="translate(333,204)"/>
<path d="M0 0 C-1.44950455 3.7910119 -3.15172566 7.3874638 -5 11 C-7 8 -7 8 -6.8125 5.5 C-5.50429008 1.47473872 -4.30703303 0 0 0 Z " fill="#3B2C4E" transform="translate(194,154)"/>
<path d="M0 0 C4.6337353 2.07719169 7.05514083 4.93328972 10 9 C9.67 9.66 9.34 10.32 9 11 C1.31509847 5.9059081 1.31509847 5.9059081 0 2.125 C0 1.42375 0 0.7225 0 0 Z " fill="#243172" transform="translate(304,128)"/>
<path d="M0 0 C3.33511388 2.9901021 5.21521119 5.89498574 7 10 C7 10.66 7 11.32 7 12 C3.20412799 10.73470933 2.15090451 9.33761045 0 6 C-0.25 2.6875 -0.25 2.6875 0 0 Z " fill="#E8B05C" transform="translate(304,153)"/>
<path d="M0 0 C0.66 0.33 1.32 0.66 2 1 C1.4225 1.639375 0.845 2.27875 0.25 2.9375 C-2.15247025 6.20752895 -3.5699112 9.36457176 -5.0703125 13.109375 C-6 15 -6 15 -8 16 C-8.1875 13.6875 -8.1875 13.6875 -8 11 C-6.75 9.625 -6.75 9.625 -5 8 C-3.58237855 5.71080388 -2.30820486 3.35476874 -1 1 C-0.67 0.67 -0.34 0.34 0 0 Z " fill="#224287" transform="translate(308,304)"/>
<path d="M0 0 C0.33 0.99 0.66 1.98 1 3 C-0.23414044 5.34282452 -1.49246493 7.48292584 -2.9375 9.6875 C-3.32357422 10.29400391 -3.70964844 10.90050781 -4.10742188 11.52539062 C-5.06246419 13.02280265 -6.03006086 14.51219401 -7 16 C-8 13 -8 13 -7 10 C-6.34 10 -5.68 10 -5 10 C-4.9175 9.278125 -4.835 8.55625 -4.75 7.8125 C-3.85249799 4.44686746 -2.2885722 2.58387184 0 0 Z " fill="#244085" transform="translate(318,288)"/>
<path d="M0 0 C0.80179688 0.00451172 1.60359375 0.00902344 2.4296875 0.01367188 C4.41149006 0.02546832 6.39325433 0.04340395 8.375 0.0625 C9.035 1.7125 9.695 3.3625 10.375 5.0625 C9.6325 4.5675 8.89 4.0725 8.125 3.5625 C3.26843828 1.09345663 -2.32756825 1.66500151 -7.625 2.0625 C-8.615 2.3925 -9.605 2.7225 -10.625 3.0625 C-10.625 2.4025 -10.625 1.7425 -10.625 1.0625 C-7.31505287 -0.59247356 -3.63377 -0.03834335 0 0 Z " fill="#1D3C76" transform="translate(251.625,161.9375)"/>
<path d="M0 0 C0.66 0.33 1.32 0.66 2 1 C1.54625 1.4125 1.0925 1.825 0.625 2.25 C-1.05950374 4.06408095 -1.99265971 5.75285627 -3 8 C-3.66 8 -4.32 8 -5 8 C-5 8.99 -5 9.98 -5 11 C-5.66 11 -6.32 11 -7 11 C-7 11.99 -7 12.98 -7 14 C-7.66 14 -8.32 14 -9 14 C-7.6393389 8.80474854 -5.64232612 5.82444243 -2 2 C-1.34 2 -0.68 2 0 2 C0 1.34 0 0.68 0 0 Z " fill="#453143" transform="translate(230,153)"/>
<path d="M0 0 C0.33 0.99 0.66 1.98 1 3 C0.01 3.33 -0.98 3.66 -2 4 C-2.33 4.99 -2.66 5.98 -3 7 C-6.07322948 9.95940617 -8.82152545 10.52517335 -13 11 C-13 10.34 -13 9.68 -13 9 C-11.02 8.67 -9.04 8.34 -7 8 C-7 7.01 -7 6.02 -7 5 C-6.030625 4.54625 -5.06125 4.0925 -4.0625 3.625 C-0.92920418 2.34213779 -0.92920418 2.34213779 0 0 Z " fill="#203C7E" transform="translate(307,253)"/>
<path d="M0 0 C0.66 0.33 1.32 0.66 2 1 C2 4 2 4 1 7 C-1.31 7.33 -3.62 7.66 -6 8 C-4.55746343 4.63408134 -2.66735273 2.48952921 0 0 Z " fill="#E7AE59" transform="translate(204,143)"/>
<path d="M0 0 C1.32 0 2.64 0 4 0 C3.34 2.97 2.68 5.94 2 9 C1.67 8.34 1.34 7.68 1 7 C0.01 6.67 -0.98 6.34 -2 6 C-1.34 4.02 -0.68 2.04 0 0 Z " fill="#5B5483" transform="translate(370,221)"/>
<path d="M0 0 C3.84070935 2.50092702 7.42722063 5.12192773 11 8 C11.66 8.33 12.32 8.66 13 9 C13 9.66 13 10.32 13 11 C11.32700041 10.34938905 9.66140763 9.67966676 8 9 C7.2575 8.71125 6.515 8.4225 5.75 8.125 C3.47163234 6.66033508 3.57724184 5.5563567 3 3 C2.01 2.67 1.02 2.34 0 2 C0 1.34 0 0.68 0 0 Z " fill="#23397B" transform="translate(192,253)"/>
<path d="M0 0 C0.33 0 0.66 0 1 0 C1.19876487 4.27344465 0.7481085 7.11531444 -1 11 C-1.67795528 12.99620166 -2.34733531 14.99538701 -3 17 C-3.33 17 -3.66 17 -4 17 C-3.58411954 10.80481527 -2.39748106 5.73310689 0 0 Z " fill="#222D6E" transform="translate(171,161)"/>
<path d="M0 0 C0.99 0 1.98 0 3 0 C1.79618552 2.49361571 0.54571278 4.68143083 -1 7 C-1.185625 8.485 -1.185625 8.485 -1.375 10 C-2 13 -2 13 -4.0625 14.875 C-5.0215625 15.431875 -5.0215625 15.431875 -6 16 C-5.23757784 12.38944909 -3.87526626 9.14165375 -2.4375 5.75 C-1.98246094 4.67234375 -1.52742188 3.5946875 -1.05859375 2.484375 C-0.70925781 1.66453125 -0.35992187 0.8446875 0 0 Z " fill="#223D82" transform="translate(268,368)"/>
<path d="M0 0 C0.66 0.33 1.32 0.66 2 1 C1.34 2.32 0.68 3.64 0 5 C-0.99 5 -1.98 5 -3 5 C-3 5.99 -3 6.98 -3 8 C-3.66 8 -4.32 8 -5 8 C-4.67 8.99 -4.34 9.98 -4 11 C-5.32 11.33 -6.64 11.66 -8 12 C-6.49087042 7.01987239 -3.44338151 3.75740058 0 0 Z " fill="#442F45" transform="translate(212,216)"/>
<path d="M0 0 C0.9507007 3.02866082 1.02159552 5.05030877 0.25 8.125 C0.09015625 8.80820313 -0.0696875 9.49140625 -0.234375 10.1953125 C-1 12 -1 12 -4 14 C-3.71715982 12.22773547 -3.42339502 10.457212 -3.125 8.6875 C-2.96257812 7.70136719 -2.80015625 6.71523437 -2.6328125 5.69921875 C-2 3 -2 3 0 0 Z " fill="#224185" transform="translate(149,152)"/>
<path d="M0 0 C0 0.99 0 1.98 0 3 C0.556875 3.103125 1.11375 3.20625 1.6875 3.3125 C4.44176578 4.13133577 6.58727657 5.45853781 9 7 C8.67 7.66 8.34 8.32 8 9 C6.02 8.01 4.04 7.02 2 6 C2 5.34 2 4.68 2 4 C1.4225 3.87625 0.845 3.7525 0.25 3.625 C-2.02335767 2.99351176 -3.9253529 2.11141809 -6 1 C-3 0 -3 0 0 0 Z " fill="#453248" transform="translate(282,130)"/>
<path d="M0 0 C0.66 0 1.32 0 2 0 C3.03307771 1.76371818 4.05112049 3.53625033 5.0625 5.3125 C5.63097656 6.29863281 6.19945312 7.28476562 6.78515625 8.30078125 C8 11 8 11 7 14 C5.82807953 12.04480616 4.6626071 10.0857461 3.5 8.125 C2.8503125 7.03445313 2.200625 5.94390625 1.53125 4.8203125 C0 2 0 2 0 0 Z " fill="#22387C" transform="translate(162,258)"/>
<path d="M0 0 C0.66 0 1.32 0 2 0 C0.25 4.875 0.25 4.875 -2 6 C-1.67 7.32 -1.34 8.64 -1 10 C-1.99 9.67 -2.98 9.34 -4 9 C-4 8.34 -4 7.68 -4 7 C-4.66 6.01 -5.32 5.02 -6 4 C-4.68 4 -3.36 4 -2 4 C-1.34 2.68 -0.68 1.36 0 0 Z " fill="#3A2B53" transform="translate(234,197)"/>
<path d="M0 0 C0.66 0 1.32 0 2 0 C3.625 2.5 3.625 2.5 5 5 C2.69 6.32 0.38 7.64 -2 9 C-2 7.35 -2 5.7 -2 4 C-1.34 3.67 -0.68 3.34 0 3 C0 2.01 0 1.02 0 0 Z " fill="#4E4878" transform="translate(339,102)"/>
<path d="M0 0 C2.475 0.99 2.475 0.99 5 2 C4.67 3.65 4.34 5.3 4 7 C3.01 7 2.02 7 1 7 C1 6.34 1 5.68 1 5 C0.34 4.67 -0.32 4.34 -1 4 C-0.34 4 0.32 4 1 4 C0.67 2.68 0.34 1.36 0 0 Z " fill="#403A6B" transform="translate(314,322)"/>
<path d="M0 0 C1.65 1.65 3.3 3.3 5 5 C3.03533587 6.06775224 1.03144641 7.06553465 -1 8 C-1.66 7.67 -2.32 7.34 -3 7 C-2.01 4.69 -1.02 2.38 0 0 Z " fill="#D3A35F" transform="translate(227,201)"/>
<path d="M0 0 C0.99 0.33 1.98 0.66 3 1 C3 1.66 3 2.32 3 3 C3.66 3 4.32 3 5 3 C5.33 5.97 5.66 8.94 6 12 C3.25207517 8.59780735 0 4.51535412 0 0 Z " fill="#453242" transform="translate(308,157)"/>
<path d="M0 0 C0.66 0.33 1.32 0.66 2 1 C1.67 1.99 1.34 2.98 1 4 C0.34 4 -0.32 4 -1 4 C-1.103125 4.763125 -1.20625 5.52625 -1.3125 6.3125 C-2.04364039 9.17059424 -2.76951913 10.15742885 -5 12 C-4.67 10.02 -4.34 8.04 -4 6 C-3.34 6 -2.68 6 -2 6 C-1.855625 5.195625 -1.71125 4.39125 -1.5625 3.5625 C-1 1 -1 1 0 0 Z " fill="#224186" transform="translate(340,250)"/>
<path d="M0 0 C6.875 3.75 6.875 3.75 8 6 C7.34 6 6.68 6 6 6 C6 6.66 6 7.32 6 8 C5.01 8 4.02 8 3 8 C3 6.35 3 4.7 3 3 C2.01 2.67 1.02 2.34 0 2 C0 1.34 0 0.68 0 0 Z " fill="#463049" transform="translate(264,150)"/>
<path d="M0 0 C0.33 1.32 0.66 2.64 1 4 C-0.98 4.99 -0.98 4.99 -3 6 C-3 6.66 -3 7.32 -3 8 C-3.66 8 -4.32 8 -5 8 C-4.67 6.35 -4.34 4.7 -4 3 C-3.34 3 -2.68 3 -2 3 C-2 2.34 -2 1.68 -2 1 C-1.34 0.67 -0.68 0.34 0 0 Z " fill="#575279" transform="translate(153,110)"/>
<path d="M0 0 C0.33 0 0.66 0 1 0 C1 2.64 1 5.28 1 8 C-0.32 7.67 -1.64 7.34 -3 7 C-2.25 2.25 -2.25 2.25 0 0 Z " fill="#232F6B" transform="translate(213,242)"/>
<path d="M0 0 C0.33 1.32 0.66 2.64 1 4 C0.34 4 -0.32 4 -1 4 C-1 4.66 -1 5.32 -1 6 C-2.29233607 7.37310707 -3.62437146 8.71034824 -5 10 C-5.99 9.67 -6.98 9.34 -8 9 C-5.36 6.03 -2.72 3.06 0 0 Z " fill="#D8AA62" transform="translate(276,196)"/>
<path d="M0 0 C2.475 0.99 2.475 0.99 5 2 C4.67 2.99 4.34 3.98 4 5 C3.01 5.33 2.02 5.66 1 6 C1 5.34 1 4.68 1 4 C0.34 4 -0.32 4 -1 4 C-0.67 2.68 -0.34 1.36 0 0 Z " fill="#382B57" transform="translate(210,132)"/>
<path d="M0 0 C1.98 0 3.96 0 6 0 C6 0.66 6 1.32 6 2 C7.2065625 2.433125 7.2065625 2.433125 8.4375 2.875 C11 4 11 4 12 6 C7.53866273 4.86279638 3.79558613 3.64540851 0 1 C0 0.67 0 0.34 0 0 Z " fill="#223F82" transform="translate(284,116)"/>
<path d="M0 0 C3.5786304 1.65167557 6.74820188 3.78286492 10 6 C7 7 7 7 3.875 5.8125 C1 4 1 4 0.125 1.8125 C0.08375 1.214375 0.0425 0.61625 0 0 Z " fill="#69648A" transform="translate(319,86)"/>
<path d="M0 0 C0.75 1.6875 0.75 1.6875 1 4 C-0.9375 6.75 -0.9375 6.75 -3 9 C-3.66 7.02 -4.32 5.04 -5 3 C-4.01 3 -3.02 3 -2 3 C-1.34 2.01 -0.68 1.02 0 0 Z " fill="#5C557E" transform="translate(343,282)"/>
<path d="M0 0 C0.6875 1.75 0.6875 1.75 1 4 C-0.4375 6.25 -0.4375 6.25 -2 8 C-3.32 6.02 -4.64 4.04 -6 2 C-3.03 2.495 -3.03 2.495 0 3 C0 2.01 0 1.02 0 0 Z " fill="#D8A965" transform="translate(201,229)"/>
<path d="M0 0 C0.78375 0.04125 1.5675 0.0825 2.375 0.125 C2.375 0.785 2.375 1.445 2.375 2.125 C1.715 2.125 1.055 2.125 0.375 2.125 C0.375 2.785 0.375 3.445 0.375 4.125 C-2.125 5.75 -2.125 5.75 -4.625 7.125 C-4.75 4.75 -4.75 4.75 -4.625 2.125 C-2.625 0.125 -2.625 0.125 0 0 Z " fill="#EDB056" transform="translate(213.625,211.875)"/>
<path d="M0 0 C1.32 1.32 2.64 2.64 4 4 C2.68 4 1.36 4 0 4 C0 4.66 0 5.32 0 6 C-0.66 6 -1.32 6 -2 6 C-2.33 4.68 -2.66 3.36 -3 2 C-2.01 1.34 -1.02 0.68 0 0 Z " fill="#262C6C" transform="translate(236,190)"/>
<path d="M0 0 C0.99 0 1.98 0 3 0 C4.85776765 3.13498292 5.20140476 5.37471432 5 9 C0.57142857 3.85714286 0.57142857 3.85714286 0 0 Z " fill="#6C6788" transform="translate(234,411)"/>
<path d="M0 0 C0.33 0.99 0.66 1.98 1 3 C0.01 3.99 -0.98 4.98 -2 6 C-3.5 4.625 -3.5 4.625 -5 3 C-5 2.34 -5 1.68 -5 1 C-3.35 0.67 -1.7 0.34 0 0 Z " fill="#273377" transform="translate(253,399)"/>
<path d="M0 0 C2.375 -0.1875 2.375 -0.1875 5 0 C5.66 0.99 6.32 1.98 7 3 C9.05003955 4.19232613 9.05003955 4.19232613 11 5 C4.6 4.50769231 4.6 4.50769231 1.5625 1.9375 C1.046875 1.298125 0.53125 0.65875 0 0 Z " fill="#23377D" transform="translate(213,268)"/>
<path d="M0 0 C0.99 0.33 1.98 0.66 3 1 C2.67 1.66 2.34 2.32 2 3 C2.66 3.33 3.32 3.66 4 4 C1.69 4.33 -0.62 4.66 -3 5 C-1.125 1.125 -1.125 1.125 0 0 Z " fill="#F3B14B" transform="translate(215,208)"/>
<path d="M0 0 C0.33 0 0.66 0 1 0 C1.24915939 1.76813112 1.47366632 3.53974982 1.6875 5.3125 C1.81511719 6.29863281 1.94273437 7.28476563 2.07421875 8.30078125 C2 11 2 11 0.51953125 12.85546875 C0.01808594 13.23316406 -0.48335938 13.61085937 -1 14 C-1.66 13.67 -2.32 13.34 -3 13 C-2.68289063 12.43796875 -2.36578125 11.8759375 -2.0390625 11.296875 C-0.93125475 8.84803683 -0.61024601 6.91612145 -0.375 4.25 C-0.30023438 3.45078125 -0.22546875 2.6515625 -0.1484375 1.828125 C-0.09945313 1.22484375 -0.05046875 0.6215625 0 0 Z " fill="#234580" transform="translate(266,176)"/>
<path d="M0 0 C0.33 0.99 0.66 1.98 1 3 C-0.4375 5.1875 -0.4375 5.1875 -2 7 C-3.32 6.34 -4.64 5.68 -6 5 C-4.02 3.35 -2.04 1.7 0 0 Z " fill="#534E76" transform="translate(168,95)"/>
<path d="M0 0 C-1.32 0.33 -2.64 0.66 -4 1 C-4 1.66 -4 2.32 -4 3 C-6.31 3.66 -8.62 4.32 -11 5 C-4.74206349 -1.42261905 -4.74206349 -1.42261905 0 0 Z " fill="#21377A" transform="translate(210,93)"/>
<path d="M0 0 C0.66 0.33 1.32 0.66 2 1 C1.375 2.9375 1.375 2.9375 0 5 C-3.125 5.75 -3.125 5.75 -6 6 C-4 4 -2 2 0 0 Z " fill="#706B8D" transform="translate(175,89)"/>
<path d="M0 0 C0 0.99 0 1.98 0 3 C-2.5 5.1875 -2.5 5.1875 -5 7 C-5.66 6.67 -6.32 6.34 -7 6 C-4.9859524 2.9789286 -3.36720387 1.39332574 0 0 Z " fill="#1F3C7F" transform="translate(315,246)"/>
<path d="M0 0 C3.33557632 2.9905167 5.15083921 5.93184627 7 10 C5.68 9.34 4.36 8.68 3 8 C3 7.01 3 6.02 3 5 C2.01 4.67 1.02 4.34 0 4 C0 2.68 0 1.36 0 0 Z " fill="#233E83" transform="translate(181,240)"/>
<path d="M0 0 C1.65 0 3.3 0 5 0 C3.63016497 3.16115776 3.0109362 3.9927092 0 6 C0 4.02 0 2.04 0 0 Z " fill="#392B49" transform="translate(269,198)"/>
<path d="M0 0 C3.14737182 0.69941596 6.02588876 1.76078698 9 3 C9 3.66 9 4.32 9 5 C9.66 5.33 10.32 5.66 11 6 C10.01 6 9.02 6 8 6 C7.67 5.34 7.34 4.68 7 4 C4.6859378 3.26924352 2.35171131 2.59861742 0 2 C0 1.34 0 0.68 0 0 Z " fill="#244086" transform="translate(299,97)"/>
<path d="M0 0 C1.32 0 2.64 0 4 0 C3.42655063 2.86724686 3.1385485 3.8614515 1 6 C0 5 0 5 -0.0625 2.4375 C-0.041875 1.633125 -0.02125 0.82875 0 0 Z " fill="#564F77" transform="translate(267,403)"/>
<path d="M0 0 C1.32 0 2.64 0 4 0 C3.34 1.98 2.68 3.96 2 6 C1.67 5.34 1.34 4.68 1 4 C0.34 4 -0.32 4 -1 4 C-0.67 2.68 -0.34 1.36 0 0 Z " fill="#57517D" transform="translate(275,390)"/>
<path d="M0 0 C2.79872437 2.52788007 4.45773019 4.20411134 5 8 C2 7 2 7 0 4 C0 2.68 0 1.36 0 0 Z " fill="#222E71" transform="translate(194,312)"/>
<path d="M0 0 C2.90696099 1.06588569 3.84432962 1.70348499 5.3125 4.5 C6 7 6 7 5 9 C4.16396622 7.68921847 3.3312426 6.37632511 2.5 5.0625 C2.0359375 4.33160156 1.571875 3.60070312 1.09375 2.84765625 C0 1 0 1 0 0 Z " fill="#777293" transform="translate(171,309)"/>
<path d="M0 0 C2.52259061 1.97420135 2.9929808 2.96745642 3.6875 6.1875 C3.790625 7.115625 3.89375 8.04375 4 9 C3.01 8.67 2.02 8.34 1 8 C0.67 5.36 0.34 2.72 0 0 Z " fill="#2B7DAE" transform="translate(281,233)"/>
<path d="M0 0 C0.33 0.66 0.66 1.32 1 2 C2.65 2 4.3 2 6 2 C4.515 4.475 4.515 4.475 3 7 C0 3.375 0 3.375 0 0 Z " fill="#DDAC69" transform="translate(298,230)"/>
<path d="M0 0 C2.75 -0.3125 2.75 -0.3125 6 0 C8.375 2.5 8.375 2.5 10 5 C6.08788267 3.84414715 3.1254959 2.64465038 0 0 Z " fill="#DCA962" transform="translate(273,207)"/>
<path d="M0 0 C0.33 0 0.66 0 1 0 C0.67 2.97 0.34 5.94 0 9 C-0.99 9 -1.98 9 -3 9 C-2.01 6.03 -1.02 3.06 0 0 Z " fill="#DCAA5F" transform="translate(280,187)"/>
<path d="M0 0 C0.66 0.33 1.32 0.66 2 1 C1.34 2.98 0.68 4.96 0 7 C-0.99 6.01 -1.98 5.02 -3 4 C-2.67 3.01 -2.34 2.02 -2 1 C-1.34 0.67 -0.68 0.34 0 0 Z " fill="#504A7A" transform="translate(242,417)"/>
<path d="M0 0 C0.99 0.66 1.98 1.32 3 2 C3.1875 4.625 3.1875 4.625 3 7 C1.35 5.68 -0.3 4.36 -2 3 C-1.34 2.01 -0.68 1.02 0 0 Z " fill="#2C235C" transform="translate(339,280)"/>
<path d="M0 0 C0.33 0.66 0.66 1.32 1 2 C0.34 2 -0.32 2 -1 2 C-1 3.32 -1 4.64 -1 6 C-2.98 6.99 -2.98 6.99 -5 8 C-4.45773019 4.20411134 -2.79872437 2.52788007 0 0 Z " fill="#242E6F" transform="translate(322,234)"/>
<path d="M0 0 C3.80666984 1.44390925 5.26602582 3.34952803 7 7 C6.67 7.66 6.34 8.32 6 9 C4.99712471 7.68969568 3.99777175 6.37669473 3 5.0625 C2.443125 4.33160156 1.88625 3.60070312 1.3125 2.84765625 C0 1 0 1 0 0 Z " fill="#412C42" transform="translate(221,192)"/>
<path d="M0 0 C1.98 0 3.96 0 6 0 C6.33 1.98 6.66 3.96 7 6 C5.83054208 5.19152271 4.66449539 4.37810888 3.5 3.5625 C2.8503125 3.11003906 2.200625 2.65757812 1.53125 2.19140625 C1.0259375 1.79824219 0.520625 1.40507812 0 1 C0 0.67 0 0.34 0 0 Z " fill="#EFB44E" transform="translate(270,153)"/>
<path d="M0 0 C0 3 0 3 -2.5 5.6875 C-3.325 6.450625 -4.15 7.21375 -5 8 C-3.375 2.25 -3.375 2.25 0 0 Z " fill="#233676" transform="translate(187,136)"/>
<path d="M0 0 C2.16874252 0.50603992 3.99967627 0.99983813 6 2 C6 2.66 6 3.32 6 4 C6.66 4 7.32 4 8 4 C8 4.66 8 5.32 8 6 C4.08597051 4.73058503 2.20927127 3.48832306 0 0 Z " fill="#233D81" transform="translate(296,122)"/>
<path d="M0 0 C3.63 0.66 7.26 1.32 11 2 C7 4 7 4 3.25 3.125 C2.1775 2.75375 1.105 2.3825 0 2 C0 1.34 0 0.68 0 0 Z " fill="#1E4689" transform="translate(277,89)"/>
</svg>
